<svg xmlns="http://www.w3.org/2000/svg" width="132mm" height="97.6mm" viewBox="0 0 132 97.6"><defs><marker id="a" markerHeight="6.71" markerWidth="4.06" orient="auto-start-reverse" overflow="visible" preserveAspectRatio="xMidYMid" viewBox="0 0 4.06 6.71"><path fill="none" stroke="context-stroke" d="m-2.75 3 3-3-3-3"/></marker></defs><g style="paint-order:markers fill stroke"><g fill="none" stroke-width="2"><path stroke="#888" d="M2 56.2h128"/><path stroke="#fff" d="M63.5 54.2h11.8"/><path stroke="#585858" d="M52 54.2h11.8"/><path stroke="#aaa" d="M2 54.2h50m23.2 0H130"/></g><g stroke="#c7bf49" stroke-linecap="round" stroke-width="2" transform="translate(-31.659 -60.9)"><circle cx="51.6" cy="80.8" r="8.74" fill="none"/><path d="M51.6 91.5v8.31M57.1 90l4.23 7.15M60.9 86.1l7.22 4.12M62.3 80.8h8.31m-9.81-5.4 7.15-4.23m-11.05.43 4.12-7.22M51.6 70.2v-8.31m-5.4 9.81-4.23-7.15m.43 11.05-7.22-4.12M41 80.8h-8.31m9.81 5.5-7.15 4.23m11.05-.43-4.12 7.22"/></g><path fill="none" stroke="#882a2a" stroke-dasharray="1, 2" stroke-linecap="round" marker-start="url(#a)" d="m107 108 13.8-13.7" transform="translate(-31.8 -60.9)"/><path fill="#c7bf49" stroke="#c7bf49" stroke-dasharray="1, 2" stroke-linecap="round" marker-end="url(#a)" d="m60.7 88.3 20.1 20.2" transform="translate(-31.8 -60.9)"/><g fill="none" stroke-width="2"><path stroke="#888" d="M2 76h50l11.4 19.8L74.8 76H130"/><path stroke="#aaa" d="M2 74h50m23.2 0H130"/><path stroke="#fff" stroke-linecap="round" d="m63.5 93 11.4-19"/><path stroke="#585858" stroke-linecap="round" d="m52 74 11.4 19.3"/></g><g fill="none" stroke="#882a2a" stroke-linecap="round" stroke-width="2.19" transform="rotate(142.5 68.722 8.908)scale(.684 -.684)"><path d="M57.6 25.2h29.3v18.1H57.6zm29.6 13.2 15.5 4.87v-18.1l-15.5 4.28"/><circle cx="65.2" cy="18.9" r="10.4"/><circle cx="77.6" cy="18.9" r="10.4"/></g><text xml:space="preserve" fill="#d2d2d2" font-family="'Fira Sans',sans-serif" font-size="6.09" transform="translate(-31.8 -60.9)"><tspan x="33.5" y="112">Normal mapping</tspan></text><text xml:space="preserve" fill="#d2d2d2" font-family="'Fira Sans',sans-serif" font-size="6.09" transform="translate(-31.8 -60.9)"><tspan x="33.5" y="132">Normal &amp; parallax mapping</tspan></text></g></svg>