<svg xmlns="http://www.w3.org/2000/svg" width="242" height="197.23" viewBox="0 0 242 197.23"><path d="M204.99 71.12 184.5 35.65h41.02Z" data-name="Triangle 4" style="fill-rule:evenodd;stroke-linejoin:round;fill:#0086e8;stroke:#0086e8;stroke-width:.34029"/><path d="M204.99.17 184.5 35.65h41.02z" data-name="Triangle 5" style="fill-rule:evenodd;stroke-linejoin:round;fill:#0093ff;stroke:#0093ff;stroke-width:.34029"/><path d="m164.03 142.07-40.97-70.95H205z" data-name="Triangle 3" style="fill-rule:evenodd;stroke-linejoin:round;fill:#0076cc;stroke:#0076cc;stroke-width:.34029"/><path d="m164.03.17-40.97 70.95H205z" data-name="Triangle 2" style="fill-rule:evenodd;stroke-linejoin:round;fill:#0066b0;stroke:#0066b0;stroke-width:.34029"/><path d="M82.1 142.07.17.17h163.85Z" data-name="Triangle 1" style="fill-rule:evenodd;stroke-linejoin:round;fill:#005a9c;stroke:#005a9c;stroke-width:.34029"/><path d="m49.13 156.86-8.74 33.67-9.15-33.67h-5.83l-9.6 33.79-8.7-33.79H1.58l11.15 39.9 5.77-.05 9.6-32.07 9.27 32.07h5.83l11.55-39.85zm39.9 22.98a16 16 0 0 0-1.85-7.69 13.5 13.5 0 0 0-5.3-5.34 16 16 0 0 0-7.88-1.94 16 16 0 0 0-8.09 1.97 13.6 13.6 0 0 0-5.46 5.63q-1.94 3.66-1.94 8.52t2 8.54a14 14 0 0 0 5.52 5.7 16 16 0 0 0 7.97 2q5.6 0 9.37-2.84a13.5 13.5 0 0 0 5.03-7.34h-5.6a8.3 8.3 0 0 1-3.17 4.2q-2.26 1.57-5.63 1.57a10 10 0 0 1-7-2.6q-2.89-2.6-3.18-7.23h25.04a31 31 0 0 0 .17-3.14zm-5.37-1.08H63.88q.4-4.46 3.17-6.98a9.6 9.6 0 0 1 6.72-2.51 11 11 0 0 1 5 1.11 8.6 8.6 0 0 1 3.58 3.26 9.6 9.6 0 0 1 1.31 5.12m17.43-7.55v-16.8h-5.2v42.3h5.2v-5.78a12 12 0 0 0 4.6 4.52 14 14 0 0 0 7.12 1.77 14.3 14.3 0 0 0 12.92-7.83 18 18 0 0 0 1.95-8.46q0-4.8-1.95-8.43a14 14 0 0 0-5.31-5.63 14.6 14.6 0 0 0-7.6-2 14 14 0 0 0-7.04 1.77 12.3 12.3 0 0 0-4.69 4.57m21.27 9.72a13 13 0 0 1-1.43 6.26 10 10 0 0 1-3.86 4.06 10.5 10.5 0 0 1-5.34 1.4 10.4 10.4 0 0 1-5.3-1.4 10 10 0 0 1-3.88-4.06 13.8 13.8 0 0 1 0-12.35 10 10 0 0 1 3.89-4.06 10.4 10.4 0 0 1 5.29-1.4 10.7 10.7 0 0 1 5.34 1.37 10 10 0 0 1 3.86 4 13 13 0 0 1 1.43 6.18m48.59-12.52a18 18 0 0 0-7.12-8.86q-4.89-3.14-11.23-3.14a20 20 0 0 0-10.12 2.6 19 19 0 0 0-7.23 7.26 22 22 0 0 0 0 20.95 19 19 0 0 0 7.23 7.23 20 20 0 0 0 10.12 2.6 19.4 19.4 0 0 0 9.55-2.37 19 19 0 0 0 6.91-6.46 20 20 0 0 0 3.09-9v-4H150.7v4.22h15.9q-.64 5.95-4.4 9.43-3.78 3.49-9.61 3.5a15 15 0 0 1-7.52-1.92 13.6 13.6 0 0 1-5.26-5.46q-1.91-3.55-1.91-8.23 0-4.7 1.91-8.26a13.5 13.5 0 0 1 5.26-5.5 15 15 0 0 1 7.52-1.9 14 14 0 0 1 7.32 1.9 12.4 12.4 0 0 1 4.8 5.41zm34.7.11q0-5.14-3.52-8.4-3.51-3.26-10.26-3.26h-12.86v39.85h5.2v-16.64h7.66q6.97 0 10.37-3.29 3.4-3.28 3.4-8.26m-13.78 7.26h-7.66v-14.63h7.66q8.46 0 8.46 7.38 0 3.48-2.06 5.37-2.06 1.88-6.4 1.89zm20.12-18.92v25.16q0 4.97 1.98 8.37a12.4 12.4 0 0 0 5.37 5.06 18.4 18.4 0 0 0 15.26 0 12.6 12.6 0 0 0 5.4-5.06q2-3.4 2-8.37v-25.16h-5.2v25.21q0 5.32-2.6 7.9-2.6 2.56-7.17 2.56-4.63 0-7.24-2.57-2.6-2.57-2.6-7.89v-25.2z" style="fill-rule:evenodd;stroke-width:.34029"/></svg>