<svg xmlns="http://www.w3.org/2000/svg" xml:space="preserve" width="160mm" height="90mm" stroke-linejoin="round" stroke-width="28.22" viewBox="0 0 16000 9000"><path fill="#004586" d="M10178 8158h3658V7034h-3658z" style="fill:#4a96dc;fill-opacity:1"/><path fill="#004586" d="M2863 8158h3658V1089H2863z" style="fill:#474747;fill-opacity:1"/><path fill="none" stroke="#b3b3b3" d="M1034 8308v-150m0 150v-150" style="fill:none;fill-opacity:1;stroke:#ececec;stroke-opacity:1"/><path fill="none" stroke="#b3b3b3" d="M8349 8308v-150m0 150v-150m7317 150v-150m0 150v-150m-14632 0h14632" style="stroke:#ececec;stroke-opacity:1"/><path fill="none" stroke="#b3b3b3" d="M884 8158h150m-150 0h150m-150-780h150m-150 0h150m-150-779h150m-150 0h150m-150-780h150m-150 0h150m-150-779h150m-150 0h150m-150-778h150m-150 0h150m-150-780h150m-150 0h150m-150-779h150m-150 0h150m-150-780h150m-150 0h150m-150-779h150m-150 0h150M884 365h150m-150 0h150m0 7793V365" style="fill:none;fill-opacity:1;stroke:#ececec;stroke-opacity:1"/><g aria-label="Bevy 0.7(stable sort)" class="SVGTextShape" style="fill:#ececec;fill-opacity:1"><path d="M3307.83 8657.57q0 32.4-23.61 50.5-23.61 17.93-65.67 17.93h-98.6v-242.86h88.26q85.49 0 85.49 58.95 0 21.54-12.07 36.2-12.06 14.65-34.12 19.64 28.95 3.45 44.64 19.48 15.68 15.86 15.68 40.16m-47.22-111.52q0-19.65-13.45-28.1-13.44-8.44-38.95-8.44h-55.33v76.88h55.33q26.37 0 39.3-9.83 13.1-10 13.1-30.5m13.96 108.94q0-42.92-60.33-42.92h-61.36v87.56h63.95q30.16 0 43.95-11.2t13.79-33.44m99.45-15.7q0 32.06 13.27 49.47t38.78 17.4q20.17 0 32.24-8.1 12.23-8.1 16.54-20.5l27.24 7.75q-16.72 44.13-76.02 44.13-41.36 0-63.08-24.65-21.55-24.65-21.55-73.26 0-46.19 21.55-70.84 21.72-24.64 61.88-24.64 82.22 0 82.22 99.1v4.14zm101-23.78q-2.58-29.48-14.99-42.92-12.41-13.62-35.68-13.62-22.58 0-35.85 15.17-13.1 15-14.13 41.37zM3628.43 8726h-36.71l-67.74-186.5h33.09l41.02 121.35q2.24 6.9 11.9 40.85l6.03-20.17 6.72-20.34 42.4-121.69h32.92zm103.77 73.25q-12.76 0-21.38-1.9v-23.26q6.55 1.03 14.48 1.03 28.95 0 45.85-42.57l2.93-7.41-73.95-185.64h33.1l39.3 103.08q.86 2.4 2.06 5.86 1.2 3.27 7.76 22.4 6.55 19.14 7.07 21.38l12.06-33.96 40.85-118.76h32.75l-71.7 186.5q-11.55 29.82-21.55 44.3-10 14.65-22.23 21.72-12.07 7.23-27.4 7.23m424.18-194.77q0 60.85-21.55 92.9-21.37 32.07-63.26 32.07t-62.9-31.89q-21.04-31.89-21.04-93.08 0-62.56 20.34-93.76 20.51-31.2 64.64-31.2 42.92 0 63.26 31.54 20.5 31.55 20.5 93.42m-31.54 0q0-52.57-12.24-76.18-12.07-23.61-40-23.61-28.6 0-41.19 23.26-12.4 23.27-12.4 76.53 0 51.71 12.58 75.67 12.75 23.96 40.33 23.96 27.4 0 40.16-24.48 12.76-24.47 12.76-75.15M4202.4 8726v-37.75h33.6V8726Zm244.41-217.7q-37.23 56.89-52.57 89.12t-23.1 63.6q-7.58 31.37-7.58 64.98h-32.4q0-46.54 19.64-97.9 19.82-51.54 66.02-118.59h-130.48v-26.37h160.47zm39.64 126q0-49.81 15.52-89.45 15.68-39.65 48.09-74.64h29.99q-32.24 35.85-47.4 76.19-15 40.33-15 88.25 0 47.74 14.82 87.9 15 40.16 47.58 76.53h-30q-32.57-35.16-48.08-74.8-15.52-39.82-15.52-89.29zm259.41 40.16q0 26.38-20 40.68-19.82 14.3-55.67 14.3-34.81 0-53.77-11.37-18.8-11.55-24.48-35.85l27.4-5.34q3.97 15 16.38 22.06 12.41 6.9 34.47 6.9 23.62 0 34.48-7.25 11.03-7.23 11.03-21.71 0-11.03-7.59-17.93t-24.47-11.38l-22.24-5.86q-26.71-6.89-38.09-13.44-11.2-6.72-17.58-16.2t-6.38-23.27q0-25.51 18.1-38.78 18.27-13.45 53.09-13.45 30.85 0 48.95 10.86 18.27 10.86 23.1 34.82l-27.93 3.45q-2.58-12.41-13.96-18.96-11.2-6.73-30.16-6.73-21.03 0-31.03 6.38t-10 19.3q0 7.94 4.14 13.1 4.14 5.18 12.24 8.8t34.13 10q24.65 6.2 35.5 11.54 10.86 5.17 17.07 11.55 6.38 6.38 9.82 14.82 3.45 8.28 3.45 18.96m108.24 50.16q-15.34 4.14-31.37 4.14-37.23 0-37.23-42.23v-124.45h-21.54v-22.58h22.75l9.14-41.7h20.68v41.7H4851v22.58h-34.47v117.73q0 13.44 4.3 18.96 4.49 5.34 15.35 5.34 6.2 0 17.92-2.41zm73.95 4.83q-28.1 0-42.23-14.83t-14.13-40.67q0-28.96 18.96-44.47 19.13-15.52 61.53-16.55l41.88-.69v-10.17q0-22.75-9.65-32.58t-30.34-9.82q-20.85 0-30.33 7.07-9.48 7.06-11.38 22.58l-32.4-2.93q7.93-50.33 74.8-50.33 35.17 0 52.92 16.2 17.75 16.03 17.75 46.54v80.32q0 13.79 3.62 20.85 3.62 6.9 13.8 6.9 4.47 0 10.16-1.2v19.3q-11.72 2.75-23.96 2.75-17.23 0-25.16-8.96-7.76-9.13-8.8-28.44h-1.03q-11.89 21.37-27.75 30.34-15.68 8.79-38.26 8.79m7.06-23.27q17.07 0 30.34-7.76t20.86-21.2q7.75-13.62 7.75-27.92v-15.34l-33.95.69q-21.9.34-33.27 4.48-11.2 4.14-17.24 12.75t-6.03 22.58q0 15.17 8.1 23.44 8.28 8.28 23.44 8.28m299.4-74.29q0 97.56-68.6 97.56-21.2 0-35.34-7.59-13.96-7.75-22.75-24.82h-.34q0 5.35-.7 16.38-.68 10.86-1.03 12.58h-29.99q1.04-9.3 1.04-38.44v-217.35h31.02v72.91q0 11.2-.69 26.37h.7q8.61-17.92 22.74-25.68 14.31-7.75 35.34-7.75 35.33 0 51.88 23.78 16.72 23.79 16.72 72.05m-32.58 1.03q0-39.12-10.34-56.01t-33.61-16.9q-26.2 0-38.26 17.93-11.9 17.93-11.9 56.88 0 36.71 11.72 54.3 11.72 17.4 38.1 17.4 23.44 0 33.78-17.23 10.51-17.41 10.51-56.37m71.19 93.08v-255.79h31.02V8726Zm102.21-86.7q0 32.06 13.27 49.47t38.78 17.4q20.17 0 32.24-8.1 12.23-8.1 16.54-20.5l27.24 7.75q-16.72 44.13-76.02 44.13-41.36 0-63.08-24.65-21.55-24.65-21.55-73.26 0-46.19 21.55-70.84 21.72-24.64 61.88-24.64 82.21 0 82.21 99.1v4.14zm101-23.78q-2.58-29.48-14.99-42.92-12.41-13.62-35.68-13.62-22.58 0-35.85 15.17-13.1 15-14.13 41.37zm309.57 58.94q0 26.38-20 40.68-19.82 14.3-55.67 14.3-34.81 0-53.77-11.37-18.8-11.55-24.48-35.85l27.4-5.34q3.97 15 16.38 22.06 12.41 6.9 34.47 6.9 23.62 0 34.48-7.25 11.03-7.23 11.03-21.71 0-11.03-7.59-17.93t-24.47-11.38l-22.24-5.86q-26.71-6.89-38.09-13.44-11.2-6.72-17.58-16.2t-6.38-23.27q0-25.51 18.1-38.78 18.27-13.45 53.09-13.45 30.85 0 48.95 10.86 18.27 10.86 23.1 34.82l-27.93 3.45q-2.58-12.41-13.96-18.96-11.2-6.73-30.16-6.73-21.03 0-31.03 6.38t-10 19.3q0 7.94 4.14 13.1 4.14 5.18 12.24 8.8t34.13 10q24.65 6.2 35.5 11.54 10.86 5.17 17.07 11.55 6.38 6.38 9.82 14.82 3.45 8.28 3.45 18.96m194.25-41.88q0 48.95-21.54 72.9-21.55 23.97-62.57 23.97-40.85 0-61.7-24.82-20.86-25-20.86-72.05 0-96.52 83.6-96.52 42.74 0 62.9 23.6 20.17 23.45 20.17 72.92m-32.57 0q0-38.61-11.55-56.02-11.38-17.58-38.44-17.58-27.23 0-39.47 17.93-12.07 17.75-12.07 55.67 0 36.88 11.9 55.5 12.06 18.44 37.75 18.44 27.92 0 39.81-17.92 12.07-17.93 12.07-56.02m71.87 93.42v-143.06q0-19.65-1.03-43.44h29.3q1.38 31.72 1.38 38.1h.69q7.41-23.96 17.06-32.75 9.65-8.8 27.24-8.8 6.2 0 12.58 1.73v28.44q-6.2-1.72-16.55-1.72-19.3 0-29.47 16.71-10.17 16.55-10.17 47.58V8726Zm188.57-1.38q-15.34 4.14-31.37 4.14-37.23 0-37.23-42.23v-124.45h-21.55v-22.58h22.75l9.14-41.7h20.68v41.7h34.48v22.58h-34.48v117.73q0 13.44 4.31 18.96 4.48 5.34 15.34 5.34 6.2 0 17.93-2.41zm98.24-89.62q0 49.8-15.68 89.45-15.51 39.64-47.92 74.63h-29.99q32.4-36.2 47.4-76.18 15-40.16 15-88.25t-15.17-88.25q-15-40.16-47.23-76.19h30q32.57 35.17 48.08 74.98 15.51 39.64 15.51 89.11z" style="white-space:pre;fill:#ececec;fill-opacity:1"/></g><g aria-label="Bevy 0.8 (radix sort)" class="SVGTextShape" style="fill:#ececec;fill-opacity:1"><path d="M10663.83 8657.57q0 32.4-23.61 50.5-23.61 17.93-65.67 17.93h-98.6v-242.86h88.26q85.49 0 85.49 58.95 0 21.54-12.07 36.2-12.06 14.65-34.12 19.64 28.95 3.45 44.64 19.48 15.68 15.86 15.68 40.16m-47.22-111.52q0-19.65-13.45-28.1-13.44-8.44-38.95-8.44h-55.33v76.88h55.33q26.37 0 39.3-9.83 13.1-10 13.1-30.5m13.96 108.94q0-42.92-60.33-42.92h-61.36v87.56h63.95q30.16 0 43.95-11.2t13.79-33.44m99.45-15.7q0 32.06 13.27 49.47t38.78 17.4q20.17 0 32.24-8.1 12.23-8.1 16.54-20.5l27.24 7.75q-16.72 44.13-76.02 44.13-41.36 0-63.08-24.65-21.55-24.65-21.55-73.26 0-46.19 21.55-70.84 21.72-24.64 61.88-24.64 82.22 0 82.22 99.1v4.14zm101-23.78q-2.58-29.48-14.99-42.92-12.41-13.62-35.68-13.62-22.58 0-35.85 15.17-13.1 15-14.14 41.37zm153.41 110.48h-36.72l-67.73-186.5h33.09l41.02 121.35q2.24 6.9 11.9 40.85l6.03-20.17 6.72-20.34 42.4-121.69h32.92zm103.77 73.25q-12.76 0-21.38-1.9v-23.26q6.55 1.03 14.48 1.03 28.95 0 45.85-42.57l2.93-7.41-73.95-185.64h33.1l39.3 103.08q.86 2.4 2.06 5.86 1.2 3.27 7.76 22.4 6.55 19.14 7.07 21.38l12.06-33.96 40.85-118.76h32.75l-71.7 186.5q-11.55 29.82-21.55 44.3-10 14.65-22.23 21.72-12.07 7.23-27.4 7.23m424.18-194.77q0 60.85-21.55 92.9-21.37 32.07-63.25 32.07-41.89 0-62.92-31.89t-21.03-93.08q0-62.56 20.34-93.76 20.51-31.2 64.64-31.2 42.92 0 63.26 31.54 20.5 31.55 20.5 93.42m-31.54 0q0-52.57-12.24-76.18-12.07-23.61-40-23.61-28.6 0-41.19 23.26-12.4 23.27-12.4 76.53 0 51.71 12.58 75.67 12.75 23.96 40.33 23.96 27.4 0 40.16-24.48 12.76-24.47 12.76-75.15m77.57 121.52v-37.75h33.6V8726Zm246.82-67.74q0 33.61-21.37 52.4t-61.36 18.79q-38.96 0-61.02-18.45-21.89-18.44-21.89-52.4 0-23.78 13.62-39.98t34.82-19.65v-.7q-19.83-4.65-31.37-20.16-11.38-15.51-11.38-36.37 0-27.75 20.68-44.98 20.86-17.24 55.85-17.24 35.85 0 56.53 16.9 20.86 16.88 20.86 45.67 0 20.85-11.55 36.37t-31.54 19.47v.7q23.27 3.79 36.2 19.82 12.92 15.85 12.92 39.81m-38.26-114.45q0-41.2-45.16-41.2-21.9 0-33.44 10.35-11.38 10.34-11.38 30.85 0 20.86 11.73 31.89 11.89 10.86 33.43 10.86 21.9 0 33.27-10 11.55-10.17 11.55-32.75m6.03 111.52q0-22.58-13.44-33.95-13.45-11.55-37.75-11.55-23.61 0-36.89 12.4-13.27 12.25-13.27 33.8 0 50.15 51.2 50.15 25.33 0 37.74-12.07 12.41-12.23 12.41-38.78m167.54-21.03q0-49.81 15.51-89.45 15.69-39.65 48.09-74.64h30q-32.24 35.85-47.4 76.19-15 40.33-15 88.25 0 47.74 14.82 87.9 15 40.16 47.57 76.53h-29.99q-32.58-35.16-48.09-74.8-15.51-39.82-15.51-89.29zm120.14 91.7v-143.06q0-19.65-1.04-43.44h29.3q1.38 31.72 1.38 38.1h.7q7.4-23.96 17.06-32.75 9.65-8.8 27.23-8.8 6.2 0 12.58 1.73v28.44q-6.2-1.72-16.55-1.72-19.3 0-29.47 16.71-10.17 16.55-10.17 47.58V8726Zm164.43 3.45q-28.1 0-42.23-14.83t-14.13-40.67q0-28.96 18.96-44.47 19.13-15.52 61.53-16.55l41.89-.69v-10.17q0-22.75-9.66-32.58t-30.33-9.82q-20.86 0-30.34 7.07-9.48 7.06-11.37 22.58l-32.41-2.93q7.93-50.33 74.8-50.33 35.17 0 52.92 16.2 17.76 16.03 17.76 46.54v80.32q0 13.79 3.61 20.85 3.62 6.9 13.8 6.9 4.48 0 10.16-1.2v19.3q-11.72 2.75-23.96 2.75-17.23 0-25.16-8.96-7.76-9.13-8.8-28.44h-1.02q-11.9 21.37-27.76 30.34-15.68 8.79-38.26 8.79m7.07-23.27q17.06 0 30.33-7.76t20.86-21.2q7.75-13.62 7.75-27.92v-15.34l-33.95.69q-21.9.34-33.27 4.48-11.2 4.14-17.23 12.75t-6.04 22.58q0 15.17 8.1 23.44 8.28 8.28 23.45 8.28m259.4-10.18q-8.61 17.93-22.92 25.7-14.14 7.75-35.16 7.75-35.34 0-52.06-23.79-16.54-23.79-16.54-72.05 0-97.55 68.6-97.55 21.2 0 35.33 7.75 14.14 7.76 22.75 24.65h.35l-.35-20.86v-77.39h31.03v217.35q0 29.13 1.03 38.44H12494q-.52-2.76-1.21-12.75-.52-10-.52-17.24zm-94.1-63.42q0 39.13 10.34 56.02t33.6 16.89q26.38 0 38.27-18.27t11.9-56.7q0-37.07-11.9-54.3-11.9-17.24-37.92-17.24-23.44 0-33.95 17.4-10.35 17.24-10.35 56.2m172.54-132.72v-29.65h31.02v29.65zm0 226.14v-186.5h31.02V8726Zm192.87 0-50.16-76.53-50.5 76.53h-33.44l66.36-95.83-63.25-90.67h34.3l46.53 72.57 46.2-72.57h34.64l-63.25 90.32 67.22 96.18zm300.26-51.54q0 26.38-20 40.68-19.82 14.3-55.67 14.3-34.82 0-53.78-11.37-18.78-11.55-24.47-35.85l27.4-5.34q3.97 15 16.38 22.06 12.41 6.9 34.47 6.9 23.62 0 34.47-7.25 11.04-7.23 11.04-21.71 0-11.03-7.59-17.93t-24.47-11.38l-22.24-5.86q-26.71-6.89-38.09-13.44-11.2-6.72-17.58-16.2t-6.38-23.27q0-25.51 18.1-38.78 18.27-13.45 53.09-13.45 30.85 0 48.95 10.86 18.27 10.86 23.1 34.82l-27.93 3.45q-2.58-12.41-13.96-18.96-11.2-6.73-30.16-6.73-21.03 0-31.03 6.38t-10 19.3q0 7.94 4.14 13.1 4.14 5.18 12.24 8.8t34.13 10q24.64 6.2 35.5 11.54 10.86 5.17 17.07 11.55 6.37 6.38 9.82 14.82 3.45 8.28 3.45 18.96m194.25-41.88q0 48.95-21.54 72.9-21.55 23.97-62.57 23.97-40.85 0-61.7-24.82-20.86-25-20.86-72.05 0-96.52 83.6-96.52 42.74 0 62.9 23.6 20.17 23.45 20.17 72.92m-32.57 0q0-38.61-11.55-56.02-11.38-17.58-38.44-17.58-27.23 0-39.47 17.93-12.06 17.75-12.06 55.67 0 36.88 11.89 55.5 12.06 18.44 37.74 18.44 27.93 0 39.82-17.92 12.07-17.93 12.07-56.02m71.87 93.42v-143.06q0-19.65-1.03-43.44h29.3q1.38 31.72 1.38 38.1h.69q7.41-23.96 17.06-32.75 9.65-8.8 27.24-8.8 6.2 0 12.58 1.73v28.44q-6.2-1.72-16.55-1.72-19.3 0-29.47 16.71-10.17 16.55-10.17 47.58V8726Zm188.57-1.38q-15.34 4.14-31.37 4.14-37.23 0-37.23-42.23v-124.45h-21.55v-22.58h22.75l9.14-41.7h20.68v41.7h34.48v22.58h-34.48v117.73q0 13.44 4.31 18.96 4.48 5.34 15.34 5.34 6.2 0 17.93-2.41zm98.25-89.62q0 49.8-15.69 89.45-15.51 39.64-47.92 74.63h-29.99q32.4-36.2 47.4-76.18 15-40.16 15-88.25t-15.17-88.25q-15-40.16-47.23-76.19h30q32.57 35.17 48.08 74.98 15.52 39.64 15.52 89.11z" style="white-space:pre;fill:#ececec;fill-opacity:1"/></g><g aria-label="0" class="SVGTextShape" style="stroke:none;stroke-opacity:1;fill:#ececec;fill-opacity:1"><path d="M781.53 8157.48q0 60.85-21.54 92.9-21.38 32.07-63.26 32.07t-62.91-31.89-21.03-93.08q0-62.56 20.34-93.76 20.5-31.2 64.63-31.2 42.92 0 63.26 31.54 20.51 31.55 20.51 93.42m-31.54 0q0-52.57-12.24-76.18-12.06-23.61-39.99-23.61-28.6 0-41.2 23.26-12.4 23.27-12.4 76.53 0 51.71 12.58 75.67 12.76 23.96 40.33 23.96 27.41 0 40.17-24.48 12.75-24.47 12.75-75.15" style="white-space:pre;stroke:none;stroke-opacity:1;fill:#ececec;fill-opacity:1"/></g><g aria-label=".1" class="SVGTextShape" style="stroke:none;stroke-opacity:1;fill:#ececec;fill-opacity:1"><path d="M490.53 7377.48q0 60.85-21.54 92.9-21.38 32.07-63.26 32.07t-62.91-31.89-21.03-93.08q0-62.56 20.34-93.76 20.5-31.2 64.63-31.2 42.92 0 63.26 31.54 20.51 31.55 20.51 93.42m-31.54 0q0-52.57-12.24-76.18-12.06-23.61-39.99-23.61-28.6 0-41.2 23.26-12.4 23.27-12.4 76.53 0 51.71 12.58 75.67 12.76 23.96 40.33 23.96 27.41 0 40.17-24.48 12.75-24.47 12.75-75.15M536.55 7499v-37.75h33.61V7499Zm92.74 0v-26.37h61.87v-186.84l-54.8 39.12v-29.3l57.39-39.47h28.61v216.49h59.12V7499Z" style="white-space:pre;stroke:none;stroke-opacity:1;fill:#ececec;fill-opacity:1"/></g><g aria-label=".2" class="SVGTextShape" style="stroke:none;stroke-opacity:1;fill:#ececec;fill-opacity:1"><path d="M490.53 6598.48q0 60.85-21.54 92.9-21.38 32.07-63.26 32.07t-62.91-31.89-21.03-93.08q0-62.56 20.34-93.76 20.5-31.2 64.63-31.2 42.92 0 63.26 31.54 20.51 31.55 20.51 93.42m-31.54 0q0-52.57-12.24-76.18-12.06-23.61-39.99-23.61-28.6 0-41.2 23.26-12.4 23.27-12.4 76.53 0 51.71 12.58 75.67 12.76 23.96 40.33 23.96 27.41 0 40.17-24.48 12.75-24.47 12.75-75.15M536.55 6720v-37.75h33.61V6720Zm83.6 0v-21.89q8.79-20.17 21.37-35.5 12.76-15.52 26.72-27.93 13.96-12.58 27.58-23.27 13.79-10.69 24.82-21.37t17.75-22.4q6.9-11.73 6.9-26.55 0-20-11.73-31.03T701 6499.03q-19.82 0-32.75 10.86-12.76 10.69-15 30.16l-31.71-2.93q3.45-29.13 24.65-46.36 21.37-17.24 54.8-17.24 36.72 0 56.37 17.4 19.82 17.25 19.82 49.13 0 14.14-6.55 28.1-6.37 13.96-19.13 27.92t-48.78 43.26q-19.82 16.2-31.54 29.3-11.72 12.93-16.9 25h126.7V6720Z" style="white-space:pre;stroke:none;stroke-opacity:1;fill:#ececec;fill-opacity:1"/></g><g aria-label=".3" class="SVGTextShape" style="stroke:none;stroke-opacity:1;fill:#ececec;fill-opacity:1"><path d="M490.53 5818.48q0 60.85-21.54 92.9-21.38 32.07-63.26 32.07t-62.91-31.89-21.03-93.08q0-62.56 20.34-93.76 20.5-31.2 64.63-31.2 42.92 0 63.26 31.54 20.51 31.55 20.51 93.42m-31.54 0q0-52.57-12.24-76.18-12.06-23.61-39.99-23.61-28.6 0-41.2 23.26-12.4 23.27-12.4 76.53 0 51.71 12.58 75.67 12.76 23.96 40.33 23.96 27.41 0 40.17-24.48 12.75-24.47 12.75-75.15M536.55 5940v-37.75h33.61V5940Zm246.65-67.05q0 33.61-21.37 52.05-21.37 18.45-61.01 18.45-36.89 0-58.95-16.55-21.9-16.72-26.03-49.3l32.06-2.93q6.2 43.1 52.92 43.1 23.44 0 36.7-11.55 13.45-11.55 13.45-34.3 0-19.83-15.34-30.86-15.16-11.2-43.95-11.2H674.1v-26.89H691q25.5 0 39.46-11.03 14.14-11.2 14.14-30.85 0-19.48-11.55-30.68-11.38-11.38-33.96-11.38-20.5 0-33.26 10.51-12.59 10.52-14.65 29.65l-31.2-2.41q3.44-29.82 24.65-46.54 21.37-16.72 54.8-16.72 36.55 0 56.71 17.06 20.34 16.9 20.34 47.23 0 23.27-13.1 37.92-12.92 14.48-37.74 19.65v.7q27.23 2.92 42.4 18.26t15.17 38.61" style="white-space:pre;stroke:none;stroke-opacity:1;fill:#ececec;fill-opacity:1"/></g><g aria-label=".4" class="SVGTextShape" style="stroke:none;stroke-opacity:1;fill:#ececec;fill-opacity:1"><path d="M490.53 5039.48q0 60.85-21.54 92.9-21.38 32.07-63.26 32.07t-62.91-31.89-21.03-93.08q0-62.56 20.34-93.76 20.5-31.2 64.63-31.2 42.92 0 63.26 31.54 20.51 31.55 20.51 93.42m-31.54 0q0-52.57-12.24-76.18-12.06-23.61-39.99-23.61-28.6 0-41.2 23.26-12.4 23.27-12.4 76.53 0 51.71 12.58 75.67 12.76 23.96 40.33 23.96 27.41 0 40.17-24.48 12.75-24.47 12.75-75.15M536.55 5161v-37.75h33.61V5161Zm217.7-54.98V5161h-29.3v-54.98H610.5v-24.13l111.17-163.75h32.58v163.4h34.13v24.48zm-29.3-152.89q-.35 1.03-4.83 9.14-4.48 8.1-6.72 11.37l-62.22 91.7-9.31 12.75-2.76 3.45h85.84z" style="white-space:pre;stroke:none;stroke-opacity:1;fill:#ececec;fill-opacity:1"/></g><g aria-label=".5" class="SVGTextShape" style="stroke:none;stroke-opacity:1;fill:#ececec;fill-opacity:1"><path d="M490.53 4260.48q0 60.85-21.54 92.9-21.38 32.07-63.26 32.07t-62.91-31.89-21.03-93.08q0-62.56 20.34-93.76 20.5-31.2 64.63-31.2 42.92 0 63.26 31.54 20.51 31.55 20.51 93.42m-31.54 0q0-52.57-12.24-76.18-12.06-23.61-39.99-23.61-28.6 0-41.2 23.26-12.4 23.27-12.4 76.53 0 51.71 12.58 75.67 12.76 23.96 40.33 23.96 27.41 0 40.17-24.48 12.75-24.47 12.75-75.15M536.55 4382v-37.75h33.61V4382Zm247.35-79.11q0 38.43-22.93 60.5-22.75 22.06-63.26 22.06-33.95 0-54.8-14.83-20.86-14.82-26.38-42.91l31.37-3.62q9.83 36.02 50.5 36.02 25 0 39.13-15 14.13-15.16 14.13-41.54 0-22.92-14.3-37.05-14.14-14.14-38.27-14.14-12.58 0-23.44 3.97-10.86 3.96-21.72 13.44H623.6l8.1-130.65h138.06v26.37h-109.8l-4.65 77.05q20.17-15.51 50.16-15.51 35.85 0 57.05 21.02 21.38 21.03 21.38 54.82" style="white-space:pre;stroke:none;stroke-opacity:1;fill:#ececec;fill-opacity:1"/></g><g aria-label=".6" class="SVGTextShape" style="stroke:none;stroke-opacity:1;fill:#ececec;fill-opacity:1"><path d="M490.53 3480.48q0 60.85-21.54 92.9-21.38 32.07-63.26 32.07t-62.91-31.89-21.03-93.08q0-62.56 20.34-93.76 20.5-31.2 64.63-31.2 42.92 0 63.26 31.54 20.51 31.55 20.51 93.42m-31.54 0q0-52.57-12.24-76.18-12.06-23.61-39.99-23.61-28.6 0-41.2 23.26-12.4 23.27-12.4 76.53 0 51.71 12.58 75.67 12.76 23.96 40.33 23.96 27.41 0 40.17-24.48 12.75-24.47 12.75-75.15M536.55 3602v-37.75h33.61V3602Zm246.65-79.46q0 38.44-20.85 60.67t-57.57 22.24q-41.02 0-62.74-30.51-21.72-30.5-21.72-88.77 0-63.08 22.58-96.87 22.58-33.78 64.3-33.78 54.98 0 69.28 49.47l-29.64 5.34q-9.14-29.64-40-29.64-26.54 0-41.19 24.82-14.47 24.64-14.47 71.53 8.44-15.69 23.78-23.79 15.34-8.27 35.16-8.27 33.61 0 53.26 21.03 19.83 21.02 19.83 56.53m-31.54 1.38q0-26.37-12.92-40.68t-36.03-14.3q-21.72 0-35.16 12.75-13.27 12.58-13.27 34.82 0 28.1 13.79 46.02 13.96 17.92 35.68 17.92 22.4 0 35.16-15 12.75-15.16 12.75-41.53" style="white-space:pre;stroke:none;stroke-opacity:1;fill:#ececec;fill-opacity:1"/></g><g aria-label=".7" class="SVGTextShape" style="stroke:none;stroke-opacity:1;fill:#ececec;fill-opacity:1"><path d="M490.53 2701.48q0 60.85-21.54 92.9-21.38 32.07-63.26 32.07t-62.91-31.89-21.03-93.08q0-62.56 20.34-93.76 20.5-31.2 64.63-31.2 42.92 0 63.26 31.54 20.51 31.55 20.51 93.42m-31.54 0q0-52.57-12.24-76.18-12.06-23.61-39.99-23.61-28.6 0-41.2 23.26-12.4 23.27-12.4 76.53 0 51.71 12.58 75.67 12.76 23.96 40.33 23.96 27.41 0 40.17-24.48 12.75-24.47 12.75-75.15M536.55 2823v-37.75h33.61V2823Zm244.41-217.7q-37.23 56.89-52.57 89.12t-23.1 63.6q-7.58 31.37-7.58 64.98h-32.4q0-46.54 19.65-97.9 19.82-51.54 66.01-118.59H620.5v-26.37h160.47z" style="white-space:pre;stroke:none;stroke-opacity:1;fill:#ececec;fill-opacity:1"/></g><g aria-label=".8" class="SVGTextShape" style="stroke:none;stroke-opacity:1;fill:#ececec;fill-opacity:1"><path d="M490.53 1921.48q0 60.85-21.54 92.9-21.38 32.07-63.26 32.07t-62.91-31.89-21.03-93.08q0-62.56 20.34-93.76 20.5-31.2 64.63-31.2 42.92 0 63.26 31.54 20.51 31.55 20.51 93.42m-31.54 0q0-52.57-12.24-76.18-12.06-23.61-39.99-23.61-28.6 0-41.2 23.26-12.4 23.27-12.4 76.53 0 51.71 12.58 75.67 12.76 23.96 40.33 23.96 27.41 0 40.17-24.48 12.75-24.47 12.75-75.15M536.55 2043v-37.75h33.61V2043Zm246.83-67.74q0 33.61-21.38 52.4t-61.36 18.79q-38.95 0-61.01-18.45-21.9-18.44-21.9-52.4 0-23.78 13.62-39.98t34.82-19.65v-.7q-19.82-4.64-31.37-20.16-11.38-15.51-11.38-36.37 0-27.75 20.69-44.98 20.85-17.24 55.84-17.24 35.86 0 56.54 16.9 20.86 16.88 20.86 45.67 0 20.85-11.55 36.37t-31.55 19.47v.7q23.27 3.79 36.2 19.82 12.93 15.85 12.93 39.81m-38.27-114.45q0-41.2-45.16-41.2-21.89 0-33.43 10.35-11.38 10.34-11.38 30.85 0 20.86 11.72 31.89 11.9 10.86 33.44 10.86 21.89 0 33.26-10 11.55-10.17 11.55-32.75m6.04 111.52q0-22.58-13.45-33.95-13.44-11.55-37.75-11.55-23.61 0-36.88 12.4-13.27 12.25-13.27 33.79 0 50.16 51.19 50.16 25.34 0 37.75-12.07 12.4-12.23 12.4-38.78" style="white-space:pre;stroke:none;stroke-opacity:1;fill:#ececec;fill-opacity:1"/></g><g aria-label=".9" class="SVGTextShape" style="stroke:none;stroke-opacity:1;fill:#ececec;fill-opacity:1"><path d="M490.53 1142.48q0 60.85-21.54 92.9-21.38 32.07-63.26 32.07t-62.91-31.89-21.03-93.08q0-62.56 20.34-93.76 20.5-31.2 64.63-31.2 42.92 0 63.26 31.54 20.51 31.55 20.51 93.42m-31.54 0q0-52.57-12.24-76.18-12.06-23.61-39.99-23.61-28.6 0-41.2 23.26-12.4 23.27-12.4 76.53 0 51.71 12.58 75.67 12.76 23.96 40.33 23.96 27.41 0 40.17-24.48 12.75-24.47 12.75-75.15M536.55 1264v-37.75h33.61V1264ZM782 1137.66q0 62.57-22.93 96.18-22.75 33.6-64.98 33.6-28.44 0-45.67-11.89-17.07-12.06-24.48-38.78l29.65-4.65q9.3 30.33 41.02 30.33 26.72 0 41.37-24.82t15.34-70.84q-6.9 15.52-23.62 25-16.71 9.3-36.7 9.3-32.76 0-52.4-22.4-19.66-22.41-19.66-59.47 0-38.1 21.38-59.8 21.37-21.9 59.46-21.9 40.5 0 61.36 30Q782 1077.5 782 1137.65m-33.78-30q0-29.3-13.45-47.05-13.44-17.92-36.02-17.92-22.41 0-35.34 15.34-12.92 15.16-12.92 41.2 0 26.53 12.92 42.05 12.93 15.34 35 15.34 13.44 0 24.99-6.03 11.54-6.21 18.1-17.41 6.72-11.2 6.72-25.51" style="white-space:pre;stroke:none;stroke-opacity:1;fill:#ececec;fill-opacity:1"/></g><g aria-label="1" class="SVGTextShape" style="stroke:none;stroke-opacity:1;fill:#ececec;fill-opacity:1"><path d="M625.89 485v-26.37h61.88V271.79l-54.81 39.12v-29.3l57.4-39.47h28.6v216.49h59.13V485Z" style="white-space:pre;stroke:none;stroke-opacity:1;fill:#ececec;fill-opacity:1"/></g></svg>