<svg xmlns="http://www.w3.org/2000/svg" width="723.39" height="205.32" viewBox="0 0 191.4 54.32"><defs><clipPath id="a" clipPathUnits="userSpaceOnUse"><path d="M0 38h38V0H0Z"/></clipPath><clipPath id="c" clipPathUnits="userSpaceOnUse"><path d="M0 38h38V0H0Z"/></clipPath><clipPath id="b" clipPathUnits="userSpaceOnUse"><path d="M0 38h38V0H0Z"/></clipPath><clipPath id="e" clipPathUnits="userSpaceOnUse"><path d="M0 38h38V0H0Z"/></clipPath><clipPath id="f" clipPathUnits="userSpaceOnUse"><path d="M0 38h38V0H0Z"/></clipPath><clipPath id="d" clipPathUnits="userSpaceOnUse"><path d="M0 38h38V0H0Z"/></clipPath></defs><g style="opacity:1;fill:#787878;fill-opacity:1;stroke-width:.755906;stroke-miterlimit:4;stroke-dasharray:none"><g style="fill:#787878;fill-opacity:1"><path d="M2246.03 2340.2h-.05a38 38 0 0 0-1.88 10.19c-.27 7.12.45 11.46-.37 16.08s-3.24 9.16-9.41 16.28c-7.34 8.49-18.98 15.05-32.42 17.27a70 70 0 0 1-7.92 4.36c10.46 3.94 21.4 4.15 30.08 1.3 15.28-5 14.1-8.6 20.94-19.1a35 35 0 0 1 7.15-7.9c7.12 3.1 14.14 5.1 18.51 4.6 2.35-5.44-.05-11.76-4.05-17.74 3.28-10.2-1.7-20.4-12.74-24.01a24 24 0 0 0-7.84-1.34zm8.28 14.96a4.17 4.25 48.68 0 1 3.2 1.4 4.17 4.25 48.68 0 1-.44 5.93 4.17 4.25 48.68 0 1-5.94-.32 4.17 4.25 48.68 0 1 .43-5.94 4.17 4.25 48.68 0 1 2.75-1.07m-68.38 45.38.39.22.4-.15z" style="fill:#787878;fill-opacity:1;stroke:none;stroke-width:.559814px;stroke-linecap:butt;stroke-linejoin:miter;stroke-opacity:1" transform="translate(-530.091 -589.877)scale(.26458)"/></g></g><g style="opacity:1;fill:#ececec;fill-opacity:1;stroke:none;stroke-width:.755906;stroke-miterlimit:4;stroke-dasharray:none;stroke-opacity:1"><g style="opacity:1;fill:#ececec;fill-opacity:1"><path d="M2191.15 2276.78c-5.98-.03-12.1 2.35-17.36 7.46-6.92 6.71-9.07 12.76-7.85 20.3l.33 2.07-2.07-.34c-15.18-2.46-33.98-1.22-55.37 7.43 6.29 2.7 17.83 7.2 30.63 13.34l4.06 1.96-4.41.9c-16.9 3.42-36.97 13.32-55.3 34.92 8.2-.63 24.95-2.6 42.43-2.58 9.71.02 19.29.69 27.08 2.71 7.8 2.02 14.03 5.44 16.37 11.29l.16.4-.07.42c-.39 2.18-.77 4.15-1.12 5.76-.82 3.7-4.01 6.68-8.2 9.34s-9.5 4.99-15.01 6.96c-11.04 3.96-22.78 6.48-27.97 6.96-1.1.1-1.54.5-1.96 1.27a8 8 0 0 0-.7 3.25c-.04 1.7.19 3.1.37 4.06 33.75 2.77 58.85-5.65 76.96-12.83 20.35-9.33 33.21-27.76 36-44.35 1.76-10.4 1.38-15.5-.3-19.83-1.7-4.34-4.93-8.2-9.03-15.55a48 48 0 0 1-5.02-13.69l-.2-.9.73-.59c7.54-6.04 13.68-12.64 15.91-17.45-4.57-4.86-12.48-5.89-21.32-4.94l-.73.07-.5-.52c-4.72-4.8-10.57-7.26-16.54-7.3m2.64 11.24a5.63 5.52 76.4 0 1 5.5 4.32 5.63 5.52 76.4 0 1-4.04 6.77 5.63 5.52 76.4 0 1-6.7-4.17 5.63 5.52 76.4 0 1 4.05-6.77 5.63 5.52 76.4 0 1 1.2-.15" style="color:#000;font-style:normal;font-variant:normal;font-weight:400;font-stretch:normal;font-size:medium;line-height:normal;font-family:sans-serif;font-variant-ligatures:normal;font-variant-position:normal;font-variant-caps:normal;font-variant-numeric:normal;font-variant-alternates:normal;font-variant-east-asian:normal;font-feature-settings:normal;font-variation-settings:normal;text-indent:0;text-align:start;text-decoration:none;text-decoration-line:none;text-decoration-style:solid;text-decoration-color:#000;letter-spacing:normal;word-spacing:normal;text-transform:none;writing-mode:lr-tb;direction:ltr;text-orientation:mixed;dominant-baseline:auto;baseline-shift:baseline;text-anchor:start;white-space:normal;shape-padding:0;shape-margin:0;inline-size:0;clip-rule:nonzero;display:inline;overflow:visible;visibility:visible;isolation:auto;mix-blend-mode:normal;color-interpolation:sRGB;color-interpolation-filters:linearRGB;solid-color:#000;solid-opacity:1;vector-effect:none;fill:#ececec;fill-opacity:1;fill-rule:nonzero;stroke:none;stroke-width:3.02362;stroke-linecap:butt;stroke-linejoin:miter;stroke-miterlimit:4;stroke-dasharray:none;stroke-dashoffset:0;stroke-opacity:1;color-rendering:auto;image-rendering:auto;shape-rendering:auto;text-rendering:auto;stop-color:#000;stop-opacity:1" transform="translate(-530.091 -589.877)scale(.26458)"/></g></g><g style="opacity:1;fill:#b2b2b2;fill-opacity:1;stroke-width:.755906;stroke-miterlimit:4;stroke-dasharray:none"><g style="fill:#b2b2b2;fill-opacity:1"><g style="opacity:1;fill:#b2b2b2;fill-opacity:1"><path d="M2230.9 2301.17q-2.89-.06-5.98.64l-.4.1a110 110 0 0 1-7.53 6.72 44 44 0 0 0 4.47 12c3.99 7.15 7.27 10.96 9.2 15.92s2.27 10.8.48 21.43c-2.22 13.18-10.24 27.13-22.96 37.43 9.87-2.88 18.28-8.19 23.86-14.62 6-6.95 8.01-10.88 8.72-14.84.7-3.96.04-8.3.32-15.66.18-4.75 1.2-8.9 2.48-12.55l.3-.87.93-.13c8.23-1.06 15.66-3.16 19.5-5.64-1.23-5.56-6.47-9.86-13.42-13.14l-.66-.31-.17-.71c-2.2-9.47-9.59-15.57-19.15-15.77m4.78 11.69a4.82 4.91 17.73 0 1 1.44.22 4.82 4.91 17.73 0 1 3.1 6.15 4.82 4.91 17.73 0 1-6.09 3.22 4.82 4.91 17.73 0 1-3.1-6.15 4.82 4.91 17.73 0 1 4.65-3.44" style="color:#000;font-style:normal;font-variant:normal;font-weight:400;font-stretch:normal;font-size:medium;line-height:normal;font-family:sans-serif;font-variant-ligatures:normal;font-variant-position:normal;font-variant-caps:normal;font-variant-numeric:normal;font-variant-alternates:normal;font-variant-east-asian:normal;font-feature-settings:normal;font-variation-settings:normal;text-indent:0;text-align:start;text-decoration:none;text-decoration-line:none;text-decoration-style:solid;text-decoration-color:#000;letter-spacing:normal;word-spacing:normal;text-transform:none;writing-mode:lr-tb;direction:ltr;text-orientation:mixed;dominant-baseline:auto;baseline-shift:baseline;text-anchor:start;white-space:normal;shape-padding:0;shape-margin:0;inline-size:0;clip-rule:nonzero;display:inline;overflow:visible;visibility:visible;isolation:auto;mix-blend-mode:normal;color-interpolation:sRGB;color-interpolation-filters:linearRGB;solid-color:#000;solid-opacity:1;vector-effect:none;fill:#b2b2b2;fill-opacity:1;fill-rule:nonzero;stroke:none;stroke-width:3.02362;stroke-linecap:butt;stroke-linejoin:miter;stroke-miterlimit:4;stroke-dasharray:none;stroke-dashoffset:0;stroke-opacity:1;color-rendering:auto;image-rendering:auto;shape-rendering:auto;text-rendering:auto;stop-color:#000;stop-opacity:1" transform="translate(-530.091 -589.877)scale(.26458)"/></g></g></g><g aria-label="BEVY" style="font-style:normal;font-weight:400;font-size:10.3007px;line-height:1.25;font-family:sans-serif;letter-spacing:0;word-spacing:0;opacity:1;fill:#ececec;fill-opacity:1;stroke:none;stroke-width:.257517;stroke-miterlimit:4;stroke-dasharray:none"><path d="M87.4 202.26q.34.1.89.15l1.03.02q.99 0 1.63-.39.66-.42.66-1.28 0-.81-.54-1.16t-1.65-.34H87.4zm0-6h1.8q1.06 0 1.53-.4.49-.4.49-1.16 0-.67-.57-1.06-.54-.4-1.65-.4-.37 0-.86.03-.47.03-.74.07zm1.6 9.48q-.42 0-.98-.03t-1.19-.1q-.59-.07-1.18-.2-.59-.1-1.08-.29-1.36-.52-1.36-1.8v-11.5q0-.52.27-.8.3-.29.8-.46.83-.3 2.09-.42 1.25-.15 2.58-.15 3.15 0 4.85 1.06t1.7 3.28q0 1.1-.64 1.92-.64.79-1.72 1.16 1.23.34 2.04 1.26.84.9.84 2.29 0 2.44-1.82 3.62-1.8 1.16-5.2 1.16m7.48-13.04q0-1.05.62-1.67.61-.62 1.67-.62h8.13q.17.27.3.72.14.44.14.93 0 .94-.42 1.33-.39.4-1.05.4h-5.2v2.29h5.54q.17.27.3.71.14.42.14.91 0 .94-.39 1.34-.4.39-1.06.39h-4.53v2.59H107q.17.27.3.71.14.44.14.94 0 .93-.42 1.35-.4.4-1.06.4h-7.19q-1.06 0-1.67-.62-.62-.62-.62-1.68zm21.36 12.15q-.34.3-1.08.52-.72.22-1.58.22-1.03 0-1.77-.3-.74-.32-1.01-.86l-.67-1.45q-.4-.91-.83-2.02l-.9-2.34q-.44-1.26-.85-2.54-.42-1.28-.8-2.51-.36-1.24-.63-2.32.34-.34.98-.61.67-.3 1.4-.3.92 0 1.48.4.6.36.87 1.4.66 2.41 1.33 4.63l1.43 4.58h.14q.67-2.31 1.36-5.05.71-2.73 1.35-5.44.45-.22.94-.37.52-.15 1.16-.15.9 0 1.55.42.64.4.64 1.33 0 .54-.27 1.58-.25 1.03-.67 2.34-.4 1.28-.9 2.68t-1.02 2.66q-.49 1.23-.93 2.2-.45.93-.72 1.3m14.15.39q-.28.08-.84.15-.57.07-1.11.07-1.13 0-1.7-.37-.57-.39-.57-1.62v-3.33q-.61-.9-1.33-2.02-.71-1.1-1.4-2.26-.7-1.16-1.28-2.27-.6-1.13-.96-2.07.32-.44.86-.81.57-.37 1.38-.37.96 0 1.55.4.62.39 1.16 1.47l2.04 4.12h.15q.35-.77.6-1.38l.5-1.26.53-1.3.61-1.58q.45-.22.99-.35t1.03-.12q.86 0 1.46.47.61.44.61 1.35 0 .3-.12.72-.13.42-.57 1.28-.44.84-1.3 2.29-.84 1.45-2.3 3.8z" style="font-style:normal;font-variant:normal;font-weight:400;font-stretch:normal;font-size:21.9748px;font-family:&quot;Baloo Bhaijaan&quot;;-inkscape-font-specification:&quot;Baloo Bhaijaan, Normal&quot;;font-variant-ligatures:normal;font-variant-caps:normal;font-variant-numeric:normal;font-feature-settings:normal;text-align:start;writing-mode:lr-tb;text-anchor:start;fill:#ececec;fill-opacity:1;stroke-width:.288674" transform="matrix(1.70884 0 0 1.80391 -64.897 -326.196)"/></g><g clip-path="url(#a)" transform="matrix(.69086 0 0 -.69086 165.834 55.015)"><path d="M0 0q-.17-.17-.27-.4v.01L-11.5-25.65v-.01c-.2-.4.15-1.23.86-1.94s1.53-1.06 1.94-.85v-.01l25.27 11.21v.01q.22.1.4.27c1.55 1.56-.98 6.63-5.67 11.31S1.56 1.56 0 0" style="fill:#dd2e44;fill-opacity:1;fill-rule:nonzero;stroke:none" transform="translate(12.626 29.512)"/><path d="m0 0-12.58-20.5-.29-.64.01-.01c-.2-.4.14-1.22.86-1.94q.35-.33.7-.56L4-5Z" style="fill:#ea596e;fill-opacity:1;fill-rule:nonzero;stroke:none" transform="translate(14 25)"/><path d="M0 0c4.67-4.67 7.26-9.65 5.79-11.12C4.32-12.6-.66-10.01-5.34-5.34-10-.66-12.6 4.32-11.13 5.8-9.65 7.26-4.67 4.67 0 0" style="fill:#a0041e;fill-opacity:1;fill-rule:nonzero;stroke:none" transform="translate(24.012 23.934)"/><path d="M0 0a1 1 0 0 0-.73-.21c-.87.09-1.6.4-2.11.87-.54.5-.81 1.18-.74 1.86.13 1.2 1.33 2.29 3.37 2.07.79-.09 1.14.17 1.15.29s-.27.44-1.07.53c-.86.1-1.6.4-2.1.87a2.2 2.2 0 0 0-.74 1.86c.13 1.2 1.32 2.29 3.36 2.07.58-.06.88.06 1.01.13q.15.11.15.16c.01.12-.27.45-1.07.53a1 1 0 0 0 .22 2c2.03-.23 2.97-1.55 2.84-2.74S2.2 8 .18 8.22c-.58.06-.88-.06-1.01-.13q-.15-.11-.15-.16C-1 7.81-.71 7.48.09 7.4c2.03-.22 2.97-1.54 2.84-2.74C2.8 3.47 1.61 2.38-.43 2.6c-.58.06-.88-.06-1.01-.14q-.15-.1-.15-.15c-.01-.13.28-.45 1.07-.54A1 1 0 0 0 0 0" style="fill:#aa8dd8;fill-opacity:1;fill-rule:nonzero;stroke:none" transform="translate(19.59 23.39)"/><path d="M0 0c1.97.56 3.33-.32 3.66-1.48.32-1.15-.38-2.61-2.35-3.17-.77-.21-1-.58-.97-.7s.42-.31 1.2-.1c1.96.56 3.33-.32 3.65-1.47.33-1.16-.38-2.62-2.35-3.17-.77-.22-1-.59-.97-.7.03-.12.42-.32 1.2-.1a1 1 0 1 0 .53-1.93c-1.97-.55-3.33.33-3.65 1.48-.33 1.16.37 2.62 2.35 3.17.77.22 1 .59.97.7-.04.12-.43.32-1.2.1-1.97-.56-3.33.32-3.65 1.48-.33 1.15.37 2.61 2.35 3.17.76.21 1 .58.96.7-.03.12-.42.31-1.19.1A1 1 0 1 0 0 0" style="fill:#77b255;fill-opacity:1;fill-rule:nonzero;stroke:none" transform="translate(31.661 14.143)"/><path d="M0 0a1 1 0 0 0-.63 1.78 17.6 17.6 0 0 0 12.77 3.2 1 1 0 1 0-.28-1.97A16 16 0 0 1 .62.21 1 1 0 0 0 0 0" style="fill:#aa8dd8;fill-opacity:1;fill-rule:nonzero;stroke:none" transform="translate(24.001 16.84)"/><path d="M0 0q-.15 0-.29.04A1 1 0 0 0-.96 1.3c1.14 3.77 2.16 9.8.9 11.36-.14.18-.35.35-.84.32-.94-.07-.85-2.05-.85-2.07a1 1 0 1 0-2-.15c-.1 1.38.33 4.03 2.7 4.21A2.9 2.9 0 0 0 1.5 13.9C3.87 10.95 1.46 2.4.96.71A1 1 0 0 0 0 0" style="fill:#77b255;fill-opacity:1;fill-rule:nonzero;stroke:none" transform="translate(6.754 21)"/><path d="M0 0a1.5 1.5 0 1 0-3 0 1.5 1.5 0 0 0 3 0" style="fill:#5c913b;fill-opacity:1;fill-rule:nonzero;stroke:none" transform="translate(28 27.5)"/><path d="M0 0a2 2 0 1 0-4 0 2 2 0 0 0 4 0" style="fill:#9266cc;fill-opacity:1;fill-rule:nonzero;stroke:none" transform="translate(5 19)"/><path d="M0 0a1.5 1.5 0 1 0-3 0 1.5 1.5 0 0 0 3 0" style="fill:#5c913b;fill-opacity:1;fill-rule:nonzero;stroke:none" transform="translate(35 17.5)"/><path d="M0 0a1.5 1.5 0 1 0-3 0 1.5 1.5 0 0 0 3 0" style="fill:#5c913b;fill-opacity:1;fill-rule:nonzero;stroke:none" transform="translate(26 5.5)"/><path d="M0 0a2 2 0 1 0-4 0 2 2 0 0 0 4 0" style="fill:#ffcc4d;fill-opacity:1;fill-rule:nonzero;stroke:none" transform="translate(31 33)"/><path d="M0 0a1.5 1.5 0 1 0-3 0 1.5 1.5 0 0 0 3 0" style="fill:#ffcc4d;fill-opacity:1;fill-rule:nonzero;stroke:none" transform="translate(35 28.5)"/><path d="M0 0a1.5 1.5 0 1 0-3 0 1.5 1.5 0 0 0 3 0" style="fill:#ffcc4d;fill-opacity:1;fill-rule:nonzero;stroke:none" transform="translate(32 24.5)"/><path d="M0 0a1.5 1.5 0 1 0-3 0 1.5 1.5 0 0 0 3 0" style="fill:#ffcc4d;fill-opacity:1;fill-rule:nonzero;stroke:none" transform="translate(10 13.5)"/></g><g clip-path="url(#b)" transform="rotate(192.566 98.355 5.761)scale(.80574)"><path d="M0 0a1 1 0 0 0-.97.76c-.03.13-.92 3.43-4.27 4.27C-9.94 6.21-10 12.73-10 13a1 1 0 0 0 1 1c.55-.03 1-.45 1-1 0-.05.05-5.23 3.24-6.03C-.23 5.84.93 1.43.97 1.24A1 1 0 0 0 0 0" style="fill:#fcab40;fill-opacity:1;fill-rule:nonzero;stroke:none" transform="translate(28.999 1)"/><path d="M0 0c-1.1 0-1.6.8-1.1 1.79L.1 4.2c.5.99 1.3.99 1.8 0l1.2-2.4C3.6.8 3.1 0 2 0Z" style="fill:#bb1a34;fill-opacity:1;fill-rule:nonzero;stroke:none" transform="translate(19 12)"/><path d="M0 0c0-6-7-12-9-12s-9 6-9 12c0 5.8 4.58 9 9 9s9-3.2 9-9" style="fill:#bb1a34;fill-opacity:1;fill-rule:nonzero;stroke:none" transform="translate(29 28)"/><path d="M0 0h-2a1 1 0 1 0 0 2h2a1 1 0 1 0 0-2" style="fill:#fcab40;fill-opacity:1;fill-rule:nonzero;stroke:none" transform="translate(21 15)"/></g><g clip-path="url(#c)" transform="rotate(174.242 82.995 12.53)scale(.3882)"><path d="M0 0a1 1 0 0 0-.97.76c-.03.13-.92 3.43-4.27 4.27C-9.94 6.21-10 12.73-10 13a1 1 0 0 0 1 1c.55-.03 1-.45 1-1 0-.05.05-5.23 3.24-6.03C-.23 5.84.93 1.43.97 1.24A1 1 0 0 0 0 0" style="fill:#fcab40;fill-opacity:1;fill-rule:nonzero;stroke:none" transform="translate(28.999 1)"/><path d="M0 0c-1.1 0-1.6.8-1.1 1.79L.1 4.2c.5.99 1.3.99 1.8 0l1.2-2.4C3.6.8 3.1 0 2 0Z" style="fill:#bb1a34;fill-opacity:1;fill-rule:nonzero;stroke:none" transform="translate(19 12)"/><path d="M0 0c0-6-7-12-9-12s-9 6-9 12c0 5.8 4.58 9 9 9s9-3.2 9-9" style="fill:#bb1a34;fill-opacity:1;fill-rule:nonzero;stroke:none" transform="translate(29 28)"/><path d="M0 0h-2a1 1 0 1 0 0 2h2a1 1 0 1 0 0-2" style="fill:#fcab40;fill-opacity:1;fill-rule:nonzero;stroke:none" transform="translate(21 15)"/></g><g clip-path="url(#d)" transform="translate(25.562 55.015)scale(-.69086)"><path d="M0 0q-.17-.17-.27-.4v.01L-11.5-25.65v-.01c-.2-.4.15-1.23.86-1.94s1.53-1.06 1.94-.85v-.01l25.27 11.21v.01q.22.1.4.27c1.55 1.56-.98 6.63-5.67 11.31S1.56 1.56 0 0" style="fill:#dd2e44;fill-opacity:1;fill-rule:nonzero;stroke:none" transform="translate(12.626 29.512)"/><path d="m0 0-12.58-20.5-.29-.64.01-.01c-.2-.4.14-1.22.86-1.94q.35-.33.7-.56L4-5Z" style="fill:#ea596e;fill-opacity:1;fill-rule:nonzero;stroke:none" transform="translate(14 25)"/><path d="M0 0c4.67-4.67 7.26-9.65 5.79-11.12C4.32-12.6-.66-10.01-5.34-5.34-10-.66-12.6 4.32-11.13 5.8-9.65 7.26-4.67 4.67 0 0" style="fill:#a0041e;fill-opacity:1;fill-rule:nonzero;stroke:none" transform="translate(24.012 23.934)"/><path d="M0 0a1 1 0 0 0-.73-.21c-.87.09-1.6.4-2.11.87-.54.5-.81 1.18-.74 1.86.13 1.2 1.33 2.29 3.37 2.07.79-.09 1.14.17 1.15.29s-.27.44-1.07.53c-.86.1-1.6.4-2.1.87a2.2 2.2 0 0 0-.74 1.86c.13 1.2 1.32 2.29 3.36 2.07.58-.06.88.06 1.01.13q.15.11.15.16c.01.12-.27.45-1.07.53a1 1 0 0 0 .22 2c2.03-.23 2.97-1.55 2.84-2.74S2.2 8 .18 8.22c-.58.06-.88-.06-1.01-.13q-.15-.11-.15-.16C-1 7.81-.71 7.48.09 7.4c2.03-.22 2.97-1.54 2.84-2.74C2.8 3.47 1.61 2.38-.43 2.6c-.58.06-.88-.06-1.01-.14q-.15-.1-.15-.15c-.01-.13.28-.45 1.07-.54A1 1 0 0 0 0 0" style="fill:#aa8dd8;fill-opacity:1;fill-rule:nonzero;stroke:none" transform="translate(19.59 23.39)"/><path d="M0 0c1.97.56 3.33-.32 3.66-1.48.32-1.15-.38-2.61-2.35-3.17-.77-.21-1-.58-.97-.7s.42-.31 1.2-.1c1.96.56 3.33-.32 3.65-1.47.33-1.16-.38-2.62-2.35-3.17-.77-.22-1-.59-.97-.7.03-.12.42-.32 1.2-.1a1 1 0 1 0 .53-1.93c-1.97-.55-3.33.33-3.65 1.48-.33 1.16.37 2.62 2.35 3.17.77.22 1 .59.97.7-.04.12-.43.32-1.2.1-1.97-.56-3.33.32-3.65 1.48-.33 1.15.37 2.61 2.35 3.17.76.21 1 .58.96.7-.03.12-.42.31-1.19.1A1 1 0 1 0 0 0" style="fill:#77b255;fill-opacity:1;fill-rule:nonzero;stroke:none" transform="translate(31.661 14.143)"/><path d="M0 0a1 1 0 0 0-.63 1.78 17.6 17.6 0 0 0 12.77 3.2 1 1 0 1 0-.28-1.97A16 16 0 0 1 .62.21 1 1 0 0 0 0 0" style="fill:#aa8dd8;fill-opacity:1;fill-rule:nonzero;stroke:none" transform="translate(24.001 16.84)"/><path d="M0 0q-.15 0-.29.04A1 1 0 0 0-.96 1.3c1.14 3.77 2.16 9.8.9 11.36-.14.18-.35.35-.84.32-.94-.07-.85-2.05-.85-2.07a1 1 0 1 0-2-.15c-.1 1.38.33 4.03 2.7 4.21A2.9 2.9 0 0 0 1.5 13.9C3.87 10.95 1.46 2.4.96.71A1 1 0 0 0 0 0" style="fill:#77b255;fill-opacity:1;fill-rule:nonzero;stroke:none" transform="translate(6.754 21)"/><path d="M0 0a1.5 1.5 0 1 0-3 0 1.5 1.5 0 0 0 3 0" style="fill:#5c913b;fill-opacity:1;fill-rule:nonzero;stroke:none" transform="translate(28 27.5)"/><path d="M0 0a2 2 0 1 0-4 0 2 2 0 0 0 4 0" style="fill:#9266cc;fill-opacity:1;fill-rule:nonzero;stroke:none" transform="translate(5 19)"/><path d="M0 0a1.5 1.5 0 1 0-3 0 1.5 1.5 0 0 0 3 0" style="fill:#5c913b;fill-opacity:1;fill-rule:nonzero;stroke:none" transform="translate(35 17.5)"/><path d="M0 0a1.5 1.5 0 1 0-3 0 1.5 1.5 0 0 0 3 0" style="fill:#5c913b;fill-opacity:1;fill-rule:nonzero;stroke:none" transform="translate(26 5.5)"/><path d="M0 0a2 2 0 1 0-4 0 2 2 0 0 0 4 0" style="fill:#ffcc4d;fill-opacity:1;fill-rule:nonzero;stroke:none" transform="translate(31 33)"/><path d="M0 0a1.5 1.5 0 1 0-3 0 1.5 1.5 0 0 0 3 0" style="fill:#ffcc4d;fill-opacity:1;fill-rule:nonzero;stroke:none" transform="translate(35 28.5)"/><path d="M0 0a1.5 1.5 0 1 0-3 0 1.5 1.5 0 0 0 3 0" style="fill:#ffcc4d;fill-opacity:1;fill-rule:nonzero;stroke:none" transform="translate(32 24.5)"/><path d="M0 0a1.5 1.5 0 1 0-3 0 1.5 1.5 0 0 0 3 0" style="fill:#ffcc4d;fill-opacity:1;fill-rule:nonzero;stroke:none" transform="translate(10 13.5)"/></g><g clip-path="url(#e)" transform="rotate(167.434 -2.657 16.298)scale(-.80574 .80574)"><path d="M0 0a1 1 0 0 0-.97.76c-.03.13-.92 3.43-4.27 4.27C-9.94 6.21-10 12.73-10 13a1 1 0 0 0 1 1c.55-.03 1-.45 1-1 0-.05.05-5.23 3.24-6.03C-.23 5.84.93 1.43.97 1.24A1 1 0 0 0 0 0" style="fill:#fcab40;fill-opacity:1;fill-rule:nonzero;stroke:none" transform="translate(28.999 1)"/><path d="M0 0c-1.1 0-1.6.8-1.1 1.79L.1 4.2c.5.99 1.3.99 1.8 0l1.2-2.4C3.6.8 3.1 0 2 0Z" style="fill:#bb1a34;fill-opacity:1;fill-rule:nonzero;stroke:none" transform="translate(19 12)"/><path d="M0 0c0-6-7-12-9-12s-9 6-9 12c0 5.8 4.58 9 9 9s9-3.2 9-9" style="fill:#bb1a34;fill-opacity:1;fill-rule:nonzero;stroke:none" transform="translate(29 28)"/><path d="M0 0h-2a1 1 0 1 0 0 2h2a1 1 0 1 0 0-2" style="fill:#fcab40;fill-opacity:1;fill-rule:nonzero;stroke:none" transform="translate(21 15)"/></g><g clip-path="url(#f)" transform="rotate(185.758 12.703 7.718)scale(-.3882 .3882)"><path d="M0 0a1 1 0 0 0-.97.76c-.03.13-.92 3.43-4.27 4.27C-9.94 6.21-10 12.73-10 13a1 1 0 0 0 1 1c.55-.03 1-.45 1-1 0-.05.05-5.23 3.24-6.03C-.23 5.84.93 1.43.97 1.24A1 1 0 0 0 0 0" style="fill:#fcab40;fill-opacity:1;fill-rule:nonzero;stroke:none" transform="translate(28.999 1)"/><path d="M0 0c-1.1 0-1.6.8-1.1 1.79L.1 4.2c.5.99 1.3.99 1.8 0l1.2-2.4C3.6.8 3.1 0 2 0Z" style="fill:#bb1a34;fill-opacity:1;fill-rule:nonzero;stroke:none" transform="translate(19 12)"/><path d="M0 0c0-6-7-12-9-12s-9 6-9 12c0 5.8 4.58 9 9 9s9-3.2 9-9" style="fill:#bb1a34;fill-opacity:1;fill-rule:nonzero;stroke:none" transform="translate(29 28)"/><path d="M0 0h-2a1 1 0 1 0 0 2h2a1 1 0 1 0 0-2" style="fill:#fcab40;fill-opacity:1;fill-rule:nonzero;stroke:none" transform="translate(21 15)"/></g></svg>