<svg xmlns="http://www.w3.org/2000/svg" width="892.03" height="273.5" viewBox="0 0 236.02 72.36"><g transform="translate(-41.351 -13.605)"><path d="M-128.26 56.18c-10.16 0-18.95 2.56-26.3 9.4s-9.58 14.51-10.01 23.53c-.44 9.03 1.15 18.5 1.21 25.1-17.53 1.71-44.03 7.13-58.99 10.51l-6.8-38.4a.87.87 21.43 0 0-1.39-.55l-34.95 26.45a.8.8 84.35 0 0 .13 1.36l39.13 18.92c3.68 5.03 11.88 18.58 16.88 24.51 6.8 8.07 19.12 22.4 46.6 23.76 26.09 1.3 46.42-10.43 54.86-22.3s10.37-45.62 10.37-45.62l46.01-14.92a.52.52 90.08 0 0 0-.98l-46.16-15.12c-2.58-6.46-6.07-11.67-10.5-16.89-4.28-5.03-13.51-8.76-20.1-8.76z" style="font-variation-settings:&quot;wght&quot;900;fill:#4d4d4d;stroke:#fff;stroke-width:14.4;stroke-dasharray:none;stroke-opacity:1;paint-order:stroke fill markers" transform="translate(209.76 17.832)scale(.2773)"/><path d="M-128.26 56.18c-10.16 0-18.95 2.56-26.3 9.4s-9.58 14.51-10.01 23.53c-.44 9.03 1.15 18.5 1.21 25.1-17.53 1.71-44.03 7.13-58.99 10.51l-6.8-38.4a.87.87 21.43 0 0-1.39-.55l-34.95 26.45a.8.8 84.35 0 0 .13 1.36l39.13 18.92c3.68 5.03 11.88 18.58 16.88 24.51 6.8 8.07 19.12 22.4 46.6 23.76 26.09 1.3 46.42-10.43 54.86-22.3s10.37-45.62 10.37-45.62l46.01-14.92a.52.52 90.08 0 0 0-.98l-46.16-15.12c-2.58-6.46-6.07-11.67-10.5-16.89-4.28-5.03-13.51-8.76-20.1-8.76z" style="font-variation-settings:&quot;wght&quot;900;fill:#4d4d4d;stroke:#fff;stroke-width:14.4;stroke-dasharray:none;stroke-opacity:1;paint-order:stroke fill markers" transform="matrix(-.2773 0 0 .2773 199.093 11.394)"/><path d="M-128.26 56.18c-10.16 0-18.95 2.56-26.3 9.4s-9.58 14.51-10.01 23.53c-.44 9.03 1.15 18.5 1.21 25.1-17.53 1.71-44.03 7.13-58.99 10.51l-6.8-38.4a.87.87 21.43 0 0-1.39-.55l-34.95 26.45a.8.8 84.35 0 0 .13 1.36l39.13 18.92c3.68 5.03 11.88 18.58 16.88 24.51 6.8 8.07 19.12 22.4 46.6 23.76 26.09 1.3 46.42-10.43 54.86-22.3s10.37-45.62 10.37-45.62l46.01-14.92a.52.52 90.08 0 0 0-.98l-46.16-15.12c-2.58-6.46-6.07-11.67-10.5-16.89-4.28-5.03-13.51-8.76-20.1-8.76z" style="font-variation-settings:&quot;wght&quot;900;fill:#4d4d4d;stroke:#fff;stroke-width:14.4;stroke-dasharray:none;stroke-opacity:1;paint-order:stroke fill markers" transform="matrix(-.2773 0 0 .2773 94.933 .023)"/><path d="M-128.26 56.18c-10.16 0-18.95 2.56-26.3 9.4s-9.58 14.51-10.01 23.53c-.44 9.03 1.15 18.5 1.21 25.1-17.53 1.71-44.03 7.13-58.99 10.51l-6.8-38.4a.87.87 21.43 0 0-1.39-.55l-34.95 26.45a.8.8 84.35 0 0 .13 1.36l39.13 18.92c3.68 5.03 11.88 18.58 16.88 24.51 6.8 8.07 19.12 22.4 46.6 23.76 26.09 1.3 46.42-10.43 54.86-22.3s10.37-45.62 10.37-45.62l46.01-14.92a.52.52 90.08 0 0 0-.98l-46.16-15.12c-2.58-6.46-6.07-11.67-10.5-16.89-4.28-5.03-13.51-8.76-20.1-8.76z" style="font-variation-settings:&quot;wght&quot;900;fill:#4d4d4d;stroke:#fff;stroke-width:14.4;stroke-dasharray:none;stroke-opacity:1;paint-order:stroke fill markers" transform="matrix(-.2773 0 0 .2773 72.775 20.233)"/><path d="M-128.26 56.18c-10.16 0-18.95 2.56-26.3 9.4s-9.58 14.51-10.01 23.53c-.44 9.03 1.15 18.5 1.21 25.1-17.53 1.71-44.03 7.13-58.99 10.51l-6.8-38.4a.87.87 21.43 0 0-1.39-.55l-34.95 26.45a.8.8 84.35 0 0 .13 1.36l39.13 18.92c3.68 5.03 11.88 18.58 16.88 24.51 6.8 8.07 19.12 22.4 46.6 23.76 26.09 1.3 46.42-10.43 54.86-22.3s10.37-45.62 10.37-45.62l46.01-14.92a.52.52 90.08 0 0 0-.98l-46.16-15.12c-2.58-6.46-6.07-11.67-10.5-16.89-4.28-5.03-13.51-8.76-20.1-8.76z" style="font-variation-settings:&quot;wght&quot;900;fill:#4d4d4d;stroke:#fff;stroke-width:14.4;stroke-dasharray:none;stroke-opacity:1;paint-order:stroke fill markers" transform="translate(244.593 3.18)scale(.2773)"/><g style="stroke:#fff;stroke-width:10.4;stroke-dasharray:none;stroke-opacity:1"><path d="m126.62 154.74-.3 35.66m-.29.23 14.9 9.98m-13.77-10.54 16.88 7.86m-16.94-8.3 17.85 4.66" style="font-variation-settings:&quot;wght&quot;900;fill:none;fill-opacity:1;stroke:#fff;stroke-width:10.4;stroke-linecap:round;stroke-dasharray:none;stroke-opacity:1;paint-order:stroke fill markers" transform="translate(167.873 11.013)scale(.2773)"/></g><g style="stroke:#fff;stroke-width:10.4;stroke-dasharray:none;stroke-opacity:1"><g style="stroke:#fff;stroke-width:10.4;stroke-dasharray:none;stroke-opacity:1"><path d="m109.1 155.77-.3 37.93m-.29.23 14.9 9.97" style="font-variation-settings:&quot;wght&quot;900;fill:none;fill-opacity:1;stroke:#fff;stroke-width:10.4;stroke-linecap:round;stroke-dasharray:none;stroke-opacity:1;paint-order:stroke fill markers" transform="translate(168.357 10.932)scale(.2773)"/></g><path d="m109.65 193.37 16.87 7.86m-16.95-8.3 17.87 4.66" style="font-variation-settings:&quot;wght&quot;900;fill:none;fill-opacity:1;stroke:#fff;stroke-width:10.4;stroke-linecap:round;stroke-dasharray:none;stroke-opacity:1;paint-order:stroke fill markers" transform="translate(168.357 10.932)scale(.2773)"/></g><path d="M-128.26 56.18c-10.16 0-18.95 2.56-26.3 9.4s-9.58 14.51-10.01 23.53c-.44 9.03 1.15 18.5 1.21 25.1-17.53 1.71-44.03 7.13-58.99 10.51l-6.8-38.4a.87.87 21.43 0 0-1.39-.55l-34.95 26.45a.8.8 84.35 0 0 .13 1.36l39.13 18.92c3.68 5.03 11.88 18.58 16.88 24.51 6.8 8.07 19.12 22.4 46.6 23.76 26.09 1.3 46.42-10.43 54.86-22.3s10.37-45.62 10.37-45.62l46.01-14.92a.52.52 90.08 0 0 0-.98l-46.16-15.12c-2.58-6.46-6.07-11.67-10.5-16.89-4.28-5.03-13.51-8.76-20.1-8.76z" style="font-variation-settings:&quot;wght&quot;900;fill:#9c9c9c;fill-opacity:1;stroke:#000;stroke-width:6;stroke-dasharray:none;stroke-opacity:1;paint-order:stroke fill markers" transform="translate(244.593 3.18)scale(.2773)"/><circle cx="207.21" cy="28.56" r="3.79" style="font-variation-settings:&quot;wght&quot;900;fill:#f4f4f4;fill-opacity:1;stroke:#000;stroke-width:1.66378;stroke-dasharray:none;stroke-opacity:1;paint-order:stroke fill markers"/><ellipse cx="207.21" cy="28.56" rx="3.19" ry="3.26" style="font-variation-settings:&quot;wght&quot;900;fill:#000;fill-opacity:1;stroke:none;stroke-width:.966653;stroke-dasharray:none;stroke-opacity:1;paint-order:stroke fill markers"/><path d="m172.93 35.58 5.26 4.3m-1.43-7.2 3.3 5.59" style="font-variation-settings:&quot;wght&quot;900;fill:none;fill-opacity:1;stroke:#000;stroke-width:.831894;stroke-linecap:round;stroke-dasharray:none;stroke-opacity:1;paint-order:stroke fill markers"/><path d="m109.1 155.77-.3 37.93m-.29.23 14.9 9.97m-13.76-10.53 16.87 7.86m-16.95-8.3 17.87 4.66" style="font-variation-settings:&quot;wght&quot;900;fill:none;fill-opacity:1;stroke:#000;stroke-width:3;stroke-linecap:round;stroke-dasharray:none;stroke-opacity:1;paint-order:stroke fill markers" transform="translate(168.357 10.932)scale(.2773)"/><path d="m126.62 154.74-.3 35.66m-.29.23 14.9 9.98m-13.77-10.54 16.88 7.86m-16.94-8.3 17.85 4.66" style="font-variation-settings:&quot;wght&quot;900;fill:none;fill-opacity:1;stroke:#000;stroke-width:3;stroke-linecap:round;stroke-dasharray:none;stroke-opacity:1;paint-order:stroke fill markers" transform="translate(167.873 11.013)scale(.2773)"/><path d="m-163.9 125.72-45.03 13.1c-1.05.31-1.4 1.3-.73 2.15 15 18.79 64.59 27.88 80.87 4.02" style="font-variation-settings:&quot;wght&quot;900;fill:none;fill-opacity:1;stroke:#000;stroke-width:3;stroke-linecap:round;stroke-dasharray:none;stroke-opacity:1;paint-order:stroke fill markers" transform="translate(244.593 3.18)scale(.2773)"/><g style="stroke:#fff;stroke-width:10.4;stroke-dasharray:none;stroke-opacity:1"><path d="m126.62 154.74-.3 35.66m-.29.23 14.9 9.98m-13.77-10.54 16.88 7.86m-16.94-8.3 17.85 4.66" style="font-variation-settings:&quot;wght&quot;900;fill:none;fill-opacity:1;stroke:#fff;stroke-width:10.4;stroke-linecap:round;stroke-dasharray:none;stroke-opacity:1;paint-order:stroke fill markers" transform="matrix(-.2773 0 0 .2773 275.813 19.226)"/></g><g style="stroke:#fff;stroke-width:10.4;stroke-dasharray:none;stroke-opacity:1"><g style="stroke:#fff;stroke-width:10.4;stroke-dasharray:none;stroke-opacity:1"><path d="m109.1 155.77-.3 37.93m-.29.23 14.9 9.97" style="font-variation-settings:&quot;wght&quot;900;fill:none;fill-opacity:1;stroke:#fff;stroke-width:10.4;stroke-linecap:round;stroke-dasharray:none;stroke-opacity:1;paint-order:stroke fill markers" transform="matrix(-.2773 0 0 .2773 275.328 19.146)"/></g><path d="m109.65 193.37 16.87 7.86m-16.95-8.3 17.87 4.66" style="font-variation-settings:&quot;wght&quot;900;fill:none;fill-opacity:1;stroke:#fff;stroke-width:10.4;stroke-linecap:round;stroke-dasharray:none;stroke-opacity:1;paint-order:stroke fill markers" transform="matrix(-.2773 0 0 .2773 275.328 19.146)"/></g><path d="M-128.26 56.18c-10.16 0-18.95 2.56-26.3 9.4s-9.58 14.51-10.01 23.53c-.44 9.03 1.15 18.5 1.21 25.1-17.53 1.71-44.03 7.13-58.99 10.51l-6.8-38.4a.87.87 21.43 0 0-1.39-.55l-34.95 26.45a.8.8 84.35 0 0 .13 1.36l39.13 18.92c3.68 5.03 11.88 18.58 16.88 24.51 6.8 8.07 19.12 22.4 46.6 23.76 26.09 1.3 46.42-10.43 54.86-22.3s10.37-45.62 10.37-45.62l46.01-14.92a.52.52 90.08 0 0 0-.98l-46.16-15.12c-2.58-6.46-6.07-11.67-10.5-16.89-4.28-5.03-13.51-8.76-20.1-8.76z" style="font-variation-settings:&quot;wght&quot;900;fill:#efefef;fill-opacity:1;stroke:#000;stroke-width:6;stroke-dasharray:none;stroke-opacity:1;paint-order:stroke fill markers" transform="matrix(-.2773 0 0 .2773 199.093 11.394)"/><circle cx="-236.47" cy="36.77" r="3.79" style="font-variation-settings:&quot;wght&quot;900;fill:#f4f4f4;fill-opacity:1;stroke:#000;stroke-width:1.66378;stroke-dasharray:none;stroke-opacity:1;paint-order:stroke fill markers" transform="scale(-1 1)"/><ellipse cx="-236.47" cy="36.77" rx="3.19" ry="3.26" style="font-variation-settings:&quot;wght&quot;900;fill:#000;fill-opacity:1;stroke:none;stroke-width:.966653;stroke-dasharray:none;stroke-opacity:1;paint-order:stroke fill markers" transform="scale(-1 1)"/><path d="m270.17 40.44-5.25 4.31m1.43-7.21-3.32 5.59" style="font-variation-settings:&quot;wght&quot;900;fill:none;fill-opacity:1;stroke:#000;stroke-width:.831894;stroke-linecap:round;stroke-dasharray:none;stroke-opacity:1;paint-order:stroke fill markers"/><path d="m109.1 155.77-.3 37.93m-.29.23 14.9 9.97m-13.76-10.53 16.87 7.86m-16.95-8.3 17.87 4.66" style="font-variation-settings:&quot;wght&quot;900;fill:none;fill-opacity:1;stroke:#000;stroke-width:3;stroke-linecap:round;stroke-dasharray:none;stroke-opacity:1;paint-order:stroke fill markers" transform="matrix(-.2773 0 0 .2773 275.328 19.146)"/><path d="m126.62 154.74-.3 35.66m-.29.23 14.9 9.98m-13.77-10.54 16.88 7.86m-16.94-8.3 17.85 4.66" style="font-variation-settings:&quot;wght&quot;900;fill:none;fill-opacity:1;stroke:#000;stroke-width:3;stroke-linecap:round;stroke-dasharray:none;stroke-opacity:1;paint-order:stroke fill markers" transform="matrix(-.2773 0 0 .2773 275.813 19.226)"/><path d="m-163.9 125.72-45.03 13.1c-1.05.31-1.4 1.3-.73 2.15 15 18.79 64.59 27.88 80.87 4.02" style="font-variation-settings:&quot;wght&quot;900;fill:none;fill-opacity:1;stroke:#000;stroke-width:3;stroke-linecap:round;stroke-dasharray:none;stroke-opacity:1;paint-order:stroke fill markers" transform="matrix(-.2773 0 0 .2773 199.093 11.394)"/><g style="stroke:#fff;stroke-width:10.4;stroke-dasharray:none;stroke-opacity:1"><path d="m126.62 154.74-.3 35.66m-.29.23 14.9 9.98m-13.77-10.54 16.88 7.86m-16.94-8.3 17.85 4.66" style="font-variation-settings:&quot;wght&quot;900;fill:none;fill-opacity:1;stroke:#fff;stroke-width:10.4;stroke-linecap:round;stroke-dasharray:none;stroke-opacity:1;paint-order:stroke fill markers" transform="matrix(-.2773 0 0 .2773 171.654 7.855)"/></g><g style="stroke:#fff;stroke-width:10.4;stroke-dasharray:none;stroke-opacity:1"><g style="stroke:#fff;stroke-width:10.4;stroke-dasharray:none;stroke-opacity:1"><path d="m109.1 155.77-.3 37.93m-.29.23 14.9 9.97" style="font-variation-settings:&quot;wght&quot;900;fill:none;fill-opacity:1;stroke:#fff;stroke-width:10.4;stroke-linecap:round;stroke-dasharray:none;stroke-opacity:1;paint-order:stroke fill markers" transform="matrix(-.2773 0 0 .2773 171.17 7.774)"/></g><path d="m109.65 193.37 16.87 7.86m-16.95-8.3 17.87 4.66" style="font-variation-settings:&quot;wght&quot;900;fill:none;fill-opacity:1;stroke:#fff;stroke-width:10.4;stroke-linecap:round;stroke-dasharray:none;stroke-opacity:1;paint-order:stroke fill markers" transform="matrix(-.2773 0 0 .2773 171.17 7.774)"/></g><path d="M-128.26 56.18c-10.16 0-18.95 2.56-26.3 9.4s-9.58 14.51-10.01 23.53c-.44 9.03 1.15 18.5 1.21 25.1-17.53 1.71-44.03 7.13-58.99 10.51l-6.8-38.4a.87.87 21.43 0 0-1.39-.55l-34.95 26.45a.8.8 84.35 0 0 .13 1.36l39.13 18.92c3.68 5.03 11.88 18.58 16.88 24.51 6.8 8.07 19.12 22.4 46.6 23.76 26.09 1.3 46.42-10.43 54.86-22.3s10.37-45.62 10.37-45.62l46.01-14.92a.52.52 90.08 0 0 0-.98l-46.16-15.12c-2.58-6.46-6.07-11.67-10.5-16.89-4.28-5.03-13.51-8.76-20.1-8.76z" style="font-variation-settings:&quot;wght&quot;900;fill:#efefef;fill-opacity:1;stroke:#000;stroke-width:6;stroke-dasharray:none;stroke-opacity:1;paint-order:stroke fill markers" transform="matrix(-.2773 0 0 .2773 94.933 .023)"/><circle cx="-132.31" cy="25.4" r="3.79" style="font-variation-settings:&quot;wght&quot;900;fill:#f4f4f4;fill-opacity:1;stroke:#000;stroke-width:1.66378;stroke-dasharray:none;stroke-opacity:1;paint-order:stroke fill markers" transform="scale(-1 1)"/><ellipse cx="-132.31" cy="25.4" rx="3.19" ry="3.26" style="font-variation-settings:&quot;wght&quot;900;fill:#000;fill-opacity:1;stroke:none;stroke-width:.966653;stroke-dasharray:none;stroke-opacity:1;paint-order:stroke fill markers" transform="scale(-1 1)"/><path d="m166 29.07-5.24 4.3m1.43-7.2-3.31 5.59" style="font-variation-settings:&quot;wght&quot;900;fill:none;fill-opacity:1;stroke:#000;stroke-width:.831894;stroke-linecap:round;stroke-dasharray:none;stroke-opacity:1;paint-order:stroke fill markers"/><path d="m109.1 155.77-.3 37.93m-.29.23 14.9 9.97m-13.76-10.53 16.87 7.86m-16.95-8.3 17.87 4.66" style="font-variation-settings:&quot;wght&quot;900;fill:none;fill-opacity:1;stroke:#000;stroke-width:3;stroke-linecap:round;stroke-dasharray:none;stroke-opacity:1;paint-order:stroke fill markers" transform="matrix(-.2773 0 0 .2773 171.17 7.774)"/><path d="m126.62 154.74-.3 35.66m-.29.23 14.9 9.98m-13.77-10.54 16.88 7.86m-16.94-8.3 17.85 4.66" style="font-variation-settings:&quot;wght&quot;900;fill:none;fill-opacity:1;stroke:#000;stroke-width:3;stroke-linecap:round;stroke-dasharray:none;stroke-opacity:1;paint-order:stroke fill markers" transform="matrix(-.2773 0 0 .2773 171.654 7.855)"/><path d="m-163.9 125.72-45.03 13.1c-1.05.31-1.4 1.3-.73 2.15 15 18.79 64.59 27.88 80.87 4.02" style="font-variation-settings:&quot;wght&quot;900;fill:none;fill-opacity:1;stroke:#000;stroke-width:3;stroke-linecap:round;stroke-dasharray:none;stroke-opacity:1;paint-order:stroke fill markers" transform="matrix(-.2773 0 0 .2773 94.933 .023)"/><g transform="translate(23.029 5.125)scale(.68053)"><path d="M-128.26 56.18c-10.16 0-18.95 2.56-26.3 9.4s-9.58 14.51-10.01 23.53c-.44 9.03 1.15 18.5 1.21 25.1-17.53 1.71-44.03 7.13-58.99 10.51l-6.8-38.4a.87.87 21.43 0 0-1.39-.55l-34.95 26.45a.8.8 84.35 0 0 .13 1.36l39.13 18.92c3.68 5.03 11.88 18.58 16.88 24.51 6.8 8.07 19.12 22.4 46.6 23.76 26.09 1.3 46.42-10.43 54.86-22.3s10.37-45.62 10.37-45.62l46.01-14.92a.52.52 90.08 0 0 0-.98l-46.16-15.12c-2.58-6.46-6.07-11.67-10.5-16.89-4.28-5.03-13.51-8.76-20.1-8.76z" style="font-variation-settings:&quot;wght&quot;900;fill:#4d4d4d;stroke:#fff;stroke-width:14.4;stroke-dasharray:none;stroke-opacity:1;paint-order:stroke fill markers" transform="translate(138.089 5.208)scale(.40747)"/><g style="stroke:#fff;stroke-width:10.4;stroke-dasharray:none;stroke-opacity:1"><path d="m126.62 154.74-.3 35.66m-.29.23 14.9 9.98m-13.77-10.54 16.88 7.86m-16.94-8.3 17.85 4.66" style="font-variation-settings:&quot;wght&quot;900;fill:none;fill-opacity:1;stroke:#fff;stroke-width:10.4;stroke-linecap:round;stroke-dasharray:none;stroke-opacity:1;paint-order:stroke fill markers" transform="translate(25.352 16.716)scale(.40747)"/></g><g style="stroke:#fff;stroke-width:10.4;stroke-dasharray:none;stroke-opacity:1"><g style="stroke:#fff;stroke-width:10.4;stroke-dasharray:none;stroke-opacity:1"><path d="m109.1 155.77-.3 37.93m-.29.23 14.9 9.97" style="font-variation-settings:&quot;wght&quot;900;fill:none;fill-opacity:1;stroke:#fff;stroke-width:10.4;stroke-linecap:round;stroke-dasharray:none;stroke-opacity:1;paint-order:stroke fill markers" transform="translate(26.065 16.598)scale(.40747)"/></g><path d="m109.65 193.37 16.87 7.86m-16.95-8.3 17.87 4.66" style="font-variation-settings:&quot;wght&quot;900;fill:none;fill-opacity:1;stroke:#fff;stroke-width:10.4;stroke-linecap:round;stroke-dasharray:none;stroke-opacity:1;paint-order:stroke fill markers" transform="translate(26.065 16.598)scale(.40747)"/></g><path d="M-128.26 56.18c-10.16 0-18.95 2.56-26.3 9.4s-9.58 14.51-10.01 23.53c-.44 9.03 1.15 18.5 1.21 25.1-17.53 1.71-44.03 7.13-58.99 10.51l-6.8-38.4a.87.87 21.43 0 0-1.39-.55l-34.95 26.45a.8.8 84.35 0 0 .13 1.36l39.13 18.92c3.68 5.03 11.88 18.58 16.88 24.51 6.8 8.07 19.12 22.4 46.6 23.76 26.09 1.3 46.42-10.43 54.86-22.3s10.37-45.62 10.37-45.62l46.01-14.92a.52.52 90.08 0 0 0-.98l-46.16-15.12c-2.58-6.46-6.07-11.67-10.5-16.89-4.28-5.03-13.51-8.76-20.1-8.76z" style="font-variation-settings:&quot;wght&quot;900;fill:#4d4d4d;fill-opacity:1;stroke:#000;stroke-width:6;stroke-dasharray:none;stroke-opacity:1;paint-order:stroke fill markers" transform="translate(138.089 5.208)scale(.40747)"/><circle cx="83.16" cy="42.5" r="5.58" style="font-variation-settings:&quot;wght&quot;900;fill:#f4f4f4;fill-opacity:1;stroke:#000;stroke-width:2.44483;stroke-dasharray:none;stroke-opacity:1;paint-order:stroke fill markers"/><ellipse cx="83.16" cy="42.5" rx="4.69" ry="4.79" style="font-variation-settings:&quot;wght&quot;900;fill:#000;fill-opacity:1;stroke:none;stroke-width:1.42044;stroke-dasharray:none;stroke-opacity:1;paint-order:stroke fill markers"/><path d="m33.65 47.89 7.71 6.33m-2.1-10.59 4.87 8.2" style="font-variation-settings:&quot;wght&quot;900;fill:none;fill-opacity:1;stroke:#000;stroke-width:1.22242;stroke-linecap:round;stroke-dasharray:none;stroke-opacity:1;paint-order:stroke fill markers"/><path d="m109.1 155.77-.3 37.93m-.29.23 14.9 9.97m-13.76-10.53 16.87 7.86m-16.95-8.3 17.87 4.66" style="font-variation-settings:&quot;wght&quot;900;fill:none;fill-opacity:1;stroke:#000;stroke-width:3;stroke-linecap:round;stroke-dasharray:none;stroke-opacity:1;paint-order:stroke fill markers" transform="translate(26.065 16.598)scale(.40747)"/><path d="m126.62 154.74-.3 35.66m-.29.23 14.9 9.98m-13.77-10.54 16.88 7.86m-16.94-8.3 17.85 4.66" style="font-variation-settings:&quot;wght&quot;900;fill:none;fill-opacity:1;stroke:#000;stroke-width:3;stroke-linecap:round;stroke-dasharray:none;stroke-opacity:1;paint-order:stroke fill markers" transform="translate(25.352 16.716)scale(.40747)"/><path d="m-163.9 125.72-45.03 13.1c-1.05.31-1.4 1.3-.73 2.15 15 18.79 64.59 27.88 80.87 4.02" style="font-variation-settings:&quot;wght&quot;900;fill:none;fill-opacity:1;stroke:#000;stroke-width:3;stroke-linecap:round;stroke-dasharray:none;stroke-opacity:1;paint-order:stroke fill markers" transform="translate(138.089 5.208)scale(.40747)"/></g><g style="stroke:#fff;stroke-width:10.4;stroke-dasharray:none;stroke-opacity:1"><path d="m126.62 154.74-.3 35.66m-.29.23 14.9 9.98m-13.77-10.54 16.88 7.86m-16.94-8.3 17.85 4.66" style="font-variation-settings:&quot;wght&quot;900;fill:none;fill-opacity:1;stroke:#fff;stroke-width:10.4;stroke-linecap:round;stroke-dasharray:none;stroke-opacity:1;paint-order:stroke fill markers" transform="translate(133.04 25.664)scale(.2773)"/></g><g style="stroke:#fff;stroke-width:10.4;stroke-dasharray:none;stroke-opacity:1"><g style="stroke:#fff;stroke-width:10.4;stroke-dasharray:none;stroke-opacity:1"><path d="m109.1 155.77-.3 37.93m-.29.23 14.9 9.97" style="font-variation-settings:&quot;wght&quot;900;fill:none;fill-opacity:1;stroke:#fff;stroke-width:10.4;stroke-linecap:round;stroke-dasharray:none;stroke-opacity:1;paint-order:stroke fill markers" transform="translate(133.525 25.583)scale(.2773)"/></g><path d="m109.65 193.37 16.87 7.86m-16.95-8.3 17.87 4.66" style="font-variation-settings:&quot;wght&quot;900;fill:none;fill-opacity:1;stroke:#fff;stroke-width:10.4;stroke-linecap:round;stroke-dasharray:none;stroke-opacity:1;paint-order:stroke fill markers" transform="translate(133.525 25.583)scale(.2773)"/></g><path d="M-128.26 56.18c-10.16 0-18.95 2.56-26.3 9.4s-9.58 14.51-10.01 23.53c-.44 9.03 1.15 18.5 1.21 25.1-17.53 1.71-44.03 7.13-58.99 10.51l-6.8-38.4a.87.87 21.43 0 0-1.39-.55l-34.95 26.45a.8.8 84.35 0 0 .13 1.36l39.13 18.92c3.68 5.03 11.88 18.58 16.88 24.51 6.8 8.07 19.12 22.4 46.6 23.76 26.09 1.3 46.42-10.43 54.86-22.3s10.37-45.62 10.37-45.62l46.01-14.92a.52.52 90.08 0 0 0-.98l-46.16-15.12c-2.58-6.46-6.07-11.67-10.5-16.89-4.28-5.03-13.51-8.76-20.1-8.76z" style="font-variation-settings:&quot;wght&quot;900;fill:#4d4d4d;fill-opacity:1;stroke:#000;stroke-width:6;stroke-dasharray:none;stroke-opacity:1;paint-order:stroke fill markers" transform="translate(209.76 17.832)scale(.2773)"/><circle cx="172.38" cy="43.21" r="3.79" style="font-variation-settings:&quot;wght&quot;900;fill:#f4f4f4;fill-opacity:1;stroke:#000;stroke-width:1.66378;stroke-dasharray:none;stroke-opacity:1;paint-order:stroke fill markers"/><ellipse cx="172.38" cy="43.21" rx="3.19" ry="3.26" style="font-variation-settings:&quot;wght&quot;900;fill:#000;fill-opacity:1;stroke:none;stroke-width:.966653;stroke-dasharray:none;stroke-opacity:1;paint-order:stroke fill markers"/><path d="m138.69 46.88 5.25 4.3m-1.44-7.2 3.32 5.58" style="font-variation-settings:&quot;wght&quot;900;fill:none;fill-opacity:1;stroke:#000;stroke-width:.831894;stroke-linecap:round;stroke-dasharray:none;stroke-opacity:1;paint-order:stroke fill markers"/><path d="m109.1 155.77-.3 37.93m-.29.23 14.9 9.97m-13.76-10.53 16.87 7.86m-16.95-8.3 17.87 4.66" style="font-variation-settings:&quot;wght&quot;900;fill:none;fill-opacity:1;stroke:#000;stroke-width:3;stroke-linecap:round;stroke-dasharray:none;stroke-opacity:1;paint-order:stroke fill markers" transform="translate(133.525 25.583)scale(.2773)"/><path d="m126.62 154.74-.3 35.66m-.29.23 14.9 9.98m-13.77-10.54 16.88 7.86m-16.94-8.3 17.85 4.66" style="font-variation-settings:&quot;wght&quot;900;fill:none;fill-opacity:1;stroke:#000;stroke-width:3;stroke-linecap:round;stroke-dasharray:none;stroke-opacity:1;paint-order:stroke fill markers" transform="translate(133.04 25.664)scale(.2773)"/><path d="m-163.9 125.72-45.03 13.1c-1.05.31-1.4 1.3-.73 2.15 15 18.79 64.59 27.88 80.87 4.02" style="font-variation-settings:&quot;wght&quot;900;fill:none;fill-opacity:1;stroke:#000;stroke-width:3;stroke-linecap:round;stroke-dasharray:none;stroke-opacity:1;paint-order:stroke fill markers" transform="translate(209.76 17.832)scale(.2773)"/><g style="stroke:#fff;stroke-width:10.4;stroke-dasharray:none;stroke-opacity:1"><path d="m126.62 154.74-.3 35.66m-.29.23 14.9 9.98m-13.77-10.54 16.88 7.86m-16.94-8.3 17.85 4.66" style="font-variation-settings:&quot;wght&quot;900;fill:none;fill-opacity:1;stroke:#fff;stroke-width:10.4;stroke-linecap:round;stroke-dasharray:none;stroke-opacity:1;paint-order:stroke fill markers" transform="matrix(-.2773 0 0 .2773 149.496 28.066)"/></g><g style="stroke:#fff;stroke-width:10.4;stroke-dasharray:none;stroke-opacity:1"><g style="stroke:#fff;stroke-width:10.4;stroke-dasharray:none;stroke-opacity:1"><path d="m109.1 155.77-.3 37.93m-.29.23 14.9 9.97" style="font-variation-settings:&quot;wght&quot;900;fill:none;fill-opacity:1;stroke:#fff;stroke-width:10.4;stroke-linecap:round;stroke-dasharray:none;stroke-opacity:1;paint-order:stroke fill markers" transform="matrix(-.2773 0 0 .2773 149.011 27.985)"/></g><path d="m109.65 193.37 16.87 7.86m-16.95-8.3 17.87 4.66" style="font-variation-settings:&quot;wght&quot;900;fill:none;fill-opacity:1;stroke:#fff;stroke-width:10.4;stroke-linecap:round;stroke-dasharray:none;stroke-opacity:1;paint-order:stroke fill markers" transform="matrix(-.2773 0 0 .2773 149.011 27.985)"/></g><path d="M-128.26 56.18c-10.16 0-18.95 2.56-26.3 9.4s-9.58 14.51-10.01 23.53c-.44 9.03 1.15 18.5 1.21 25.1-17.53 1.71-44.03 7.13-58.99 10.51l-6.8-38.4a.87.87 21.43 0 0-1.39-.55l-34.95 26.45a.8.8 84.35 0 0 .13 1.36l39.13 18.92c3.68 5.03 11.88 18.58 16.88 24.51 6.8 8.07 19.12 22.4 46.6 23.76 26.09 1.3 46.42-10.43 54.86-22.3s10.37-45.62 10.37-45.62l46.01-14.92a.52.52 90.08 0 0 0-.98l-46.16-15.12c-2.58-6.46-6.07-11.67-10.5-16.89-4.28-5.03-13.51-8.76-20.1-8.76z" style="font-variation-settings:&quot;wght&quot;900;fill:#9c9c9c;fill-opacity:1;stroke:#000;stroke-width:6;stroke-dasharray:none;stroke-opacity:1;paint-order:stroke fill markers" transform="matrix(-.2773 0 0 .2773 72.775 20.233)"/><circle cx="-110.15" cy="45.61" r="3.79" style="font-variation-settings:&quot;wght&quot;900;fill:#f4f4f4;fill-opacity:1;stroke:#000;stroke-width:1.66378;stroke-dasharray:none;stroke-opacity:1;paint-order:stroke fill markers" transform="scale(-1 1)"/><ellipse cx="-110.15" cy="45.61" rx="3.19" ry="3.26" style="font-variation-settings:&quot;wght&quot;900;fill:#000;fill-opacity:1;stroke:none;stroke-width:.966653;stroke-dasharray:none;stroke-opacity:1;paint-order:stroke fill markers" transform="scale(-1 1)"/><path d="m143.85 49.28-5.25 4.3m1.43-7.2-3.31 5.59" style="font-variation-settings:&quot;wght&quot;900;fill:none;fill-opacity:1;stroke:#000;stroke-width:.831894;stroke-linecap:round;stroke-dasharray:none;stroke-opacity:1;paint-order:stroke fill markers"/><path d="m109.1 155.77-.3 37.93m-.29.23 14.9 9.97m-13.76-10.53 16.87 7.86m-16.95-8.3 17.87 4.66" style="font-variation-settings:&quot;wght&quot;900;fill:none;fill-opacity:1;stroke:#000;stroke-width:3;stroke-linecap:round;stroke-dasharray:none;stroke-opacity:1;paint-order:stroke fill markers" transform="matrix(-.2773 0 0 .2773 149.011 27.985)"/><path d="m126.62 154.74-.3 35.66m-.29.23 14.9 9.98m-13.77-10.54 16.88 7.86m-16.94-8.3 17.85 4.66" style="font-variation-settings:&quot;wght&quot;900;fill:none;fill-opacity:1;stroke:#000;stroke-width:3;stroke-linecap:round;stroke-dasharray:none;stroke-opacity:1;paint-order:stroke fill markers" transform="matrix(-.2773 0 0 .2773 149.496 28.066)"/><path d="m-163.9 125.72-45.03 13.1c-1.05.31-1.4 1.3-.73 2.15 15 18.79 64.59 27.88 80.87 4.02" style="font-variation-settings:&quot;wght&quot;900;fill:none;fill-opacity:1;stroke:#000;stroke-width:3;stroke-linecap:round;stroke-dasharray:none;stroke-opacity:1;paint-order:stroke fill markers" transform="matrix(-.2773 0 0 .2773 72.775 20.233)"/></g></svg>