<svg xmlns="http://www.w3.org/2000/svg" width="306.77" height="197.11" viewBox="0 0 81.17 52.15"><path d="M97.44 35.59h-6.82l-7.79.03c-.73 0-1.53.12-2.25.59-.38.24-.55.72-.82 1.1h-3.74c-1.5 0-2.85.83-3.64 2.06a6 6 0 0 0-.72 4.56v.01l.88 4.62c.46 2.35.89 4.63 1 5.1a5.4 5.4 0 0 0 5.36 4.11h5.3q.92 1.22 1.9 2.18a14 14 0 0 1-1.17 4.62h-1.04c-.93 0-1.75.36-2.41.93a3.3 3.3 0 0 0-1.18 2.35c-1.07.38-1.97 1.15-1.97 2.45v.24c0 .5.04 1.24.6 1.9.57.66 1.46.9 2.32.9h18.74c.45 0 .86-.03 1.3-.2.42-.16.88-.52 1.11-.95.47-.85.28-1.38.28-1.65v-.24c0-1.12-.87-2.1-1.98-2.48a3.35 3.35 0 0 0-3.26-3.25h-1.41a14 14 0 0 1-1.16-4.4 18 18 0 0 0 2.16-2.4h5.31a5.4 5.4 0 0 0 5.32-4.05c.1-.38.18-.9.35-1.84l.58-3.32c.42-2.35.8-4.6.8-4.63a6 6 0 0 0-.71-4.56 4.4 4.4 0 0 0-3.64-2.06h-3.43a4 4 0 0 0-1.45-1.28 6 6 0 0 0-2.72-.44zm-19.57 7.55c-.02.02-.11.03.1.03h.48v.07c0 2.7 1.03 5.75 2.37 8.68h-.9c-.08 0-.11 0-.23-.14a1.4 1.4 0 0 1-.28-.6c-.1-.61-.48-2.3-.85-3.98l-.7-3.17c-.1-.67.02-.91 0-.89zm25.32 0c-.02-.02.12.2 0 .9l-.7 3.16c-.36 1.67-.73 3.37-.84 3.99-.04.2-.16.46-.28.59s-.15.14-.22.14h-.73c1.34-2.93 2.37-5.97 2.37-8.68v-.07h.3c.21 0 .11 0 .1-.03z" style="fill:#fff;fill-opacity:1;stroke:#fff;stroke-width:2.773;stroke-dasharray:none;stroke-opacity:1" transform="translate(-4.64 -6.113)scale(.77352)"/><path d="M97.43 37.06h-6.81l-7.79.02c-1.14 0-1.94.38-2.41 1.7h-4.4c-1.95 0-3.49 2.07-2.92 4.87l1.86 9.7c.33 1.5 2.07 2.95 3.94 2.95h5.95a18 18 0 0 0 2.81 3.22c-.18 3-1 5.14-1.76 6.52h-2.01c-1.02 0-2.15.87-2.15 1.94v.98h-.49c-.74 0-1.46.6-1.46 1.34v.24c0 .74.2 1.34 1.46 1.34H100c1.38 0 1.22-.6 1.22-1.34v-.24c0-.74-.48-1.34-1.22-1.34h-.73v-.98c0-1.07-.81-1.94-1.83-1.94h-2.37a15 15 0 0 1-1.75-6.3 17 17 0 0 0 3.08-3.44h5.95c1.9 0 3.55-1.46 3.9-2.92.13-.56 1.72-9.73 1.72-9.73.57-2.8-.97-4.87-2.92-4.87h-4.22c-.57-1.47-1.64-1.72-3.39-1.72zM77.97 41.7h1.98q-.04.7-.04 1.54c0 2.94 1.32 6.79 3.14 10.14H79.9c-1.07 0-1.78-1.01-1.94-1.94-.17-.94-1.55-7.14-1.55-7.14-.32-1.87.47-2.6 1.55-2.6zm23.33 0h1.8c1.07 0 1.86.73 1.53 2.6 0 0-1.38 6.2-1.54 7.14s-.87 1.94-1.94 1.94h-2.96c1.82-3.35 3.14-7.2 3.14-10.14q0-.84-.03-1.54z" style="fill:none;fill-opacity:1;stroke:#000;stroke-width:2.773;stroke-dasharray:none;stroke-opacity:1" transform="translate(-4.64 -6.113)scale(.77352)"/><path fill="#ffac33" d="M77.97 41.7h5.84c1.07 0 1.82-.1 1.82.97v-1.94c0-1.08-.75-1.95-1.82-1.95H76c-1.94 0-3.48 2.07-2.91 4.87l1.86 9.7c.33 1.5 2.07 2.95 3.94 2.95h6.77c1.08 0-.04-1.84-.04-2.92v-1.94c0 1.07-.75 1.94-1.82 1.94h-3.9c-1.07 0-1.78-1.01-1.94-1.94-.17-.94-1.55-7.14-1.55-7.14-.32-1.87.47-2.6 1.55-2.6m25.12 0h-5.84c-1.07 0-2.86-.1-2.86.97v-1.94c0-1.08 1.79-1.95 2.86-1.95h7.79c1.95 0 3.49 2.07 2.92 4.87 0 0-1.59 9.17-1.72 9.73a4.1 4.1 0 0 1-3.9 2.92H95.4c-1.08 0-1-1.84-1-2.92v-1.94c0 1.07 1.79 1.94 2.86 1.94h3.9c1.07 0 1.78-1.01 1.94-1.94.16-.94 1.54-7.14 1.54-7.14.33-1.87-.46-2.6-1.54-2.6m-9.83 16.55c0-6.77-2.64 0-2.64 0s-2.92-6.77-2.92 0-3.2 9.73-3.2 9.73h11.96s-3.2-2.96-3.2-9.73" style="stroke-width:.973481" transform="translate(-4.64 -6.113)scale(.77352)"/><path fill="#ffcc4d" d="M101.33 43.24c0 6.6-6.6 17.7-10.71 17.7s-10.7-11.1-10.7-17.7c0-5.06.97-6.16 2.91-6.16l7.79-.02h6.81c2.84 0 3.9.66 3.9 6.18" style="stroke-width:.973481" transform="translate(-4.64 -6.113)scale(.77352)"/><path fill="#c1694f" d="M99.26 68.96c0 1.07.22 1.95-.85 1.95H82.83c-1.07 0-1.1-.88-1.1-1.95v-.98c0-1.07 1.14-1.94 2.16-1.94h13.54c1.02 0 1.83.87 1.83 1.94z" style="stroke-width:.973481" transform="translate(-4.64 -6.113)scale(.77352)"/><path fill="#c1694f" d="M101.2 70.54c0 .74.17 1.34-1.21 1.34H81.25c-1.26 0-1.46-.6-1.46-1.34v-.24c0-.74.72-1.34 1.46-1.34H100c.74 0 1.22.6 1.22 1.34z" style="stroke-width:.973481" transform="translate(-4.64 -6.113)scale(.77352)"/><g transform="translate(-18.322 -17.126)scale(.68053)"><path d="M-128.26 56.18c-10.16 0-18.95 2.56-26.3 9.4s-9.58 14.51-10.01 23.53c-.44 9.03 1.15 18.5 1.21 25.1-17.53 1.71-44.03 7.13-58.99 10.51l-6.8-38.4a.87.87 21.43 0 0-1.39-.55l-34.95 26.45a.8.8 84.35 0 0 .13 1.36l39.13 18.92c3.68 5.03 11.88 18.58 16.88 24.51 6.8 8.07 19.12 22.4 46.6 23.76 26.09 1.3 46.42-10.43 54.86-22.3s10.37-45.62 10.37-45.62l46.01-14.92a.52.52 90.08 0 0 0-.98l-46.16-15.12c-2.58-6.46-6.07-11.67-10.5-16.89-4.28-5.03-13.51-8.76-20.1-8.76z" style="font-variation-settings:&quot;wght&quot;900;fill:#4d4d4d;stroke:#fff;stroke-width:14.4;stroke-dasharray:none;stroke-opacity:1;paint-order:stroke fill markers" transform="translate(138.089 5.208)scale(.40747)"/><g style="stroke:#fff;stroke-width:10.4;stroke-dasharray:none;stroke-opacity:1"><path d="m126.62 154.74-.3 35.66m-.29.23 14.9 9.98m-13.77-10.54 16.88 7.86m-16.94-8.3 17.85 4.66" style="font-variation-settings:&quot;wght&quot;900;fill:none;fill-opacity:1;stroke:#fff;stroke-width:10.4;stroke-linecap:round;stroke-dasharray:none;stroke-opacity:1;paint-order:stroke fill markers" transform="translate(25.352 16.716)scale(.40747)"/></g><g style="stroke:#fff;stroke-width:10.4;stroke-dasharray:none;stroke-opacity:1"><g style="stroke:#fff;stroke-width:10.4;stroke-dasharray:none;stroke-opacity:1"><path d="m109.1 155.77-.3 37.93m-.29.23 14.9 9.97" style="font-variation-settings:&quot;wght&quot;900;fill:none;fill-opacity:1;stroke:#fff;stroke-width:10.4;stroke-linecap:round;stroke-dasharray:none;stroke-opacity:1;paint-order:stroke fill markers" transform="translate(26.065 16.598)scale(.40747)"/></g><path d="m109.65 193.37 16.87 7.86m-16.95-8.3 17.87 4.66" style="font-variation-settings:&quot;wght&quot;900;fill:none;fill-opacity:1;stroke:#fff;stroke-width:10.4;stroke-linecap:round;stroke-dasharray:none;stroke-opacity:1;paint-order:stroke fill markers" transform="translate(26.065 16.598)scale(.40747)"/></g><path d="M-128.26 56.18c-10.16 0-18.95 2.56-26.3 9.4s-9.58 14.51-10.01 23.53c-.44 9.03 1.15 18.5 1.21 25.1-17.53 1.71-44.03 7.13-58.99 10.51l-6.8-38.4a.87.87 21.43 0 0-1.39-.55l-34.95 26.45a.8.8 84.35 0 0 .13 1.36l39.13 18.92c3.68 5.03 11.88 18.58 16.88 24.51 6.8 8.07 19.12 22.4 46.6 23.76 26.09 1.3 46.42-10.43 54.86-22.3s10.37-45.62 10.37-45.62l46.01-14.92a.52.52 90.08 0 0 0-.98l-46.16-15.12c-2.58-6.46-6.07-11.67-10.5-16.89-4.28-5.03-13.51-8.76-20.1-8.76z" style="font-variation-settings:&quot;wght&quot;900;fill:#9c9c9c;stroke:#000;stroke-width:6;stroke-dasharray:none;stroke-opacity:1;paint-order:stroke fill markers;fill-opacity:1" transform="translate(138.089 5.208)scale(.40747)"/><circle cx="83.16" cy="42.5" r="5.58" style="font-variation-settings:&quot;wght&quot;900;fill:#f4f4f4;fill-opacity:1;stroke:#000;stroke-width:2.44483;stroke-dasharray:none;stroke-opacity:1;paint-order:stroke fill markers"/><ellipse cx="83.16" cy="42.5" rx="4.69" ry="4.79" style="font-variation-settings:&quot;wght&quot;900;fill:#000;fill-opacity:1;stroke:none;stroke-width:1.42044;stroke-dasharray:none;stroke-opacity:1;paint-order:stroke fill markers"/><path d="m33.65 47.89 7.71 6.33m-2.1-10.59 4.87 8.2" style="font-variation-settings:&quot;wght&quot;900;fill:none;fill-opacity:1;stroke:#000;stroke-width:1.22242;stroke-linecap:round;stroke-dasharray:none;stroke-opacity:1;paint-order:stroke fill markers"/><path d="m109.1 155.77-.3 37.93m-.29.23 14.9 9.97m-13.76-10.53 16.87 7.86m-16.95-8.3 17.87 4.66" style="font-variation-settings:&quot;wght&quot;900;fill:none;fill-opacity:1;stroke:#000;stroke-width:3;stroke-linecap:round;stroke-dasharray:none;stroke-opacity:1;paint-order:stroke fill markers" transform="translate(26.065 16.598)scale(.40747)"/><path d="m126.62 154.74-.3 35.66m-.29.23 14.9 9.98m-13.77-10.54 16.88 7.86m-16.94-8.3 17.85 4.66" style="font-variation-settings:&quot;wght&quot;900;fill:none;fill-opacity:1;stroke:#000;stroke-width:3;stroke-linecap:round;stroke-dasharray:none;stroke-opacity:1;paint-order:stroke fill markers" transform="translate(25.352 16.716)scale(.40747)"/><path d="m-163.9 125.72-45.03 13.1c-1.05.31-1.4 1.3-.73 2.15 15 18.79 64.59 27.88 80.87 4.02" style="font-variation-settings:&quot;wght&quot;900;fill:none;fill-opacity:1;stroke:#000;stroke-width:3;stroke-linecap:round;stroke-dasharray:none;stroke-opacity:1;paint-order:stroke fill markers" transform="translate(138.089 5.208)scale(.40747)"/></g></svg>