<svg xmlns="http://www.w3.org/2000/svg" width="297.74" height="222.37" viewBox="0 0 78.78 58.84"><g transform="translate(-18.322 -10.443)scale(.68053)"><path d="M-128.26 56.18c-10.16 0-18.95 2.56-26.3 9.4s-9.58 14.51-10.01 23.53c-.44 9.03 1.15 18.5 1.21 25.1-17.53 1.71-44.03 7.13-58.99 10.51l-6.8-38.4a.87.87 21.43 0 0-1.39-.55l-34.95 26.45a.8.8 84.35 0 0 .13 1.36l39.13 18.92c3.68 5.03 11.88 18.58 16.88 24.51 6.8 8.07 19.12 22.4 46.6 23.76 26.09 1.3 46.42-10.43 54.86-22.3s10.37-45.62 10.37-45.62l46.01-14.92a.52.52 90.08 0 0 0-.98l-46.16-15.12c-2.58-6.46-6.07-11.67-10.5-16.89-4.28-5.03-13.51-8.76-20.1-8.76z" style="font-variation-settings:&quot;wght&quot;900;fill:#4d4d4d;stroke:#fff;stroke-width:14.4;stroke-dasharray:none;stroke-opacity:1;paint-order:stroke fill markers" transform="translate(138.089 5.208)scale(.40747)"/><g style="stroke:#fff;stroke-width:10.4;stroke-dasharray:none;stroke-opacity:1"><path d="m126.62 154.74-.3 35.66m-.29.23 14.9 9.98m-13.77-10.54 16.88 7.86m-16.94-8.3 17.85 4.66" style="font-variation-settings:&quot;wght&quot;900;fill:none;fill-opacity:1;stroke:#fff;stroke-width:10.4;stroke-linecap:round;stroke-dasharray:none;stroke-opacity:1;paint-order:stroke fill markers" transform="translate(25.352 16.716)scale(.40747)"/></g><g style="stroke:#fff;stroke-width:10.4;stroke-dasharray:none;stroke-opacity:1"><g style="stroke:#fff;stroke-width:10.4;stroke-dasharray:none;stroke-opacity:1"><path d="m109.1 155.77-.3 37.93m-.29.23 14.9 9.97" style="font-variation-settings:&quot;wght&quot;900;fill:none;fill-opacity:1;stroke:#fff;stroke-width:10.4;stroke-linecap:round;stroke-dasharray:none;stroke-opacity:1;paint-order:stroke fill markers" transform="translate(26.065 16.598)scale(.40747)"/></g><path d="m109.65 193.37 16.87 7.86m-16.95-8.3 17.87 4.66" style="font-variation-settings:&quot;wght&quot;900;fill:none;fill-opacity:1;stroke:#fff;stroke-width:10.4;stroke-linecap:round;stroke-dasharray:none;stroke-opacity:1;paint-order:stroke fill markers" transform="translate(26.065 16.598)scale(.40747)"/></g><path d="M-128.26 56.18c-10.16 0-18.95 2.56-26.3 9.4s-9.58 14.51-10.01 23.53c-.44 9.03 1.15 18.5 1.21 25.1-17.53 1.71-44.03 7.13-58.99 10.51l-6.8-38.4a.87.87 21.43 0 0-1.39-.55l-34.95 26.45a.8.8 84.35 0 0 .13 1.36l39.13 18.92c3.68 5.03 11.88 18.58 16.88 24.51 6.8 8.07 19.12 22.4 46.6 23.76 26.09 1.3 46.42-10.43 54.86-22.3s10.37-45.62 10.37-45.62l46.01-14.92a.52.52 90.08 0 0 0-.98l-46.16-15.12c-2.58-6.46-6.07-11.67-10.5-16.89-4.28-5.03-13.51-8.76-20.1-8.76z" style="font-variation-settings:&quot;wght&quot;900;fill:#efefef;fill-opacity:1;stroke:#000;stroke-width:6;stroke-dasharray:none;stroke-opacity:1;paint-order:stroke fill markers" transform="translate(138.089 5.208)scale(.40747)"/><circle cx="83.16" cy="42.5" r="5.58" style="font-variation-settings:&quot;wght&quot;900;fill:#f4f4f4;fill-opacity:1;stroke:#000;stroke-width:2.44483;stroke-dasharray:none;stroke-opacity:1;paint-order:stroke fill markers"/><ellipse cx="83.16" cy="42.5" rx="4.69" ry="4.79" style="font-variation-settings:&quot;wght&quot;900;fill:#000;fill-opacity:1;stroke:none;stroke-width:1.42044;stroke-dasharray:none;stroke-opacity:1;paint-order:stroke fill markers"/><path d="m33.65 47.89 7.71 6.33m-2.1-10.59 4.87 8.2" style="font-variation-settings:&quot;wght&quot;900;fill:none;fill-opacity:1;stroke:#000;stroke-width:1.22242;stroke-linecap:round;stroke-dasharray:none;stroke-opacity:1;paint-order:stroke fill markers"/><path d="m109.1 155.77-.3 37.93m-.29.23 14.9 9.97m-13.76-10.53 16.87 7.86m-16.95-8.3 17.87 4.66" style="font-variation-settings:&quot;wght&quot;900;fill:none;fill-opacity:1;stroke:#000;stroke-width:3;stroke-linecap:round;stroke-dasharray:none;stroke-opacity:1;paint-order:stroke fill markers" transform="translate(26.065 16.598)scale(.40747)"/><path d="m126.62 154.74-.3 35.66m-.29.23 14.9 9.98m-13.77-10.54 16.88 7.86m-16.94-8.3 17.85 4.66" style="font-variation-settings:&quot;wght&quot;900;fill:none;fill-opacity:1;stroke:#000;stroke-width:3;stroke-linecap:round;stroke-dasharray:none;stroke-opacity:1;paint-order:stroke fill markers" transform="translate(25.352 16.716)scale(.40747)"/><path d="m-163.9 125.72-45.03 13.1c-1.05.31-1.4 1.3-.73 2.15 15 18.79 64.59 27.88 80.87 4.02" style="font-variation-settings:&quot;wght&quot;900;fill:none;fill-opacity:1;stroke:#000;stroke-width:3;stroke-linecap:round;stroke-dasharray:none;stroke-opacity:1;paint-order:stroke fill markers" transform="translate(138.089 5.208)scale(.40747)"/><path d="M193.72 75c-3.17 0-6.13 1.16-8.3 3.27a3 3 0 0 0-.09 4.2l2.41 2.55a3 3 0 0 0 1.05.46l-.36 2.14a3 3 0 0 0 .22.79 3 3 0 0 0-.98 0l-2.57 2.52a3 3 0 0 0-.22 4.02 11 11 0 0 0 8.56 3.83c2.83 0 5.28-.77 7.07-2.27a7.8 7.8 0 0 0 2.79-5.91 7.3 7.3 0 0 0-1.76-4.72 7 7 0 0 0 1.19-3.62 7 7 0 0 0-2.73-5.44c-1.69-1.27-3.85-1.83-6.28-1.83" style="font-weight:900;font-size:24.8825px;font-family:&quot;Fira Sans&quot;;-inkscape-font-specification:&quot;Fira Sans, Heavy&quot;;text-align:end;text-anchor:end;fill:#fff;fill-opacity:1;stroke:none;stroke-width:2.25118;stroke-linecap:round;stroke-dasharray:none;stroke-opacity:1;paint-order:stroke fill markers" transform="rotate(12.907 186.198 -276.567)"/><path d="M193.72 77.98c-2.5 0-4.58.85-6.22 2.44l2.4 2.54c.93-.9 2-1.42 3.2-1.42 1.16 0 1.91.55 1.91 1.57 0 1.04-.67 1.71-2.06 1.71h-1.03l-.54 3.29h1.49c1.64 0 2.41.64 2.41 2.06 0 1.3-.97 1.94-2.19 1.94-1.26 0-2.19-.47-3.33-1.56l-2.56 2.5c1.34 1.65 3.36 2.75 6.24 2.75 4.58 0 6.87-2.47 6.87-5.2 0-2.8-1.82-3.99-3.9-4.23 2.18-.68 3.33-2.1 3.33-4.11 0-2.44-2.1-4.28-6.02-4.28z" style="font-weight:900;font-size:24.8825px;font-family:&quot;Fira Sans&quot;;-inkscape-font-specification:&quot;Fira Sans, Heavy&quot;;text-align:end;text-anchor:end;fill:#efefef;stroke:#000;stroke-width:2.25118;stroke-linecap:round;stroke-dasharray:none;stroke-opacity:1;paint-order:stroke fill markers" transform="rotate(12.907 186.198 -276.567)"/><path d="M172.77 82.82a2.83 2.83 0 0 0-2.83 2.82v3.73a2.83 2.83 0 0 0 2.83 2.83h8.45a2.83 2.83 0 0 0 2.83-2.83v-3.73a2.83 2.83 0 0 0-2.83-2.82z" style="font-weight:900;font-size:24.8825px;font-family:&quot;Fira Sans&quot;;-inkscape-font-specification:&quot;Fira Sans, Heavy&quot;;text-align:end;text-anchor:end;fill:#fff;fill-opacity:1;stroke:none;stroke-width:2.25118;stroke-linecap:round;stroke-dasharray:none;stroke-opacity:1;paint-order:stroke fill markers" transform="rotate(-12.132 80.964 713.113)"/><path d="M172.77 89.38h8.46v-3.74h-8.46z" style="font-weight:900;font-size:24.8825px;font-family:&quot;Fira Sans&quot;;-inkscape-font-specification:&quot;Fira Sans, Heavy&quot;;text-align:end;text-anchor:end;fill:#efefef;stroke:#000;stroke-width:2.25118;stroke-linecap:round;stroke-dasharray:none;stroke-opacity:1;paint-order:stroke fill markers" transform="rotate(-12.132 80.964 713.113)"/><path d="M159.3 75.13c-3.65 0-6.7 1.84-8.5 4.3a2.85 2.85 0 0 0 .53 3.92l2.81 2.23a3 3 0 0 0 1.49.43c-.93 1-1.8 1.94-3.79 3.84a3 3 0 0 0-.88 2.06v3.39a2.85 2.85 0 0 0 2.84 2.85h11.63a2.85 2.85 0 0 0 2.82-2.47l.5-3.68a2.85 2.85 0 0 0-2.61-3.14c.21-.27.52-.57.7-.85a9.3 9.3 0 0 0 1.58-5.08 7.5 7.5 0 0 0-2.54-5.61c-1.66-1.44-3.96-2.19-6.58-2.19" style="font-weight:900;font-size:24.8825px;font-family:&quot;Fira Sans&quot;;-inkscape-font-specification:&quot;Fira Sans, Heavy&quot;;text-align:end;text-anchor:end;fill:#fff;fill-opacity:1;stroke:none;stroke-width:2.25118;stroke-linecap:round;stroke-dasharray:none;stroke-opacity:1;paint-order:stroke fill markers" transform="rotate(30.19 222.418 15.163)"/><path d="M159.3 77.98a7.5 7.5 0 0 0-6.2 3.13l2.82 2.24c.9-1.14 1.72-1.69 2.84-1.69s1.79.7 1.79 1.82c0 1.72-1.25 3.2-6.75 8.43v3.39h11.63l.5-3.68h-6.55c5.35-4.58 6.2-6.37 6.2-8.69 0-2.64-2.1-4.95-6.28-4.95z" style="font-weight:900;font-size:24.8825px;font-family:&quot;Fira Sans&quot;;-inkscape-font-specification:&quot;Fira Sans, Heavy&quot;;text-align:end;text-anchor:end;fill:#efefef;stroke:#000;stroke-width:2.25118;stroke-linecap:round;stroke-dasharray:none;stroke-opacity:1;paint-order:stroke fill markers" transform="rotate(30.19 222.418 15.163)"/><path d="M138.93 78.4a2.8 2.8 0 0 0-2.79 2.79v1.2h-1.07a2.8 2.8 0 0 0-2.78 2.78v3.73a2.8 2.8 0 0 0 2.78 2.79h1.07v1.2a2.8 2.8 0 0 0 2.79 2.78h3.98a2.8 2.8 0 0 0 2.78-2.79v-1.2h1.07a2.8 2.8 0 0 0 2.79-2.78v-3.73a2.8 2.8 0 0 0-2.79-2.78h-1.07v-1.2a2.8 2.8 0 0 0-2.78-2.78z" style="font-weight:900;font-size:24.8825px;font-family:&quot;Fira Sans&quot;;-inkscape-font-specification:&quot;Fira Sans, Heavy&quot;;text-align:end;text-anchor:end;fill:#fff;fill-opacity:1;stroke:none;stroke-width:2.25118;stroke-linecap:round;stroke-dasharray:none;stroke-opacity:1;paint-order:stroke fill markers" transform="rotate(15.141 359.083 -78.874)"/><path d="M142.9 81.19h-3.97v3.98h-3.86v3.73h3.86v3.98h3.98V88.9h3.85v-3.73h-3.85z" style="font-weight:900;font-size:24.8825px;font-family:&quot;Fira Sans&quot;;-inkscape-font-specification:&quot;Fira Sans, Heavy&quot;;text-align:end;text-anchor:end;fill:#efefef;stroke:#000;stroke-width:2.25118;stroke-linecap:round;stroke-dasharray:none;stroke-opacity:1;paint-order:stroke fill markers" transform="rotate(15.141 359.083 -78.874)"/><path d="M122.6 75.6a3 3 0 0 0-1.43.39l-6 3.58a2.8 2.8 0 0 0-.88 3.94l2.14 3.2a2.8 2.8 0 0 0 3 .67v7.92a2.8 2.8 0 0 0 2.78 2.78h4.77a2.8 2.8 0 0 0 2.79-2.78V78.38a2.8 2.8 0 0 0-2.79-2.79z" style="font-weight:900;font-size:24.8825px;font-family:&quot;Fira Sans&quot;;-inkscape-font-specification:&quot;Fira Sans, Heavy&quot;;text-align:end;text-anchor:end;fill:#fff;fill-opacity:1;stroke:none;stroke-width:2.25118;stroke-linecap:round;stroke-dasharray:none;stroke-opacity:1;paint-order:stroke fill markers" transform="rotate(-22.225 -54.288 231.541)"/><path d="M126.98 78.38h-4.38l-6 3.58 2.15 3.21 3.45-2.11V95.3h4.78z" style="font-weight:900;font-size:24.8825px;font-family:&quot;Fira Sans&quot;;-inkscape-font-specification:&quot;Fira Sans, Heavy&quot;;text-align:end;text-anchor:end;fill:#efefef;stroke:#000;stroke-width:2.25118;stroke-linecap:round;stroke-dasharray:none;stroke-opacity:1;paint-order:stroke fill markers" transform="rotate(-22.225 -54.288 231.541)"/></g></svg>