<svg xmlns="http://www.w3.org/2000/svg" width="518.16" height="197.11" viewBox="0 0 137.1 52.15"><g transform="translate(-36.505 -22.543)"><g transform="translate(91.814 5.417)scale(.68053)"><path d="M-128.26 56.18c-10.16 0-18.95 2.56-26.3 9.4s-9.58 14.51-10.01 23.53c-.44 9.03 1.15 18.5 1.21 25.1-17.53 1.71-44.03 7.13-58.99 10.51l-6.8-38.4a.87.87 21.43 0 0-1.39-.55l-34.95 26.45a.8.8 84.35 0 0 .13 1.36l39.13 18.92c3.68 5.03 11.88 18.58 16.88 24.51 6.8 8.07 19.12 22.4 46.6 23.76 26.09 1.3 46.42-10.43 54.86-22.3s10.37-45.62 10.37-45.62l46.01-14.92a.52.52 90.08 0 0 0-.98l-46.16-15.12c-2.58-6.46-6.07-11.67-10.5-16.89-4.28-5.03-13.51-8.76-20.1-8.76z" style="font-variation-settings:&quot;wght&quot;900;fill:#4d4d4d;stroke:#fff;stroke-width:14.4;stroke-dasharray:none;stroke-opacity:1;paint-order:stroke fill markers" transform="translate(138.089 5.208)scale(.40747)"/><g style="stroke:#fff;stroke-width:10.4;stroke-dasharray:none;stroke-opacity:1"><path d="m126.62 154.74-.3 35.66m-.29.23 14.9 9.98m-13.77-10.54 16.88 7.86m-16.94-8.3 17.85 4.66" style="font-variation-settings:&quot;wght&quot;900;fill:none;fill-opacity:1;stroke:#fff;stroke-width:10.4;stroke-linecap:round;stroke-dasharray:none;stroke-opacity:1;paint-order:stroke fill markers" transform="translate(25.352 16.716)scale(.40747)"/></g><g style="stroke:#fff;stroke-width:10.4;stroke-dasharray:none;stroke-opacity:1"><g style="stroke:#fff;stroke-width:10.4;stroke-dasharray:none;stroke-opacity:1"><path d="m109.1 155.77-.3 37.93m-.29.23 14.9 9.97" style="font-variation-settings:&quot;wght&quot;900;fill:none;fill-opacity:1;stroke:#fff;stroke-width:10.4;stroke-linecap:round;stroke-dasharray:none;stroke-opacity:1;paint-order:stroke fill markers" transform="translate(26.065 16.598)scale(.40747)"/></g><path d="m109.65 193.37 16.87 7.86m-16.95-8.3 17.87 4.66" style="font-variation-settings:&quot;wght&quot;900;fill:none;fill-opacity:1;stroke:#fff;stroke-width:10.4;stroke-linecap:round;stroke-dasharray:none;stroke-opacity:1;paint-order:stroke fill markers" transform="translate(26.065 16.598)scale(.40747)"/></g><path d="M-128.26 56.18c-10.16 0-18.95 2.56-26.3 9.4s-9.58 14.51-10.01 23.53c-.44 9.03 1.15 18.5 1.21 25.1-17.53 1.71-44.03 7.13-58.99 10.51l-6.8-38.4a.87.87 21.43 0 0-1.39-.55l-34.95 26.45a.8.8 84.35 0 0 .13 1.36l39.13 18.92c3.68 5.03 11.88 18.58 16.88 24.51 6.8 8.07 19.12 22.4 46.6 23.76 26.09 1.3 46.42-10.43 54.86-22.3s10.37-45.62 10.37-45.62l46.01-14.92a.52.52 90.08 0 0 0-.98l-46.16-15.12c-2.58-6.46-6.07-11.67-10.5-16.89-4.28-5.03-13.51-8.76-20.1-8.76z" style="font-variation-settings:&quot;wght&quot;900;fill:#9c9c9c;fill-opacity:1;stroke:#000;stroke-width:6;stroke-dasharray:none;stroke-opacity:1;paint-order:stroke fill markers" transform="translate(138.089 5.208)scale(.40747)"/><circle cx="83.16" cy="42.5" r="5.58" style="font-variation-settings:&quot;wght&quot;900;fill:#f4f4f4;fill-opacity:1;stroke:#000;stroke-width:2.44483;stroke-dasharray:none;stroke-opacity:1;paint-order:stroke fill markers"/><ellipse cx="83.16" cy="42.5" rx="4.69" ry="4.79" style="font-variation-settings:&quot;wght&quot;900;fill:#000;fill-opacity:1;stroke:none;stroke-width:1.42044;stroke-dasharray:none;stroke-opacity:1;paint-order:stroke fill markers"/><path d="m33.65 47.89 7.71 6.33m-2.1-10.59 4.87 8.2" style="font-variation-settings:&quot;wght&quot;900;fill:none;fill-opacity:1;stroke:#000;stroke-width:1.22242;stroke-linecap:round;stroke-dasharray:none;stroke-opacity:1;paint-order:stroke fill markers"/><path d="m109.1 155.77-.3 37.93m-.29.23 14.9 9.97m-13.76-10.53 16.87 7.86m-16.95-8.3 17.87 4.66" style="font-variation-settings:&quot;wght&quot;900;fill:none;fill-opacity:1;stroke:#000;stroke-width:3;stroke-linecap:round;stroke-dasharray:none;stroke-opacity:1;paint-order:stroke fill markers" transform="translate(26.065 16.598)scale(.40747)"/><path d="m126.62 154.74-.3 35.66m-.29.23 14.9 9.98m-13.77-10.54 16.88 7.86m-16.94-8.3 17.85 4.66" style="font-variation-settings:&quot;wght&quot;900;fill:none;fill-opacity:1;stroke:#000;stroke-width:3;stroke-linecap:round;stroke-dasharray:none;stroke-opacity:1;paint-order:stroke fill markers" transform="translate(25.352 16.716)scale(.40747)"/><path d="m-163.9 125.72-45.03 13.1c-1.05.31-1.4 1.3-.73 2.15 15 18.79 64.59 27.88 80.87 4.02" style="font-variation-settings:&quot;wght&quot;900;fill:none;fill-opacity:1;stroke:#000;stroke-width:3;stroke-linecap:round;stroke-dasharray:none;stroke-opacity:1;paint-order:stroke fill markers" transform="translate(138.089 5.208)scale(.40747)"/></g><g transform="translate(55.511 26.278)scale(.48657)"><g style="stroke:#fff;stroke-width:12.4179;stroke-dasharray:none;stroke-opacity:1"><g style="stroke:#fff;stroke-width:12.4179;stroke-dasharray:none;stroke-opacity:1"><path d="m109.1 155.77-.3 37.93m-.29.23 14.9 9.97" style="font-variation-settings:&quot;wght&quot;900;fill:none;fill-opacity:1;stroke:#fff;stroke-width:12.4179;stroke-linecap:round;stroke-dasharray:none;stroke-opacity:1;paint-order:stroke fill markers" transform="rotate(50.92 40.11 97.94)scale(.40747)"/></g><path d="m109.65 193.37 16.87 7.86m-16.95-8.3 17.87 4.66" style="font-variation-settings:&quot;wght&quot;900;fill:none;fill-opacity:1;stroke:#fff;stroke-width:12.4179;stroke-linecap:round;stroke-dasharray:none;stroke-opacity:1;paint-order:stroke fill markers" transform="rotate(50.92 40.11 97.94)scale(.40747)"/></g><g style="stroke:#fff;stroke-width:12.4179;stroke-dasharray:none;stroke-opacity:1"><path d="m126.62 154.74-.3 35.66m-.29.23 14.9 9.98m-13.77-10.54 16.88 7.86m-16.94-8.3 17.85 4.66" style="font-variation-settings:&quot;wght&quot;900;fill:none;fill-opacity:1;stroke:#fff;stroke-width:12.4179;stroke-linecap:round;stroke-dasharray:none;stroke-opacity:1;paint-order:stroke fill markers" transform="rotate(-30.662 97.062 11.987)scale(.40747)"/></g><path d="M85.82 24.22c-4.8 0-9.62 1.37-13.4 4.9-3.78 3.51-5.13 8.07-5.34 12.28-.12 2.63.06 5 .24 7.06-5.66.77-11.54 1.86-16.65 2.95L48.6 39.77c-.5-2.9-4.5-4.46-6.84-2.69L27.53 47.86h-.02c-2.31 1.77-1.88 6 .74 7.26l14.97 7.25c.66.94 1.54 2.28 2.63 3.93a61 61 0 0 0 3.92 5.5c2.8 3.33 9.3 10.46 21.81 11.08 11.9.6 21.3-4.46 25.77-10.74 2.66-3.74 3.42-8.54 4.08-12.79.43-2.77.45-3.7.56-5.11l16.33-5.3a4.3 4.3 0 0 0 2.88-3.96 4.3 4.3 0 0 0-2.88-3.95l-17.28-5.66a30 30 0 0 0-4.02-6.18 14.4 14.4 0 0 0-11.2-4.97" style="font-variation-settings:&quot;wght&quot;900;fill:#fff;fill-opacity:1;stroke:none;stroke-width:8.52405;stroke-dasharray:none;stroke-opacity:1;paint-order:stroke fill markers" transform="translate(0 -.075)"/><path d="M85.82 28.17c-4.14 0-7.72 1.05-10.71 3.84-3 2.78-3.9 5.9-4.08 9.58s.47 7.54.5 10.23c-7.15.7-17.95 2.9-24.04 4.28l-2.77-15.65a.36.36 0 0 0-.57-.22L29.91 51.01a.33.33 0 0 0 .05.55l15.95 7.71c1.5 2.05 4.84 7.57 6.87 9.99 2.78 3.29 7.8 9.12 19 9.68 10.62.53 18.9-4.25 22.35-9.09 3.44-4.83 4.22-18.58 4.22-18.58l18.75-6.08a.21.21 0 0 0 0-.4l-18.8-6.17a24 24 0 0 0-4.3-6.88c-1.74-2.04-5.5-3.57-8.19-3.57Z" style="font-variation-settings:&quot;wght&quot;900;fill:#9c9c9c;fill-opacity:1;stroke:#000;stroke-width:3.47331;stroke-dasharray:none;stroke-opacity:1;paint-order:stroke fill markers"/><circle cx="83.16" cy="42.5" r="5.58" style="font-variation-settings:&quot;wght&quot;900;fill:#f4f4f4;fill-opacity:1;stroke:#000;stroke-width:3.47331;stroke-dasharray:none;stroke-opacity:1;paint-order:stroke fill markers"/><ellipse cx="83.16" cy="42.5" rx="4.69" ry="4.79" style="font-variation-settings:&quot;wght&quot;900;fill:#000;fill-opacity:1;stroke:none;stroke-width:1.42044;stroke-dasharray:none;stroke-opacity:1;paint-order:stroke fill markers"/><path d="m33.65 47.89 7.71 6.33m-2.1-10.59 4.87 8.2" style="font-variation-settings:&quot;wght&quot;900;fill:none;fill-opacity:1;stroke:#000;stroke-width:2.04494;stroke-linecap:round;stroke-dasharray:none;stroke-opacity:1;paint-order:stroke fill markers"/><g style="stroke-width:4.02497;stroke-dasharray:none"><g style="stroke-width:4.02497;stroke-dasharray:none"><path d="m109.1 155.77-.3 37.93m-.29.23 14.9 9.97" style="font-variation-settings:&quot;wght&quot;900;fill:none;fill-opacity:1;stroke:#000;stroke-width:4.02497;stroke-linecap:round;stroke-dasharray:none;stroke-opacity:1;paint-order:stroke fill markers" transform="rotate(50.92 40.11 97.94)scale(.40747)"/></g><path d="m109.65 193.37 16.87 7.86m-16.95-8.3 17.87 4.66" style="font-variation-settings:&quot;wght&quot;900;fill:none;fill-opacity:1;stroke:#000;stroke-width:4.02497;stroke-linecap:round;stroke-dasharray:none;stroke-opacity:1;paint-order:stroke fill markers" transform="rotate(50.92 40.11 97.94)scale(.40747)"/></g><g style="stroke-width:4.02497;stroke-dasharray:none"><path d="m126.62 154.74-.3 35.66m-.29.23 14.9 9.98m-13.77-10.54 16.88 7.86m-16.94-8.3 17.85 4.66" style="font-variation-settings:&quot;wght&quot;900;fill:none;fill-opacity:1;stroke:#000;stroke-width:4.02497;stroke-linecap:round;stroke-dasharray:none;stroke-opacity:1;paint-order:stroke fill markers" transform="rotate(-30.662 97.062 11.987)scale(.40747)"/></g><path d="m-163.9 125.72-45.03 13.1c-1.05.31-1.4 1.3-.73 2.15 15 18.79 64.59 27.88 80.87 4.02" style="font-variation-settings:&quot;wght&quot;900;fill:none;fill-opacity:1;stroke:#000;stroke-width:4.00983374;stroke-linecap:round;stroke-dasharray:none;stroke-opacity:1;paint-order:stroke fill markers" transform="translate(138.089 5.208)scale(.40747)"/></g><g style="stroke:#fff;stroke-width:16.8554;stroke-dasharray:none;stroke-opacity:1"><path d="m126.62 154.74-.3 35.66m-.29.23 14.9 9.98m-13.77-10.54 16.88 7.86m-16.94-8.3 17.85 4.66" style="font-variation-settings:&quot;wght&quot;900;fill:none;fill-opacity:1;stroke:#fff;stroke-width:16.8554;stroke-linecap:round;stroke-dasharray:none;stroke-opacity:1;paint-order:stroke fill markers" transform="translate(37.065 48.16)scale(.12388)"/></g><g style="stroke:#fff;stroke-width:16.8554;stroke-dasharray:none;stroke-opacity:1"><g style="stroke:#fff;stroke-width:16.8554;stroke-dasharray:none;stroke-opacity:1"><path d="m109.1 155.77-.3 37.93m-.29.23 14.9 9.97" style="font-variation-settings:&quot;wght&quot;900;fill:none;fill-opacity:1;stroke:#fff;stroke-width:16.8554;stroke-linecap:round;stroke-dasharray:none;stroke-opacity:1;paint-order:stroke fill markers" transform="translate(37.281 48.124)scale(.12388)"/></g><path d="m109.65 193.37 16.87 7.86m-16.95-8.3 17.87 4.66" style="font-variation-settings:&quot;wght&quot;900;fill:none;fill-opacity:1;stroke:#fff;stroke-width:16.8554;stroke-linecap:round;stroke-dasharray:none;stroke-opacity:1;paint-order:stroke fill markers" transform="translate(37.281 48.124)scale(.12388)"/></g><path d="M55.45 49.63c-1.6 0-3.3.48-4.62 1.7a6.2 6.2 0 0 0-1.87 4.28c-.03.68.03 1 .07 1.55-1.29.2-2.43.4-3.62.64l-.5-2.8c-.26-1.4-2.2-2.15-3.33-1.3l-4.32 3.27c-1.16.87-.94 2.97.37 3.58l4.33 2.1.67 1.01c.4.6.8 1.22 1.25 1.75a10 10 0 0 0 7.2 3.65c3.88.19 6.95-1.4 8.52-3.6 1-1.4 1.17-2.9 1.38-4.23.09-.58.08-.65.12-1.08l4.47-1.45.03-.01c.8-.28 1.4-1.1 1.4-1.95s-.6-1.67-1.4-1.94l-.02-.01-5.07-1.66c-.34-.6-.64-1.22-1.05-1.7a4.9 4.9 0 0 0-4.01-1.8" style="font-variation-settings:&quot;wght&quot;900;fill:#fff;fill-opacity:1;stroke:none;stroke-width:14.8777;stroke-dasharray:none;stroke-opacity:1;paint-order:stroke fill markers"/><path d="M55.45 51.62c-1.26 0-2.35.32-3.26 1.17a4 4 0 0 0-1.24 2.91c-.05 1.12.14 2.3.15 3.1a71 71 0 0 0-7.3 1.31l-.85-4.76a.1.1 0 0 0-.17-.06l-4.33 3.27a.1.1 0 0 0 .02.17l4.84 2.35c.46.62 1.47 2.3 2.1 3.03.84 1 2.36 2.78 5.77 2.94 3.23.16 5.75-1.29 6.8-2.76s1.28-5.65 1.28-5.65l5.7-1.85a.06.06 0 0 0 0-.12l-5.72-1.87a7 7 0 0 0-1.3-2.1 3.7 3.7 0 0 0-2.5-1.08Z" style="font-variation-settings:&quot;wght&quot;900;fill:#9c9c9c;fill-opacity:1;stroke:#000;stroke-width:1.843;stroke-dasharray:none;stroke-opacity:1;paint-order:stroke fill markers"/><circle cx="54.64" cy="56" r="1.7" style="font-variation-settings:&quot;wght&quot;900;fill:#f4f4f4;fill-opacity:1;stroke:#000;stroke-width:1.543;stroke-dasharray:none;stroke-opacity:1;paint-order:stroke fill markers"/><ellipse cx="54.64" cy="56" rx="1.43" ry="1.46" style="font-variation-settings:&quot;wght&quot;900;fill:#000;fill-opacity:1;stroke:none;stroke-width:.431833;stroke-dasharray:none;stroke-opacity:1;paint-order:stroke fill markers"/><path d="m39.59 57.64 2.34 1.92m-.63-3.22 1.47 2.5" style="font-variation-settings:&quot;wght&quot;900;fill:none;fill-opacity:1;stroke:#000;stroke-width:.972001;stroke-linecap:round;stroke-dasharray:none;stroke-opacity:1;paint-order:stroke fill markers"/><path d="m-163.9 125.72-45.03 13.1c-1.05.31-1.4 1.3-.73 2.15 15 18.79 64.59 27.88 80.87 4.02" style="font-variation-settings:&quot;wght&quot;900;fill:none;fill-opacity:1;stroke:#000;stroke-width:6.23198869;stroke-linecap:round;stroke-dasharray:none;stroke-opacity:1;paint-order:stroke fill markers" transform="translate(71.338 44.662)scale(.12388)"/><g style="stroke-width:6.65176;stroke-dasharray:none"><g style="stroke-width:6.65176;stroke-dasharray:none"><path d="m109.1 155.77-.3 37.93m-.29.23 14.9 9.97" style="font-variation-settings:&quot;wght&quot;900;fill:none;fill-opacity:1;stroke:#000;stroke-width:6.65176;stroke-linecap:round;stroke-dasharray:none;stroke-opacity:1;paint-order:stroke fill markers" transform="translate(37.281 48.124)scale(.12388)"/></g><path d="m109.65 193.37 16.87 7.86m-16.95-8.3 17.87 4.66" style="font-variation-settings:&quot;wght&quot;900;fill:none;fill-opacity:1;stroke:#000;stroke-width:6.65176;stroke-linecap:round;stroke-dasharray:none;stroke-opacity:1;paint-order:stroke fill markers" transform="translate(37.281 48.124)scale(.12388)"/></g><g style="stroke-width:6.65176;stroke-dasharray:none"><path d="m126.62 154.74-.3 35.66m-.29.23 14.9 9.98m-13.77-10.54 16.88 7.86m-16.94-8.3 17.85 4.66" style="font-variation-settings:&quot;wght&quot;900;fill:none;fill-opacity:1;stroke:#000;stroke-width:6.65176;stroke-linecap:round;stroke-dasharray:none;stroke-opacity:1;paint-order:stroke fill markers" transform="translate(37.065 48.16)scale(.12388)"/></g></g></svg>