<svg xmlns="http://www.w3.org/2000/svg" width="250.25" height="197.11" viewBox="0 0 66.21 52.15"><g transform="translate(-41.351 -22.251)"><path d="M-128.26 56.18c-10.16 0-18.95 2.56-26.3 9.4s-9.58 14.51-10.01 23.53c-.44 9.03 1.15 18.5 1.21 25.1-17.53 1.71-44.03 7.13-58.99 10.51l-6.8-38.4a.87.87 21.43 0 0-1.39-.55l-34.95 26.45a.8.8 84.35 0 0 .13 1.36l39.13 18.92c3.68 5.03 11.88 18.58 16.88 24.51 6.8 8.07 19.12 22.4 46.6 23.76 26.09 1.3 46.42-10.43 54.86-22.3s10.37-45.62 10.37-45.62l46.01-14.92a.52.52 90.08 0 0 0-.98l-46.16-15.12c-2.58-6.46-6.07-11.67-10.5-16.89-4.28-5.03-13.51-8.76-20.1-8.76z" style="font-variation-settings:&quot;wght&quot;900;fill:#4d4d4d;stroke:#fff;stroke-width:14.4;stroke-dasharray:none;stroke-opacity:1;paint-order:stroke fill markers" transform="translate(117.002 8.669)scale(.2773)"/><g style="stroke:#fff;stroke-width:10.4;stroke-dasharray:none;stroke-opacity:1"><path d="m126.62 154.74-.3 35.66m-.29.23 14.9 9.98m-13.77-10.54 16.88 7.86m-16.94-8.3 17.85 4.66" style="font-variation-settings:&quot;wght&quot;900;fill:none;fill-opacity:1;stroke:#fff;stroke-width:10.4;stroke-linecap:round;stroke-dasharray:none;stroke-opacity:1;paint-order:stroke fill markers" transform="translate(40.282 16.501)scale(.2773)"/></g><g style="stroke:#fff;stroke-width:10.4;stroke-dasharray:none;stroke-opacity:1"><g style="stroke:#fff;stroke-width:10.4;stroke-dasharray:none;stroke-opacity:1"><path d="m109.1 155.77-.3 37.93m-.29.23 14.9 9.97" style="font-variation-settings:&quot;wght&quot;900;fill:none;fill-opacity:1;stroke:#fff;stroke-width:10.4;stroke-linecap:round;stroke-dasharray:none;stroke-opacity:1;paint-order:stroke fill markers" transform="translate(40.766 16.42)scale(.2773)"/></g><path d="m109.65 193.37 16.87 7.86m-16.95-8.3 17.87 4.66" style="font-variation-settings:&quot;wght&quot;900;fill:none;fill-opacity:1;stroke:#fff;stroke-width:10.4;stroke-linecap:round;stroke-dasharray:none;stroke-opacity:1;paint-order:stroke fill markers" transform="translate(40.766 16.42)scale(.2773)"/></g><path d="M-128.26 56.18c-10.16 0-18.95 2.56-26.3 9.4s-9.58 14.51-10.01 23.53c-.44 9.03 1.15 18.5 1.21 25.1-17.53 1.71-44.03 7.13-58.99 10.51l-6.8-38.4a.87.87 21.43 0 0-1.39-.55l-34.95 26.45a.8.8 84.35 0 0 .13 1.36l39.13 18.92c3.68 5.03 11.88 18.58 16.88 24.51 6.8 8.07 19.12 22.4 46.6 23.76 26.09 1.3 46.42-10.43 54.86-22.3s10.37-45.62 10.37-45.62l46.01-14.92a.52.52 90.08 0 0 0-.98l-46.16-15.12c-2.58-6.46-6.07-11.67-10.5-16.89-4.28-5.03-13.51-8.76-20.1-8.76z" style="font-variation-settings:&quot;wght&quot;900;fill:#4d4d4d;stroke:#000;stroke-width:6;stroke-dasharray:none;stroke-opacity:1;paint-order:stroke fill markers" transform="translate(117.002 8.669)scale(.2773)"/><circle cx="79.62" cy="34.04" r="3.79" style="font-variation-settings:&quot;wght&quot;900;fill:#f4f4f4;fill-opacity:1;stroke:#000;stroke-width:1.66378;stroke-dasharray:none;stroke-opacity:1;paint-order:stroke fill markers"/><path d="m45.93 37.72 5.25 4.3m-1.43-7.2 3.31 5.58" style="font-variation-settings:&quot;wght&quot;900;fill:none;fill-opacity:1;stroke:#000;stroke-width:.831894;stroke-linecap:round;stroke-dasharray:none;stroke-opacity:1;paint-order:stroke fill markers"/><path d="m109.1 155.77-.3 37.93m-.29.23 14.9 9.97m-13.76-10.53 16.87 7.86m-16.95-8.3 17.87 4.66" style="font-variation-settings:&quot;wght&quot;900;fill:none;fill-opacity:1;stroke:#000;stroke-width:3;stroke-linecap:round;stroke-dasharray:none;stroke-opacity:1;paint-order:stroke fill markers" transform="translate(40.766 16.42)scale(.2773)"/><path d="m126.62 154.74-.3 35.66m-.29.23 14.9 9.98m-13.77-10.54 16.88 7.86m-16.94-8.3 17.85 4.66" style="font-variation-settings:&quot;wght&quot;900;fill:none;fill-opacity:1;stroke:#000;stroke-width:3;stroke-linecap:round;stroke-dasharray:none;stroke-opacity:1;paint-order:stroke fill markers" transform="translate(40.282 16.501)scale(.2773)"/><path d="m-163.9 125.72-45.03 13.1c-1.05.31-1.4 1.3-.73 2.15 15 18.79 64.59 27.88 80.87 4.02" style="font-variation-settings:&quot;wght&quot;900;fill:none;fill-opacity:1;stroke:#000;stroke-width:3;stroke-linecap:round;stroke-dasharray:none;stroke-opacity:1;paint-order:stroke fill markers" transform="translate(117.002 8.669)scale(.2773)"/><path fill="#f4900c" d="M82.47 33.35a1.57 1.57 0 0 0-2.85-.92 1.57 1.57 0 0 0-2.8 1.28c.21 1.35 1.72 2.78 2.8 3.18 1.08-.4 2.59-1.83 2.8-3.18q.05-.18.05-.36z" style="fill:#da5e59;fill-opacity:1;stroke:#5e1715;stroke-width:.657531;stroke-dasharray:none;stroke-opacity:1"/><path d="M64.3 24.57q-.7.02-1.38.32-.84.4-1.37 1.13a3.5 3.5 0 0 0-1.75.3 3.6 3.6 0 0 0-1.38 5.4 6.6 6.6 0 0 0 3.05 2.3c1.17.48 2.35.74 3.48.65a1.5 1.5 0 0 0 .91-.42 8 8 0 0 0 1.8-3.05 6.6 6.6 0 0 0 .02-4.53 3.6 3.6 0 0 0-3.37-2.1" style="fill:#fff;fill-opacity:1;stroke:none;stroke-width:.684;stroke-dasharray:none;stroke-opacity:1"/><path fill="#f4900c" d="M66.34 27.28a2.11 2.11 0 0 0-4 .47 2.1 2.1 0 0 0-2.72 3.12c1.02 1.54 3.67 2.45 5.2 2.32 1.1-1.08 2.15-3.67 1.66-5.45a2 2 0 0 0-.14-.46z" style="fill:#da5e59;fill-opacity:1;stroke:#5e1715;stroke-width:.684;stroke-dasharray:none;stroke-opacity:1"/><path d="M98.32 49.91a4.3 4.3 0 0 0-3.6 4.05 8 8 0 0 0 1.17 4.61 10 10 0 0 0 2.87 3.36 1.5 1.5 0 0 0 1 .25 10 10 0 0 0 4.12-1.58 8 8 0 0 0 3.23-3.49q.2-.39.32-.84a4.3 4.3 0 0 0-3.07-5.18 4 4 0 0 0-2.36.15 4 4 0 0 0-2-1.25 4 4 0 0 0-1.68-.08" style="fill:#fff;fill-opacity:1;stroke:none;stroke-width:.856;stroke-dasharray:none;stroke-opacity:1"/><path fill="#f4900c" d="M105.99 55.9a2.76 2.76 0 0 0-4.46-2.8 2.76 2.76 0 0 0-5.33.96c-.22 2.4 1.73 5.5 3.4 6.63 2.02-.2 5.2-1.99 6.16-4.2q.15-.28.23-.6z" style="fill:#da5e59;fill-opacity:1;stroke:#5e1715;stroke-width:.856;stroke-dasharray:none;stroke-opacity:1"/><path d="M53.52 55.29q-.99 0-1.95.42a5 5 0 0 0-2.13 1.96 5 5 0 0 0-2.89.25 5.04 5.04 0 0 0-2.03 7.53 10 10 0 0 0 4.52 3.5c1.77.75 3.59 1.15 5.21 1.04a1.6 1.6 0 0 0 1.03-.45A12 12 0 0 0 58.02 65c.63-1.8.96-3.79.48-5.7a5 5 0 0 0-4.98-4.01" style="fill:#fff;fill-opacity:1;stroke:none;stroke-width:.746;stroke-dasharray:none;stroke-opacity:1"/><path fill="#f4900c" d="M56.68 58.94a3.38 3.38 0 0 0-6.39.67 3.37 3.37 0 0 0-4.41 4.93c1.6 2.47 5.8 3.98 8.26 3.82 1.79-1.7 3.51-5.83 2.77-8.68q-.07-.38-.23-.74z" style="fill:#da5e59;fill-opacity:1;stroke:#5e1715;stroke-width:.746;stroke-dasharray:none;stroke-opacity:1"/></g></svg>