<svg xmlns="http://www.w3.org/2000/svg" width="772.03" height="456.06" viewBox="0 0 204.27 120.67"><g transform="translate(-26.924 4.279)"><path d="M-128.26 56.18c-10.16 0-18.95 2.56-26.3 9.4s-9.58 14.51-10.01 23.53c-.44 9.03 1.15 18.5 1.21 25.1-17.53 1.71-44.03 7.13-58.99 10.51l-6.8-38.4a.87.87 21.43 0 0-1.39-.55l-34.95 26.45a.8.8 84.35 0 0 .13 1.36l39.13 18.92c3.68 5.03 11.88 18.58 16.88 24.51 6.8 8.07 19.12 22.4 46.6 23.76 26.09 1.3 46.42-10.43 54.86-22.3s10.37-45.62 10.37-45.62l46.01-14.92a.52.52 90.08 0 0 0-.98l-46.16-15.12c-2.58-6.46-6.07-11.67-10.5-16.89-4.28-5.03-13.51-8.76-20.1-8.76z" style="font-variation-settings:&quot;wght&quot;900;fill:#4d4d4d;stroke:#fff;stroke-width:14.4;stroke-dasharray:none;stroke-opacity:1;paint-order:stroke fill markers" transform="translate(138.089 5.208)scale(.40747)"/><path d="M-128.26 56.18c-10.16 0-18.95 2.56-26.3 9.4s-9.58 14.51-10.01 23.53c-.44 9.03 1.15 18.5 1.21 25.1-17.53 1.71-44.03 7.13-58.99 10.51l-6.8-38.4a.87.87 21.43 0 0-1.39-.55l-34.95 26.45a.8.8 84.35 0 0 .13 1.36l39.13 18.92c3.68 5.03 11.88 18.58 16.88 24.51 6.8 8.07 19.12 22.4 46.6 23.76 26.09 1.3 46.42-10.43 54.86-22.3s10.37-45.62 10.37-45.62l46.01-14.92a.52.52 90.08 0 0 0-.98l-46.16-15.12c-2.58-6.46-6.07-11.67-10.5-16.89-4.28-5.03-13.51-8.76-20.1-8.76z" style="font-variation-settings:&quot;wght&quot;900;fill:#4d4d4d;stroke:#fff;stroke-width:14.4;stroke-dasharray:none;stroke-opacity:1;paint-order:stroke fill markers" transform="matrix(-.40747 0 0 .40747 120.026 -.836)"/><g style="stroke:#fff;stroke-width:10.4;stroke-dasharray:none;stroke-opacity:1"><g style="stroke:#fff;stroke-width:10.4;stroke-dasharray:none;stroke-opacity:1"><path d="m109.1 155.77-.3 37.93m-.29.23 14.9 9.97" style="font-variation-settings:&quot;wght&quot;900;fill:none;fill-opacity:1;stroke:#fff;stroke-width:10.4;stroke-linecap:round;stroke-dasharray:none;stroke-opacity:1;paint-order:stroke fill markers" transform="matrix(-.40747 0 0 .40747 232.05 10.554)"/></g><path d="m109.65 193.37 16.87 7.86m-16.95-8.3 17.87 4.66" style="font-variation-settings:&quot;wght&quot;900;fill:none;fill-opacity:1;stroke:#fff;stroke-width:10.4;stroke-linecap:round;stroke-dasharray:none;stroke-opacity:1;paint-order:stroke fill markers" transform="matrix(-.40747 0 0 .40747 232.05 10.554)"/></g><g style="stroke:#fff;stroke-width:10.4;stroke-dasharray:none;stroke-opacity:1"><path d="m126.62 154.74-.3 35.66m-.29.23 14.9 9.98m-13.77-10.54 16.88 7.86m-16.94-8.3 17.85 4.66" style="font-variation-settings:&quot;wght&quot;900;fill:none;fill-opacity:1;stroke:#fff;stroke-width:10.4;stroke-linecap:round;stroke-dasharray:none;stroke-opacity:1;paint-order:stroke fill markers" transform="matrix(-.40747 0 0 .40747 232.762 10.673)"/></g><path d="M172.29 22.06c-2.68 0-6.44 1.52-8.19 3.57a24 24 0 0 0-4.28 6.88l-18.8 6.16a.21.21 0 0 0 0 .4l18.74 6.08s.79 13.75 4.23 18.58c3.44 4.84 11.72 9.62 22.35 9.09 11.2-.56 16.22-6.39 18.99-9.68 2.04-2.41 5.38-7.94 6.88-9.99l15.94-7.7a.33.33 0 0 0 .06-.56L213.96 34.1a.36.36 0 0 0-.56.22l-2.77 15.65c-6.1-1.38-16.9-3.58-24.04-4.28.02-2.69.67-6.55.5-10.22s-1.1-6.8-4.09-9.6c-3-2.78-6.57-3.82-10.71-3.82z" style="font-variation-settings:&quot;wght&quot;900;fill:#4d4d4d;stroke:#000;stroke-width:2.44483;stroke-dasharray:none;stroke-opacity:1;paint-order:stroke fill markers"/><path d="m109.1 155.77-.3 37.93m-.29.23 14.9 9.97m-13.76-10.53 16.87 7.86m-16.95-8.3 17.87 4.66" style="font-variation-settings:&quot;wght&quot;900;fill:none;fill-opacity:1;stroke:#000;stroke-width:3;stroke-linecap:round;stroke-dasharray:none;stroke-opacity:1;paint-order:stroke fill markers" transform="matrix(-.40747 0 0 .40747 232.05 10.554)"/><path d="m126.62 154.74-.3 35.66m-.29.23 14.9 9.98m-13.77-10.54 16.88 7.86m-16.94-8.3 17.85 4.66" style="font-variation-settings:&quot;wght&quot;900;fill:none;fill-opacity:1;stroke:#000;stroke-width:3;stroke-linecap:round;stroke-dasharray:none;stroke-opacity:1;paint-order:stroke fill markers" transform="matrix(-.40747 0 0 .40747 232.762 10.673)"/><g style="stroke:#fff;stroke-width:10.4;stroke-dasharray:none;stroke-opacity:1"><g style="stroke:#fff;stroke-width:10.4;stroke-dasharray:none;stroke-opacity:1"><path d="m109.1 155.77-.3 37.93m-.29.23 14.9 9.97" style="font-variation-settings:&quot;wght&quot;900;fill:none;fill-opacity:1;stroke:#fff;stroke-width:10.4;stroke-linecap:round;stroke-dasharray:none;stroke-opacity:1;paint-order:stroke fill markers" transform="matrix(-.40747 0 0 .40747 176.295 -12.847)"/></g><path d="m109.65 193.37 16.87 7.86m-16.95-8.3 17.87 4.66" style="font-variation-settings:&quot;wght&quot;900;fill:none;fill-opacity:1;stroke:#fff;stroke-width:10.4;stroke-linecap:round;stroke-dasharray:none;stroke-opacity:1;paint-order:stroke fill markers" transform="matrix(-.40747 0 0 .40747 176.295 -12.847)"/></g><g style="stroke:#fff;stroke-width:10.4;stroke-dasharray:none;stroke-opacity:1"><path d="m126.62 154.74-.3 35.66m-.29.23 14.9 9.98m-13.77-10.54 16.88 7.86m-16.94-8.3 17.85 4.66" style="font-variation-settings:&quot;wght&quot;900;fill:none;fill-opacity:1;stroke:#fff;stroke-width:10.4;stroke-linecap:round;stroke-dasharray:none;stroke-opacity:1;paint-order:stroke fill markers" transform="matrix(-.40747 0 0 .40747 177.008 -12.729)"/></g><path d="M-128.26 56.18c-10.16 0-18.95 2.56-26.3 9.4s-9.58 14.51-10.01 23.53c-.44 9.03 1.15 18.5 1.21 25.1-17.53 1.71-44.03 7.13-58.99 10.51l-6.8-38.4a.87.87 21.43 0 0-1.39-.55l-34.95 26.45a.8.8 84.35 0 0 .13 1.36l39.13 18.92c3.68 5.03 11.88 18.58 16.88 24.51 6.8 8.07 19.12 22.4 46.6 23.76 26.09 1.3 46.42-10.43 54.86-22.3s10.37-45.62 10.37-45.62l46.01-14.92a.52.52 90.08 0 0 0-.98l-46.16-15.12c-2.58-6.46-6.07-11.67-10.5-16.89-4.28-5.03-13.51-8.76-20.1-8.76z" style="font-variation-settings:&quot;wght&quot;900;fill:#4d4d4d;stroke:#fff;stroke-width:14.4;stroke-dasharray:none;stroke-opacity:1;paint-order:stroke fill markers" transform="matrix(-.40747 0 0 .40747 64.271 -24.237)"/><path d="M308.3-18.05c-10.15 0-18.94 2.56-26.29 9.4S272.43 5.87 272 14.9c-.44 9.02 1.15 18.5 1.21 25.08-17.53 1.73-44.03 7.14-58.99 10.53l-6.8-38.41a.87.87 0 0 0-1.38-.55L171.08 38a.8.8 0 0 0 .13 1.36l39.13 18.93c3.68 5.02 11.88 18.57 16.88 24.5 6.8 8.08 19.12 22.4 46.6 23.76 26.1 1.3 46.42-10.43 54.86-22.3 8.45-11.87 10.37-45.61 10.37-45.61l46.01-14.93a.52.52 0 0 0 0-.98L338.9 7.6c-2.58-6.46-6.07-11.67-10.5-16.89-4.28-5.02-13.5-8.76-20.1-8.76z" style="font-variation-settings:&quot;wght&quot;900;fill:#efefef;fill-opacity:1;stroke:#000;stroke-width:6;stroke-dasharray:none;stroke-opacity:1;paint-order:stroke fill markers" transform="matrix(-.40747 0 0 .40747 242.161 6.008)"/><circle cx="-119.2" cy="13.05" r="5.58" style="font-variation-settings:&quot;wght&quot;900;fill:#f4f4f4;fill-opacity:1;stroke:#000;stroke-width:2.44483;stroke-dasharray:none;stroke-opacity:1;paint-order:stroke fill markers" transform="scale(-1 1)"/><ellipse cx="-119.2" cy="13.05" rx="4.69" ry="4.79" style="font-variation-settings:&quot;wght&quot;900;fill:#000;fill-opacity:1;stroke:none;stroke-width:1.42044;stroke-dasharray:none;stroke-opacity:1;paint-order:stroke fill markers" transform="scale(-1 1)"/><path d="M168.71 18.44 161 24.78m2.1-10.6-4.87 8.21" style="font-variation-settings:&quot;wght&quot;900;fill:none;fill-opacity:1;stroke:#000;stroke-width:1.22242;stroke-linecap:round;stroke-dasharray:none;stroke-opacity:1;paint-order:stroke fill markers"/><path d="m126.62 154.74-.3 35.66m-.29.23 14.9 9.98m-13.77-10.54 16.88 7.86m-16.94-8.3 17.85 4.66" style="font-variation-settings:&quot;wght&quot;900;fill:none;fill-opacity:1;stroke:#000;stroke-width:3;stroke-linecap:round;stroke-dasharray:none;stroke-opacity:1;paint-order:stroke fill markers" transform="matrix(-.40747 0 0 .40747 177.008 -12.729)"/><path d="m-163.9 125.72-45.03 13.1c-1.05.31-1.4 1.3-.73 2.15 15 18.79 64.59 27.88 80.87 4.02" style="font-variation-settings:&quot;wght&quot;900;fill:none;fill-opacity:1;stroke:#000;stroke-width:3;stroke-linecap:round;stroke-dasharray:none;stroke-opacity:1;paint-order:stroke fill markers" transform="matrix(-.40747 0 0 .40747 64.271 -24.237)"/><path d="M-128.26 56.18c-10.16 0-18.95 2.56-26.3 9.4s-9.58 14.51-10.01 23.53c-.44 9.03 1.15 18.5 1.21 25.1-17.53 1.71-44.03 7.13-58.99 10.51l-6.8-38.4a.87.87 21.43 0 0-1.39-.55l-34.95 26.45a.8.8 84.35 0 0 .13 1.36l39.13 18.92c3.68 5.03 11.88 18.58 16.88 24.51 6.8 8.07 19.12 22.4 46.6 23.76 26.09 1.3 46.42-10.43 54.86-22.3s10.37-45.62 10.37-45.62l46.01-14.92a.52.52 90.08 0 0 0-.98l-46.16-15.12c-2.58-6.46-6.07-11.67-10.5-16.89-4.28-5.03-13.51-8.76-20.1-8.76z" style="font-variation-settings:&quot;wght&quot;900;fill:#9c9c9c;fill-opacity:1;stroke:#000;stroke-width:6;stroke-dasharray:none;stroke-opacity:1;paint-order:stroke fill markers" transform="matrix(-.40747 0 0 .40747 120.026 -.836)"/><circle cx="-174.95" cy="36.45" r="5.58" style="font-variation-settings:&quot;wght&quot;900;fill:#f4f4f4;fill-opacity:1;stroke:#000;stroke-width:2.44483;stroke-dasharray:none;stroke-opacity:1;paint-order:stroke fill markers" transform="scale(-1 1)"/><ellipse cx="-174.95" cy="36.45" rx="4.69" ry="4.79" style="font-variation-settings:&quot;wght&quot;900;fill:#000;fill-opacity:1;stroke:none;stroke-width:1.42044;stroke-dasharray:none;stroke-opacity:1;paint-order:stroke fill markers" transform="scale(-1 1)"/><path d="m224.47 41.85-7.72 6.33m2.1-10.6-4.87 8.21" style="font-variation-settings:&quot;wght&quot;900;fill:none;fill-opacity:1;stroke:#000;stroke-width:1.22242;stroke-linecap:round;stroke-dasharray:none;stroke-opacity:1;paint-order:stroke fill markers"/><path d="m-163.9 125.72-45.03 13.1c-1.05.31-1.4 1.3-.73 2.15 15 18.79 64.59 27.88 80.87 4.02" style="font-variation-settings:&quot;wght&quot;900;fill:none;fill-opacity:1;stroke:#000;stroke-width:3;stroke-linecap:round;stroke-dasharray:none;stroke-opacity:1;paint-order:stroke fill markers" transform="matrix(-.40747 0 0 .40747 120.026 -.836)"/><g style="stroke:#fff;stroke-width:10.4;stroke-dasharray:none;stroke-opacity:1"><path d="m126.62 154.74-.3 35.66m-.29.23 14.9 9.98m-13.77-10.54 16.88 7.86m-16.94-8.3 17.85 4.66" style="font-variation-settings:&quot;wght&quot;900;fill:none;fill-opacity:1;stroke:#fff;stroke-width:10.4;stroke-linecap:round;stroke-dasharray:none;stroke-opacity:1;paint-order:stroke fill markers" transform="translate(25.352 16.716)scale(.40747)"/></g><g style="stroke:#fff;stroke-width:10.4;stroke-dasharray:none;stroke-opacity:1"><g style="stroke:#fff;stroke-width:10.4;stroke-dasharray:none;stroke-opacity:1"><path d="m109.1 155.77-.3 37.93m-.29.23 14.9 9.97" style="font-variation-settings:&quot;wght&quot;900;fill:none;fill-opacity:1;stroke:#fff;stroke-width:10.4;stroke-linecap:round;stroke-dasharray:none;stroke-opacity:1;paint-order:stroke fill markers" transform="translate(26.065 16.598)scale(.40747)"/></g><path d="m109.65 193.37 16.87 7.86m-16.95-8.3 17.87 4.66" style="font-variation-settings:&quot;wght&quot;900;fill:none;fill-opacity:1;stroke:#fff;stroke-width:10.4;stroke-linecap:round;stroke-dasharray:none;stroke-opacity:1;paint-order:stroke fill markers" transform="translate(26.065 16.598)scale(.40747)"/></g><path d="M-128.26 56.18c-10.16 0-18.95 2.56-26.3 9.4s-9.58 14.51-10.01 23.53c-.44 9.03 1.15 18.5 1.21 25.1-17.53 1.71-44.03 7.13-58.99 10.51l-6.8-38.4a.87.87 21.43 0 0-1.39-.55l-34.95 26.45a.8.8 84.35 0 0 .13 1.36l39.13 18.92c3.68 5.03 11.88 18.58 16.88 24.51 6.8 8.07 19.12 22.4 46.6 23.76 26.09 1.3 46.42-10.43 54.86-22.3s10.37-45.62 10.37-45.62l46.01-14.92a.52.52 90.08 0 0 0-.98l-46.16-15.12c-2.58-6.46-6.07-11.67-10.5-16.89-4.28-5.03-13.51-8.76-20.1-8.76z" style="font-variation-settings:&quot;wght&quot;900;fill:#4d4d4d;stroke:#000;stroke-width:6;stroke-dasharray:none;stroke-opacity:1;paint-order:stroke fill markers" transform="translate(138.089 5.208)scale(.40747)"/><circle cx="83.16" cy="42.5" r="5.58" style="font-variation-settings:&quot;wght&quot;900;fill:#f4f4f4;fill-opacity:1;stroke:#000;stroke-width:2.44483;stroke-dasharray:none;stroke-opacity:1;paint-order:stroke fill markers"/><ellipse cx="83.16" cy="42.5" rx="4.69" ry="4.79" style="font-variation-settings:&quot;wght&quot;900;fill:#000;fill-opacity:1;stroke:none;stroke-width:1.42044;stroke-dasharray:none;stroke-opacity:1;paint-order:stroke fill markers"/><path d="m33.65 47.89 7.71 6.33m-2.1-10.59 4.87 8.2" style="font-variation-settings:&quot;wght&quot;900;fill:none;fill-opacity:1;stroke:#000;stroke-width:1.22242;stroke-linecap:round;stroke-dasharray:none;stroke-opacity:1;paint-order:stroke fill markers"/><path d="m109.1 155.77-.3 37.93m-.29.23 14.9 9.97m-13.76-10.53 16.87 7.86m-16.95-8.3 17.87 4.66" style="font-variation-settings:&quot;wght&quot;900;fill:none;fill-opacity:1;stroke:#000;stroke-width:3;stroke-linecap:round;stroke-dasharray:none;stroke-opacity:1;paint-order:stroke fill markers" transform="translate(26.065 16.598)scale(.40747)"/><path d="m126.62 154.74-.3 35.66m-.29.23 14.9 9.98m-13.77-10.54 16.88 7.86m-16.94-8.3 17.85 4.66" style="font-variation-settings:&quot;wght&quot;900;fill:none;fill-opacity:1;stroke:#000;stroke-width:3;stroke-linecap:round;stroke-dasharray:none;stroke-opacity:1;paint-order:stroke fill markers" transform="translate(25.352 16.716)scale(.40747)"/><path d="m-163.9 125.72-45.03 13.1c-1.05.31-1.4 1.3-.73 2.15 15 18.79 64.59 27.88 80.87 4.02" style="font-variation-settings:&quot;wght&quot;900;fill:none;fill-opacity:1;stroke:#000;stroke-width:3;stroke-linecap:round;stroke-dasharray:none;stroke-opacity:1;paint-order:stroke fill markers" transform="translate(138.089 5.208)scale(.40747)"/><path d="M129.23 71c-13.33 0-24.14 4.16-24.19 9.3v.02c0 1.25-.3 5.07.85 5.64v9a28.9 10.37 0 0 0-5.57 6.13 28.9 10.37 0 0 0 0 0v2.4a28.9 10.37 0 0 0 0 .02 28.9 10.37 0 0 0 28.9 10.36 28.9 10.37 0 0 0 28.9-10.36v-2.43a28.9 10.37 0 0 0-5.57-6.11v-9.43c1.08-1.26.87-3.9.87-5.25-.04-5.13-10.86-9.28-24.19-9.28z" style="fill:none;fill-opacity:1;stroke:#fff;stroke-width:5.032;stroke-linecap:round;stroke-dasharray:none;stroke-opacity:1;paint-order:stroke fill markers"/><g transform="translate(21.219 12.899)scale(.83837)"><ellipse cx="128.73" cy="108.25" rx="34.47" ry="12.36" style="fill:#585858;fill-opacity:1;stroke-width:13.1582;stroke-linecap:round;paint-order:stroke fill markers"/><path d="M94.27 105.36h68.93v2.89H94.27z" style="fill:#585858;fill-opacity:1;stroke-width:13.1582;stroke-linecap:round;paint-order:stroke fill markers"/><ellipse cx="128.73" cy="105.36" rx="34.47" ry="12.36" style="fill:#898989;fill-opacity:1;stroke-width:13.1582;stroke-linecap:round;paint-order:stroke fill markers"/></g><path d="M129.15 71.51c-12.89 0-23.33 4.03-23.33 8.99v19c0 4.97 10.44 8.99 23.33 8.99s23.32-4.02 23.32-8.98V80.5c0-4.96-10.44-8.99-23.32-8.99z" style="font-variation-settings:&quot;wght&quot;900;fill:#ffc9e0;fill-opacity:1;stroke:#d868a0;stroke-width:2.096;stroke-linecap:round;stroke-dasharray:none;stroke-opacity:1;paint-order:stroke fill markers"/><path d="m109.1 155.77-.3 37.93m-.29.23 14.9 9.97m-13.76-10.53 16.87 7.86m-16.95-8.3 17.87 4.66" style="font-variation-settings:&quot;wght&quot;900;fill:none;fill-opacity:1;stroke:#000;stroke-width:3;stroke-linecap:round;stroke-dasharray:none;stroke-opacity:1;paint-order:stroke fill markers" transform="matrix(-.40747 0 0 .40747 176.295 -12.847)"/><g style="fill:#ef85ba;fill-opacity:1"><path d="M129.97 65.75c-15.9 0-28.8 4.95-28.85 11.08v.03c0 1.5-.37 6.16 1.07 6.74 1.62.66 3.9-.33 6.66.23 3.2.64 4.3 4.1 9.55 4.25 3 .09 3.94-1.45 7.04-1.33 1.98.08 6.43 1.77 10.38 1.7 2.12-.05 5.93-4.47 8.66-3.98 1.8.32 3.85 1.73 5.43 1.53 2.33-.29 4-2.31 5.3-2.12 4.13.59 3.61-4.77 3.61-7.05-.05-6.13-12.95-11.08-28.85-11.08Z" style="font-variation-settings:&quot;wght&quot;900;fill:#ef85ba;fill-opacity:1;stroke:#d868a0;stroke-width:2.485;stroke-linecap:round;stroke-dasharray:none;stroke-opacity:1;paint-order:stroke fill markers" transform="translate(20.193 16.03)scale(.83837)"/></g><path d="M-36.96 71.81c-1.95 0-1.84 2.1-1.84 4.7v6.87c0 2.6-.11 4.7 1.84 4.7s1.82-2.1 1.82-4.7v-6.87c0-2.6.14-4.7-1.82-4.7z" style="font-variation-settings:&quot;wght&quot;900;fill:#dcdcdc;fill-opacity:1;stroke:#b8b8b8;stroke-width:1.79091;stroke-linecap:round;stroke-dasharray:none;stroke-opacity:1;paint-order:stroke fill markers" transform="translate(148.11 21.48)scale(.66842)"/><path d="M-36.9 70.75c.1.56.3 1.1.03 1.76" style="fill:none;fill-opacity:1;stroke:#747474;stroke-width:1.7;stroke-linecap:round;stroke-dasharray:none;stroke-opacity:1;paint-order:stroke fill markers" transform="translate(148.11 21.48)scale(.66842)"/><path d="M-35.25 68.75c.24.74-.25 1.56-1.1 1.83s-1.73-.1-1.96-.85c-.11-.34.36-1.06.24-1.8-.13-.87-.82-1.75-.36-1.9.41-.13 1.32.16 1.96.75a5 5 0 0 1 1.22 1.97z" style="fill:#eee36c;fill-opacity:1;stroke:#eec46c;stroke-width:1.794;stroke-linecap:round;stroke-dasharray:none;stroke-opacity:1;paint-order:stroke fill markers" transform="translate(148.11 21.48)scale(.66842)"/><path d="M-36.96 71.81c-1.95 0-1.84 2.1-1.84 4.7v6.87c0 2.6-.11 4.7 1.84 4.7s1.82-2.1 1.82-4.7v-6.87c0-2.6.14-4.7-1.82-4.7z" style="font-variation-settings:&quot;wght&quot;900;fill:#dcdcdc;fill-opacity:1;stroke:#b8b8b8;stroke-width:1.79091;stroke-linecap:round;stroke-dasharray:none;stroke-opacity:1;paint-order:stroke fill markers" transform="translate(157.502 21.458)scale(.66842)"/><path d="M-36.9 70.75c.1.56.3 1.1.03 1.76" style="fill:none;fill-opacity:1;stroke:#747474;stroke-width:1.7;stroke-linecap:round;stroke-dasharray:none;stroke-opacity:1;paint-order:stroke fill markers" transform="translate(157.502 21.458)scale(.66842)"/><path d="M-35.25 68.75c.24.74-.25 1.56-1.1 1.83s-1.73-.1-1.96-.85c-.11-.34.36-1.06.24-1.8-.13-.87-.82-1.75-.36-1.9.41-.13 1.32.16 1.96.75a5 5 0 0 1 1.22 1.97z" style="fill:#eee36c;fill-opacity:1;stroke:#eec46c;stroke-width:1.794;stroke-linecap:round;stroke-dasharray:none;stroke-opacity:1;paint-order:stroke fill markers" transform="translate(157.502 21.458)scale(.66842)"/><path d="M-36.96 71.81c-1.95 0-1.84 2.1-1.84 4.7v6.87c0 2.6-.11 4.7 1.84 4.7s1.82-2.1 1.82-4.7v-6.87c0-2.6.14-4.7-1.82-4.7z" style="font-variation-settings:&quot;wght&quot;900;fill:#dcdcdc;fill-opacity:1;stroke:#b8b8b8;stroke-width:1.79091;stroke-linecap:round;stroke-dasharray:none;stroke-opacity:1;paint-order:stroke fill markers" transform="translate(152.814 16.377)scale(.66842)"/><path d="M-36.9 70.75c.1.56.3 1.1.03 1.76" style="fill:none;fill-opacity:1;stroke:#747474;stroke-width:1.7;stroke-linecap:round;stroke-dasharray:none;stroke-opacity:1;paint-order:stroke fill markers" transform="translate(152.814 16.377)scale(.66842)"/><path d="M-35.25 68.75c.24.74-.25 1.56-1.1 1.83s-1.73-.1-1.96-.85c-.11-.34.36-1.06.24-1.8-.13-.87-.82-1.75-.36-1.9.41-.13 1.32.16 1.96.75a5 5 0 0 1 1.22 1.97z" style="fill:#eee36c;fill-opacity:1;stroke:#eec46c;stroke-width:1.794;stroke-linecap:round;stroke-dasharray:none;stroke-opacity:1;paint-order:stroke fill markers" transform="translate(152.814 16.377)scale(.66842)"/><path d="M-36.96 71.81c-1.95 0-1.84 2.1-1.84 4.7v6.87c0 2.6-.11 4.7 1.84 4.7s1.82-2.1 1.82-4.7v-6.87c0-2.6.14-4.7-1.82-4.7z" style="font-variation-settings:&quot;wght&quot;900;fill:#dcdcdc;fill-opacity:1;stroke:#b8b8b8;stroke-width:1.79091;stroke-linecap:round;stroke-dasharray:none;stroke-opacity:1;paint-order:stroke fill markers" transform="translate(163.25 18.06)scale(.66842)"/><path d="M-36.9 70.75c.1.56.3 1.1.03 1.76" style="fill:none;fill-opacity:1;stroke:#747474;stroke-width:1.7;stroke-linecap:round;stroke-dasharray:none;stroke-opacity:1;paint-order:stroke fill markers" transform="translate(163.25 18.06)scale(.66842)"/><path d="M-35.25 68.75c.24.74-.25 1.56-1.1 1.83s-1.73-.1-1.96-.85c-.11-.34.36-1.06.24-1.8-.13-.87-.82-1.75-.36-1.9.41-.13 1.32.16 1.96.75a5 5 0 0 1 1.22 1.97z" style="fill:#eee36c;fill-opacity:1;stroke:#eec46c;stroke-width:1.794;stroke-linecap:round;stroke-dasharray:none;stroke-opacity:1;paint-order:stroke fill markers" transform="translate(163.25 18.06)scale(.66842)"/><path d="M-36.96 71.81c-1.95 0-1.84 2.1-1.84 4.7v6.87c0 2.6-.11 4.7 1.84 4.7s1.82-2.1 1.82-4.7v-6.87c0-2.6.14-4.7-1.82-4.7z" style="font-variation-settings:&quot;wght&quot;900;fill:#dcdcdc;fill-opacity:1;stroke:#b8b8b8;stroke-width:1.79091;stroke-linecap:round;stroke-dasharray:none;stroke-opacity:1;paint-order:stroke fill markers" transform="translate(142.75 18.963)scale(.66842)"/><path d="M-36.9 70.75c.1.56.3 1.1.03 1.76" style="fill:none;fill-opacity:1;stroke:#747474;stroke-width:1.7;stroke-linecap:round;stroke-dasharray:none;stroke-opacity:1;paint-order:stroke fill markers" transform="translate(142.75 18.963)scale(.66842)"/><path d="M-35.25 68.75c.24.74-.25 1.56-1.1 1.83s-1.73-.1-1.96-.85c-.11-.34.36-1.06.24-1.8-.13-.87-.82-1.75-.36-1.9.41-.13 1.32.16 1.96.75a5 5 0 0 1 1.22 1.97z" style="fill:#eee36c;fill-opacity:1;stroke:#eec46c;stroke-width:1.794;stroke-linecap:round;stroke-dasharray:none;stroke-opacity:1;paint-order:stroke fill markers" transform="translate(142.75 18.963)scale(.66842)"/><path d="M127.9 56.63a5.6 5.6 0 0 0-5.5 4.56 5.6 5.6 0 0 0-4.43-2.15 5.6 5.6 0 0 0-5.6 5.6 5.6 5.6 0 0 0 5.6 5.62l.43-.02a5.6 5.6 0 0 0 4.86 2.8 5.6 5.6 0 0 0 4.51-2.27 5.6 5.6 0 0 0 4.73 2.58 5.6 5.6 0 0 0 5.37-4l.68.04a5.6 5.6 0 0 0 5.61-5.61 5.6 5.6 0 0 0-5.6-5.61 5.6 5.6 0 0 0-5.1 3.26 5.6 5.6 0 0 0-5.56-4.8" style="fill:#d4ac4c;fill-opacity:.427224;stroke:none;stroke-width:.556435;stroke-linecap:round;paint-order:stroke fill markers"/></g></svg>