<svg xmlns="http://www.w3.org/2000/svg" xml:space="preserve" width="160mm" height="90mm" stroke-linejoin="round" stroke-width="28.22" viewBox="0 0 16000 9000"><path fill="#004586" d="M10150 8176h3685V1422h-3685z" style="fill:#474747;fill-opacity:1"/><path fill="#004586" d="M2782 8176h3685V4935H2782z" style="fill:#4a96dc;fill-opacity:1"/><path fill="none" stroke="#b3b3b3" d="M940 8326v-150m0 150v-150m7368 150v-150m0 150v-150m7370 150v-150m0 150v-150m-14738 0h14738m-14888 0h150m-150 0h150m-150-867h150m-150 0h150m-150-867h150m-150 0h150m-150-866h150m-150 0h150m-150-867h150m-150 0h150m-150-865h150m-150 0h150m-150-867h150m-150 0h150m-150-866h150m-150 0h150m-150-867h150m-150 0h150M790 377h150m-150 0h150m0 7799V377" style="stroke:#ececec;stroke-opacity:1"/><g aria-label="Bevy 0.4" class="TextShape" style="fill:#ececec;fill-opacity:1"><path d="M4152.83 8675.57q0 32.4-23.61 50.5-23.61 17.93-65.67 17.93h-98.6v-242.86h88.26q85.49 0 85.49 58.95 0 21.54-12.07 36.2-12.06 14.65-34.12 19.64 28.95 3.45 44.64 19.48 15.68 15.86 15.68 40.16m-47.22-111.52q0-19.65-13.45-28.1-13.44-8.44-38.95-8.44h-55.33v76.88h55.33q26.37 0 39.3-9.83 13.1-10 13.1-30.5m13.96 108.94q0-42.92-60.33-42.92h-61.36v87.56h63.95q30.16 0 43.95-11.2t13.79-33.44m99.45-15.7q0 32.06 13.27 49.47t38.78 17.4q20.17 0 32.24-8.1 12.23-8.1 16.54-20.5l27.24 7.75q-16.72 44.13-76.02 44.13-41.36 0-63.08-24.65-21.55-24.65-21.55-73.26 0-46.19 21.55-70.84 21.72-24.64 61.88-24.64 82.21 0 82.21 99.1v4.14zm101-23.78q-2.58-29.48-14.99-42.92-12.41-13.62-35.68-13.62-22.58 0-35.85 15.17-13.1 15-14.13 41.37zM4473.43 8744h-36.71l-67.74-186.5h33.09l41.02 121.35q2.24 6.9 11.9 40.85l6.03-20.17 6.72-20.34 42.4-121.69h32.92zm103.77 73.25q-12.76 0-21.38-1.9v-23.26q6.55 1.03 14.48 1.03 28.95 0 45.85-42.57l2.93-7.41-73.95-185.64h33.1l39.3 103.08q.86 2.4 2.06 5.86 1.2 3.27 7.76 22.4 6.55 19.14 7.07 21.38l12.06-33.96 40.85-118.76h32.75l-71.7 186.5q-11.55 29.82-21.55 44.3-10 14.65-22.23 21.72-12.07 7.23-27.4 7.23m424.18-194.77q0 60.85-21.55 92.9-21.37 32.07-63.26 32.07t-62.9-31.89q-21.04-31.89-21.04-93.08 0-62.56 20.34-93.76 20.51-31.2 64.64-31.2 42.92 0 63.26 31.54 20.5 31.55 20.5 93.42m-31.54 0q0-52.57-12.24-76.18-12.07-23.61-40-23.61-28.6 0-41.19 23.26-12.4 23.27-12.4 76.53 0 51.71 12.58 75.67 12.75 23.96 40.33 23.96 27.4 0 40.16-24.48 12.76-24.47 12.76-75.15M5047.4 8744v-37.75h33.6V8744Zm217.7-54.98V8744h-29.3v-54.98h-114.46v-24.13l111.18-163.75h32.57v163.4h34.13v24.48zm-29.3-152.89q-.35 1.03-4.83 9.14-4.49 8.1-6.73 11.37l-62.22 91.7-9.3 12.75-2.77 3.45h85.84z" style="fill:#ececec;stroke:none;fill-opacity:1"/></g><g aria-label="Bevy 0.3" class="TextShape" style="fill:#ececec;fill-opacity:1"><path d="M11522.83 8675.57q0 32.4-23.61 50.5-23.61 17.93-65.67 17.93h-98.6v-242.86h88.26q85.49 0 85.49 58.95 0 21.54-12.07 36.2-12.06 14.65-34.12 19.64 28.95 3.45 44.64 19.48 15.68 15.86 15.68 40.16m-47.22-111.52q0-19.65-13.45-28.1-13.44-8.44-38.95-8.44h-55.33v76.88h55.33q26.37 0 39.3-9.83 13.1-10 13.1-30.5m13.96 108.94q0-42.92-60.33-42.92h-61.36v87.56h63.95q30.16 0 43.95-11.2t13.79-33.44m99.45-15.7q0 32.06 13.27 49.47t38.78 17.4q20.17 0 32.24-8.1 12.23-8.1 16.54-20.5l27.24 7.75q-16.72 44.13-76.02 44.13-41.36 0-63.08-24.65-21.55-24.65-21.55-73.26 0-46.19 21.55-70.84 21.72-24.64 61.88-24.64 82.22 0 82.22 99.1v4.14zm101-23.78q-2.58-29.48-14.99-42.92-12.41-13.62-35.68-13.62-22.58 0-35.85 15.17-13.1 15-14.14 41.37zm153.41 110.48h-36.72l-67.73-186.5h33.09l41.02 121.35q2.24 6.9 11.9 40.85l6.03-20.17 6.72-20.34 42.4-121.69h32.92zm103.77 73.25q-12.76 0-21.38-1.9v-23.26q6.55 1.03 14.48 1.03 28.95 0 45.85-42.57l2.93-7.41-73.95-185.64h33.1l39.3 103.08q.86 2.4 2.06 5.86 1.2 3.27 7.76 22.4 6.55 19.14 7.07 21.38l12.06-33.96 40.85-118.76h32.75l-71.7 186.5q-11.55 29.82-21.55 44.3-10 14.65-22.23 21.72-12.07 7.23-27.4 7.23m424.18-194.77q0 60.85-21.55 92.9-21.37 32.07-63.25 32.07-41.89 0-62.92-31.89t-21.03-93.08q0-62.56 20.34-93.76 20.51-31.2 64.64-31.2 42.92 0 63.26 31.54 20.5 31.55 20.5 93.42m-31.54 0q0-52.57-12.24-76.18-12.07-23.61-40-23.61-28.6 0-41.19 23.26-12.4 23.27-12.4 76.53 0 51.71 12.58 75.67 12.75 23.96 40.33 23.96 27.4 0 40.16-24.48 12.76-24.47 12.76-75.15m77.57 121.52v-37.75h33.6V8744Zm246.65-67.05q0 33.61-21.37 52.05-21.38 18.45-61.02 18.45-36.88 0-58.95-16.55-21.89-16.72-26.02-49.3l32.05-2.93q6.21 43.1 52.92 43.1 23.44 0 36.71-11.55 13.45-11.55 13.45-34.3 0-19.83-15.34-30.86-15.17-11.2-43.96-11.2h-17.58v-26.89h16.9q25.5 0 39.47-11.03 14.13-11.2 14.13-30.85 0-19.48-11.55-30.68-11.37-11.38-33.95-11.38-20.51 0-33.27 10.51-12.58 10.52-14.65 29.65l-31.2-2.41q3.45-29.82 24.65-46.54 21.37-16.72 54.81-16.72 36.54 0 56.7 17.06 20.35 16.9 20.35 47.23 0 23.27-13.1 37.92-12.93 14.48-37.75 19.65v.7q27.23 2.92 42.4 18.26t15.17 38.61" style="fill:#ececec;stroke:none;fill-opacity:1"/></g><g aria-label="0" class="TextShape" style="stroke:none;stroke-opacity:1;fill-opacity:1;fill:#ececec"><path d="M687.53 8175.48q0 60.85-21.54 92.9-21.38 32.07-63.26 32.07t-62.91-31.89-21.03-93.08q0-62.56 20.34-93.76 20.5-31.2 64.63-31.2 42.92 0 63.26 31.54 20.51 31.55 20.51 93.42m-31.54 0q0-52.57-12.24-76.18-12.06-23.61-39.99-23.61-28.6 0-41.2 23.26-12.4 23.27-12.4 76.53 0 51.71 12.58 75.67 12.76 23.96 40.33 23.96 27.41 0 40.17-24.48 12.75-24.47 12.75-75.15" style="fill:#ececec;stroke:none;stroke-opacity:1;fill-opacity:1"/></g><g aria-label="5" class="TextShape" style="stroke:none;stroke-opacity:1;fill-opacity:1;fill:#ececec"><path d="M686.5 7350.89q0 38.43-22.93 60.5-22.75 22.06-63.25 22.06-33.96 0-54.81-14.83t-26.38-42.91l31.37-3.62q9.83 36.02 50.5 36.02 25 0 39.13-15 14.14-15.16 14.14-41.54 0-22.92-14.31-37.05-14.13-14.14-38.26-14.14-12.59 0-23.45 3.97-10.85 3.96-21.71 13.44H526.2l8.1-130.65h138.06v26.37h-109.8l-4.64 77.05q20.16-15.51 50.15-15.51 35.85 0 57.06 21.02 21.37 21.03 21.37 54.82" style="fill:#ececec;stroke:none;stroke-opacity:1;fill-opacity:1"/></g><g aria-label="10" class="TextShape" style="stroke:none;stroke-opacity:1;fill-opacity:1;fill:#ececec"><path d="M346.89 6563v-26.37h61.88v-186.84l-54.81 39.12v-29.3l57.4-39.47h28.6v216.49h59.13V6563Zm351.96-121.52q0 60.85-21.54 92.9-21.37 32.07-63.26 32.07t-62.91-31.89-21.03-93.08q0-62.56 20.34-93.76 20.51-31.2 64.64-31.2 42.91 0 63.25 31.54 20.51 31.55 20.51 93.42m-31.54 0q0-52.57-12.24-76.18-12.06-23.61-39.98-23.61-28.62 0-41.2 23.26-12.4 23.27-12.4 76.53 0 51.71 12.57 75.67 12.76 23.96 40.34 23.96 27.4 0 40.16-24.48 12.75-24.47 12.75-75.15" style="fill:#ececec;stroke:none;stroke-opacity:1;fill-opacity:1"/></g><g aria-label="15" class="TextShape" style="stroke:none;stroke-opacity:1;fill-opacity:1;fill:#ececec"><path d="M346.89 5697v-26.37h61.88v-186.84l-54.81 39.12v-29.3l57.4-39.47h28.6v216.49h59.13V5697Zm350.93-79.11q0 38.43-22.92 60.5-22.76 22.06-63.26 22.06-33.96 0-54.81-14.83t-26.37-42.91l31.37-3.62q9.82 36.02 50.5 36.02 25 0 39.12-15 14.14-15.16 14.14-41.54 0-22.92-14.3-37.05-14.14-14.14-38.27-14.14-12.58 0-23.44 3.97-10.86 3.96-21.72 13.44h-30.34l8.1-130.65H683.7v26.37H573.9l-4.65 77.05q20.16-15.51 50.16-15.51 35.85 0 57.05 21.02 21.37 21.03 21.37 54.82" style="fill:#ececec;stroke:none;stroke-opacity:1;fill-opacity:1"/></g><g aria-label="20" class="TextShape" style="stroke:none;stroke-opacity:1;fill-opacity:1;fill:#ececec"><path d="M337.75 4830v-21.89q8.8-20.17 21.38-35.5 12.75-15.52 26.71-27.93 13.96-12.58 27.58-23.27 13.79-10.69 24.82-21.37t17.75-22.4q6.9-11.73 6.9-26.55 0-20-11.72-31.03t-32.58-11.03q-19.82 0-32.75 10.86-12.75 10.69-15 30.16l-31.7-2.93q3.44-29.13 24.64-46.36 21.37-17.24 54.81-17.24 36.72 0 56.36 17.4 19.83 17.25 19.83 49.13 0 14.14-6.55 28.1-6.38 13.96-19.14 27.92-12.75 13.96-48.77 43.26-19.83 16.2-31.55 29.3-11.72 12.93-16.89 25h126.69V4830Zm361.1-121.52q0 60.85-21.54 92.9-21.37 32.07-63.26 32.07t-62.91-31.89-21.03-93.08q0-62.56 20.34-93.76 20.51-31.2 64.64-31.2 42.91 0 63.25 31.54 20.51 31.55 20.51 93.42m-31.54 0q0-52.57-12.24-76.18-12.06-23.61-39.98-23.61-28.62 0-41.2 23.26-12.4 23.27-12.4 76.53 0 51.71 12.57 75.67 12.76 23.96 40.34 23.96 27.4 0 40.16-24.48 12.75-24.47 12.75-75.15" style="fill:#ececec;stroke:none;stroke-opacity:1;fill-opacity:1"/></g><g aria-label="25" class="TextShape" style="stroke:none;stroke-opacity:1;fill-opacity:1;fill:#ececec"><path d="M337.75 3964v-21.89q8.8-20.17 21.38-35.5 12.75-15.52 26.71-27.93 13.96-12.58 27.58-23.27 13.79-10.69 24.82-21.37t17.75-22.4q6.9-11.73 6.9-26.55 0-20-11.72-31.03t-32.58-11.03q-19.82 0-32.75 10.86-12.75 10.69-15 30.16l-31.7-2.93q3.44-29.13 24.64-46.36 21.37-17.24 54.81-17.24 36.72 0 56.36 17.4 19.83 17.25 19.83 49.13 0 14.14-6.55 28.1-6.38 13.96-19.14 27.92-12.75 13.96-48.77 43.26-19.83 16.2-31.55 29.3-11.72 12.93-16.89 25h126.69V3964Zm360.07-79.11q0 38.43-22.92 60.5-22.76 22.06-63.26 22.06-33.96 0-54.81-14.83t-26.37-42.91l31.37-3.62q9.82 36.02 50.5 36.02 25 0 39.12-15 14.14-15.16 14.14-41.54 0-22.92-14.3-37.05-14.14-14.14-38.27-14.14-12.58 0-23.44 3.97-10.86 3.96-21.72 13.44h-30.34l8.1-130.65H683.7v26.37H573.9l-4.65 77.05q20.16-15.51 50.16-15.51 35.85 0 57.05 21.02 21.37 21.03 21.37 54.82" style="fill:#ececec;stroke:none;stroke-opacity:1;fill-opacity:1"/></g><g aria-label="30" class="TextShape" style="stroke:none;stroke-opacity:1;fill-opacity:1;fill:#ececec"><path d="M500.8 3029.95q0 33.61-21.36 52.05-21.38 18.45-61.02 18.45-36.89 0-58.95-16.55-21.89-16.72-26.03-49.3l32.06-2.93q6.2 43.1 52.92 43.1 23.44 0 36.71-11.55 13.45-11.55 13.45-34.3 0-19.83-15.34-30.86-15.17-11.2-43.96-11.2H391.7v-26.89h16.9q25.5 0 39.47-11.03 14.13-11.2 14.13-30.85 0-19.48-11.55-30.68-11.37-11.38-33.95-11.38-20.52 0-33.27 10.51-12.58 10.52-14.65 29.65l-31.2-2.41q3.45-29.82 24.65-46.54 21.37-16.72 54.81-16.72 36.54 0 56.7 17.06 20.35 16.9 20.35 47.23 0 23.27-13.1 37.92-12.93 14.48-37.75 19.65v.7q27.23 2.92 42.4 18.26t15.17 38.61m198.04-54.47q0 60.85-21.54 92.9-21.37 32.07-63.26 32.07t-62.91-31.89-21.03-93.08q0-62.56 20.34-93.76 20.51-31.2 64.64-31.2 42.91 0 63.25 31.54 20.51 31.55 20.51 93.42m-31.54 0q0-52.57-12.24-76.18-12.06-23.61-39.98-23.61-28.62 0-41.2 23.26-12.4 23.27-12.4 76.53 0 51.71 12.57 75.67 12.76 23.96 40.34 23.96 27.4 0 40.16-24.48 12.75-24.47 12.75-75.15" style="fill:#ececec;stroke:none;stroke-opacity:1;fill-opacity:1"/></g><g aria-label="35" class="TextShape" style="stroke:none;stroke-opacity:1;fill-opacity:1;fill:#ececec"><path d="M500.8 2163.95q0 33.61-21.36 52.05-21.38 18.45-61.02 18.45-36.89 0-58.95-16.55-21.89-16.72-26.03-49.3l32.06-2.93q6.2 43.1 52.92 43.1 23.44 0 36.71-11.55 13.45-11.55 13.45-34.3 0-19.83-15.34-30.86-15.17-11.2-43.96-11.2H391.7v-26.89h16.9q25.5 0 39.47-11.03 14.13-11.2 14.13-30.85 0-19.48-11.55-30.68-11.37-11.38-33.95-11.38-20.52 0-33.27 10.51-12.58 10.52-14.65 29.65l-31.2-2.41q3.45-29.82 24.65-46.54 21.37-16.72 54.81-16.72 36.54 0 56.7 17.06 20.35 16.9 20.35 47.23 0 23.27-13.1 37.92-12.93 14.48-37.75 19.65v.7q27.23 2.92 42.4 18.26t15.17 38.61m197.01-12.06q0 38.43-22.92 60.5-22.76 22.06-63.26 22.06-33.96 0-54.81-14.83t-26.37-42.91l31.37-3.62q9.82 36.02 50.5 36.02 25 0 39.12-15 14.14-15.16 14.14-41.54 0-22.92-14.3-37.05-14.14-14.14-38.27-14.14-12.58 0-23.44 3.97-10.86 3.96-21.72 13.44h-30.34l8.1-130.65H683.7v26.37H573.9l-4.65 77.05q20.16-15.51 50.16-15.51 35.85 0 57.05 21.02 21.37 21.03 21.37 54.82" style="fill:#ececec;stroke:none;stroke-opacity:1;fill-opacity:1"/></g><g aria-label="40" class="TextShape" style="stroke:none;stroke-opacity:1;fill-opacity:1;fill:#ececec"><path d="M471.85 1309.02V1364h-29.3v-54.98H328.1v-24.13l111.18-163.75h32.57v163.4h34.13v24.48zm-29.3-152.89q-.34 1.03-4.83 9.14-4.48 8.1-6.72 11.37l-62.22 91.7-9.3 12.75-2.77 3.45h85.84zm256.3 86.35q0 60.85-21.54 92.9-21.37 32.07-63.26 32.07t-62.91-31.89-21.03-93.08q0-62.56 20.34-93.76 20.51-31.2 64.64-31.2 42.91 0 63.25 31.54 20.51 31.55 20.51 93.42m-31.54 0q0-52.57-12.24-76.18-12.06-23.61-39.98-23.61-28.62 0-41.2 23.26-12.4 23.27-12.4 76.53 0 51.71 12.57 75.67 12.76 23.96 40.34 23.96 27.4 0 40.16-24.48 12.75-24.47 12.75-75.15" style="fill:#ececec;stroke:none;stroke-opacity:1;fill-opacity:1"/></g><g aria-label="45" class="TextShape" style="stroke:none;stroke-opacity:1;fill-opacity:1;fill:#ececec"><path d="M471.85 442.02V497h-29.3v-54.98H328.1v-24.13l111.18-163.75h32.57v163.4h34.13v24.48zm-29.3-152.89q-.34 1.03-4.83 9.14-4.48 8.1-6.72 11.37l-62.22 91.7-9.3 12.75-2.77 3.45h85.84zm255.27 128.76q0 38.43-22.92 60.5-22.76 22.06-63.26 22.06-33.96 0-54.81-14.83t-26.37-42.91l31.37-3.62q9.82 36.02 50.5 36.02 25 0 39.12-15 14.14-15.16 14.14-41.54 0-22.92-14.3-37.05-14.14-14.14-38.27-14.14-12.58 0-23.44 3.97-10.86 3.96-21.72 13.44h-30.34l8.1-130.65H683.7v26.37H573.9l-4.65 77.05q20.16-15.51 50.16-15.51 35.85 0 57.05 21.02 21.37 21.03 21.37 54.82" style="fill:#ececec;stroke:none;stroke-opacity:1;fill-opacity:1"/></g></svg>