<svg xmlns="http://www.w3.org/2000/svg" xml:space="preserve" width="160mm" height="90mm" stroke-linejoin="round" stroke-width="28.22" viewBox="0 0 16000 9000"><path fill="#004586" d="M11948 8171h2487V1380h-2487zm-4974 0h2486V6801H6974z" style="fill:#474747;fill-opacity:1"/><path fill="#004586" d="M1999 8171h2488v-479H1999z" style="fill:#4a96dc;fill-opacity:1"/><path fill="none" stroke="#b3b3b3" d="M756 8321v-150m0 150v-150m4974 150v-150m0 150v-150m4974 150v-150m0 150v-150m4975 150v-150m0 150v-150m-14923 0h14923m-15073 0h150m-150 0h150M606 7057h150m-150 0h150M606 5944h150m-150 0h150M606 4830h150m-150 0h150M606 3718h150m-150 0h150M606 2604h150m-150 0h150M606 1491h150m-150 0h150M606 377h150m-150 0h150m0 7794V377" style="stroke:#ececec;stroke-opacity:1"/><g aria-label="dynamic" class="TextShape" style="fill:#ececec;fill-opacity:1"><path d="M2736.51 8709q-8.62 17.93-22.92 25.7-14.14 7.75-35.17 7.75-35.33 0-52.05-23.79-16.55-23.79-16.55-72.05 0-97.55 68.6-97.55 21.2 0 35.34 7.75 14.13 7.76 22.75 24.65h.35l-.35-20.86v-77.39h31.03v217.35q0 29.13 1.03 38.44h-29.65q-.51-2.76-1.2-12.75-.52-10-.52-17.24zm-94.11-63.42q0 39.13 10.34 56.02t33.61 16.89q26.37 0 38.27-18.27 11.89-18.27 11.89-56.7 0-37.07-11.9-54.3-11.89-17.24-37.91-17.24-23.44 0-33.96 17.4-10.34 17.24-10.34 56.2m181.84 166.67q-12.75 0-21.37-1.9v-23.26q6.55 1.03 14.48 1.03 28.96 0 45.85-42.57l2.93-7.41-73.95-185.64h33.1l39.3 103.08q.86 2.4 2.06 5.86 1.21 3.27 7.76 22.4 6.55 19.14 7.07 21.38l12.06-33.96 40.85-118.76h32.75l-71.7 186.5q-11.55 29.82-21.55 44.3-10 14.65-22.23 21.72-12.07 7.23-27.4 7.23m285.77-73.25v-118.24q0-18.44-3.62-28.61t-11.55-14.65q-7.93-4.49-23.27-4.49-22.4 0-35.33 15.34t-12.93 42.58V8739h-31.02v-146.68q0-32.58-1.04-39.82h29.3q.18.86.35 4.66.17 3.79.34 8.79.35 4.82.7 18.44h.51q10.69-19.3 24.65-27.23 14.13-8.1 34.99-8.1 30.68 0 44.81 15.34 14.3 15.16 14.3 50.33V8739Zm125.48 3.45q-28.1 0-42.23-14.83t-14.13-40.67q0-28.96 18.96-44.47 19.13-15.52 61.53-16.55l41.89-.69v-10.17q0-22.75-9.66-32.58t-30.33-9.82q-20.86 0-30.34 7.07-9.48 7.06-11.37 22.58l-32.4-2.93q7.92-50.33 74.8-50.33 35.16 0 52.91 16.2 17.76 16.03 17.76 46.54v80.32q0 13.79 3.62 20.85 3.62 6.9 13.79 6.9 4.48 0 10.17-1.2v19.3q-11.73 2.75-23.96 2.75-17.24 0-25.17-8.96-7.75-9.13-8.79-28.44h-1.03q-11.9 21.37-27.75 30.34-15.69 8.79-38.27 8.79m7.07-23.27q17.06 0 30.33-7.76t20.86-21.2q7.76-13.62 7.76-27.92v-15.34l-33.96.69q-21.89.34-33.26 4.48-11.2 4.14-17.24 12.75t-6.03 22.58q0 15.17 8.1 23.44 8.27 8.28 23.44 8.28m250.27 19.82v-118.24q0-27.06-7.41-37.4T3458.7 8573q-19.82 0-31.37 15.17t-11.55 42.75V8739h-30.85v-146.68q0-32.58-1.03-39.82h29.3q.17.86.34 4.66.18 3.79.35 8.79.34 4.82.69 18.44h.51q10-19.82 22.93-27.58t31.54-7.75q21.2 0 33.44 8.44 12.41 8.45 17.24 26.89h.51q9.66-18.79 23.27-27.06 13.8-8.27 33.27-8.27 28.27 0 41.02 15.34 12.93 15.34 12.93 50.33V8739h-30.68v-118.24q0-27.06-7.41-37.4t-26.72-10.35q-20.34 0-31.72 15.17-11.2 15-11.2 42.75V8739Zm185.29-226.14v-29.65h31.03v29.65zm0 226.14v-186.5h31.03V8739Zm102.21-94.11q0 37.23 11.72 55.16t35.34 17.92q16.54 0 27.58-8.96 11.2-8.96 13.78-27.58l31.37 2.07q-3.61 26.89-22.92 42.92-19.3 16.03-48.95 16.03-39.13 0-59.81-24.65-20.51-24.82-20.51-72.22 0-47.06 20.68-71.7 20.69-24.82 59.3-24.82 28.6 0 47.4 14.82 18.95 14.82 23.78 40.85l-31.89 2.41q-2.41-15.51-12.23-24.65t-27.93-9.13q-24.65 0-35.68 16.37t-11.03 55.16" style="fill:#ececec;stroke:none;fill-opacity:1"/></g><g aria-label="fast_compiles" class="TextShape" style="fill:#ececec;fill-opacity:1"><path d="M7208.22 8575.08V8739h-31.02v-163.92H7151v-22.58h26.2v-21.03q0-25.5 11.2-36.7t34.3-11.21q12.93 0 21.9 2.07v23.61q-7.76-1.38-13.8-1.38-11.89 0-17.23 6.03t-5.35 21.9v16.71h36.37v22.58zm107.21 167.37q-28.1 0-42.23-14.83t-14.13-40.67q0-28.96 18.96-44.47 19.13-15.52 61.53-16.55l41.89-.69v-10.17q0-22.75-9.65-32.58t-30.34-9.82q-20.86 0-30.34 7.07-9.48 7.06-11.37 22.58l-32.4-2.93q7.92-50.33 74.8-50.33 35.16 0 52.91 16.2 17.76 16.03 17.76 46.54v80.32q0 13.79 3.62 20.85 3.62 6.9 13.79 6.9 4.48 0 10.17-1.2v19.3q-11.72 2.75-23.96 2.75-17.24 0-25.17-8.96-7.75-9.13-8.79-28.44h-1.03q-11.9 21.37-27.75 30.34-15.69 8.79-38.27 8.79m7.07-23.27q17.06 0 30.34-7.76 13.27-7.75 20.85-21.2 7.76-13.62 7.76-27.92v-15.34l-33.96.69q-21.89.34-33.26 4.48-11.2 4.14-17.24 12.75t-6.03 22.58q0 15.17 8.1 23.44 8.27 8.28 23.44 8.28m281.64-31.72q0 26.38-20 40.68-19.81 14.3-55.67 14.3-34.81 0-53.77-11.37-18.8-11.55-24.48-35.85l27.4-5.34q3.97 15 16.38 22.06 12.41 6.9 34.47 6.9 23.62 0 34.48-7.25 11.03-7.23 11.03-21.71 0-11.03-7.59-17.93t-24.47-11.38l-22.24-5.86q-26.71-6.89-38.09-13.44-11.2-6.72-17.58-16.2t-6.38-23.27q0-25.51 18.1-38.78 18.27-13.45 53.09-13.45 30.85 0 48.95 10.86 18.27 10.86 23.1 34.82l-27.93 3.45q-2.58-12.41-13.96-18.96-11.2-6.73-30.16-6.73-21.03 0-31.03 6.38t-10 19.3q0 7.94 4.14 13.1 4.14 5.18 12.24 8.8t34.13 10q24.65 6.2 35.5 11.54 10.86 5.17 17.07 11.55 6.38 6.38 9.82 14.82 3.45 8.28 3.45 18.96m108.25 50.16q-15.34 4.14-31.37 4.14-37.23 0-37.23-42.23v-124.45h-21.55v-22.58h22.75l9.14-41.7h20.68v41.7h34.47v22.58h-34.47v117.73q0 13.44 4.31 18.96 4.48 5.34 15.34 5.34 6.2 0 17.93-2.41zm-2.76 71.53v-22.4h205.63v22.4zm249.07-164.26q0 37.23 11.71 55.16t35.34 17.92q16.54 0 27.58-8.96 11.2-8.96 13.79-27.58l31.37 2.07q-3.62 26.89-22.93 42.92t-48.95 16.03q-39.13 0-59.81-24.65-20.51-24.82-20.51-72.22 0-47.06 20.68-71.7 20.69-24.82 59.3-24.82 28.6 0 47.4 14.82 18.96 14.82 23.78 40.85l-31.89 2.41q-2.4-15.51-12.23-24.65t-27.93-9.13q-24.64 0-35.68 16.37t-11.03 55.16m310.61.69q0 48.95-21.55 72.9-21.55 23.97-62.57 23.97-40.85 0-61.7-24.82-20.86-25-20.86-72.05 0-96.52 83.6-96.52 42.74 0 62.9 23.6 20.17 23.45 20.17 72.92m-32.59 0q0-38.61-11.54-56.02-11.38-17.58-38.44-17.58-27.23 0-39.47 17.93-12.07 17.75-12.07 55.67 0 36.88 11.9 55.5 12.06 18.44 37.74 18.44 27.93 0 39.82-17.92 12.06-17.93 12.06-56.02m179.79 93.42v-118.24q0-27.06-7.41-37.4t-26.72-10.35q-19.82 0-31.37 15.17t-11.55 42.75V8739h-30.85v-146.68q0-32.58-1.03-39.82h29.3q.17.86.34 4.66.17 3.79.35 8.79.34 4.82.69 18.44h.51q10-19.82 22.93-27.58t31.54-7.75q21.2 0 33.44 8.44 12.4 8.45 17.24 26.89h.51q9.65-18.79 23.27-27.06 13.8-8.27 33.27-8.27 28.27 0 41.02 15.34 12.93 15.34 12.93 50.33V8739h-30.68v-118.24q0-27.06-7.41-37.4t-26.72-10.35q-20.34 0-31.72 15.17-11.2 15-11.2 42.75V8739Zm343.18-94.11q0 97.56-68.6 97.56-43.1 0-57.92-32.4h-.86q.69 1.37.69 29.3v72.9h-31.03V8590.6q0-28.79-1.03-38.1h29.99q.17.7.52 5 .34 4.14.69 12.93.51 8.79.51 12.06h.7q8.27-17.23 21.88-25.16 13.62-8.1 35.85-8.1 34.48 0 51.54 23.1t17.06 72.56m-32.58.69q0-38.95-10.52-55.67t-33.43-16.72q-18.45 0-28.96 7.75-10.34 7.76-15.86 24.3-5.34 16.38-5.34 42.75 0 36.72 11.72 54.12 11.72 17.41 38.1 17.41 23.09 0 33.6-16.89 10.69-17.06 10.69-57.05m71.02-132.72v-29.65h31.03v29.65zm0 226.14v-186.5h31.03V8739Zm78.6 0v-255.79h31.03V8739Zm102.21-86.7q0 32.06 13.27 49.47t38.78 17.4q20.17 0 32.24-8.1 12.23-8.1 16.54-20.5l27.24 7.75q-16.72 44.13-76.02 44.13-41.36 0-63.08-24.65-21.55-24.65-21.55-73.26 0-46.19 21.55-70.84 21.72-24.64 61.88-24.64 82.22 0 82.22 99.1v4.14zm101-23.78q-2.58-29.48-14.99-42.92-12.41-13.62-35.68-13.62-22.58 0-35.85 15.17-13.1 15-14.13 41.37zm211.49 58.94q0 26.38-19.99 40.68-19.82 14.3-55.67 14.3-34.82 0-53.78-11.37-18.79-11.55-24.47-35.85l27.4-5.34q3.97 15 16.38 22.06 12.4 6.9 34.47 6.9 23.61 0 34.47-7.25 11.03-7.23 11.03-21.71 0-11.03-7.58-17.93t-24.48-11.38l-22.23-5.86q-26.72-6.89-38.1-13.44-11.2-6.72-17.58-16.2t-6.37-23.27q0-25.51 18.1-38.78 18.27-13.45 53.08-13.45 30.86 0 48.95 10.86 18.27 10.86 23.1 34.82l-27.92 3.45q-2.59-12.41-13.96-18.96-11.2-6.73-30.17-6.73-21.03 0-31.02 6.38-10 6.38-10 19.3 0 7.94 4.14 13.1 4.13 5.18 12.24 8.8t34.12 10q24.65 6.2 35.51 11.54 10.86 5.17 17.06 11.55 6.38 6.38 9.83 14.82 3.45 8.28 3.45 18.96" style="fill:#ececec;stroke:none;fill-opacity:1"/></g><g aria-label="default" class="TextShape" style="fill:#ececec;fill-opacity:1"><path d="M12817.51 8709q-8.62 17.93-22.92 25.7-14.14 7.75-35.17 7.75-35.33 0-52.05-23.79-16.55-23.79-16.55-72.05 0-97.55 68.6-97.55 21.2 0 35.34 7.75 14.13 7.76 22.75 24.65h.35l-.35-20.86v-77.39h31.03v217.35q0 29.13 1.03 38.44h-29.65q-.51-2.76-1.2-12.75-.52-10-.52-17.24zm-94.11-63.42q0 39.13 10.34 56.02t33.61 16.89q26.37 0 38.27-18.27 11.89-18.27 11.89-56.7 0-37.07-11.9-54.3-11.89-17.24-37.91-17.24-23.44 0-33.96 17.4-10.34 17.24-10.34 56.2m196.5 6.72q0 32.06 13.27 49.47t38.78 17.4q20.16 0 32.23-8.1 12.24-8.1 16.55-20.5l27.23 7.75q-16.72 44.13-76.01 44.13-41.37 0-63.09-24.65-21.54-24.65-21.54-73.26 0-46.19 21.54-70.84 21.72-24.64 61.88-24.64 82.22 0 82.22 99.1v4.14zm101-23.78q-2.59-29.48-15-42.92-12.4-13.62-35.68-13.62-22.57 0-35.85 15.17-13.1 15-14.13 41.37zm109.97-53.44V8739h-31.03v-163.92h-26.2v-22.58h26.2v-21.03q0-25.5 11.2-36.7t34.3-11.21q12.93 0 21.9 2.07v23.61q-7.76-1.38-13.8-1.38-11.89 0-17.23 6.03t-5.34 21.9v16.71h36.36v22.58zm107.21 167.37q-28.1 0-42.23-14.83-14.14-14.82-14.14-40.67 0-28.96 18.96-44.47 19.14-15.52 61.54-16.55l41.88-.69v-10.17q0-22.75-9.65-32.58t-30.34-9.82q-20.85 0-30.33 7.07-9.48 7.06-11.38 22.58l-32.4-2.93q7.93-50.33 74.8-50.33 35.16 0 52.92 16.2 17.75 16.03 17.75 46.54v80.32q0 13.79 3.62 20.85 3.62 6.9 13.8 6.9 4.47 0 10.16-1.2v19.3q-11.72 2.75-23.96 2.75-17.23 0-25.16-8.96-7.76-9.13-8.8-28.44h-1.03q-11.9 21.37-27.75 30.34-15.68 8.79-38.26 8.79m7.06-23.27q17.07 0 30.34-7.76t20.85-21.2q7.76-13.62 7.76-27.92v-15.34l-33.95.69q-21.9.34-33.27 4.48-11.2 4.14-17.24 12.75t-6.03 22.58q0 15.17 8.1 23.44 8.28 8.28 23.44 8.28m172.02-166.68v118.24q0 18.45 3.62 28.62t11.55 14.65 23.27 4.48q22.4 0 35.33-15.34t12.93-42.58V8552.5h31.03v146.68q0 32.58 1.03 39.82h-29.3q-.17-.86-.35-4.65t-.51-8.62q-.18-5-.52-18.62h-.52q-10.68 19.3-24.82 27.4-13.96 7.94-34.81 7.94-30.69 0-45-15.17-14.13-15.34-14.13-50.5V8552.5zm165.99 186.5v-255.79h31.02V8739Zm150.13-1.38q-15.34 4.14-31.37 4.14-37.23 0-37.23-42.23v-124.45h-21.55v-22.58h22.75l9.14-41.7h20.68v41.7h34.47v22.58h-34.47v117.73q0 13.44 4.31 18.96 4.48 5.34 15.34 5.34 6.2 0 17.93-2.41z" style="fill:#ececec;stroke:none;fill-opacity:1"/></g><g aria-label="0" class="TextShape" style="fill:#ececec;fill-opacity:1"><path d="M503.53 8170.48q0 60.85-21.54 92.9-21.38 32.07-63.26 32.07t-62.91-31.89-21.03-93.08q0-62.56 20.34-93.76 20.5-31.2 64.63-31.2 42.92 0 63.26 31.54 20.51 31.55 20.51 93.42m-31.54 0q0-52.57-12.24-76.18-12.06-23.61-39.99-23.61-28.6 0-41.2 23.26-12.4 23.27-12.4 76.53 0 51.71 12.58 75.67 12.76 23.96 40.33 23.96 27.41 0 40.17-24.48 12.75-24.47 12.75-75.15" style="fill:#ececec;stroke:none;fill-opacity:1"/></g><g aria-label="1" class="TextShape" style="fill:#ececec;fill-opacity:1"><path d="M347.89 7178v-26.37h61.88v-186.84l-54.81 39.12v-29.3l57.4-39.47h28.6v216.49h59.13V7178Z" style="fill:#ececec;stroke:none;fill-opacity:1"/></g><g aria-label="2" class="TextShape" style="fill:#ececec;fill-opacity:1"><path d="M338.75 6065v-21.89q8.8-20.17 21.38-35.5 12.75-15.52 26.71-27.93 13.96-12.58 27.58-23.27 13.79-10.69 24.82-21.37t17.75-22.4q6.9-11.73 6.9-26.55 0-20-11.72-31.03t-32.58-11.03q-19.82 0-32.75 10.86-12.75 10.69-15 30.16l-31.7-2.93q3.44-29.13 24.64-46.36 21.37-17.24 54.81-17.24 36.72 0 56.36 17.4 19.83 17.25 19.83 49.13 0 14.14-6.55 28.1-6.38 13.96-19.14 27.92-12.75 13.96-48.77 43.26-19.83 16.2-31.55 29.3-11.72 12.93-16.89 25h126.69V6065Z" style="fill:#ececec;stroke:none;fill-opacity:1"/></g><g aria-label="3" class="TextShape" style="fill:#ececec;fill-opacity:1"><path d="M501.8 4883.95q0 33.61-21.36 52.05-21.38 18.45-61.02 18.45-36.89 0-58.95-16.55-21.89-16.72-26.03-49.3l32.06-2.93q6.2 43.1 52.92 43.1 23.44 0 36.71-11.55 13.45-11.55 13.45-34.3 0-19.83-15.34-30.86-15.17-11.2-43.96-11.2H392.7v-26.89h16.9q25.5 0 39.47-11.03 14.13-11.2 14.13-30.85 0-19.48-11.55-30.68-11.37-11.38-33.95-11.38-20.52 0-33.27 10.51-12.58 10.52-14.65 29.65l-31.2-2.41q3.45-29.82 24.65-46.54 21.37-16.72 54.81-16.72 36.54 0 56.7 17.06 20.35 16.9 20.35 47.23 0 23.27-13.1 37.92-12.93 14.48-37.75 19.65v.7q27.23 2.92 42.4 18.26t15.17 38.61" style="fill:#ececec;stroke:none;fill-opacity:1"/></g><g aria-label="4" class="TextShape" style="fill:#ececec;fill-opacity:1"><path d="M472.85 3783.02V3838h-29.3v-54.98H329.1v-24.13l111.18-163.75h32.57v163.4h34.13v24.48zm-29.3-152.89q-.34 1.03-4.83 9.14-4.48 8.1-6.72 11.37l-62.22 91.7-9.3 12.75-2.77 3.45h85.84z" style="fill:#ececec;stroke:none;fill-opacity:1"/></g><g aria-label="5" class="TextShape" style="fill:#ececec;fill-opacity:1"><path d="M502.5 2644.89q0 38.43-22.93 60.5-22.75 22.06-63.25 22.06-33.96 0-54.81-14.83t-26.38-42.91l31.37-3.62q9.83 36.02 50.5 36.02 25 0 39.13-15 14.14-15.16 14.14-41.54 0-22.92-14.31-37.05-14.13-14.14-38.26-14.14-12.59 0-23.45 3.97-10.85 3.96-21.71 13.44H342.2l8.1-130.65h138.06v26.37h-109.8l-4.64 77.05q20.16-15.51 50.15-15.51 35.85 0 57.06 21.02 21.37 21.03 21.37 54.82" style="fill:#ececec;stroke:none;fill-opacity:1"/></g><g aria-label="6" class="TextShape" style="fill:#ececec;fill-opacity:1"><path d="M501.8 1531.54q0 38.44-20.85 60.67t-57.57 22.24q-41.02 0-62.74-30.51-21.71-30.5-21.71-88.77 0-63.08 22.58-96.87 22.57-33.78 64.29-33.78 54.98 0 69.29 49.47l-29.65 5.34q-9.13-29.64-39.99-29.64-26.54 0-41.2 24.82-14.47 24.64-14.47 71.53 8.44-15.69 23.78-23.79 15.35-8.27 35.17-8.27 33.6 0 53.26 21.03 19.82 21.02 19.82 56.53m-31.53 1.38q0-26.37-12.93-40.68t-36.02-14.3q-21.72 0-35.17 12.75-13.27 12.58-13.27 34.82 0 28.1 13.79 46.02 13.96 17.92 35.68 17.92 22.4 0 35.16-15 12.76-15.16 12.76-41.53" style="fill:#ececec;stroke:none;fill-opacity:1"/></g><g aria-label="7" class="TextShape" style="fill:#ececec;fill-opacity:1"><path d="M499.57 279.3q-37.23 56.9-52.57 89.13t-23.1 63.6q-7.58 31.37-7.58 64.98h-32.4q0-46.54 19.64-97.9 19.82-51.54 66.02-118.59H339.1v-26.37h160.47z" style="fill:#ececec;stroke:none;fill-opacity:1"/></g></svg>