<svg xmlns="http://www.w3.org/2000/svg" xml:space="preserve" width="160mm" height="90mm" stroke-linejoin="round" stroke-width="28.22" viewBox="0 0 16000 9000"><path fill="#004586" d="M12899 8177h1868V3133h-1868zm-3737 0h1869V1595H9162z" style="fill:#474747;fill-opacity:1"/><path fill="#004586" d="M5426 8177h1869V5968H5426zm-3736 0h1868V7135H1690z" style="fill:#4a96dc;fill-opacity:1"/><path fill="none" stroke="#b3b3b3" d="M756 8327v-150m0 150v-150m3736 150v-150m0 150v-150m3736 150v-150m0 150v-150m3737 150v-150m0 150v-150m3737 150v-150m0 150v-150m-14946 0h14946m-15096 0h150m-150 0h150m-150-975h150m-150 0h150m-150-975h150m-150 0h150m-150-975h150m-150 0h150m-150-974h150m-150 0h150m-150-975h150m-150 0h150m-150-975h150m-150 0h150m-150-975h150m-150 0h150M606 378h150m-150 0h150m0 7799V378" style="stroke:#ececec;stroke-opacity:1"/><path d="M1451.83 8676.57q0 32.4-23.61 50.5-23.61 17.93-65.67 17.93h-98.6v-242.86h88.26q85.49 0 85.49 58.95 0 21.54-12.07 36.2-12.06 14.65-34.12 19.64 28.95 3.45 44.64 19.48 15.68 15.86 15.68 40.16m-47.22-111.52q0-19.65-13.45-28.1-13.44-8.44-38.95-8.44h-55.33v76.88h55.33q26.37 0 39.3-9.83 13.1-10 13.1-30.5m13.96 108.94q0-42.92-60.33-42.92h-61.36v87.56h63.95q30.16 0 43.95-11.2t13.79-33.44m99.45-15.7q0 32.06 13.27 49.47t38.78 17.4q20.17 0 32.24-8.1 12.23-8.1 16.54-20.5l27.24 7.75q-16.72 44.13-76.02 44.13-41.36 0-63.08-24.65-21.55-24.65-21.55-73.26 0-46.19 21.55-70.84 21.72-24.64 61.88-24.64 82.22 0 82.22 99.1v4.14zm101-23.78q-2.58-29.48-14.99-42.92-12.41-13.62-35.68-13.62-22.58 0-35.85 15.17-13.1 15-14.13 41.37zM1772.43 8745h-36.71l-67.74-186.5h33.09l41.02 121.35q2.24 6.9 11.9 40.85l6.03-20.17 6.72-20.34 42.4-121.69h32.92zm103.77 73.25q-12.76 0-21.38-1.9v-23.26q6.55 1.03 14.48 1.03 28.95 0 45.85-42.57l2.93-7.41-73.95-185.64h33.1l39.3 103.08q.86 2.4 2.06 5.86 1.2 3.27 7.76 22.4 6.55 19.14 7.07 21.38l12.06-33.96 40.85-118.76h32.75l-71.7 186.5q-11.55 29.82-21.55 44.3-10 14.65-22.23 21.72-12.07 7.23-27.4 7.23m424.18-194.77q0 60.85-21.55 92.9-21.37 32.07-63.26 32.07t-62.9-31.89q-21.04-31.89-21.04-93.08 0-62.56 20.34-93.76 20.51-31.2 64.64-31.2 42.92 0 63.26 31.54 20.5 31.55 20.5 93.42m-31.55 0q0-52.57-12.23-76.18-12.07-23.61-40-23.61-28.6 0-41.19 23.26-12.4 23.27-12.4 76.53 0 51.71 12.58 75.67 12.75 23.96 40.33 23.96 27.4 0 40.16-24.48 12.76-24.47 12.76-75.15M2346.4 8745v-37.75h33.6V8745Zm247.34-79.11q0 38.43-22.92 60.5-22.76 22.06-63.26 22.06-33.96 0-54.81-14.83t-26.38-42.91l31.38-3.62q9.82 36.02 50.5 36.02 24.99 0 39.12-15 14.14-15.16 14.14-41.54 0-22.92-14.3-37.05-14.14-14.14-38.27-14.14-12.59 0-23.44 3.97-10.86 3.96-21.72 13.44h-30.34l8.1-130.65h138.07v26.37h-109.8l-4.65 77.05q20.16-15.51 50.15-15.51 35.86 0 57.06 21.02 21.37 21.03 21.37 54.82m134.79-12.59q0-49.81 15.51-89.45 15.69-39.65 48.09-74.64h30q-32.24 35.85-47.4 76.19-15 40.33-15 88.25 0 47.74 14.82 87.9 15 40.16 47.57 76.53h-29.99q-32.58-35.16-48.09-74.8-15.51-39.82-15.51-89.29zm314.91 24.65q0 33.61-26.38 52.05-26.2 18.45-73.94 18.45-88.77 0-102.9-61.7l31.89-6.39q5.51 21.9 23.44 32.24 17.92 10.17 48.78 10.17 31.88 0 49.12-10.86 17.4-11.03 17.4-32.24 0-11.89-5.5-19.3-5.35-7.41-15.17-12.24t-23.45-8.1q-13.61-3.27-30.16-7.07-28.78-6.37-43.78-12.75-14.82-6.38-23.44-14.13-8.62-7.93-13.27-18.45-4.48-10.51-4.48-24.13 0-31.2 23.78-48.09 23.96-16.89 68.43-16.89 41.37 0 63.26 12.76 21.89 12.58 30.68 43.09l-32.4 5.68q-5.35-19.3-20.35-27.92-15-8.79-41.54-8.79-29.12 0-44.46 9.65t-15.35 28.79q0 11.2 5.87 18.61 6.03 7.24 17.23 12.41 11.2 5 44.64 12.41 11.2 2.59 22.24 5.35 11.2 2.58 21.37 6.37 10.17 3.62 18.96 8.62 8.96 5 15.51 12.24t10.17 17.06q3.8 9.83 3.8 23.1m197.7-27.06q0 97.56-68.6 97.56-43.1 0-57.92-32.4h-.86q.69 1.37.69 29.3v72.9h-31.03V8596.6q0-28.79-1.03-38.1h30q.16.7.5 5 .35 4.14.7 12.93.51 8.79.51 12.06h.7q8.27-17.23 21.88-25.16 13.62-8.1 35.86-8.1 34.47 0 51.53 23.1t17.07 72.56m-32.58.69q0-38.95-10.51-55.67t-33.44-16.72q-18.45 0-28.96 7.75-10.34 7.76-15.86 24.3-5.34 16.38-5.34 42.75 0 36.72 11.72 54.12 11.72 17.41 38.1 17.41 23.09 0 33.6-16.89 10.69-17.06 10.69-57.05m118.76 96.87q-28.1 0-42.23-14.83t-14.13-40.67q0-28.96 18.96-44.47 19.13-15.52 61.53-16.55l41.88-.69v-10.17q0-22.75-9.65-32.58t-30.34-9.82q-20.85 0-30.33 7.07-9.48 7.06-11.38 22.58l-32.4-2.93q7.93-50.33 74.8-50.33 35.17 0 52.92 16.2 17.75 16.03 17.75 46.54v80.32q0 13.79 3.62 20.85 3.62 6.9 13.8 6.9 4.47 0 10.16-1.2v19.3q-11.72 2.75-23.96 2.75-17.23 0-25.16-8.96-7.76-9.13-8.8-28.44h-1.03q-11.89 21.37-27.75 30.34-15.68 8.79-38.26 8.79m7.06-23.27q17.07 0 30.34-7.76t20.86-21.2q7.75-13.62 7.75-27.92v-15.34l-33.95.69q-21.9.34-33.27 4.48-11.2 4.14-17.23 12.75t-6.04 22.58q0 15.17 8.1 23.44 8.28 8.28 23.44 8.28m142.38 19.82v-143.06q0-19.65-1.04-43.44h29.3q1.38 31.72 1.38 38.1h.7q7.4-23.96 17.06-32.75 9.65-8.8 27.23-8.8 6.2 0 12.58 1.73v28.44q-6.2-1.72-16.54-1.72-19.3 0-29.48 16.71-10.17 16.55-10.17 47.58V8745Zm256.82-51.54q0 26.38-20 40.68-19.82 14.3-55.67 14.3-34.82 0-53.78-11.37-18.78-11.55-24.47-35.85l27.4-5.34q3.97 15 16.38 22.06 12.4 6.9 34.47 6.9 23.61 0 34.47-7.25 11.03-7.23 11.03-21.71 0-11.03-7.58-17.93t-24.48-11.38l-22.23-5.86q-26.72-6.89-38.1-13.44-11.2-6.72-17.57-16.2t-6.38-23.27q0-25.51 18.1-38.78 18.27-13.45 53.09-13.45 30.85 0 48.95 10.86 18.27 10.86 23.1 34.82l-27.93 3.45q-2.59-12.41-13.96-18.96-11.2-6.73-30.16-6.73-21.03 0-31.03 6.38t-10 19.3q0 7.94 4.14 13.1 4.14 5.18 12.24 8.8t34.13 10q24.64 6.2 35.5 11.54 10.86 5.17 17.07 11.55 6.37 6.38 9.82 14.82 3.45 8.28 3.45 18.96m60.32-35.16q0 32.06 13.28 49.47t38.78 17.4q20.17 0 32.23-8.1 12.24-8.1 16.55-20.5l27.23 7.75q-16.72 44.13-76.01 44.13-41.37 0-63.09-24.65-21.54-24.65-21.54-73.26 0-46.19 21.54-70.84 21.72-24.64 61.88-24.64 82.22 0 82.22 99.1v4.14zm101.01-23.78q-2.59-29.48-15-42.92-12.4-13.62-35.67-13.62-22.58 0-35.86 15.17-13.1 15-14.13 41.37zm143.41 19.48q0 49.8-15.69 89.45-15.51 39.64-47.92 74.63h-29.99q32.4-36.2 47.4-76.18 15-40.16 15-88.25t-15.17-88.25q-15-40.16-47.23-76.19h30q32.57 35.17 48.08 74.98 15.52 39.64 15.52 89.11z" aria-label="Bevy 0.5 (Sparse)" class="TextShape" style="fill:#ececec;stroke:none;fill-opacity:1"/><g aria-label="Bevy 0.5 (Table)" class="TextShape" style="fill:#ececec;fill-opacity:1"><path d="M5307.83 8676.57q0 32.4-23.61 50.5-23.61 17.93-65.67 17.93h-98.6v-242.86h88.26q85.49 0 85.49 58.95 0 21.54-12.07 36.2-12.06 14.65-34.12 19.64 28.95 3.45 44.64 19.48 15.68 15.86 15.68 40.16m-47.22-111.52q0-19.65-13.45-28.1-13.44-8.44-38.95-8.44h-55.33v76.88h55.33q26.37 0 39.3-9.83 13.1-10 13.1-30.5m13.96 108.94q0-42.92-60.33-42.92h-61.36v87.56h63.95q30.16 0 43.95-11.2t13.79-33.44m99.45-15.7q0 32.06 13.27 49.47t38.78 17.4q20.17 0 32.24-8.1 12.23-8.1 16.54-20.5l27.24 7.75q-16.72 44.13-76.02 44.13-41.36 0-63.08-24.65-21.55-24.65-21.55-73.26 0-46.19 21.55-70.84 21.72-24.64 61.88-24.64 82.21 0 82.21 99.1v4.14zm101-23.78q-2.58-29.48-14.99-42.92-12.41-13.62-35.68-13.62-22.58 0-35.85 15.17-13.1 15-14.13 41.37zM5628.43 8745h-36.71l-67.74-186.5h33.09l41.02 121.35q2.24 6.9 11.9 40.85l6.03-20.17 6.72-20.34 42.4-121.69h32.92zm103.77 73.25q-12.76 0-21.38-1.9v-23.26q6.55 1.03 14.48 1.03 28.95 0 45.85-42.57l2.93-7.41-73.95-185.64h33.1l39.3 103.08q.86 2.4 2.06 5.86 1.2 3.27 7.76 22.4 6.55 19.14 7.07 21.38l12.06-33.96 40.85-118.76h32.75l-71.7 186.5q-11.55 29.82-21.55 44.3-10 14.65-22.23 21.72-12.07 7.23-27.4 7.23m424.18-194.77q0 60.85-21.55 92.9-21.37 32.07-63.26 32.07t-62.9-31.89q-21.04-31.89-21.04-93.08 0-62.56 20.34-93.76 20.51-31.2 64.64-31.2 42.92 0 63.26 31.54 20.5 31.55 20.5 93.42m-31.54 0q0-52.57-12.24-76.18-12.07-23.61-40-23.61-28.6 0-41.19 23.26-12.4 23.27-12.4 76.53 0 51.71 12.58 75.67 12.75 23.96 40.33 23.96 27.4 0 40.16-24.48 12.76-24.47 12.76-75.15M6202.4 8745v-37.75h33.6V8745Zm247.34-79.11q0 38.43-22.92 60.5-22.76 22.06-63.26 22.06-33.96 0-54.81-14.83t-26.37-42.91l31.37-3.62q9.82 36.02 50.5 36.02 24.99 0 39.12-15 14.14-15.16 14.14-41.54 0-22.92-14.3-37.05-14.14-14.14-38.27-14.14-12.59 0-23.44 3.97-10.86 3.96-21.72 13.44h-30.34l8.1-130.65h138.07v26.37h-109.8l-4.65 77.05q20.16-15.51 50.15-15.51 35.86 0 57.06 21.02 21.37 21.03 21.37 54.82m134.79-12.59q0-49.81 15.51-89.45 15.69-39.65 48.09-74.64h30q-32.24 35.85-47.4 76.19-15 40.33-15 88.25 0 47.74 14.82 87.9 15 40.16 47.57 76.53h-29.99q-32.58-35.16-48.09-74.8-15.51-39.82-15.51-89.29zm219.77-124.27V8745h-32.76v-215.97h-83.42v-26.89h199.6v26.89zm123.75 219.42q-28.1 0-42.23-14.83t-14.13-40.67q0-28.96 18.96-44.47 19.13-15.52 61.53-16.55l41.88-.69v-10.17q0-22.75-9.65-32.58t-30.34-9.82q-20.85 0-30.33 7.07-9.48 7.06-11.38 22.58l-32.4-2.93q7.93-50.33 74.8-50.33 35.17 0 52.92 16.2 17.75 16.03 17.75 46.54v80.32q0 13.79 3.62 20.85 3.62 6.9 13.8 6.9 4.47 0 10.16-1.2v19.3q-11.72 2.75-23.96 2.75-17.23 0-25.16-8.96-7.76-9.13-8.8-28.44h-1.03q-11.89 21.37-27.75 30.34-15.68 8.79-38.26 8.79m7.06-23.27q17.07 0 30.34-7.76t20.86-21.2q7.75-13.62 7.75-27.92v-15.34l-33.95.69q-21.9.34-33.27 4.48-11.2 4.14-17.24 12.75t-6.03 22.58q0 15.17 8.1 23.44 8.28 8.28 23.44 8.28m299.4-74.29q0 97.56-68.6 97.56-21.2 0-35.34-7.59-13.96-7.75-22.75-24.82h-.34q0 5.35-.7 16.38-.68 10.86-1.03 12.58h-29.99q1.04-9.3 1.04-38.44v-217.35h31.02v72.91q0 11.2-.69 26.37h.7q8.61-17.92 22.74-25.68 14.31-7.75 35.34-7.75 35.33 0 51.88 23.78 16.72 23.79 16.72 72.05m-32.58 1.03q0-39.12-10.34-56.01t-33.61-16.9q-26.2 0-38.26 17.93-11.9 17.93-11.9 56.88 0 36.71 11.72 54.3 11.72 17.4 38.1 17.4 23.44 0 33.78-17.23 10.51-17.41 10.51-56.37m71.19 93.08v-255.79h31.02V8745Zm102.21-86.7q0 32.06 13.27 49.47t38.78 17.4q20.17 0 32.24-8.1 12.23-8.1 16.54-20.5l27.24 7.75q-16.72 44.13-76.02 44.13-41.36 0-63.08-24.65-21.55-24.65-21.55-73.26 0-46.19 21.55-70.84 21.72-24.64 61.88-24.64 82.21 0 82.21 99.1v4.14zm101-23.78q-2.58-29.48-14.99-42.92-12.41-13.62-35.68-13.62-22.58 0-35.85 15.17-13.1 15-14.13 41.37zm143.41 19.48q0 49.8-15.68 89.45-15.52 39.64-47.92 74.63h-30q32.41-36.2 47.4-76.18 15-40.16 15-88.25t-15.16-88.25q-15-40.16-47.23-76.19h29.99q32.58 35.17 48.09 74.98 15.51 39.64 15.51 89.11z" style="fill:#ececec;stroke:none;fill-opacity:1"/></g><g aria-label="Bevy 0.4" class="TextShape" style="fill:#ececec;fill-opacity:1"><path d="M9625.83 8676.57q0 32.4-23.61 50.5-23.61 17.93-65.67 17.93h-98.6v-242.86h88.26q85.49 0 85.49 58.95 0 21.54-12.07 36.2-12.06 14.65-34.12 19.64 28.95 3.45 44.64 19.48 15.68 15.86 15.68 40.16m-47.22-111.52q0-19.65-13.45-28.1-13.44-8.44-38.95-8.44h-55.33v76.88h55.33q26.37 0 39.3-9.83 13.1-10 13.1-30.5m13.96 108.94q0-42.92-60.33-42.92h-61.36v87.56h63.95q30.16 0 43.95-11.2t13.79-33.44m99.45-15.7q0 32.06 13.27 49.47t38.78 17.4q20.17 0 32.24-8.1 12.23-8.1 16.54-20.5l27.24 7.75q-16.72 44.13-76.02 44.13-41.36 0-63.08-24.65-21.55-24.65-21.55-73.26 0-46.19 21.55-70.84 21.72-24.64 61.88-24.64 82.21 0 82.21 99.1v4.14zm101-23.78q-2.58-29.48-14.99-42.92-12.41-13.62-35.68-13.62-22.58 0-35.85 15.17-13.1 15-14.13 41.37zM9946.43 8745h-36.71l-67.74-186.5h33.09l41.02 121.35q2.24 6.9 11.9 40.85l6.03-20.17 6.72-20.34 42.4-121.69h32.92zm103.77 73.25q-12.76 0-21.38-1.9v-23.26q6.55 1.03 14.48 1.03 28.95 0 45.85-42.57l2.93-7.41-73.95-185.64h33.1l39.3 103.08q.86 2.4 2.06 5.86 1.2 3.27 7.76 22.4 6.55 19.14 7.07 21.38l12.06-33.96 40.85-118.76h32.75l-71.7 186.5q-11.55 29.82-21.55 44.3-10 14.65-22.23 21.72-12.07 7.23-27.4 7.23m424.18-194.77q0 60.85-21.55 92.9-21.37 32.07-63.25 32.07-41.89 0-62.92-31.89t-21.03-93.08q0-62.56 20.34-93.76 20.51-31.2 64.64-31.2 42.92 0 63.26 31.54 20.5 31.55 20.5 93.42m-31.54 0q0-52.57-12.24-76.18-12.07-23.61-40-23.61-28.6 0-41.19 23.26-12.4 23.27-12.4 76.53 0 51.71 12.58 75.67 12.75 23.96 40.33 23.96 27.4 0 40.16-24.48 12.76-24.47 12.76-75.15m77.57 121.52v-37.75h33.6V8745Zm217.7-54.98V8745h-29.3v-54.98h-114.46v-24.13l111.18-163.75h32.57v163.4h34.13v24.48zm-29.3-152.89q-.35 1.03-4.83 9.14-4.49 8.1-6.73 11.37l-62.22 91.7-9.3 12.75-2.76 3.45h85.83z" style="fill:#ececec;stroke:none;fill-opacity:1"/></g><g aria-label="Legion" class="TextShape" style="fill:#ececec;fill-opacity:1"><path d="M13359.96 8745v-242.86h32.92v215.97h122.72V8745Zm214.94-86.7q0 32.06 13.27 49.47t38.78 17.4q20.16 0 32.23-8.1 12.24-8.1 16.55-20.5l27.23 7.75q-16.72 44.13-76.01 44.13-41.37 0-63.09-24.65-21.54-24.65-21.54-73.26 0-46.19 21.54-70.84 21.72-24.64 61.88-24.64 82.22 0 82.22 99.1v4.14zm101-23.78q-2.59-29.48-15-42.92-12.4-13.62-35.68-13.62-22.57 0-35.85 15.17-13.1 15-14.13 41.37zm142.2 183.73q-30.51 0-48.6-12.06-18.1-11.9-23.28-33.96l31.2-4.48q3.1 12.93 13.62 19.82 10.68 7.07 27.92 7.07 46.37 0 46.37-54.3v-29.99h-.35q-8.79 17.93-24.13 27.07-15.34 8.96-35.85 8.96-34.3 0-50.5-22.75-16.03-22.75-16.03-71.53 0-49.47 17.23-72.91 17.41-23.62 52.75-23.62 19.82 0 34.3 9.14 14.65 8.96 22.58 25.68h.34q0-5.17.69-17.93t1.38-13.96h29.47q-1.03 9.31-1.03 38.61v142.55q0 78.6-78.08 78.6m47.23-166.5q0-22.75-6.2-39.12-6.21-16.55-17.59-25.17-11.2-8.8-25.51-8.8-23.79 0-34.65 17.25-10.85 17.23-10.85 55.84 0 38.27 10.17 54.99t34.81 16.71q14.65 0 26.03-8.61t17.58-24.65q6.2-16.2 6.2-38.44m78.26-132.9v-29.65h31.02v29.65zm0 226.14v-186.5h31.02V8745Zm236.31-93.42q0 48.95-21.55 72.9-21.54 23.97-62.56 23.97-40.85 0-61.71-24.82-20.86-25-20.86-72.05 0-96.52 83.6-96.52 42.75 0 62.91 23.6 20.17 23.45 20.17 72.92m-32.58 0q0-38.61-11.55-56.02-11.37-17.58-38.43-17.58-27.24 0-39.47 17.93-12.07 17.75-12.07 55.67 0 36.88 11.9 55.5 12.06 18.44 37.74 18.44 27.92 0 39.82-17.92 12.06-17.93 12.06-56.02m189.6 93.42v-118.24q0-18.44-3.62-28.61t-11.55-14.65q-7.93-4.49-23.27-4.49-22.4 0-35.33 15.34t-12.93 42.58V8745h-31.02v-146.68q0-32.58-1.04-39.82h29.3q.18.86.35 4.66.17 3.79.34 8.79.35 4.82.7 18.44h.51q10.69-19.3 24.65-27.23 14.13-8.1 34.99-8.1 30.68 0 44.81 15.34 14.31 15.16 14.31 50.33V8745Z" style="fill:#ececec;stroke:none;fill-opacity:1"/></g><g aria-label="0" class="TextShape" style="fill:#ececec;fill-opacity:1"><path d="M503.53 8176.48q0 60.85-21.54 92.9-21.38 32.07-63.26 32.07t-62.91-31.89-21.03-93.08q0-62.56 20.34-93.76 20.5-31.2 64.63-31.2 42.92 0 63.26 31.54 20.51 31.55 20.51 93.42m-31.54 0q0-52.57-12.24-76.18-12.06-23.61-39.99-23.61-28.6 0-41.2 23.26-12.4 23.27-12.4 76.53 0 51.71 12.58 75.67 12.76 23.96 40.33 23.96 27.41 0 40.17-24.48 12.75-24.47 12.75-75.15" style="fill:#ececec;stroke:none;fill-opacity:1"/></g><g aria-label="1" class="TextShape" style="fill:#ececec;fill-opacity:1"><path d="M347.89 7323v-26.37h61.88v-186.84l-54.81 39.12v-29.3l57.4-39.47h28.6v216.49h59.13V7323Z" style="fill:#ececec;stroke:none;fill-opacity:1"/></g><g aria-label="2" class="TextShape" style="fill:#ececec;fill-opacity:1"><path d="M338.75 6348v-21.89q8.8-20.17 21.38-35.5 12.75-15.52 26.71-27.93 13.96-12.58 27.58-23.27 13.79-10.69 24.82-21.37t17.75-22.4q6.9-11.73 6.9-26.55 0-20-11.72-31.03t-32.58-11.03q-19.82 0-32.75 10.86-12.75 10.69-15 30.16l-31.7-2.93q3.44-29.13 24.64-46.36 21.37-17.24 54.81-17.24 36.72 0 56.36 17.4 19.83 17.25 19.83 49.13 0 14.14-6.55 28.1-6.38 13.96-19.14 27.92-12.75 13.96-48.77 43.26-19.83 16.2-31.55 29.3-11.72 12.93-16.89 25h126.69V6348Z" style="fill:#ececec;stroke:none;fill-opacity:1"/></g><g aria-label="3" class="TextShape" style="fill:#ececec;fill-opacity:1"><path d="M501.8 5305.95q0 33.61-21.36 52.05-21.38 18.45-61.02 18.45-36.89 0-58.95-16.55-21.89-16.72-26.03-49.3l32.06-2.93q6.2 43.1 52.92 43.1 23.44 0 36.71-11.55 13.45-11.55 13.45-34.3 0-19.83-15.34-30.86-15.17-11.2-43.96-11.2H392.7v-26.89h16.9q25.5 0 39.47-11.03 14.13-11.2 14.13-30.85 0-19.48-11.55-30.68-11.37-11.38-33.95-11.38-20.52 0-33.27 10.51-12.58 10.52-14.65 29.65l-31.2-2.41q3.45-29.82 24.65-46.54 21.37-16.72 54.81-16.72 36.54 0 56.7 17.06 20.35 16.9 20.35 47.23 0 23.27-13.1 37.92-12.93 14.48-37.75 19.65v.7q27.23 2.92 42.4 18.26t15.17 38.61" style="fill:#ececec;stroke:none;fill-opacity:1"/></g><g aria-label="4" class="TextShape" style="fill:#ececec;fill-opacity:1"><path d="M472.85 4343.02V4398h-29.3v-54.98H329.1v-24.13l111.18-163.75h32.57v163.4h34.13v24.48zm-29.3-152.89q-.34 1.03-4.83 9.14-4.48 8.1-6.72 11.37l-62.22 91.7-9.3 12.75-2.77 3.45h85.84z" style="fill:#ececec;stroke:none;fill-opacity:1"/></g><g aria-label="5" class="TextShape" style="fill:#ececec;fill-opacity:1"><path d="M502.5 3343.89q0 38.43-22.93 60.5-22.75 22.06-63.25 22.06-33.96 0-54.81-14.83t-26.38-42.91l31.37-3.62q9.83 36.02 50.5 36.02 25 0 39.13-15 14.14-15.16 14.14-41.54 0-22.92-14.31-37.05-14.13-14.14-38.26-14.14-12.59 0-23.45 3.97-10.85 3.96-21.71 13.44H342.2l8.1-130.65h138.06v26.37h-109.8l-4.64 77.05q20.16-15.51 50.15-15.51 35.85 0 57.06 21.02 21.37 21.03 21.37 54.82" style="fill:#ececec;stroke:none;fill-opacity:1"/></g><g aria-label="6" class="TextShape" style="fill:#ececec;fill-opacity:1"><path d="M501.8 2368.54q0 38.44-20.85 60.67t-57.57 22.24q-41.02 0-62.74-30.51-21.71-30.5-21.71-88.77 0-63.08 22.58-96.87 22.57-33.78 64.29-33.78 54.98 0 69.29 49.47l-29.65 5.34q-9.13-29.64-39.99-29.64-26.54 0-41.2 24.82-14.47 24.64-14.47 71.53 8.44-15.69 23.78-23.79 15.35-8.27 35.17-8.27 33.6 0 53.26 21.03 19.82 21.02 19.82 56.53m-31.53 1.38q0-26.37-12.93-40.68t-36.02-14.3q-21.72 0-35.17 12.75-13.27 12.58-13.27 34.82 0 28.1 13.79 46.02 13.96 17.92 35.68 17.92 22.4 0 35.16-15 12.76-15.16 12.76-41.53" style="fill:#ececec;stroke:none;fill-opacity:1"/></g><g aria-label="7" class="TextShape" style="fill:#ececec;fill-opacity:1"><path d="M499.57 1255.3q-37.23 56.89-52.57 89.12t-23.1 63.6q-7.58 31.37-7.58 64.98h-32.4q0-46.54 19.64-97.9 19.82-51.54 66.02-118.59H339.1v-26.37h160.47z" style="fill:#ececec;stroke:none;fill-opacity:1"/></g><g aria-label="8" class="TextShape" style="fill:#ececec;fill-opacity:1"><path d="M501.98 430.26q0 33.61-21.37 52.4t-61.36 18.79q-38.96 0-61.02-18.45-21.89-18.44-21.89-52.4 0-23.78 13.62-39.98t34.81-19.65v-.7q-19.82-4.64-31.37-20.16-11.37-15.51-11.37-36.37 0-27.75 20.68-44.98 20.86-17.24 55.85-17.24 35.85 0 56.53 16.9 20.86 16.88 20.86 45.67 0 20.85-11.55 36.37t-31.54 19.47v.7q23.27 3.79 36.2 19.82 12.92 15.85 12.92 39.81m-38.26-114.45q0-41.2-45.16-41.2-21.9 0-33.44 10.35-11.38 10.34-11.38 30.85 0 20.86 11.72 31.89 11.9 10.86 33.44 10.86 21.9 0 33.27-10 11.55-10.17 11.55-32.75m6.03 111.52q0-22.58-13.44-33.95-13.45-11.55-37.75-11.55-23.62 0-36.89 12.4-13.27 12.25-13.27 33.8 0 50.15 51.2 50.15 25.33 0 37.74-12.07 12.41-12.23 12.41-38.78" style="fill:#ececec;stroke:none;fill-opacity:1"/></g></svg>