<svg xmlns="http://www.w3.org/2000/svg" xml:space="preserve" width="160mm" height="90mm" stroke-linejoin="round" stroke-width="28.22" viewBox="0 0 16000 9000"><path fill="#004586" d="M13515 8176h1458V1332h-1458zm-2915 0h1458V6715h-1458zm-2914 0h1456V6744H7686z" style="fill:#474747;fill-opacity:1"/><path fill="#004586" d="M4771 8176h1457v-263H4771zm-2916 0h1458v-179H1855z" style="fill:#4a96dc;fill-opacity:1"/><path fill="none" stroke="#b3b3b3" d="M1127 8326v-150m0 150v-150" style="fill:none;fill-opacity:1;stroke:#ececec;stroke-opacity:1"/><path fill="none" stroke="#b3b3b3" d="M4042 8326v-150m0 150v-150m2915 150v-150m0 150v-150m2914 150v-150m0 150v-150m2915 150v-150m0 150v-150m2915 150v-150m0 150v-150m-14574 0h14574" style="stroke:#ececec;stroke-opacity:1"/><path fill="none" stroke="#b3b3b3" d="M977 8176h150m-150 0h150m-150-975h150m-150 0h150m-150-975h150m-150 0h150m-150-975h150m-150 0h150m-150-974h150m-150 0h150m-150-975h150m-150 0h150m-150-975h150m-150 0h150m-150-975h150m-150 0h150M977 377h150m-150 0h150m0 7799V377" style="fill:none;fill-opacity:1;stroke:#ececec;stroke-opacity:1"/><g aria-label="Bevy 0.5 (for_each)" class="TextShape" style="fill:#ececec;fill-opacity:1"><path d="M1292.83 8675.57q0 32.4-23.61 50.5-23.61 17.93-65.67 17.93h-98.6v-242.86h88.26q85.49 0 85.49 58.95 0 21.54-12.07 36.2-12.06 14.65-34.12 19.64 28.95 3.45 44.64 19.48 15.68 15.86 15.68 40.16m-47.22-111.52q0-19.65-13.45-28.1-13.44-8.44-38.95-8.44h-55.33v76.88h55.33q26.37 0 39.3-9.83 13.1-10 13.1-30.5m13.96 108.94q0-42.92-60.33-42.92h-61.36v87.56h63.95q30.16 0 43.95-11.2t13.79-33.44m99.45-15.7q0 32.06 13.27 49.47t38.78 17.4q20.17 0 32.24-8.1 12.23-8.1 16.54-20.5l27.24 7.75q-16.72 44.13-76.02 44.13-41.36 0-63.08-24.65-21.55-24.65-21.55-73.26 0-46.19 21.55-70.84 21.72-24.64 61.88-24.64 82.22 0 82.22 99.1v4.14zm101-23.78q-2.58-29.48-14.99-42.92-12.41-13.62-35.68-13.62-22.58 0-35.85 15.17-13.1 15-14.13 41.37zM1613.43 8744h-36.71l-67.74-186.5h33.09l41.02 121.35q2.24 6.9 11.9 40.85l6.03-20.17 6.72-20.34 42.4-121.69h32.92zm103.77 73.25q-12.76 0-21.38-1.9v-23.26q6.55 1.03 14.48 1.03 28.95 0 45.85-42.57l2.93-7.41-73.95-185.64h33.1l39.3 103.08q.86 2.4 2.06 5.86 1.2 3.27 7.76 22.4 6.55 19.14 7.07 21.38l12.06-33.96 40.85-118.76h32.75l-71.7 186.5q-11.55 29.82-21.55 44.3-10 14.65-22.23 21.72-12.07 7.23-27.4 7.23m424.18-194.77q0 60.85-21.55 92.9-21.37 32.07-63.26 32.07t-62.9-31.89q-21.04-31.89-21.04-93.08 0-62.56 20.34-93.76 20.51-31.2 64.64-31.2 42.92 0 63.26 31.54 20.5 31.55 20.5 93.42m-31.55 0q0-52.57-12.23-76.18-12.07-23.61-40-23.61-28.6 0-41.19 23.26-12.4 23.27-12.4 76.53 0 51.71 12.58 75.67 12.75 23.96 40.33 23.96 27.4 0 40.16-24.48 12.76-24.47 12.76-75.15M2187.4 8744v-37.75h33.6V8744Zm247.34-79.11q0 38.43-22.92 60.5-22.76 22.06-63.26 22.06-33.96 0-54.81-14.83t-26.38-42.91l31.38-3.62q9.82 36.02 50.5 36.02 24.99 0 39.12-15 14.14-15.16 14.14-41.54 0-22.92-14.3-37.05-14.14-14.14-38.27-14.14-12.59 0-23.44 3.97-10.86 3.96-21.72 13.44h-30.34l8.1-130.65h138.07v26.37h-109.8l-4.65 77.05q20.16-15.51 50.15-15.51 35.86 0 57.06 21.02 21.37 21.03 21.37 54.82m134.79-12.59q0-49.81 15.51-89.45 15.69-39.65 48.09-74.64h30q-32.24 35.85-47.4 76.19-15 40.33-15 88.25 0 47.74 14.82 87.9 15 40.16 47.57 76.53h-29.99q-32.58-35.16-48.09-74.8-15.51-39.82-15.51-89.29zm157.88-72.22V8744h-31.02v-163.92h-26.2v-22.58h26.2v-21.03q0-25.5 11.2-36.7t34.3-11.21q12.93 0 21.9 2.07v23.61q-7.77-1.38-13.8-1.38-11.9 0-17.23 6.03-5.35 6.04-5.35 21.9v16.71h36.37v22.58zm217.35 70.5q0 48.95-21.54 72.9-21.55 23.97-62.57 23.97-40.85 0-61.7-24.82-20.86-25-20.86-72.05 0-96.52 83.6-96.52 42.74 0 62.9 23.6 20.17 23.45 20.17 72.92m-32.57 0q0-38.61-11.55-56.02-11.38-17.58-38.44-17.58-27.23 0-39.47 17.93-12.07 17.75-12.07 55.67 0 36.88 11.9 55.5 12.06 18.44 37.74 18.44 27.93 0 39.82-17.92 12.07-17.93 12.07-56.02m71.87 93.42v-143.06q0-19.65-1.03-43.44h29.3q1.38 31.72 1.38 38.1h.69q7.4-23.96 17.06-32.75 9.65-8.8 27.23-8.8 6.21 0 12.59 1.73v28.44q-6.2-1.72-16.55-1.72-19.3 0-29.47 16.71-10.17 16.55-10.17 47.58V8744Zm87.74 70.15v-22.4h205.62v22.4zm249.23-156.85q0 32.06 13.27 49.47t38.79 17.4q20.16 0 32.23-8.1 12.24-8.1 16.54-20.5l27.24 7.75q-16.72 44.13-76.01 44.13-41.37 0-63.09-24.65-21.54-24.65-21.54-73.26 0-46.19 21.54-70.84 21.72-24.64 61.88-24.64 82.22 0 82.22 99.1v4.14zm101-23.78q-2.58-29.48-14.99-42.92-12.4-13.62-35.68-13.62-22.58 0-35.85 15.17-13.1 15-14.13 41.37zm119.11 113.93q-28.1 0-42.23-14.83t-14.13-40.67q0-28.96 18.96-44.47 19.13-15.52 61.53-16.55l41.88-.69v-10.17q0-22.75-9.65-32.58t-30.33-9.82q-20.86 0-30.34 7.07-9.48 7.06-11.38 22.58l-32.4-2.93q7.93-50.33 74.8-50.33 35.17 0 52.92 16.2 17.75 16.03 17.75 46.54v80.32q0 13.79 3.62 20.85 3.62 6.9 13.8 6.9 4.47 0 10.16-1.2v19.3q-11.72 2.75-23.96 2.75-17.23 0-25.16-8.96-7.76-9.13-8.8-28.44h-1.03q-11.89 21.37-27.75 30.34-15.68 8.79-38.26 8.79m7.07-23.27q17.06 0 30.33-7.76t20.86-21.2q7.75-13.62 7.75-27.92v-15.34l-33.95.69q-21.9.34-33.27 4.48-11.2 4.14-17.23 12.75t-6.04 22.58q0 15.17 8.1 23.44 8.28 8.28 23.45 8.28m165.29-74.29q0 37.23 11.72 55.16t35.34 17.92q16.54 0 27.58-8.96 11.2-8.96 13.79-27.58l31.37 2.07q-3.62 26.89-22.93 42.92t-48.95 16.03q-39.13 0-59.81-24.65-20.51-24.82-20.51-72.22 0-47.06 20.68-71.7 20.69-24.82 59.3-24.82 28.6 0 47.4 14.82 18.96 14.82 23.78 40.85l-31.89 2.41q-2.4-15.51-12.23-24.65t-27.93-9.13q-24.64 0-35.68 16.37t-11.03 55.16m183.74-60.5q10-18.27 23.96-26.72 14.13-8.61 35.68-8.61 30.34 0 44.64 15.16 14.48 15 14.48 50.5V8744h-31.2v-118.24q0-19.65-3.62-29.13-3.62-9.65-11.89-14.13t-22.92-4.49q-21.9 0-35.17 15.17-13.1 15.17-13.1 40.85V8744h-31.02v-255.79h31.02v66.54q0 10.5-.69 21.71-.51 11.2-.68 12.93zm237.35 63.61q0 49.8-15.69 89.45-15.51 39.64-47.92 74.63H4041q32.4-36.2 47.4-76.18 15-40.16 15-88.25t-15.17-88.25q-15-40.16-47.23-76.19h30q32.57 35.17 48.08 74.98 15.52 39.64 15.52 89.11z" style="fill:#ececec;stroke:none;fill-opacity:1"/></g><g aria-label="Bevy 0.5 (iterator)" class="TextShape" style="fill:#ececec;fill-opacity:1"><path d="M4339.83 8675.57q0 32.4-23.61 50.5-23.61 17.93-65.67 17.93h-98.6v-242.86h88.26q85.49 0 85.49 58.95 0 21.54-12.07 36.2-12.06 14.65-34.12 19.64 28.95 3.45 44.64 19.48 15.68 15.86 15.68 40.16m-47.22-111.52q0-19.65-13.45-28.1-13.44-8.44-38.95-8.44h-55.33v76.88h55.33q26.37 0 39.3-9.83 13.1-10 13.1-30.5m13.96 108.94q0-42.92-60.33-42.92h-61.36v87.56h63.95q30.16 0 43.95-11.2t13.79-33.44m99.45-15.7q0 32.06 13.27 49.47t38.78 17.4q20.17 0 32.24-8.1 12.23-8.1 16.54-20.5l27.24 7.75q-16.72 44.13-76.02 44.13-41.36 0-63.08-24.65-21.55-24.65-21.55-73.26 0-46.19 21.55-70.84 21.72-24.64 61.88-24.64 82.21 0 82.21 99.1v4.14zm101-23.78q-2.58-29.48-14.99-42.92-12.41-13.62-35.68-13.62-22.58 0-35.85 15.17-13.1 15-14.13 41.37zM4660.43 8744h-36.71l-67.74-186.5h33.09l41.02 121.35q2.24 6.9 11.9 40.85l6.03-20.17 6.72-20.34 42.4-121.69h32.92zm103.77 73.25q-12.76 0-21.38-1.9v-23.26q6.55 1.03 14.48 1.03 28.95 0 45.85-42.57l2.93-7.41-73.95-185.64h33.1l39.3 103.08q.86 2.4 2.06 5.86 1.2 3.27 7.76 22.4 6.55 19.14 7.07 21.38l12.06-33.96 40.85-118.76h32.75l-71.7 186.5q-11.55 29.82-21.55 44.3-10 14.65-22.23 21.72-12.07 7.23-27.4 7.23m424.18-194.77q0 60.85-21.55 92.9-21.37 32.07-63.26 32.07t-62.9-31.89q-21.04-31.89-21.04-93.08 0-62.56 20.34-93.76 20.51-31.2 64.64-31.2 42.92 0 63.26 31.54 20.5 31.55 20.5 93.42m-31.54 0q0-52.57-12.24-76.18-12.07-23.61-40-23.61-28.6 0-41.19 23.26-12.4 23.27-12.4 76.53 0 51.71 12.58 75.67 12.75 23.96 40.33 23.96 27.4 0 40.16-24.48 12.76-24.47 12.76-75.15M5234.4 8744v-37.75h33.6V8744Zm247.34-79.11q0 38.43-22.92 60.5-22.76 22.06-63.26 22.06-33.96 0-54.81-14.83t-26.37-42.91l31.37-3.62q9.82 36.02 50.5 36.02 24.99 0 39.12-15 14.14-15.16 14.14-41.54 0-22.92-14.3-37.05-14.14-14.14-38.27-14.14-12.59 0-23.44 3.97-10.86 3.96-21.72 13.44h-30.34l8.1-130.65h138.07v26.37h-109.8l-4.65 77.05q20.16-15.51 50.15-15.51 35.86 0 57.06 21.02 21.37 21.03 21.37 54.82m134.79-12.59q0-49.81 15.51-89.45 15.69-39.65 48.09-74.64h30q-32.24 35.85-47.4 76.19-15 40.33-15 88.25 0 47.74 14.82 87.9 15 40.16 47.57 76.53h-29.99q-32.58-35.16-48.09-74.8-15.51-39.82-15.51-89.29zm119.27-134.44v-29.65h31.03v29.65zm0 226.14v-186.5h31.03V8744Zm150.3-1.38q-15.34 4.14-31.37 4.14-37.23 0-37.23-42.23v-124.45h-21.54v-22.58h22.75l9.14-41.7h20.68v41.7H5883v22.58h-34.47v117.73q0 13.44 4.3 18.96 4.49 5.34 15.35 5.34 6.2 0 17.92-2.41zm50.16-85.32q0 32.06 13.27 49.47t38.79 17.4q20.16 0 32.23-8.1 12.24-8.1 16.54-20.5l27.24 7.75q-16.72 44.13-76.01 44.13-41.37 0-63.09-24.65-21.54-24.65-21.54-73.26 0-46.19 21.54-70.84 21.72-24.64 61.88-24.64 82.22 0 82.22 99.1v4.14zm101-23.78q-2.58-29.48-14.99-42.92-12.4-13.62-35.68-13.62-22.58 0-35.85 15.17-13.1 15-14.13 41.37zm72.23 110.48v-143.06q0-19.65-1.04-43.44h29.3q1.38 31.72 1.38 38.1h.7q7.4-23.96 17.06-32.75 9.65-8.8 27.23-8.8 6.2 0 12.58 1.73v28.44q-6.2-1.72-16.54-1.72-19.3 0-29.48 16.71-10.17 16.55-10.17 47.58V8744Zm164.43 3.45q-28.1 0-42.23-14.83t-14.13-40.67q0-28.96 18.96-44.47 19.13-15.52 61.53-16.55l41.89-.69v-10.17q0-22.75-9.66-32.58t-30.33-9.82q-20.86 0-30.34 7.07-9.48 7.06-11.37 22.58l-32.4-2.93q7.92-50.33 74.8-50.33 35.16 0 52.91 16.2 17.76 16.03 17.76 46.54v80.32q0 13.79 3.62 20.85 3.62 6.9 13.79 6.9 4.48 0 10.16-1.2v19.3q-11.72 2.75-23.95 2.75-17.24 0-25.17-8.96-7.76-9.13-8.79-28.44h-1.03q-11.9 21.37-27.75 30.34-15.69 8.79-38.27 8.79m7.07-23.27q17.06 0 30.33-7.76t20.86-21.2q7.76-13.62 7.76-27.92v-15.34l-33.96.69q-21.89.34-33.27 4.48-11.2 4.14-17.23 12.75t-6.03 22.58q0 15.17 8.1 23.44 8.27 8.28 23.44 8.28m213.38 18.44q-15.34 4.14-31.37 4.14-37.23 0-37.23-42.23v-124.45h-21.54v-22.58h22.75l9.14-41.7h20.68v41.7h34.47v22.58h-34.47v117.73q0 13.44 4.3 18.96 4.49 5.34 15.35 5.34 6.2 0 17.92-2.41zm184.09-92.04q0 48.95-21.55 72.9-21.54 23.97-62.57 23.97-40.85 0-61.7-24.82-20.86-25-20.86-72.05 0-96.52 83.6-96.52 42.74 0 62.91 23.6 20.17 23.45 20.17 72.92m-32.58 0q0-38.61-11.55-56.02-11.37-17.58-38.43-17.58-27.24 0-39.48 17.93-12.06 17.75-12.06 55.67 0 36.88 11.9 55.5 12.06 18.44 37.74 18.44 27.92 0 39.82-17.92 12.06-17.93 12.06-56.02m71.88 93.42v-143.06q0-19.65-1.04-43.44h29.3q1.38 31.72 1.38 38.1h.7q7.4-23.96 17.06-32.75 9.65-8.8 27.23-8.8 6.2 0 12.58 1.73v28.44q-6.2-1.72-16.54-1.72-19.3 0-29.48 16.71-10.17 16.55-10.17 47.58V8744Zm188.74-91q0 49.8-15.69 89.45-15.51 39.64-47.92 74.63h-29.99q32.4-36.2 47.4-76.18 15-40.16 15-88.25t-15.17-88.25q-15-40.16-47.23-76.19h30q32.57 35.17 48.08 74.98 15.51 39.64 15.51 89.11z" style="fill:#ececec;stroke:none;fill-opacity:1"/></g><g aria-label="Legion (for_each)" class="TextShape" style="fill:#ececec;fill-opacity:1"><path d="M7119.96 8744v-242.86h32.92v215.97h122.72V8744Zm214.94-86.7q0 32.06 13.27 49.47t38.78 17.4q20.16 0 32.23-8.1 12.24-8.1 16.55-20.5l27.23 7.75q-16.72 44.13-76.01 44.13-41.37 0-63.09-24.65-21.54-24.65-21.54-73.26 0-46.19 21.54-70.84 21.72-24.64 61.88-24.64 82.22 0 82.22 99.1v4.14zm101-23.78q-2.59-29.48-15-42.92-12.4-13.62-35.68-13.62-22.58 0-35.85 15.17-13.1 15-14.13 41.37zm142.2 183.73q-30.51 0-48.6-12.06-18.1-11.9-23.28-33.96l31.2-4.48q3.1 12.93 13.62 19.82 10.68 7.07 27.92 7.07 46.37 0 46.37-54.3v-29.99h-.35q-8.79 17.93-24.13 27.07-15.34 8.96-35.85 8.96-34.3 0-50.5-22.75-16.03-22.75-16.03-71.53 0-49.47 17.23-72.91 17.41-23.62 52.75-23.62 19.82 0 34.3 9.14 14.65 8.96 22.58 25.68h.34q0-5.17.69-17.93t1.38-13.96h29.47q-1.03 9.31-1.03 38.61v142.55q0 78.6-78.08 78.6m47.23-166.5q0-22.75-6.2-39.12-6.21-16.55-17.59-25.17-11.2-8.8-25.51-8.8-23.79 0-34.64 17.25-10.86 17.23-10.86 55.84 0 38.27 10.17 54.99t34.81 16.71q14.65 0 26.03-8.61t17.58-24.65q6.2-16.2 6.2-38.44m78.26-132.9v-29.65h31.02v29.65zm0 226.14v-186.5h31.02V8744Zm236.31-93.42q0 48.95-21.55 72.9-21.54 23.97-62.56 23.97-40.85 0-61.71-24.82-20.86-25-20.86-72.05 0-96.52 83.6-96.52 42.75 0 62.91 23.6 20.17 23.45 20.17 72.92m-32.58 0q0-38.61-11.55-56.02-11.37-17.58-38.43-17.58-27.24 0-39.47 17.93-12.07 17.75-12.07 55.67 0 36.88 11.9 55.5 12.06 18.44 37.74 18.44 27.92 0 39.82-17.92 12.06-17.93 12.06-56.02m189.6 93.42v-118.24q0-18.44-3.62-28.61t-11.55-14.65q-7.92-4.49-23.26-4.49-22.41 0-35.34 15.34t-12.93 42.58V8744h-31.02v-146.68q0-32.58-1.04-39.82h29.3q.18.86.35 4.66.17 3.79.34 8.79.35 4.82.7 18.44h.51q10.69-19.3 24.65-27.23 14.13-8.1 34.99-8.1 30.68 0 44.81 15.34 14.31 15.16 14.31 50.33V8744Zm174.09-91.7q0-49.81 15.51-89.45 15.69-39.65 48.1-74.64h29.98q-32.23 35.85-47.4 76.19-15 40.33-15 88.25 0 47.74 14.83 87.9 15 40.16 47.57 76.53h-29.99q-32.58-35.16-48.09-74.8-15.51-39.82-15.51-89.29zm157.88-72.22V8744h-31.02v-163.92h-26.2v-22.58h26.2v-21.03q0-25.5 11.2-36.7t34.3-11.21q12.93 0 21.9 2.07v23.61q-7.76-1.38-13.8-1.38-11.89 0-17.23 6.03t-5.35 21.9v16.71h36.37v22.58zm217.35 70.5q0 48.95-21.54 72.9-21.55 23.97-62.57 23.97-40.85 0-61.7-24.82-20.86-25-20.86-72.05 0-96.52 83.6-96.52 42.74 0 62.9 23.6 20.17 23.45 20.17 72.92m-32.57 0q0-38.61-11.55-56.02-11.38-17.58-38.44-17.58-27.23 0-39.47 17.93-12.06 17.75-12.06 55.67 0 36.88 11.89 55.5 12.06 18.44 37.75 18.44 27.92 0 39.81-17.92 12.07-17.93 12.07-56.02m71.87 93.42v-143.06q0-19.65-1.03-43.44h29.3q1.38 31.72 1.38 38.1h.69q7.41-23.96 17.06-32.75 9.65-8.8 27.24-8.8 6.2 0 12.58 1.73v28.44q-6.2-1.72-16.55-1.72-19.3 0-29.47 16.71-10.17 16.55-10.17 47.58V8744Zm87.74 70.15v-22.4h205.63v22.4zm249.23-156.85q0 32.06 13.27 49.47t38.79 17.4q20.16 0 32.23-8.1 12.24-8.1 16.55-20.5l27.23 7.75q-16.72 44.13-76.01 44.13-41.37 0-63.09-24.65-21.54-24.65-21.54-73.26 0-46.19 21.54-70.84 21.72-24.64 61.88-24.64 82.22 0 82.22 99.1v4.14zm101-23.78q-2.58-29.48-14.99-42.92-12.4-13.62-35.68-13.62-22.58 0-35.85 15.17-13.1 15-14.13 41.37zm119.11 113.93q-28.1 0-42.23-14.83t-14.13-40.67q0-28.96 18.96-44.47 19.13-15.52 61.53-16.55l41.89-.69v-10.17q0-22.75-9.66-32.58t-30.33-9.82q-20.86 0-30.34 7.07-9.48 7.06-11.37 22.58l-32.4-2.93q7.92-50.33 74.8-50.33 35.16 0 52.91 16.2 17.76 16.03 17.76 46.54v80.32q0 13.79 3.62 20.85 3.62 6.9 13.78 6.9 4.49 0 10.17-1.2v19.3q-11.72 2.75-23.95 2.75-17.24 0-25.17-8.96-7.76-9.13-8.79-28.44h-1.03q-11.9 21.37-27.75 30.34-15.69 8.79-38.27 8.79m7.07-23.27q17.06 0 30.33-7.76t20.86-21.2q7.76-13.62 7.76-27.92v-15.34l-33.96.69q-21.89.34-33.27 4.48-11.2 4.14-17.23 12.75t-6.03 22.58q0 15.17 8.1 23.44 8.27 8.28 23.44 8.28m165.29-74.29q0 37.23 11.72 55.16t35.34 17.92q16.55 0 27.58-8.96 11.2-8.96 13.79-27.58l31.37 2.07q-3.62 26.89-22.93 42.92t-48.95 16.03q-39.13 0-59.8-24.65-20.52-24.82-20.52-72.22 0-47.06 20.68-71.7 20.69-24.82 59.3-24.82 28.6 0 47.4 14.82 18.96 14.82 23.78 40.85l-31.88 2.41q-2.42-15.51-12.24-24.65t-27.93-9.13q-24.64 0-35.67 16.37t-11.04 55.16m183.74-60.5q10-18.27 23.96-26.72 14.14-8.61 35.68-8.61 30.34 0 44.64 15.16 14.48 15 14.48 50.5V8744h-31.2v-118.24q0-19.65-3.62-29.13-3.62-9.65-11.89-14.13t-22.92-4.49q-21.9 0-35.17 15.17-13.1 15.17-13.1 40.85V8744h-31.02v-255.79h31.03v66.54q0 10.5-.7 21.71-.51 11.2-.68 12.93zm237.35 63.61q0 49.8-15.69 89.45-15.51 39.64-47.91 74.63h-30q32.4-36.2 47.4-76.18 15-40.16 15-88.25t-15.17-88.25q-15-40.16-47.23-76.19h30q32.57 35.17 48.08 74.98 15.52 39.64 15.52 89.11z" style="fill:#ececec;stroke:none;fill-opacity:1"/></g><g aria-label="Legion (iterator)" class="TextShape" style="fill:#ececec;fill-opacity:1"><path d="M10167.96 8744v-242.86h32.92v215.97h122.72V8744Zm214.94-86.7q0 32.06 13.27 49.47t38.78 17.4q20.16 0 32.23-8.1 12.24-8.1 16.55-20.5l27.23 7.75q-16.72 44.13-76.01 44.13-41.37 0-63.09-24.65-21.54-24.65-21.54-73.26 0-46.19 21.54-70.84 21.72-24.64 61.88-24.64 82.22 0 82.22 99.1v4.14zm101-23.78q-2.59-29.48-15-42.92-12.4-13.62-35.68-13.62-22.57 0-35.85 15.17-13.1 15-14.13 41.37zm142.2 183.73q-30.51 0-48.6-12.06-18.1-11.9-23.28-33.96l31.2-4.48q3.1 12.93 13.62 19.82 10.68 7.07 27.92 7.07 46.37 0 46.37-54.3v-29.99h-.35q-8.79 17.93-24.13 27.07-15.34 8.96-35.85 8.96-34.3 0-50.5-22.75-16.03-22.75-16.03-71.53 0-49.47 17.23-72.91 17.41-23.62 52.75-23.62 19.82 0 34.3 9.14 14.65 8.96 22.58 25.68h.34q0-5.17.69-17.93t1.38-13.96h29.47q-1.03 9.31-1.03 38.61v142.55q0 78.6-78.08 78.6m47.23-166.5q0-22.75-6.2-39.12-6.21-16.55-17.59-25.17-11.2-8.8-25.51-8.8-23.79 0-34.65 17.25-10.85 17.23-10.85 55.84 0 38.27 10.17 54.99t34.81 16.71q14.65 0 26.03-8.61t17.58-24.65q6.2-16.2 6.2-38.44m78.26-132.9v-29.65h31.02v29.65zm0 226.14v-186.5h31.02V8744Zm236.31-93.42q0 48.95-21.55 72.9-21.54 23.97-62.56 23.97-40.85 0-61.71-24.82-20.86-25-20.86-72.05 0-96.52 83.6-96.52 42.75 0 62.91 23.6 20.17 23.45 20.17 72.92m-32.58 0q0-38.61-11.55-56.02-11.37-17.58-38.43-17.58-27.24 0-39.47 17.93-12.07 17.75-12.07 55.67 0 36.88 11.9 55.5 12.06 18.44 37.74 18.44 27.92 0 39.82-17.92 12.06-17.93 12.06-56.02m189.6 93.42v-118.24q0-18.44-3.62-28.61t-11.55-14.65q-7.93-4.49-23.27-4.49-22.4 0-35.33 15.34t-12.93 42.58V8744h-31.02v-146.68q0-32.58-1.04-39.82h29.3q.18.86.35 4.66.17 3.79.34 8.79.35 4.82.7 18.44h.51q10.69-19.3 24.65-27.23 14.13-8.1 34.99-8.1 30.68 0 44.81 15.34 14.31 15.16 14.31 50.33V8744Zm174.09-91.7q0-49.81 15.51-89.45 15.69-39.65 48.1-74.64h29.98q-32.23 35.85-47.4 76.19-15 40.33-15 88.25 0 47.74 14.83 87.9 15 40.16 47.57 76.53h-29.99q-32.58-35.16-48.09-74.8-15.51-39.82-15.51-89.29zm119.27-134.44v-29.65h31.03v29.65zm0 226.14v-186.5h31.03V8744Zm150.31-1.38q-15.34 4.14-31.37 4.14-37.23 0-37.23-42.23v-124.45h-21.55v-22.58h22.75l9.14-41.7h20.68v41.7h34.47v22.58H11551v117.73q0 13.44 4.3 18.96 4.5 5.34 15.35 5.34 6.2 0 17.92-2.41zm50.15-85.32q0 32.06 13.28 49.47t38.78 17.4q20.16 0 32.23-8.1 12.24-8.1 16.54-20.5l27.24 7.75q-16.72 44.13-76.01 44.13-41.37 0-63.09-24.65-21.54-24.65-21.54-73.26 0-46.19 21.54-70.84 21.72-24.64 61.88-24.64 82.22 0 82.22 99.1v4.14zm101-23.78q-2.58-29.48-14.99-42.92-12.4-13.62-35.68-13.62-22.58 0-35.85 15.17-13.1 15-14.13 41.37zm72.23 110.48v-143.06q0-19.65-1.04-43.44h29.3q1.38 31.72 1.38 38.1h.7q7.4-23.96 17.06-32.75 9.65-8.8 27.23-8.8 6.2 0 12.58 1.73v28.44q-6.2-1.72-16.54-1.72-19.3 0-29.48 16.71-10.17 16.55-10.17 47.58V8744Zm164.44 3.45q-28.1 0-42.24-14.83t-14.13-40.67q0-28.96 18.96-44.47 19.13-15.52 61.53-16.55l41.89-.69v-10.17q0-22.75-9.66-32.58t-30.33-9.82q-20.86 0-30.34 7.07-9.48 7.06-11.37 22.58l-32.4-2.93q7.92-50.33 74.8-50.33 35.16 0 52.91 16.2 17.76 16.03 17.76 46.54v80.32q0 13.79 3.62 20.85 3.62 6.9 13.79 6.9 4.48 0 10.17-1.2v19.3q-11.72 2.75-23.96 2.75-17.24 0-25.17-8.96-7.75-9.13-8.79-28.44h-1.03q-11.9 21.37-27.75 30.34-15.69 8.79-38.27 8.79m7.06-23.27q17.06 0 30.34-7.76 13.27-7.75 20.85-21.2 7.76-13.62 7.76-27.92v-15.34l-33.96.69q-21.89.34-33.26 4.48-11.2 4.14-17.24 12.75t-6.03 22.58q0 15.17 8.1 23.44 8.27 8.28 23.44 8.28m213.4 18.44q-15.35 4.14-31.38 4.14-37.23 0-37.23-42.23v-124.45h-21.54v-22.58h22.75l9.14-41.7h20.68v41.7h34.47v22.58h-34.47v117.73q0 13.44 4.3 18.96 4.5 5.34 15.35 5.34 6.2 0 17.92-2.41zm184.08-92.04q0 48.95-21.55 72.9-21.54 23.97-62.56 23.97-40.85 0-61.71-24.82-20.86-25-20.86-72.05 0-96.52 83.6-96.52 42.75 0 62.91 23.6 20.17 23.45 20.17 72.92m-32.58 0q0-38.61-11.55-56.02-11.37-17.58-38.43-17.58-27.24 0-39.47 17.93-12.07 17.75-12.07 55.67 0 36.88 11.9 55.5 12.06 18.44 37.74 18.44 27.92 0 39.82-17.92 12.06-17.93 12.06-56.02m71.88 93.42v-143.06q0-19.65-1.04-43.44h29.3q1.38 31.72 1.38 38.1h.7q7.4-23.96 17.06-32.75 9.65-8.8 27.23-8.8 6.2 0 12.58 1.73v28.44q-6.2-1.72-16.54-1.72-19.3 0-29.48 16.71-10.17 16.55-10.17 47.58V8744Zm188.74-91q0 49.8-15.69 89.45-15.51 39.64-47.92 74.63h-29.99q32.4-36.2 47.4-76.18 15-40.16 15-88.25t-15.17-88.25q-15-40.16-47.23-76.19h30q32.57 35.17 48.08 74.98 15.52 39.64 15.52 89.11z" style="fill:#ececec;stroke:none;fill-opacity:1"/></g><g aria-label="Bevy 0.4 (iterator)" class="TextShape" style="fill:#ececec;fill-opacity:1"><path d="M13085.83 8675.57q0 32.4-23.61 50.5-23.61 17.93-65.67 17.93h-98.6v-242.86h88.26q85.49 0 85.49 58.95 0 21.54-12.07 36.2-12.06 14.65-34.12 19.64 28.95 3.45 44.64 19.48 15.68 15.86 15.68 40.16m-47.22-111.52q0-19.65-13.45-28.1-13.44-8.44-38.95-8.44h-55.33v76.88h55.33q26.37 0 39.3-9.83 13.1-10 13.1-30.5m13.96 108.94q0-42.92-60.33-42.92h-61.36v87.56h63.95q30.16 0 43.95-11.2t13.79-33.44m99.45-15.7q0 32.06 13.27 49.47t38.78 17.4q20.17 0 32.24-8.1 12.23-8.1 16.54-20.5l27.24 7.75q-16.72 44.13-76.02 44.13-41.36 0-63.08-24.65-21.55-24.65-21.55-73.26 0-46.19 21.55-70.84 21.72-24.64 61.88-24.64 82.22 0 82.22 99.1v4.14zm101-23.78q-2.58-29.48-14.99-42.92-12.41-13.62-35.68-13.62-22.58 0-35.85 15.17-13.1 15-14.14 41.37zm153.41 110.48h-36.72l-67.73-186.5h33.09l41.02 121.35q2.24 6.9 11.9 40.85l6.03-20.17 6.72-20.34 42.4-121.69h32.92zm103.77 73.25q-12.76 0-21.38-1.9v-23.26q6.55 1.03 14.48 1.03 28.95 0 45.85-42.57l2.93-7.41-73.95-185.64h33.1l39.3 103.08q.86 2.4 2.06 5.86 1.2 3.27 7.76 22.4 6.55 19.14 7.07 21.38l12.06-33.96 40.85-118.76h32.75l-71.7 186.5q-11.55 29.82-21.55 44.3-10 14.65-22.23 21.72-12.07 7.23-27.4 7.23m424.18-194.77q0 60.85-21.55 92.9-21.37 32.07-63.25 32.07-41.89 0-62.92-31.89t-21.03-93.08q0-62.56 20.34-93.76 20.51-31.2 64.64-31.2 42.92 0 63.26 31.54 20.5 31.55 20.5 93.42m-31.54 0q0-52.57-12.24-76.18-12.07-23.61-40-23.61-28.6 0-41.19 23.26-12.4 23.27-12.4 76.53 0 51.71 12.58 75.67 12.75 23.96 40.33 23.96 27.4 0 40.16-24.48 12.76-24.47 12.76-75.15m77.57 121.52v-37.75h33.6V8744Zm217.7-54.98V8744h-29.3v-54.98h-114.46v-24.13l111.18-163.75h32.57v163.4h34.13v24.48zm-29.3-152.89q-.35 1.03-4.83 9.14-4.49 8.1-6.73 11.37l-62.22 91.7-9.3 12.75-2.76 3.45h85.83zm193.73 116.17q0-49.81 15.51-89.45 15.69-39.65 48.09-74.64h30q-32.24 35.85-47.4 76.19-15 40.33-15 88.25 0 47.74 14.82 87.9 15 40.16 47.57 76.53h-29.99q-32.58-35.16-48.09-74.8-15.51-39.82-15.51-89.29zm119.27-134.44v-29.65h31.03v29.65zm0 226.14v-186.5h31.03V8744Zm150.3-1.38q-15.34 4.14-31.37 4.14-37.23 0-37.23-42.23v-124.45h-21.54v-22.58h22.75l9.14-41.7h20.68v41.7h34.47v22.58h-34.47v117.73q0 13.44 4.3 18.96 4.49 5.34 15.35 5.34 6.2 0 17.92-2.41zm50.16-85.32q0 32.06 13.27 49.47t38.79 17.4q20.16 0 32.23-8.1 12.24-8.1 16.54-20.5l27.24 7.75q-16.72 44.13-76.01 44.13-41.37 0-63.09-24.65-21.54-24.65-21.54-73.26 0-46.19 21.54-70.84 21.72-24.64 61.88-24.64 82.22 0 82.22 99.1v4.14zm101-23.78q-2.58-29.48-14.99-42.92-12.4-13.62-35.68-13.62-22.58 0-35.85 15.17-13.1 15-14.13 41.37zm72.23 110.48v-143.06q0-19.65-1.04-43.44h29.3q1.38 31.72 1.38 38.1h.7q7.4-23.96 17.06-32.75 9.65-8.8 27.23-8.8 6.2 0 12.58 1.73v28.44q-6.2-1.72-16.54-1.72-19.3 0-29.48 16.71-10.17 16.55-10.17 47.58V8744Zm164.43 3.45q-28.1 0-42.23-14.83t-14.13-40.67q0-28.96 18.96-44.47 19.13-15.52 61.53-16.55l41.89-.69v-10.17q0-22.75-9.66-32.58t-30.33-9.82q-20.86 0-30.34 7.07-9.48 7.06-11.37 22.58l-32.4-2.93q7.92-50.33 74.8-50.33 35.16 0 52.91 16.2 17.76 16.03 17.76 46.54v80.32q0 13.79 3.62 20.85 3.62 6.9 13.79 6.9 4.48 0 10.17-1.2v19.3q-11.73 2.75-23.96 2.75-17.24 0-25.17-8.96-7.75-9.13-8.79-28.44h-1.03q-11.9 21.37-27.75 30.34-15.69 8.79-38.27 8.79m7.07-23.27q17.06 0 30.33-7.76t20.86-21.2q7.76-13.62 7.76-27.92v-15.34l-33.96.69q-21.89.34-33.27 4.48-11.2 4.14-17.23 12.75t-6.03 22.58q0 15.17 8.1 23.44 8.27 8.28 23.44 8.28m213.38 18.44q-15.34 4.14-31.37 4.14-37.23 0-37.23-42.23v-124.45h-21.54v-22.58h22.75l9.14-41.7h20.68v41.7h34.47v22.58h-34.47v117.73q0 13.44 4.3 18.96 4.49 5.34 15.35 5.34 6.2 0 17.92-2.41zm184.09-92.04q0 48.95-21.55 72.9-21.54 23.97-62.56 23.97-40.85 0-61.71-24.82-20.86-25-20.86-72.05 0-96.52 83.6-96.52 42.75 0 62.91 23.6 20.17 23.45 20.17 72.92m-32.58 0q0-38.61-11.55-56.02-11.37-17.58-38.43-17.58-27.24 0-39.47 17.93-12.07 17.75-12.07 55.67 0 36.88 11.9 55.5 12.06 18.44 37.74 18.44 27.92 0 39.82-17.92 12.06-17.93 12.06-56.02m71.88 93.42v-143.06q0-19.65-1.04-43.44h29.3q1.38 31.72 1.38 38.1h.7q7.4-23.96 17.06-32.75 9.65-8.8 27.23-8.8 6.2 0 12.58 1.73v28.44q-6.2-1.72-16.54-1.72-19.3 0-29.48 16.71-10.17 16.55-10.17 47.58V8744Zm188.74-91q0 49.8-15.69 89.45-15.51 39.64-47.92 74.63h-29.99q32.4-36.2 47.4-76.18 15-40.16 15-88.25t-15.17-88.25q-15-40.16-47.23-76.19h30q32.57 35.17 48.08 74.98 15.52 39.64 15.52 89.11z" style="fill:#ececec;stroke:none;fill-opacity:1"/></g><g aria-label="0" class="TextShape" style="fill:#ececec;fill-opacity:1"><path d="M874.53 8175.48q0 60.85-21.54 92.9-21.38 32.07-63.26 32.07t-62.91-31.89-21.03-93.08q0-62.56 20.34-93.76 20.5-31.2 64.63-31.2 42.92 0 63.26 31.54 20.51 31.55 20.51 93.42m-31.54 0q0-52.57-12.24-76.18-12.06-23.61-39.99-23.61-28.6 0-41.2 23.26-12.4 23.27-12.4 76.53 0 51.71 12.58 75.67 12.76 23.96 40.33 23.96 27.41 0 40.17-24.48 12.75-24.47 12.75-75.15" style="fill:#ececec;stroke:none;fill-opacity:1"/></g><g aria-label="50" class="TextShape" style="fill:#ececec;fill-opacity:1"><path d="M688.5 7242.89q0 38.43-22.93 60.5-22.75 22.06-63.25 22.06-33.96 0-54.81-14.83t-26.38-42.91l31.37-3.62q9.83 36.02 50.5 36.02 25 0 39.13-15 14.14-15.16 14.14-41.54 0-22.92-14.31-37.05-14.13-14.14-38.26-14.14-12.59 0-23.45 3.97-10.85 3.96-21.71 13.44H528.2l8.1-130.65h138.06v26.37h-109.8l-4.64 77.05q20.16-15.51 50.15-15.51 35.85 0 57.06 21.02 21.37 21.03 21.37 54.82m197.35-42.41q0 60.85-21.54 92.9-21.37 32.07-63.26 32.07t-62.91-31.89-21.03-93.08q0-62.56 20.34-93.76 20.51-31.2 64.64-31.2 42.91 0 63.25 31.54 20.51 31.55 20.51 93.42m-31.54 0q0-52.57-12.24-76.18-12.06-23.61-39.98-23.61-28.62 0-41.2 23.26-12.4 23.27-12.4 76.53 0 51.71 12.57 75.67 12.76 23.96 40.34 23.96 27.4 0 40.16-24.48 12.75-24.47 12.75-75.15" style="fill:#ececec;stroke:none;fill-opacity:1"/></g><g aria-label="100" class="TextShape" style="fill:#ececec;fill-opacity:1"><path d="M347.89 6347v-26.37h61.88v-186.84l-54.81 39.12v-29.3l57.4-39.47h28.6v216.49h59.13V6347Zm351.96-121.52q0 60.85-21.54 92.9-21.37 32.07-63.26 32.07t-62.91-31.89-21.03-93.08q0-62.56 20.34-93.76 20.51-31.2 64.64-31.2 42.91 0 63.25 31.54 20.51 31.55 20.51 93.42m-31.54 0q0-52.57-12.24-76.18-12.06-23.61-39.98-23.61-28.62 0-41.2 23.26-12.4 23.27-12.4 76.53 0 51.71 12.57 75.67 12.76 23.96 40.34 23.96 27.4 0 40.16-24.48 12.75-24.47 12.75-75.15m227.87 0q0 60.85-21.55 92.9-21.37 32.07-63.26 32.07t-62.9-31.89q-21.04-31.89-21.04-93.08 0-62.56 20.34-93.76 20.51-31.2 64.64-31.2 42.92 0 63.26 31.54 20.5 31.55 20.5 93.42m-31.55 0q0-52.57-12.23-76.18-12.07-23.61-40-23.61-28.6 0-41.19 23.26-12.4 23.27-12.4 76.53 0 51.71 12.58 75.67 12.75 23.96 40.33 23.96 27.4 0 40.16-24.48 12.75-24.47 12.75-75.15" style="fill:#ececec;stroke:none;fill-opacity:1"/></g><g aria-label="150" class="TextShape" style="fill:#ececec;fill-opacity:1"><path d="M347.89 5372v-26.37h61.88v-186.84l-54.81 39.12v-29.3l57.4-39.47h28.6v216.49h59.13V5372Zm350.93-79.11q0 38.43-22.92 60.5-22.76 22.06-63.26 22.06-33.96 0-54.81-14.83t-26.37-42.91l31.37-3.62q9.82 36.02 50.5 36.02 25 0 39.12-15 14.14-15.16 14.14-41.54 0-22.92-14.3-37.05-14.14-14.14-38.27-14.14-12.58 0-23.44 3.97-10.86 3.96-21.72 13.44h-30.34l8.1-130.65H684.7v26.37H574.9l-4.65 77.05q20.16-15.51 50.16-15.51 35.85 0 57.05 21.02 21.37 21.03 21.37 54.82m197.35-42.41q0 60.85-21.55 92.9-21.37 32.07-63.26 32.07t-62.9-31.89q-21.04-31.89-21.04-93.08 0-62.56 20.34-93.76 20.51-31.2 64.64-31.2 42.92 0 63.26 31.54 20.5 31.55 20.5 93.42m-31.55 0q0-52.57-12.23-76.18-12.07-23.61-40-23.61-28.6 0-41.19 23.26-12.4 23.27-12.4 76.53 0 51.71 12.58 75.67 12.75 23.96 40.33 23.96 27.4 0 40.16-24.48 12.75-24.47 12.75-75.15" style="fill:#ececec;stroke:none;fill-opacity:1"/></g><g aria-label="200" class="TextShape" style="fill:#ececec;fill-opacity:1"><path d="M338.75 4397v-21.89q8.8-20.17 21.38-35.5 12.75-15.52 26.71-27.93 13.96-12.58 27.58-23.27 13.79-10.69 24.82-21.37t17.75-22.4q6.9-11.73 6.9-26.55 0-20-11.72-31.03t-32.58-11.03q-19.82 0-32.75 10.86-12.75 10.69-15 30.16l-31.7-2.93q3.44-29.13 24.64-46.36 21.37-17.24 54.81-17.24 36.72 0 56.36 17.4 19.83 17.25 19.83 49.13 0 14.14-6.55 28.1-6.38 13.96-19.14 27.92-12.75 13.96-48.77 43.26-19.83 16.2-31.55 29.3-11.72 12.93-16.89 25h126.69V4397Zm361.1-121.52q0 60.85-21.54 92.9-21.37 32.07-63.26 32.07t-62.91-31.89-21.03-93.08q0-62.56 20.34-93.76 20.51-31.2 64.64-31.2 42.91 0 63.25 31.54 20.51 31.55 20.51 93.42m-31.54 0q0-52.57-12.24-76.18-12.06-23.61-39.98-23.61-28.62 0-41.2 23.26-12.4 23.27-12.4 76.53 0 51.71 12.57 75.67 12.76 23.96 40.34 23.96 27.4 0 40.16-24.48 12.75-24.47 12.75-75.15m227.87 0q0 60.85-21.55 92.9-21.37 32.07-63.26 32.07t-62.9-31.89q-21.04-31.89-21.04-93.08 0-62.56 20.34-93.76 20.51-31.2 64.64-31.2 42.92 0 63.26 31.54 20.5 31.55 20.5 93.42m-31.55 0q0-52.57-12.23-76.18-12.07-23.61-40-23.61-28.6 0-41.19 23.26-12.4 23.27-12.4 76.53 0 51.71 12.58 75.67 12.75 23.96 40.33 23.96 27.4 0 40.16-24.48 12.75-24.47 12.75-75.15" style="fill:#ececec;stroke:none;fill-opacity:1"/></g><g aria-label="250" class="TextShape" style="fill:#ececec;fill-opacity:1"><path d="M338.75 3422v-21.89q8.8-20.17 21.38-35.5 12.75-15.52 26.71-27.93 13.96-12.58 27.58-23.27 13.79-10.69 24.82-21.37t17.75-22.4q6.9-11.73 6.9-26.55 0-20-11.72-31.03t-32.58-11.03q-19.82 0-32.75 10.86-12.75 10.69-15 30.16l-31.7-2.93q3.44-29.13 24.64-46.36 21.37-17.24 54.81-17.24 36.72 0 56.36 17.4 19.83 17.25 19.83 49.13 0 14.14-6.55 28.1-6.38 13.96-19.14 27.92-12.75 13.96-48.77 43.26-19.83 16.2-31.55 29.3-11.72 12.93-16.89 25h126.69V3422Zm360.07-79.11q0 38.43-22.92 60.5-22.76 22.06-63.26 22.06-33.96 0-54.81-14.83t-26.37-42.91l31.37-3.62q9.82 36.02 50.5 36.02 25 0 39.12-15 14.14-15.16 14.14-41.54 0-22.92-14.3-37.05-14.14-14.14-38.27-14.14-12.58 0-23.44 3.97-10.86 3.96-21.72 13.44h-30.34l8.1-130.65H684.7v26.37H574.9l-4.65 77.05q20.16-15.51 50.16-15.51 35.85 0 57.05 21.02 21.37 21.03 21.37 54.82m197.35-42.41q0 60.85-21.55 92.9-21.37 32.07-63.26 32.07t-62.9-31.89q-21.04-31.89-21.04-93.08 0-62.56 20.34-93.76 20.51-31.2 64.64-31.2 42.92 0 63.26 31.54 20.5 31.55 20.5 93.42m-31.55 0q0-52.57-12.23-76.18-12.07-23.61-40-23.61-28.6 0-41.19 23.26-12.4 23.27-12.4 76.53 0 51.71 12.58 75.67 12.75 23.96 40.33 23.96 27.4 0 40.16-24.48 12.75-24.47 12.75-75.15" style="fill:#ececec;stroke:none;fill-opacity:1"/></g><g aria-label="300" class="TextShape" style="fill:#ececec;fill-opacity:1"><path d="M501.8 2379.95q0 33.61-21.36 52.05-21.38 18.45-61.02 18.45-36.89 0-58.95-16.55-21.89-16.72-26.03-49.3l32.06-2.93q6.2 43.1 52.92 43.1 23.44 0 36.71-11.55 13.45-11.55 13.45-34.3 0-19.83-15.34-30.86-15.17-11.2-43.96-11.2H392.7v-26.89h16.9q25.5 0 39.47-11.03 14.13-11.2 14.13-30.85 0-19.48-11.55-30.68-11.37-11.38-33.95-11.38-20.52 0-33.27 10.51-12.58 10.52-14.65 29.65l-31.2-2.41q3.45-29.82 24.65-46.54 21.37-16.72 54.81-16.72 36.54 0 56.7 17.06 20.35 16.9 20.35 47.23 0 23.27-13.1 37.92-12.93 14.48-37.75 19.65v.7q27.23 2.92 42.4 18.26t15.17 38.61m198.04-54.47q0 60.85-21.54 92.9-21.37 32.07-63.26 32.07t-62.91-31.89-21.03-93.08q0-62.56 20.34-93.76 20.51-31.2 64.64-31.2 42.91 0 63.25 31.54 20.51 31.55 20.51 93.42m-31.54 0q0-52.57-12.24-76.18-12.06-23.61-39.98-23.61-28.62 0-41.2 23.26-12.4 23.27-12.4 76.53 0 51.71 12.57 75.67 12.76 23.96 40.34 23.96 27.4 0 40.16-24.48 12.75-24.47 12.75-75.15m227.87 0q0 60.85-21.55 92.9-21.37 32.07-63.26 32.07t-62.9-31.89q-21.04-31.89-21.04-93.08 0-62.56 20.34-93.76 20.51-31.2 64.64-31.2 42.92 0 63.26 31.54 20.5 31.55 20.5 93.42m-31.55 0q0-52.57-12.23-76.18-12.07-23.61-40-23.61-28.6 0-41.19 23.26-12.4 23.27-12.4 76.53 0 51.71 12.58 75.67 12.75 23.96 40.33 23.96 27.4 0 40.16-24.48 12.75-24.47 12.75-75.15" style="fill:#ececec;stroke:none;fill-opacity:1"/></g><g aria-label="350" class="TextShape" style="fill:#ececec;fill-opacity:1"><path d="M501.8 1404.95q0 33.61-21.36 52.05-21.38 18.45-61.02 18.45-36.89 0-58.95-16.55-21.89-16.72-26.03-49.3l32.06-2.93q6.2 43.1 52.92 43.1 23.44 0 36.71-11.55 13.45-11.55 13.45-34.3 0-19.83-15.34-30.86-15.17-11.2-43.96-11.2H392.7v-26.89h16.9q25.5 0 39.47-11.03 14.13-11.2 14.13-30.85 0-19.48-11.55-30.68-11.37-11.38-33.95-11.38-20.52 0-33.27 10.51-12.58 10.52-14.65 29.65l-31.2-2.41q3.45-29.82 24.65-46.54 21.37-16.72 54.81-16.72 36.54 0 56.7 17.06 20.35 16.9 20.35 47.23 0 23.27-13.1 37.92-12.93 14.48-37.75 19.65v.7q27.23 2.92 42.4 18.26t15.17 38.61m197.01-12.06q0 38.43-22.92 60.5-22.76 22.06-63.26 22.06-33.96 0-54.81-14.83t-26.37-42.91l31.37-3.62q9.82 36.02 50.5 36.02 25 0 39.12-15 14.14-15.16 14.14-41.54 0-22.92-14.3-37.05-14.14-14.14-38.27-14.14-12.58 0-23.44 3.97-10.86 3.96-21.72 13.44h-30.34l8.1-130.65H684.7v26.37H574.9l-4.65 77.05q20.16-15.51 50.16-15.51 35.85 0 57.05 21.02 21.37 21.03 21.37 54.82m197.35-42.41q0 60.85-21.55 92.9-21.37 32.07-63.26 32.07t-62.9-31.89q-21.04-31.89-21.04-93.08 0-62.56 20.34-93.76 20.51-31.2 64.64-31.2 42.92 0 63.26 31.54 20.5 31.55 20.5 93.42m-31.55 0q0-52.57-12.23-76.18-12.07-23.61-40-23.61-28.6 0-41.19 23.26-12.4 23.27-12.4 76.53 0 51.71 12.58 75.67 12.75 23.96 40.33 23.96 27.4 0 40.16-24.48 12.75-24.47 12.75-75.15" style="fill:#ececec;stroke:none;fill-opacity:1"/></g><g aria-label="400" class="TextShape" style="fill:#ececec;fill-opacity:1"><path d="M472.85 442.02V497h-29.3v-54.98H329.1v-24.13l111.18-163.75h32.57v163.4h34.13v24.48zm-29.3-152.89q-.34 1.03-4.83 9.14-4.48 8.1-6.72 11.37l-62.22 91.7-9.3 12.75-2.77 3.45h85.84zm256.3 86.35q0 60.85-21.54 92.9-21.37 32.07-63.26 32.07t-62.91-31.89-21.03-93.08q0-62.56 20.34-93.76 20.51-31.2 64.64-31.2 42.91 0 63.25 31.54 20.51 31.55 20.51 93.42m-31.54 0q0-52.57-12.24-76.18-12.06-23.61-39.98-23.61-28.62 0-41.2 23.26-12.4 23.27-12.4 76.53 0 51.71 12.57 75.67 12.76 23.96 40.34 23.96 27.4 0 40.16-24.48 12.75-24.47 12.75-75.15m227.87 0q0 60.85-21.55 92.9-21.37 32.07-63.26 32.07t-62.9-31.89q-21.04-31.89-21.04-93.08 0-62.56 20.34-93.76 20.51-31.2 64.64-31.2 42.92 0 63.26 31.54 20.5 31.55 20.5 93.42m-31.55 0q0-52.57-12.23-76.18-12.07-23.61-40-23.61-28.6 0-41.19 23.26-12.4 23.27-12.4 76.53 0 51.71 12.58 75.67 12.75 23.96 40.33 23.96 27.4 0 40.16-24.48 12.75-24.47 12.75-75.15" style="fill:#ececec;stroke:none;fill-opacity:1"/></g></svg>