<svg xmlns="http://www.w3.org/2000/svg" xml:space="preserve" width="160mm" height="90mm" stroke-linejoin="round" stroke-width="28.22" viewBox="0 0 16000 9000"><path fill="#004586" d="M11994 8171h2456V5573h-2456z" style="fill:#4a96dc;fill-opacity:1"/><path fill="#004586" d="M7082 8171h2455V2976H7082zm-4913 0h2456V1677H2169z" style="fill:#474747;fill-opacity:1"/><path fill="none" stroke="#b3b3b3" d="M15679 8171H941m0 150v-150m0 150v-150m4913 150v-150m0 150v-150m4912 150v-150m0 150v-150m4913 150v-150m0 150v-150m-14738 0h14738m-14888 0h150m-150 0h150M791 6872h150m-150 0h150M791 5573h150m-150 0h150M791 4275h150m-150 0h150M791 2976h150m-150 0h150M791 1677h150m-150 0h150M791 378h150m-150 0h150m0 7793V378" style="fill:#ececec;fill-opacity:1;stroke:#ececec;stroke-opacity:1"/><g aria-label="rayon 1.3" class="TextShape" style="fill:#ececec;fill-opacity:1"><path d="M2706.48 8739v-143.06q0-19.65-1.04-43.44h29.3q1.38 31.72 1.38 38.1h.7q7.4-23.96 17.06-32.75 9.65-8.8 27.23-8.8 6.2 0 12.58 1.73v28.44q-6.2-1.72-16.55-1.72-19.3 0-29.47 16.71-10.17 16.55-10.17 47.58V8739Zm164.43 3.45q-28.1 0-42.23-14.83t-14.13-40.67q0-28.96 18.96-44.47 19.13-15.52 61.53-16.55l41.89-.69v-10.17q0-22.75-9.66-32.58t-30.33-9.82q-20.86 0-30.34 7.07-9.48 7.06-11.37 22.58l-32.4-2.93q7.92-50.33 74.8-50.33 35.16 0 52.91 16.2 17.76 16.03 17.76 46.54v80.32q0 13.79 3.61 20.85 3.62 6.9 13.8 6.9 4.48 0 10.16-1.2v19.3q-11.72 2.75-23.96 2.75-17.23 0-25.16-8.96-7.76-9.13-8.8-28.44h-1.02q-11.9 21.37-27.76 30.34-15.68 8.79-38.26 8.79m7.07-23.27q17.06 0 30.33-7.76t20.86-21.2q7.76-13.62 7.76-27.92v-15.34l-33.96.69q-21.89.34-33.27 4.48-11.2 4.14-17.23 12.75t-6.04 22.58q0 15.17 8.1 23.44 8.28 8.28 23.45 8.28m150.82 93.07q-12.76 0-21.38-1.9v-23.26q6.55 1.03 14.48 1.03 28.96 0 45.85-42.57l2.93-7.41-73.94-185.64h33.09l39.3 103.08q.86 2.4 2.07 5.86 1.2 3.27 7.75 22.4 6.55 19.14 7.07 21.38l12.06-33.96 40.86-118.76h32.74l-71.7 186.5q-11.55 29.82-21.54 44.3-10 14.65-22.24 21.72-12.06 7.23-27.4 7.23m325.07-166.67q0 48.95-21.54 72.9-21.55 23.97-62.57 23.97-40.85 0-61.7-24.82-20.86-25-20.86-72.05 0-96.52 83.6-96.52 42.74 0 62.9 23.6 20.17 23.45 20.17 72.92m-32.57 0q0-38.61-11.55-56.02-11.38-17.58-38.44-17.58-27.23 0-39.47 17.93-12.07 17.75-12.07 55.67 0 36.88 11.9 55.5 12.06 18.44 37.74 18.44 27.93 0 39.82-17.92 12.07-17.93 12.07-56.02m189.6 93.42v-118.24q0-18.44-3.62-28.61t-11.55-14.65q-7.93-4.49-23.27-4.49-22.4 0-35.34 15.34-12.92 15.34-12.92 42.58V8739h-31.03v-146.68q0-32.58-1.03-39.82h29.3q.17.86.34 4.66.18 3.79.35 8.79.34 4.82.69 18.44h.51q10.7-19.3 24.65-27.23 14.14-8.1 35-8.1 30.67 0 44.8 15.34 14.31 15.16 14.31 50.33V8739Zm179.08 0v-26.37h61.88v-186.84l-54.81 39.12v-29.3l57.4-39.47h28.6v216.49h59.13V8739Zm201.67 0v-37.75h33.6V8739Zm246.65-67.05q0 33.61-21.38 52.05-21.37 18.45-61.01 18.45-36.89 0-58.95-16.55-21.9-16.72-26.03-49.3l32.06-2.93q6.2 43.1 52.92 43.1 23.44 0 36.71-11.55 13.45-11.55 13.45-34.3 0-19.83-15.34-30.86-15.17-11.2-43.96-11.2h-17.58v-26.89h16.9q25.5 0 39.46-11.03 14.14-11.2 14.14-30.85 0-19.48-11.55-30.68-11.38-11.38-33.96-11.38-20.5 0-33.26 10.51-12.58 10.52-14.65 29.65l-31.2-2.41q3.45-29.82 24.65-46.54 21.37-16.72 54.8-16.72 36.55 0 56.72 17.06 20.34 16.9 20.34 47.23 0 23.27-13.1 37.92-12.93 14.48-37.75 19.65v.7q27.23 2.92 42.4 18.26t15.17 38.61" style="fill:#ececec;stroke:none;fill-opacity:1"/></g><g aria-label="rayon 1.4" class="TextShape" style="fill:#ececec;fill-opacity:1"><path d="M7619.48 8739v-143.06q0-19.65-1.04-43.44h29.3q1.38 31.72 1.38 38.1h.7q7.4-23.96 17.06-32.75 9.65-8.8 27.23-8.8 6.2 0 12.58 1.73v28.44q-6.2-1.72-16.55-1.72-19.3 0-29.47 16.71-10.17 16.55-10.17 47.58V8739Zm164.43 3.45q-28.1 0-42.23-14.83t-14.13-40.67q0-28.96 18.96-44.47 19.13-15.52 61.53-16.55l41.89-.69v-10.17q0-22.75-9.66-32.58t-30.33-9.82q-20.86 0-30.34 7.07-9.48 7.06-11.37 22.58l-32.4-2.93q7.92-50.33 74.8-50.33 35.16 0 52.91 16.2 17.76 16.03 17.76 46.54v80.32q0 13.79 3.61 20.85 3.62 6.9 13.8 6.9 4.48 0 10.16-1.2v19.3q-11.72 2.75-23.96 2.75-17.23 0-25.16-8.96-7.76-9.13-8.8-28.44h-1.02q-11.9 21.37-27.76 30.34-15.68 8.79-38.26 8.79m7.07-23.27q17.06 0 30.33-7.76t20.86-21.2q7.76-13.62 7.76-27.92v-15.34l-33.96.69q-21.89.34-33.27 4.48-11.2 4.14-17.23 12.75t-6.04 22.58q0 15.17 8.1 23.44 8.28 8.28 23.45 8.28m150.82 93.07q-12.76 0-21.38-1.9v-23.26q6.55 1.03 14.48 1.03 28.96 0 45.85-42.57l2.93-7.41-73.94-185.64h33.09l39.3 103.08q.86 2.4 2.07 5.86 1.2 3.27 7.75 22.4 6.55 19.14 7.07 21.38l12.06-33.96 40.86-118.76h32.74l-71.7 186.5q-11.55 29.82-21.54 44.3-10 14.65-22.24 21.72-12.06 7.23-27.4 7.23m325.07-166.67q0 48.95-21.54 72.9-21.55 23.97-62.57 23.97-40.85 0-61.7-24.82-20.86-25-20.86-72.05 0-96.52 83.6-96.52 42.74 0 62.9 23.6 20.17 23.45 20.17 72.92m-32.57 0q0-38.61-11.55-56.02-11.38-17.58-38.44-17.58-27.23 0-39.47 17.93-12.07 17.75-12.07 55.67 0 36.88 11.9 55.5 12.06 18.44 37.74 18.44 27.93 0 39.82-17.92 12.07-17.93 12.07-56.02m189.6 93.42v-118.24q0-18.44-3.62-28.61t-11.55-14.65q-7.93-4.49-23.27-4.49-22.4 0-35.34 15.34-12.92 15.34-12.92 42.58V8739h-31.03v-146.68q0-32.58-1.03-39.82h29.3q.17.86.34 4.66.18 3.79.35 8.79.34 4.82.69 18.44h.51q10.7-19.3 24.65-27.23 14.14-8.1 35-8.1 30.67 0 44.8 15.34 14.31 15.16 14.31 50.33V8739Zm179.08 0v-26.37h61.88v-186.84l-54.81 39.12v-29.3l57.4-39.47h28.6v216.49h59.13V8739Zm201.67 0v-37.75h33.6V8739Zm217.69-54.98V8739h-29.3v-54.98h-114.45v-24.13l111.17-163.75h32.58v163.4h34.13v24.48zm-29.3-152.89q-.35 1.03-4.83 9.14-4.48 8.1-6.72 11.37l-62.22 91.7-9.31 12.75-2.76 3.45h85.84z" style="fill:#ececec;stroke:none;fill-opacity:1"/></g><g aria-label="bevy_tasks" class="TextShape" style="fill:#ececec;fill-opacity:1"><path d="M12517.5 8644.89q0 97.56-68.6 97.56-21.2 0-35.34-7.59-13.96-7.75-22.75-24.82h-.34q0 5.35-.7 16.38-.68 10.86-1.03 12.58h-29.99q1.04-9.3 1.04-38.44v-217.35h31.02v72.91q0 11.2-.69 26.37h.7q8.61-17.92 22.74-25.68 14.31-7.75 35.34-7.75 35.33 0 51.88 23.78 16.72 23.79 16.72 72.05m-32.58 1.03q0-39.12-10.34-56.01t-33.61-16.9q-26.2 0-38.27 17.93-11.89 17.93-11.89 56.88 0 36.71 11.72 54.3 11.72 17.4 38.1 17.4 23.44 0 33.78-17.23 10.51-17.41 10.51-56.37m94.98 6.38q0 32.06 13.27 49.47t38.78 17.4q20.16 0 32.23-8.1 12.24-8.1 16.55-20.5l27.23 7.75q-16.72 44.13-76.01 44.13-41.37 0-63.09-24.65-21.54-24.65-21.54-73.26 0-46.19 21.54-70.84 21.72-24.64 61.88-24.64 82.22 0 82.22 99.1v4.14zm101-23.78q-2.59-29.48-15-42.92-12.4-13.62-35.68-13.62-22.57 0-35.85 15.17-13.1 15-14.13 41.37zm153.4 110.48h-36.71l-67.74-186.5h33.1l41.02 121.35q2.24 6.9 11.89 40.85l6.03-20.17 6.72-20.34 42.4-121.69h32.93zm103.77 73.25q-12.76 0-21.38-1.9v-23.26q6.55 1.03 14.48 1.03 28.96 0 45.85-42.57l2.93-7.41-73.95-185.64h33.1l39.3 103.08q.86 2.4 2.07 5.86 1.2 3.27 7.75 22.4 6.55 19.14 7.07 21.38l12.06-33.96 40.85-118.76h32.75l-71.7 186.5q-11.55 29.82-21.54 44.3-10 14.65-22.24 21.72-12.06 7.23-27.4 7.23m138.23-3.1v-22.4h205.63v22.4zm297.16-71.53q-15.35 4.14-31.38 4.14-37.23 0-37.23-42.23v-124.45h-21.54v-22.58h22.75l9.14-41.7h20.68v41.7h34.47v22.58h-34.47v117.73q0 13.44 4.3 18.96 4.49 5.34 15.35 5.34 6.2 0 17.93-2.41zm73.94 4.83q-28.1 0-42.23-14.83t-14.13-40.67q0-28.96 18.96-44.47 19.13-15.52 61.53-16.55l41.88-.69v-10.17q0-22.75-9.65-32.58t-30.34-9.82q-20.85 0-30.33 7.07-9.48 7.06-11.38 22.58l-32.4-2.93q7.93-50.33 74.8-50.33 35.17 0 52.92 16.2 17.75 16.03 17.75 46.54v80.32q0 13.79 3.62 20.85 3.62 6.9 13.8 6.9 4.47 0 10.16-1.2v19.3q-11.72 2.75-23.96 2.75-17.23 0-25.16-8.96-7.76-9.13-8.8-28.44h-1.03q-11.89 21.37-27.75 30.34-15.68 8.79-38.26 8.79m7.06-23.27q17.07 0 30.34-7.76t20.86-21.2q7.75-13.62 7.75-27.92v-15.34l-33.95.69q-21.9.34-33.27 4.48-11.2 4.14-17.23 12.75t-6.04 22.58q0 15.17 8.1 23.44 8.28 8.28 23.44 8.28m281.64-31.72q0 26.38-19.99 40.68-19.82 14.3-55.67 14.3-34.82 0-53.78-11.37-18.79-11.55-24.47-35.85l27.4-5.34q3.97 15 16.38 22.06 12.4 6.9 34.47 6.9 23.61 0 34.47-7.25 11.03-7.23 11.03-21.71 0-11.03-7.58-17.93t-24.48-11.38l-22.23-5.86q-26.72-6.89-38.1-13.44-11.2-6.72-17.57-16.2t-6.38-23.27q0-25.51 18.1-38.78 18.27-13.45 53.08-13.45 30.86 0 48.95 10.86 18.28 10.86 23.1 34.82l-27.92 3.45q-2.59-12.41-13.96-18.96-11.2-6.73-30.17-6.73-21.02 0-31.02 6.38t-10 19.3q0 7.94 4.14 13.1 4.13 5.18 12.24 8.8t34.12 10q24.65 6.2 35.51 11.54 10.86 5.17 17.06 11.55 6.38 6.38 9.83 14.82 3.45 8.28 3.45 18.96m153.4 51.54-63.08-85.15-22.76 18.79V8739h-31.02v-255.79h31.02V8643l81.88-90.49h36.37l-75.67 80.15 79.63 106.35zm199.59-51.54q0 26.38-19.99 40.68-19.82 14.3-55.67 14.3-34.82 0-53.78-11.37-18.79-11.55-24.47-35.85l27.4-5.34q3.97 15 16.38 22.06 12.4 6.9 34.47 6.9 23.61 0 34.47-7.25 11.03-7.23 11.03-21.71 0-11.03-7.58-17.93t-24.48-11.38l-22.23-5.86q-26.72-6.89-38.1-13.44-11.2-6.72-17.57-16.2t-6.38-23.27q0-25.51 18.1-38.78 18.27-13.45 53.08-13.45 30.86 0 48.95 10.86 18.28 10.86 23.1 34.82l-27.92 3.45q-2.59-12.41-13.96-18.96-11.2-6.73-30.17-6.73-21.02 0-31.02 6.38t-10 19.3q0 7.94 4.14 13.1 4.13 5.18 12.24 8.8t34.12 10q24.65 6.2 35.51 11.54 10.86 5.17 17.06 11.55 6.38 6.38 9.83 14.82 3.45 8.28 3.45 18.96" style="fill:#ececec;stroke:none;fill-opacity:1"/></g><g aria-label="0" class="TextShape" style="fill:#ececec;fill-opacity:1;stroke:#ececec;stroke-opacity:1"><path d="M688.53 8170.48q0 60.85-21.54 92.9-21.38 32.07-63.26 32.07t-62.91-31.89-21.03-93.08q0-62.56 20.34-93.76 20.5-31.2 64.63-31.2 42.92 0 63.26 31.54 20.51 31.55 20.51 93.42zm-31.54 0q0-52.57-12.24-76.18-12.06-23.61-39.99-23.61-28.6 0-41.2 23.26-12.4 23.27-12.4 76.53 0 51.71 12.58 75.67 12.76 23.96 40.33 23.96 27.41 0 40.17-24.48 12.75-24.47 12.75-75.15z" style="fill:#ececec;stroke:#ececec;fill-opacity:1;stroke-opacity:1"/></g><g aria-label="10" class="TextShape" style="fill:#ececec;fill-opacity:1"><path d="M347.89 6993v-26.37h61.88v-186.84l-54.81 39.12v-29.3l57.4-39.47h28.6v216.49h59.13V6993Zm351.96-121.52q0 60.85-21.54 92.9-21.37 32.07-63.26 32.07t-62.91-31.89-21.03-93.08q0-62.56 20.34-93.76 20.51-31.2 64.64-31.2 42.91 0 63.25 31.54 20.51 31.55 20.51 93.42m-31.54 0q0-52.57-12.24-76.18-12.06-23.61-39.98-23.61-28.62 0-41.2 23.26-12.4 23.27-12.4 76.53 0 51.71 12.57 75.67 12.76 23.96 40.34 23.96 27.4 0 40.16-24.48 12.75-24.47 12.75-75.15" style="fill:#ececec;stroke:none;fill-opacity:1"/></g><g aria-label="20" class="TextShape" style="fill:#ececec;fill-opacity:1"><path d="M338.75 5694v-21.89q8.8-20.17 21.38-35.5 12.75-15.52 26.71-27.93 13.96-12.58 27.58-23.27 13.79-10.69 24.82-21.37t17.75-22.4q6.9-11.73 6.9-26.55 0-20-11.72-31.03t-32.58-11.03q-19.82 0-32.75 10.86-12.75 10.69-15 30.16l-31.7-2.93q3.44-29.13 24.64-46.36 21.37-17.24 54.81-17.24 36.72 0 56.36 17.4 19.83 17.25 19.83 49.13 0 14.14-6.55 28.1-6.38 13.96-19.14 27.92-12.75 13.96-48.77 43.26-19.83 16.2-31.55 29.3-11.72 12.93-16.89 25h126.69V5694Zm361.1-121.52q0 60.85-21.54 92.9-21.37 32.07-63.26 32.07t-62.91-31.89-21.03-93.08q0-62.56 20.34-93.76 20.51-31.2 64.64-31.2 42.91 0 63.25 31.54 20.51 31.55 20.51 93.42m-31.54 0q0-52.57-12.24-76.18-12.06-23.61-39.98-23.61-28.62 0-41.2 23.26-12.4 23.27-12.4 76.53 0 51.71 12.57 75.67 12.76 23.96 40.34 23.96 27.4 0 40.16-24.48 12.75-24.47 12.75-75.15" style="fill:#ececec;stroke:none;fill-opacity:1"/></g><g aria-label="30" class="TextShape" style="fill:#ececec;fill-opacity:1"><path d="M501.8 4327.95q0 33.61-21.36 52.05-21.38 18.45-61.02 18.45-36.89 0-58.95-16.55-21.89-16.72-26.03-49.3l32.06-2.93q6.2 43.1 52.92 43.1 23.44 0 36.71-11.55 13.45-11.55 13.45-34.3 0-19.83-15.34-30.86-15.17-11.2-43.96-11.2H392.7v-26.89h16.9q25.5 0 39.47-11.03 14.13-11.2 14.13-30.85 0-19.48-11.55-30.68-11.37-11.38-33.95-11.38-20.52 0-33.27 10.51-12.58 10.52-14.65 29.65l-31.2-2.41q3.45-29.82 24.65-46.54 21.37-16.72 54.81-16.72 36.54 0 56.7 17.06 20.35 16.9 20.35 47.23 0 23.27-13.1 37.92-12.93 14.48-37.75 19.65v.7q27.23 2.92 42.4 18.26t15.17 38.61m198.04-54.47q0 60.85-21.54 92.9-21.37 32.07-63.26 32.07t-62.91-31.89-21.03-93.08q0-62.56 20.34-93.76 20.51-31.2 64.64-31.2 42.91 0 63.25 31.54 20.51 31.55 20.51 93.42m-31.54 0q0-52.57-12.24-76.18-12.06-23.61-39.98-23.61-28.62 0-41.2 23.26-12.4 23.27-12.4 76.53 0 51.71 12.57 75.67 12.76 23.96 40.34 23.96 27.4 0 40.16-24.48 12.75-24.47 12.75-75.15" style="fill:#ececec;stroke:none;fill-opacity:1"/></g><g aria-label="40" class="TextShape" style="fill:#ececec;fill-opacity:1"><path d="M472.85 3041.02V3096h-29.3v-54.98H329.1v-24.13l111.18-163.75h32.57v163.4h34.13v24.48zm-29.3-152.89q-.34 1.03-4.83 9.14-4.48 8.1-6.72 11.37l-62.22 91.7-9.3 12.75-2.77 3.45h85.84zm256.3 86.35q0 60.85-21.54 92.9-21.37 32.07-63.26 32.07t-62.91-31.89-21.03-93.08q0-62.56 20.34-93.76 20.51-31.2 64.64-31.2 42.91 0 63.25 31.54 20.51 31.55 20.51 93.42m-31.54 0q0-52.57-12.24-76.18-12.06-23.61-39.98-23.61-28.62 0-41.2 23.26-12.4 23.27-12.4 76.53 0 51.71 12.57 75.67 12.76 23.96 40.34 23.96 27.4 0 40.16-24.48 12.75-24.47 12.75-75.15" style="fill:#ececec;stroke:none;fill-opacity:1"/></g><g aria-label="50" class="TextShape" style="fill:#ececec;fill-opacity:1"><path d="M502.5 1717.89q0 38.43-22.93 60.5-22.75 22.06-63.25 22.06-33.96 0-54.81-14.83t-26.38-42.91l31.37-3.62q9.83 36.02 50.5 36.02 25 0 39.13-15 14.14-15.16 14.14-41.54 0-22.92-14.31-37.05-14.13-14.14-38.26-14.14-12.59 0-23.45 3.97-10.85 3.96-21.71 13.44H342.2l8.1-130.65h138.06v26.37h-109.8l-4.64 77.05q20.16-15.51 50.15-15.51 35.85 0 57.06 21.02 21.37 21.03 21.37 54.82m197.35-42.41q0 60.85-21.54 92.9-21.37 32.07-63.26 32.07t-62.91-31.89-21.03-93.08q0-62.56 20.34-93.76 20.51-31.2 64.64-31.2 42.91 0 63.25 31.54 20.51 31.55 20.51 93.42m-31.54 0q0-52.57-12.24-76.18-12.06-23.61-39.98-23.61-28.62 0-41.2 23.26-12.4 23.27-12.4 76.53 0 51.71 12.57 75.67 12.76 23.96 40.34 23.96 27.4 0 40.16-24.48 12.75-24.47 12.75-75.15" style="fill:#ececec;stroke:none;fill-opacity:1"/></g><g aria-label="60" class="TextShape" style="fill:#ececec;fill-opacity:1"><path d="M501.8 418.54q0 38.44-20.85 60.67t-57.57 22.24q-41.02 0-62.74-30.51-21.71-30.5-21.71-88.77 0-63.08 22.58-96.87 22.57-33.78 64.29-33.78 54.98 0 69.29 49.47l-29.65 5.34q-9.13-29.64-39.99-29.64-26.54 0-41.2 24.82-14.47 24.64-14.47 71.53 8.44-15.69 23.78-23.79 15.35-8.27 35.17-8.27 33.6 0 53.26 21.03 19.82 21.02 19.82 56.53m-31.53 1.38q0-26.37-12.93-40.68t-36.02-14.3q-21.72 0-35.17 12.75-13.27 12.58-13.27 34.82 0 28.1 13.79 46.02 13.96 17.92 35.68 17.92 22.4 0 35.16-15 12.76-15.16 12.76-41.53m229.57-43.44q0 60.85-21.54 92.9-21.37 32.07-63.26 32.07t-62.91-31.89-21.03-93.08q0-62.56 20.34-93.76 20.51-31.2 64.64-31.2 42.91 0 63.25 31.54 20.51 31.55 20.51 93.42m-31.54 0q0-52.57-12.24-76.18-12.06-23.61-39.98-23.61-28.62 0-41.2 23.26-12.4 23.27-12.4 76.53 0 51.71 12.57 75.67 12.76 23.96 40.34 23.96 27.4 0 40.16-24.48 12.75-24.47 12.75-75.15" style="fill:#ececec;stroke:none;fill-opacity:1"/></g></svg>