<svg xmlns="http://www.w3.org/2000/svg" xml:space="preserve" width="160mm" height="90mm" stroke-linejoin="round" stroke-width="28.22" viewBox="0 0 16000 9000"><path fill="#004586" d="M12915 8171h1842V1567h-1842zm-3685 0h1843V4712H9230zm-3684 0h1843V4999H5546z" style="stroke-width:28.23104167;stroke-miterlimit:4;stroke-dasharray:none;fill:#474747;fill-opacity:1"/><path fill="#004586" d="M1862 8171h1842V6437H1862z" style="fill:#4a96dc;fill-opacity:1"/><path fill="none" stroke="#b3b3b3" d="M15679 8171H941m0 150v-150m0 150v-150m3684 150v-150m0 150v-150m3684 150v-150m0 150v-150m3685 150v-150m0 150v-150m3685 150v-150m0 150v-150m-14738 0h14738m-14888 0h150m-150 0h150m-150-866h150m-150 0h150m-150-866h150m-150 0h150m-150-866h150m-150 0h150m-150-866h150m-150 0h150m-150-865h150m-150 0h150m-150-866h150m-150 0h150m-150-866h150m-150 0h150m-150-866h150m-150 0h150M791 378h150m-150 0h150m0 7793V378" style="stroke:#ececec;stroke-opacity:1"/><g aria-label="bevy-0.2" class="TextShape" style="fill:#ececec;fill-opacity:1"><path d="M2302.5 8644.89q0 97.56-68.6 97.56-21.2 0-35.34-7.59-13.96-7.75-22.75-24.82h-.34q0 5.35-.7 16.38-.68 10.86-1.03 12.58h-29.99q1.04-9.3 1.04-38.44v-217.35h31.02v72.91q0 11.2-.69 26.37h.7q8.61-17.92 22.74-25.68 14.31-7.75 35.34-7.75 35.33 0 51.88 23.78 16.72 23.79 16.72 72.05m-32.58 1.03q0-39.12-10.34-56.01t-33.61-16.9q-26.2 0-38.27 17.93-11.89 17.93-11.89 56.88 0 36.71 11.72 54.3 11.72 17.4 38.1 17.4 23.44 0 33.78-17.23 10.51-17.41 10.51-56.37m94.98 6.38q0 32.06 13.27 49.47t38.78 17.4q20.16 0 32.23-8.1 12.24-8.1 16.55-20.5l27.23 7.75q-16.72 44.13-76.01 44.13-41.37 0-63.09-24.65-21.54-24.65-21.54-73.26 0-46.19 21.54-70.84 21.72-24.64 61.88-24.64 82.22 0 82.22 99.1v4.14zm101-23.78q-2.59-29.48-15-42.92-12.4-13.62-35.68-13.62-22.58 0-35.85 15.17-13.1 15-14.13 41.37zM2619.3 8739h-36.71l-67.74-186.5h33.1l41.02 121.35q2.24 6.9 11.89 40.85l6.03-20.17 6.72-20.34 42.4-121.69h32.93zm103.76 73.25q-12.75 0-21.37-1.9v-23.26q6.55 1.03 14.48 1.03 28.96 0 45.85-42.57l2.93-7.41L2691 8552.5h33.09l39.3 103.08q.86 2.4 2.07 5.86 1.2 3.27 7.75 22.4 6.55 19.14 7.07 21.38l12.06-33.96 40.86-118.76h32.74l-71.7 186.5q-11.55 29.82-21.54 44.3-10 14.65-22.24 21.72-12.06 7.23-27.4 7.23m159.27-153.23v-27.57h86.18v27.57zm284.4-41.54q0 60.85-21.55 92.9-21.37 32.07-63.25 32.07-41.89 0-62.92-31.89t-21.03-93.08q0-62.56 20.34-93.76 20.51-31.2 64.64-31.2 42.92 0 63.26 31.54 20.5 31.55 20.5 93.42m-31.54 0q0-52.57-12.24-76.18-12.07-23.61-39.99-23.61-28.61 0-41.2 23.26-12.4 23.27-12.4 76.53 0 51.71 12.58 75.67 12.75 23.96 40.33 23.96 27.4 0 40.16-24.48 12.76-24.47 12.76-75.15m77.57 121.52v-37.75h33.61V8739Zm83.6 0v-21.89q8.79-20.17 21.37-35.5 12.75-15.52 26.71-27.93 13.97-12.58 27.58-23.27 13.8-10.69 24.82-21.37t17.76-22.4q6.9-11.73 6.9-26.55 0-20-11.73-31.03t-32.58-11.03q-19.82 0-32.75 10.86-12.75 10.69-15 30.16l-31.7-2.93q3.44-29.13 24.64-46.36 21.38-17.24 54.81-17.24 36.72 0 56.37 17.4 19.82 17.25 19.82 49.13 0 14.14-6.55 28.1-6.38 13.96-19.13 27.92t-48.78 43.26q-19.82 16.2-31.55 29.3-11.72 12.93-16.89 25h126.69V8739Z" style="fill:#ececec;stroke:none;fill-opacity:1"/></g><g aria-label="legion" class="TextShape" style="fill:#ececec;fill-opacity:1"><path d="M6041.79 8739v-255.79h31.02V8739Zm102.21-86.7q0 32.06 13.27 49.47t38.78 17.4q20.17 0 32.23-8.1 12.24-8.1 16.55-20.5l27.23 7.75q-16.72 44.13-76 44.13-41.38 0-63.1-24.65-21.54-24.65-21.54-73.26 0-46.19 21.55-70.84 21.71-24.64 61.87-24.64 82.22 0 82.22 99.1v4.14zm101-23.78q-2.58-29.48-15-42.92-12.4-13.62-35.67-13.62-22.58 0-35.85 15.17-13.1 15-14.14 41.37zm142.2 183.73q-30.5 0-48.6-12.06-18.1-11.9-23.27-33.96l31.2-4.48q3.1 12.93 13.61 19.82 10.69 7.07 27.92 7.07 46.37 0 46.37-54.3v-29.99h-.35q-8.79 17.93-24.13 27.07-15.34 8.96-35.85 8.96-34.3 0-50.5-22.75-16.03-22.75-16.03-71.53 0-49.47 17.24-72.91 17.4-23.62 52.74-23.62 19.82 0 34.3 9.14 14.65 8.96 22.58 25.68h.34q0-5.17.7-17.93.68-12.75 1.37-13.96h29.48q-1.04 9.31-1.04 38.61v142.55q0 78.6-78.08 78.6m47.23-166.5q0-22.75-6.2-39.12-6.21-16.55-17.59-25.17-11.2-8.8-25.5-8.8-23.8 0-34.65 17.25-10.86 17.23-10.86 55.84 0 38.27 10.17 54.99t34.82 16.71q14.65 0 26.02-8.61 11.38-8.62 17.58-24.65 6.21-16.2 6.21-38.44m78.25-132.9v-29.65h31.03v29.65zm0 226.14v-186.5h31.03V8739Zm236.32-93.42q0 48.95-21.55 72.9-21.55 23.97-62.57 23.97-40.85 0-61.7-24.82-20.86-25-20.86-72.05 0-96.52 83.6-96.52 42.74 0 62.9 23.6 20.17 23.45 20.17 72.92m-32.58 0q0-38.61-11.55-56.02-11.38-17.58-38.44-17.58-27.23 0-39.47 17.93-12.07 17.75-12.07 55.67 0 36.88 11.9 55.5 12.06 18.44 37.74 18.44 27.93 0 39.82-17.92 12.07-17.93 12.07-56.02m189.61 93.42v-118.24q0-18.44-3.62-28.61t-11.55-14.65q-7.93-4.49-23.27-4.49-22.4 0-35.34 15.34-12.92 15.34-12.92 42.58V8739h-31.03v-146.68q0-32.58-1.03-39.82h29.3q.17.86.34 4.66.18 3.79.35 8.79.34 4.82.69 18.44h.52q10.68-19.3 24.64-27.23 14.14-8.1 35-8.1 30.67 0 44.8 15.34 14.31 15.16 14.31 50.33V8739Z" style="fill:#ececec;stroke:none;fill-opacity:1"/></g><g aria-label="hecs" class="TextShape" style="fill:#ececec;fill-opacity:1"><path d="M9835.64 8584.39q10-18.27 23.96-26.72 14.13-8.61 35.68-8.61 30.33 0 44.64 15.16 14.48 15 14.48 50.5V8739h-31.2v-118.24q0-19.65-3.62-29.13-3.62-9.65-11.9-14.13-8.27-4.49-22.92-4.49-21.89 0-35.16 15.17-13.1 15.17-13.1 40.85V8739h-31.02v-255.79h31.02v66.54q0 10.5-.69 21.71-.52 11.2-.69 12.93zm189.26 67.91q0 32.06 13.27 49.47t38.78 17.4q20.16 0 32.23-8.1 12.24-8.1 16.55-20.5l27.23 7.75q-16.72 44.13-76.01 44.13-41.37 0-63.09-24.65-21.54-24.65-21.54-73.26 0-46.19 21.54-70.84 21.72-24.64 61.88-24.64 82.22 0 82.22 99.1v4.14zm101-23.78q-2.59-29.48-15-42.92-12.4-13.62-35.68-13.62-22.57 0-35.85 15.17-13.1 15-14.13 41.37zm95.14 16.37q0 37.23 11.72 55.16t35.34 17.92q16.55 0 27.58-8.96 11.2-8.96 13.79-27.58l31.37 2.07q-3.62 26.89-22.93 42.92t-48.95 16.03q-39.13 0-59.81-24.65-20.51-24.82-20.51-72.22 0-47.06 20.68-71.7 20.69-24.82 59.3-24.82 28.6 0 47.4 14.82 18.96 14.82 23.78 40.85l-31.89 2.41q-2.4-15.51-12.23-24.65t-27.93-9.13q-24.64 0-35.68 16.37t-11.03 55.16m292.85 42.57q0 26.38-20 40.68-19.82 14.3-55.67 14.3-34.82 0-53.78-11.37-18.78-11.55-24.47-35.85l27.4-5.34q3.97 15 16.38 22.06 12.4 6.9 34.47 6.9 23.61 0 34.47-7.25 11.03-7.23 11.03-21.71 0-11.03-7.58-17.93t-24.47-11.38l-22.24-5.86q-26.72-6.89-38.1-13.44-11.2-6.72-17.57-16.2t-6.38-23.27q0-25.51 18.1-38.78 18.27-13.45 53.09-13.45 30.85 0 48.95 10.86 18.27 10.86 23.1 34.82l-27.93 3.45q-2.59-12.41-13.96-18.96-11.2-6.73-30.16-6.73-21.03 0-31.03 6.38t-10 19.3q0 7.94 4.14 13.1 4.14 5.18 12.24 8.8t34.13 10q24.64 6.2 35.5 11.54 10.86 5.17 17.07 11.55 6.37 6.38 9.82 14.82 3.45 8.28 3.45 18.96" style="fill:#ececec;stroke:none;fill-opacity:1"/></g><g aria-label="bevy-0.1" class="TextShape" style="fill:#ececec;fill-opacity:1"><path d="M13356.5 8644.89q0 97.56-68.6 97.56-21.2 0-35.34-7.59-13.96-7.75-22.75-24.82h-.34q0 5.35-.7 16.38-.68 10.86-1.03 12.58h-29.99q1.04-9.3 1.04-38.44v-217.35h31.02v72.91q0 11.2-.69 26.37h.7q8.61-17.92 22.74-25.68 14.31-7.75 35.34-7.75 35.33 0 51.88 23.78 16.72 23.79 16.72 72.05m-32.58 1.03q0-39.12-10.34-56.01t-33.61-16.9q-26.2 0-38.27 17.93-11.89 17.93-11.89 56.88 0 36.71 11.72 54.3 11.72 17.4 38.1 17.4 23.44 0 33.78-17.23 10.51-17.41 10.51-56.37m94.98 6.38q0 32.06 13.27 49.47t38.78 17.4q20.16 0 32.23-8.1 12.24-8.1 16.55-20.5l27.23 7.75q-16.72 44.13-76.01 44.13-41.37 0-63.09-24.65-21.54-24.65-21.54-73.26 0-46.19 21.54-70.84 21.72-24.64 61.88-24.64 82.22 0 82.22 99.1v4.14zm101-23.78q-2.59-29.48-15-42.92-12.4-13.62-35.68-13.62-22.57 0-35.85 15.17-13.1 15-14.13 41.37zm153.4 110.48h-36.71l-67.74-186.5h33.1l41.02 121.35q2.24 6.9 11.89 40.85l6.03-20.17 6.72-20.34 42.4-121.69h32.93zm103.77 73.25q-12.76 0-21.38-1.9v-23.26q6.55 1.03 14.48 1.03 28.96 0 45.85-42.57l2.93-7.41-73.95-185.64h33.1l39.3 103.08q.86 2.4 2.07 5.86 1.2 3.27 7.75 22.4 6.55 19.14 7.07 21.38l12.06-33.96 40.85-118.76h32.75l-71.7 186.5q-11.55 29.82-21.54 44.3-10 14.65-22.24 21.72-12.06 7.23-27.4 7.23m159.26-153.23v-27.57h86.18v27.57zm284.4-41.54q0 60.85-21.55 92.9-21.37 32.07-63.26 32.07t-62.9-31.89q-21.04-31.89-21.04-93.08 0-62.56 20.34-93.76 20.51-31.2 64.64-31.2 42.92 0 63.26 31.54 20.5 31.55 20.5 93.42m-31.54 0q0-52.57-12.24-76.18-12.07-23.61-40-23.61-28.6 0-41.18 23.26-12.42 23.27-12.42 76.53 0 51.71 12.59 75.67 12.75 23.96 40.33 23.96 27.4 0 40.16-24.48 12.76-24.47 12.76-75.15m77.57 121.52v-37.75h33.61V8739Zm92.73 0v-26.37h61.88v-186.84l-54.81 39.12v-29.3l57.4-39.47h28.6v216.49h59.13V8739Z" style="fill:#ececec;stroke:none;fill-opacity:1"/></g><g aria-label="0" class="TextShape" style="fill:#ececec;fill-opacity:1"><path d="M688.53 8170.48q0 60.85-21.54 92.9-21.38 32.07-63.26 32.07t-62.91-31.89-21.03-93.08q0-62.56 20.34-93.76 20.5-31.2 64.63-31.2 42.92 0 63.26 31.54 20.51 31.55 20.51 93.42m-31.54 0q0-52.57-12.24-76.18-12.06-23.61-39.99-23.61-28.6 0-41.2 23.26-12.4 23.27-12.4 76.53 0 51.71 12.58 75.67 12.76 23.96 40.33 23.96 27.41 0 40.17-24.48 12.75-24.47 12.75-75.15" style="fill:#ececec;stroke:none;fill-opacity:1"/></g><g aria-label="5" class="TextShape" style="fill:#ececec;fill-opacity:1"><path d="M687.5 7346.89q0 38.43-22.93 60.5-22.75 22.06-63.25 22.06-33.96 0-54.81-14.83t-26.38-42.91l31.37-3.62q9.83 36.02 50.5 36.02 25 0 39.13-15 14.14-15.16 14.14-41.54 0-22.92-14.31-37.05-14.13-14.14-38.26-14.14-12.59 0-23.45 3.97-10.85 3.96-21.71 13.44H527.2l8.1-130.65h138.06v26.37h-109.8l-4.64 77.05q20.16-15.51 50.15-15.51 35.85 0 57.06 21.02 21.37 21.03 21.37 54.82" style="fill:#ececec;stroke:none;fill-opacity:1"/></g><g aria-label="10" class="TextShape" style="fill:#ececec;fill-opacity:1"><path d="M347.89 6560v-26.37h61.88v-186.84l-54.81 39.12v-29.3l57.4-39.47h28.6v216.49h59.13V6560Zm351.96-121.52q0 60.85-21.54 92.9-21.37 32.07-63.26 32.07t-62.91-31.89-21.03-93.08q0-62.56 20.34-93.76 20.51-31.2 64.64-31.2 42.91 0 63.25 31.54 20.51 31.55 20.51 93.42m-31.54 0q0-52.57-12.24-76.18-12.06-23.61-39.98-23.61-28.62 0-41.2 23.26-12.4 23.27-12.4 76.53 0 51.71 12.57 75.67 12.76 23.96 40.34 23.96 27.4 0 40.16-24.48 12.75-24.47 12.75-75.15" style="fill:#ececec;stroke:none;fill-opacity:1"/></g><g aria-label="15" class="TextShape" style="fill:#ececec;fill-opacity:1"><path d="M347.89 5694v-26.37h61.88v-186.84l-54.81 39.12v-29.3l57.4-39.47h28.6v216.49h59.13V5694Zm350.93-79.11q0 38.43-22.92 60.5-22.76 22.06-63.26 22.06-33.96 0-54.81-14.83t-26.37-42.91l31.37-3.62q9.82 36.02 50.5 36.02 25 0 39.12-15 14.14-15.16 14.14-41.54 0-22.92-14.3-37.05-14.14-14.14-38.27-14.14-12.58 0-23.44 3.97-10.86 3.96-21.72 13.44h-30.34l8.1-130.65H684.7v26.37H574.9l-4.65 77.05q20.16-15.51 50.16-15.51 35.85 0 57.05 21.02 21.37 21.03 21.37 54.82" style="fill:#ececec;stroke:none;fill-opacity:1"/></g><g aria-label="20" class="TextShape" style="fill:#ececec;fill-opacity:1"><path d="M338.75 4828v-21.89q8.8-20.17 21.38-35.5 12.75-15.52 26.71-27.93 13.96-12.58 27.58-23.27 13.79-10.69 24.82-21.37t17.75-22.4q6.9-11.73 6.9-26.55 0-20-11.72-31.03t-32.58-11.03q-19.82 0-32.75 10.86-12.75 10.69-15 30.16l-31.7-2.93q3.44-29.13 24.64-46.36 21.37-17.24 54.81-17.24 36.72 0 56.36 17.4 19.83 17.25 19.83 49.13 0 14.14-6.55 28.1-6.38 13.96-19.14 27.92-12.75 13.96-48.77 43.26-19.83 16.2-31.55 29.3-11.72 12.93-16.89 25h126.69V4828Zm361.1-121.52q0 60.85-21.54 92.9-21.37 32.07-63.26 32.07t-62.91-31.89-21.03-93.08q0-62.56 20.34-93.76 20.51-31.2 64.64-31.2 42.91 0 63.25 31.54 20.51 31.55 20.51 93.42m-31.54 0q0-52.57-12.24-76.18-12.06-23.61-39.98-23.61-28.62 0-41.2 23.26-12.4 23.27-12.4 76.53 0 51.71 12.57 75.67 12.76 23.96 40.34 23.96 27.4 0 40.16-24.48 12.75-24.47 12.75-75.15" style="fill:#ececec;stroke:none;fill-opacity:1"/></g><g aria-label="25" class="TextShape" style="fill:#ececec;fill-opacity:1"><path d="M338.75 3962v-21.89q8.8-20.17 21.38-35.5 12.75-15.52 26.71-27.93 13.96-12.58 27.58-23.27 13.79-10.69 24.82-21.37t17.75-22.4q6.9-11.73 6.9-26.55 0-20-11.72-31.03t-32.58-11.03q-19.82 0-32.75 10.86-12.75 10.69-15 30.16l-31.7-2.93q3.44-29.13 24.64-46.36 21.37-17.24 54.81-17.24 36.72 0 56.36 17.4 19.83 17.25 19.83 49.13 0 14.14-6.55 28.1-6.38 13.96-19.14 27.92-12.75 13.96-48.77 43.26-19.83 16.2-31.55 29.3-11.72 12.93-16.89 25h126.69V3962Zm360.07-79.11q0 38.43-22.92 60.5-22.76 22.06-63.26 22.06-33.96 0-54.81-14.83t-26.37-42.91l31.37-3.62q9.82 36.02 50.5 36.02 25 0 39.12-15 14.14-15.16 14.14-41.54 0-22.92-14.3-37.05-14.14-14.14-38.27-14.14-12.58 0-23.44 3.97-10.86 3.96-21.72 13.44h-30.34l8.1-130.65H684.7v26.37H574.9l-4.65 77.05q20.16-15.51 50.16-15.51 35.85 0 57.05 21.02 21.37 21.03 21.37 54.82" style="fill:#ececec;stroke:none;fill-opacity:1"/></g><g aria-label="30" class="TextShape" style="fill:#ececec;fill-opacity:1"><path d="M501.8 3028.95q0 33.61-21.36 52.05-21.38 18.45-61.02 18.45-36.89 0-58.95-16.55-21.89-16.72-26.03-49.3l32.06-2.93q6.2 43.1 52.92 43.1 23.44 0 36.71-11.55 13.45-11.55 13.45-34.3 0-19.83-15.34-30.86-15.17-11.2-43.96-11.2H392.7v-26.89h16.9q25.5 0 39.47-11.03 14.13-11.2 14.13-30.85 0-19.48-11.55-30.68-11.37-11.38-33.95-11.38-20.52 0-33.27 10.51-12.58 10.52-14.65 29.65l-31.2-2.41q3.45-29.82 24.65-46.54 21.37-16.72 54.81-16.72 36.54 0 56.7 17.06 20.35 16.9 20.35 47.23 0 23.27-13.1 37.92-12.93 14.48-37.75 19.65v.7q27.23 2.92 42.4 18.26t15.17 38.61m198.04-54.47q0 60.85-21.54 92.9-21.37 32.07-63.26 32.07t-62.91-31.89-21.03-93.08q0-62.56 20.34-93.76 20.51-31.2 64.64-31.2 42.91 0 63.25 31.54 20.51 31.55 20.51 93.42m-31.54 0q0-52.57-12.24-76.18-12.06-23.61-39.98-23.61-28.62 0-41.2 23.26-12.4 23.27-12.4 76.53 0 51.71 12.57 75.67 12.76 23.96 40.34 23.96 27.4 0 40.16-24.48 12.75-24.47 12.75-75.15" style="fill:#ececec;stroke:none;fill-opacity:1"/></g><g aria-label="35" class="TextShape" style="fill:#ececec;fill-opacity:1"><path d="M501.8 2162.95q0 33.61-21.36 52.05-21.38 18.45-61.02 18.45-36.89 0-58.95-16.55-21.89-16.72-26.03-49.3l32.06-2.93q6.2 43.1 52.92 43.1 23.44 0 36.71-11.55 13.45-11.55 13.45-34.3 0-19.83-15.34-30.86-15.17-11.2-43.96-11.2H392.7v-26.89h16.9q25.5 0 39.47-11.03 14.13-11.2 14.13-30.85 0-19.48-11.55-30.68-11.37-11.38-33.95-11.38-20.52 0-33.27 10.51-12.58 10.52-14.65 29.65l-31.2-2.41q3.45-29.82 24.65-46.54 21.37-16.72 54.81-16.72 36.54 0 56.7 17.06 20.35 16.9 20.35 47.23 0 23.27-13.1 37.92-12.93 14.48-37.75 19.65v.7q27.23 2.92 42.4 18.26t15.17 38.61m197.01-12.06q0 38.43-22.92 60.5-22.76 22.06-63.26 22.06-33.96 0-54.81-14.83t-26.37-42.91l31.37-3.62q9.82 36.02 50.5 36.02 25 0 39.12-15 14.14-15.16 14.14-41.54 0-22.92-14.3-37.05-14.14-14.14-38.27-14.14-12.58 0-23.44 3.97-10.86 3.96-21.72 13.44h-30.34l8.1-130.65H684.7v26.37H574.9l-4.65 77.05q20.16-15.51 50.16-15.51 35.85 0 57.05 21.02 21.37 21.03 21.37 54.82" style="fill:#ececec;stroke:none;fill-opacity:1"/></g><g aria-label="40" class="TextShape" style="fill:#ececec;fill-opacity:1"><path d="M472.85 1309.02V1364h-29.3v-54.98H329.1v-24.13l111.18-163.75h32.57v163.4h34.13v24.48zm-29.3-152.89q-.34 1.03-4.83 9.14-4.48 8.1-6.72 11.37l-62.22 91.7-9.3 12.75-2.77 3.45h85.84zm256.3 86.35q0 60.85-21.54 92.9-21.37 32.07-63.26 32.07t-62.91-31.89-21.03-93.08q0-62.56 20.34-93.76 20.51-31.2 64.64-31.2 42.91 0 63.25 31.54 20.51 31.55 20.51 93.42m-31.54 0q0-52.57-12.24-76.18-12.06-23.61-39.98-23.61-28.62 0-41.2 23.26-12.4 23.27-12.4 76.53 0 51.71 12.57 75.67 12.76 23.96 40.34 23.96 27.4 0 40.16-24.48 12.75-24.47 12.75-75.15" style="fill:#ececec;stroke:none;fill-opacity:1"/></g><g aria-label="45" class="TextShape" style="fill:#ececec;fill-opacity:1"><path d="M472.85 443.02V498h-29.3v-54.98H329.1v-24.13l111.18-163.75h32.57v163.4h34.13v24.48zm-29.3-152.89q-.34 1.03-4.83 9.14-4.48 8.1-6.72 11.37l-62.22 91.7-9.3 12.75-2.77 3.45h85.84zm255.27 128.76q0 38.43-22.92 60.5-22.76 22.06-63.26 22.06-33.96 0-54.81-14.83t-26.37-42.91l31.37-3.62q9.82 36.02 50.5 36.02 25 0 39.12-15 14.14-15.16 14.14-41.54 0-22.92-14.3-37.05-14.14-14.14-38.27-14.14-12.58 0-23.44 3.97-10.86 3.96-21.72 13.44h-30.34l8.1-130.65H684.7v26.37H574.9l-4.65 77.05q20.16-15.51 50.16-15.51 35.85 0 57.05 21.02 21.37 21.03 21.37 54.82" style="fill:#ececec;stroke:none;fill-opacity:1"/></g></svg>