<svg xmlns="http://www.w3.org/2000/svg" viewBox="0 0 640 512"><path d="M256 336h-.02c0-16.18 1.34-8.73-85.05-181.51-17.65-35.29-68.19-35.36-85.87 0C-2.06 328.75.02 320.33.02 336H0c0 44.18 57.31 80 128 80s128-35.82 128-80M128 176l72 144H56zm511.98 160c0-16.18 1.34-8.73-85.05-181.51-17.65-35.29-68.19-35.36-85.87 0-87.12 174.26-85.04 165.84-85.04 181.51H384c0 44.18 57.31 80 128 80s128-35.82 128-80zM440 320l72-144 72 144zm88 128H352V153.25A80 80 0 0 0 398.39 96H528a16 16 0 0 0 16-16V48a16 16 0 0 0-16-16H383.64C369.04 12.68 346.09 0 320 0s-49.04 12.68-63.64 32H112a16 16 0 0 0-16 16v32a16 16 0 0 0 16 16h129.61A80 80 0 0 0 288 153.25V448H112a16 16 0 0 0-16 16v32a16 16 0 0 0 16 16h416a16 16 0 0 0 16-16v-32a16 16 0 0 0-16-16" style="fill:#ececec;fill-opacity:1"/></svg>