<svg xmlns="http://www.w3.org/2000/svg" xml:space="preserve" width="226mm" height="90mm" stroke-linejoin="round" stroke-width="28.22" viewBox="0 0 22600 9000"><path fill="#004586" d="M19492 8159h1744V1565h-1744zm-3489 0h1745V4203h-1745zm-3488 0h1744V1568h-1744zm-3488 0h1744V5971H9027z" style="fill:#474747;fill-opacity:1"/><path fill="#004586" d="M5538 8159h1745V6214H5538zm-3488 0h1744V6156H2050z" style="fill:#4a96dc;fill-opacity:1"/><path fill="none" stroke="#b3b3b3" d="M1178 8309v-150m0 150v-150m3488 150v-150m0 150v-150m3489 150v-150m0 150v-150m3487 150v-150m0 150v-150m3489 150v-150m0 150v-150m3489 150v-150m0 150v-150m3488 150v-150m0 150v-150m-20930 0h20930m-21080 0h150m-150 0h150m-150-1112h150m-150 0h150m-150-1112h150m-150 0h150m-150-1112h150m-150 0h150m-150-1110h150m-150 0h150m-150-1112h150m-150 0h150m-150-1112h150m-150 0h150M1028 378h150m-150 0h150m0 7781V378" style="stroke:#ececec;stroke-opacity:1"/><g aria-label="bevy 0.3 (world)" class="TextShape" style="fill:#ececec;fill-opacity:1"><path d="M1886.5 8632.89q0 97.56-68.6 97.56-21.2 0-35.34-7.59-13.96-7.75-22.75-24.82h-.34q0 5.35-.7 16.38-.68 10.86-1.03 12.58h-29.99q1.04-9.3 1.04-38.44v-217.35h31.02v72.91q0 11.2-.69 26.37h.7q8.61-17.92 22.74-25.68 14.31-7.75 35.34-7.75 35.33 0 51.88 23.78 16.72 23.79 16.72 72.05m-32.58 1.03q0-39.12-10.34-56.01t-33.61-16.9q-26.2 0-38.27 17.93-11.89 17.93-11.89 56.88 0 36.71 11.72 54.3 11.72 17.4 38.1 17.4 23.44 0 33.78-17.23 10.51-17.41 10.51-56.37m94.98 6.38q0 32.06 13.27 49.47t38.78 17.4q20.16 0 32.23-8.1 12.24-8.1 16.55-20.5l27.23 7.75q-16.72 44.13-76.01 44.13-41.37 0-63.09-24.65-21.54-24.65-21.54-73.26 0-46.19 21.54-70.84 21.72-24.64 61.88-24.64 82.22 0 82.22 99.1v4.14zm101-23.78q-2.59-29.48-15-42.92-12.4-13.62-35.68-13.62-22.58 0-35.85 15.17-13.1 15-14.13 41.37zM2203.3 8727h-36.71l-67.74-186.5h33.1l41.02 121.35q2.24 6.9 11.89 40.85l6.03-20.17 6.72-20.34 42.4-121.69h32.93zm103.76 73.25q-12.75 0-21.37-1.9v-23.26q6.55 1.03 14.48 1.03 28.96 0 45.85-42.57l2.93-7.41L2275 8540.5h33.09l39.3 103.08q.86 2.4 2.07 5.86 1.2 3.27 7.75 22.4 6.55 19.14 7.07 21.38l12.06-33.96 40.86-118.76h32.74l-71.7 186.5q-11.55 29.82-21.54 44.3-10 14.65-22.24 21.72-12.06 7.23-27.4 7.23m424.19-194.77q0 60.85-21.54 92.9-21.38 32.07-63.26 32.07-41.89 0-62.91-31.89-21.03-31.89-21.03-93.08 0-62.56 20.34-93.76 20.5-31.2 64.63-31.2 42.92 0 63.26 31.54 20.51 31.55 20.51 93.42m-31.54 0q0-52.57-12.24-76.18-12.06-23.61-39.99-23.61-28.61 0-41.2 23.26-12.4 23.27-12.4 76.53 0 51.71 12.58 75.67 12.75 23.96 40.33 23.96 27.4 0 40.16-24.48 12.76-24.47 12.76-75.15m77.56 121.52v-37.75h33.61V8727Zm246.65-67.05q0 33.61-21.37 52.05-21.37 18.45-61.02 18.45-36.88 0-58.94-16.55-21.9-16.72-26.03-49.3l32.06-2.93q6.2 43.1 52.91 43.1 23.45 0 36.72-11.55 13.44-11.55 13.44-34.3 0-19.83-15.34-30.86-15.17-11.2-43.95-11.2h-17.58v-26.89h16.89q25.5 0 39.47-11.03 14.13-11.2 14.13-30.85 0-19.48-11.54-30.68-11.38-11.38-33.96-11.38-20.51 0-33.27 10.51-12.58 10.52-14.65 29.65l-31.2-2.41q3.45-29.82 24.65-46.54 21.38-16.72 54.82-16.72 36.54 0 56.7 17.06 20.34 16.9 20.34 47.23 0 23.27-13.1 37.92-12.93 14.48-37.75 19.65v.7q27.24 2.92 42.4 18.26t15.17 38.61m135.48-24.65q0-49.81 15.51-89.45 15.69-39.65 48.1-74.64h29.98q-32.23 35.85-47.4 76.19-15 40.33-15 88.25 0 47.74 14.83 87.9 15 40.16 47.57 76.53H3223q-32.57-35.16-48.09-74.8-15.5-39.82-15.5-89.29zm298.02 91.7h-36.03l-32.57-131.86-6.2-29.13q-1.56 7.76-4.83 22.41-3.28 14.48-35.17 138.58h-35.85l-52.22-186.5h30.68l31.54 126.69q1.2 4.14 7.41 34.13l2.93-12.76 38.95-148.06h33.27l32.58 128.07 7.93 32.75 5.34-23.96 35.33-136.86h30.34zm234.07-93.42q0 48.95-21.55 72.9-21.54 23.97-62.57 23.97-40.85 0-61.7-24.82-20.86-25-20.86-72.05 0-96.52 83.6-96.52 42.74 0 62.91 23.6 20.17 23.45 20.17 72.92m-32.58 0q0-38.61-11.55-56.02-11.37-17.58-38.44-17.58-27.23 0-39.47 17.93-12.06 17.75-12.06 55.67 0 36.88 11.9 55.5 12.06 18.44 37.74 18.44 27.92 0 39.81-17.92 12.07-17.93 12.07-56.02m71.88 93.42v-143.06q0-19.65-1.04-43.44h29.3q1.38 31.72 1.38 38.1h.7q7.4-23.96 17.06-32.75 9.65-8.8 27.23-8.8 6.2 0 12.58 1.73v28.44q-6.2-1.72-16.55-1.72-19.3 0-29.47 16.71-10.17 16.55-10.17 47.58V8727Zm116.86 0v-255.79h31.02V8727Zm196.15-30q-8.62 17.93-22.93 25.7-14.13 7.75-35.16 7.75-35.33 0-52.05-23.79-16.55-23.79-16.55-72.05 0-97.55 68.6-97.55 21.2 0 35.34 7.75 14.13 7.76 22.75 24.65h.34l-.34-20.86v-77.39h31.02v217.35q0 29.13 1.04 38.44h-29.65q-.52-2.76-1.2-12.75-.52-10-.52-17.24zm-94.11-63.42q0 39.13 10.34 56.02t33.61 16.89q26.37 0 38.26-18.27 11.9-18.27 11.9-56.7 0-37.07-11.9-54.3-11.89-17.24-37.92-17.24-23.44 0-33.95 17.4-10.34 17.24-10.34 56.2m244.58 2.42q0 49.8-15.68 89.45-15.52 39.64-47.92 74.63h-30q32.41-36.2 47.4-76.18 15-40.16 15-88.25t-15.17-88.25q-15-40.16-47.22-76.19h29.99q32.58 35.17 48.09 74.98 15.51 39.64 15.51 89.11z" style="fill:#ececec;stroke:none;fill-opacity:1"/></g><g aria-label="bevy 0.3 (system)" class="TextShape" style="fill:#ececec;fill-opacity:1"><path d="M5202.5 8632.89q0 97.56-68.6 97.56-21.2 0-35.34-7.59-13.96-7.75-22.75-24.82h-.34q0 5.35-.7 16.38-.68 10.86-1.03 12.58h-29.99q1.04-9.3 1.04-38.44v-217.35h31.02v72.91q0 11.2-.69 26.37h.7q8.61-17.92 22.74-25.68 14.31-7.75 35.34-7.75 35.33 0 51.88 23.78 16.72 23.79 16.72 72.05m-32.58 1.03q0-39.12-10.34-56.01t-33.61-16.9q-26.2 0-38.27 17.93-11.89 17.93-11.89 56.88 0 36.71 11.72 54.3 11.72 17.4 38.1 17.4 23.44 0 33.78-17.23 10.51-17.41 10.51-56.37m94.98 6.38q0 32.06 13.27 49.47t38.78 17.4q20.16 0 32.23-8.1 12.24-8.1 16.55-20.5l27.23 7.75q-16.72 44.13-76.01 44.13-41.37 0-63.09-24.65-21.54-24.65-21.54-73.26 0-46.19 21.54-70.84 21.72-24.64 61.88-24.64 82.22 0 82.22 99.1v4.14zm101-23.78q-2.59-29.48-15-42.92-12.4-13.62-35.68-13.62-22.58 0-35.85 15.17-13.1 15-14.13 41.37zM5519.3 8727h-36.71l-67.74-186.5h33.1l41.02 121.35q2.24 6.9 11.89 40.85l6.03-20.17 6.72-20.34 42.4-121.69h32.93zm103.76 73.25q-12.75 0-21.37-1.9v-23.26q6.55 1.03 14.48 1.03 28.96 0 45.85-42.57l2.93-7.41L5591 8540.5h33.09l39.3 103.08q.86 2.4 2.07 5.86 1.2 3.27 7.75 22.4 6.55 19.14 7.07 21.38l12.07-33.96 40.85-118.76h32.74l-71.7 186.5q-11.55 29.82-21.54 44.3-10 14.65-22.24 21.72-12.06 7.23-27.4 7.23m424.19-194.77q0 60.85-21.54 92.9-21.38 32.07-63.26 32.07-41.89 0-62.91-31.89-21.03-31.89-21.03-93.08 0-62.56 20.34-93.76 20.5-31.2 64.63-31.2 42.92 0 63.26 31.54 20.51 31.55 20.51 93.42m-31.54 0q0-52.57-12.24-76.18-12.06-23.61-39.99-23.61-28.61 0-41.2 23.26-12.4 23.27-12.4 76.53 0 51.71 12.58 75.67 12.75 23.96 40.33 23.96 27.4 0 40.16-24.48 12.76-24.47 12.76-75.15m77.56 121.52v-37.75h33.61V8727Zm246.65-67.05q0 33.61-21.37 52.05-21.37 18.45-61.02 18.45-36.88 0-58.94-16.55-21.9-16.72-26.03-49.3l32.06-2.93q6.2 43.1 52.91 43.1 23.45 0 36.72-11.55 13.44-11.55 13.44-34.3 0-19.83-15.34-30.86-15.17-11.2-43.95-11.2h-17.58v-26.89h16.89q25.5 0 39.47-11.03 14.13-11.2 14.13-30.85 0-19.48-11.54-30.68-11.38-11.38-33.96-11.38-20.51 0-33.27 10.51-12.58 10.52-14.65 29.65l-31.2-2.41q3.45-29.82 24.65-46.54 21.38-16.72 54.82-16.72 36.54 0 56.7 17.06 20.34 16.9 20.34 47.23 0 23.27-13.1 37.92-12.93 14.48-37.75 19.65v.7q27.24 2.92 42.4 18.26t15.17 38.61m135.48-24.65q0-49.81 15.51-89.45 15.69-39.65 48.1-74.64h29.98q-32.23 35.85-47.4 76.19-15 40.33-15 88.25 0 47.74 14.83 87.9 15 40.16 47.57 76.53H6539q-32.57-35.16-48.09-74.8-15.5-39.82-15.5-89.29zm259.4 40.16q0 26.38-19.99 40.68-19.82 14.3-55.67 14.3-34.82 0-53.78-11.37-18.78-11.55-24.47-35.85l27.4-5.34q3.97 15 16.38 22.06 12.4 6.9 34.47 6.9 23.61 0 34.47-7.25 11.03-7.23 11.03-21.71 0-11.03-7.58-17.93t-24.47-11.38l-22.24-5.86q-26.72-6.89-38.1-13.44-11.2-6.72-17.57-16.2t-6.38-23.27q0-25.51 18.1-38.78 18.27-13.45 53.09-13.45 30.85 0 48.95 10.86 18.27 10.86 23.1 34.82l-27.93 3.45q-2.59-12.41-13.96-18.96-11.2-6.73-30.16-6.73-21.03 0-31.03 6.38t-10 19.3q0 7.94 4.14 13.1 4.14 5.18 12.24 8.8t34.13 10q24.64 6.2 35.5 11.54 10.86 5.17 17.07 11.55 6.37 6.38 9.82 14.82 3.45 8.28 3.45 18.96m45.67 124.79q-12.75 0-21.37-1.9v-23.26q6.55 1.03 14.48 1.03 28.96 0 45.85-42.57l2.93-7.41-73.95-185.64h33.1l39.3 103.08q.86 2.4 2.07 5.86 1.2 3.27 7.75 22.4 6.55 19.14 7.07 21.38l12.06-33.96 40.85-118.76h32.75l-71.7 186.5q-11.55 29.82-21.55 44.3-10 14.65-22.23 21.72-12.07 7.23-27.4 7.23m307.31-124.79q0 26.38-19.99 40.68-19.82 14.3-55.67 14.3-34.82 0-53.78-11.37-18.78-11.55-24.47-35.85l27.4-5.34q3.97 15 16.38 22.06 12.4 6.9 34.47 6.9 23.61 0 34.47-7.25 11.03-7.23 11.03-21.71 0-11.03-7.58-17.93t-24.47-11.38l-22.24-5.86q-26.72-6.89-38.1-13.44-11.2-6.72-17.57-16.2t-6.38-23.27q0-25.51 18.1-38.78 18.27-13.45 53.09-13.45 30.85 0 48.95 10.86 18.27 10.86 23.1 34.82l-27.93 3.45q-2.59-12.41-13.96-18.96-11.2-6.73-30.16-6.73-21.03 0-31.03 6.38t-10 19.3q0 7.94 4.14 13.1 4.14 5.18 12.24 8.8t34.13 10q24.64 6.2 35.5 11.54 10.86 5.17 17.07 11.55 6.37 6.38 9.82 14.82 3.45 8.28 3.45 18.96m108.24 50.16q-15.34 4.14-31.37 4.14-37.23 0-37.23-42.23v-124.45h-21.54v-22.58h22.75l9.13-41.7h20.69v41.7h34.47v22.58h-34.47v117.73q0 13.44 4.3 18.96 4.49 5.34 15.35 5.34 6.2 0 17.92-2.41zm50.16-85.32q0 32.06 13.27 49.47t38.78 17.4q20.17 0 32.24-8.1 12.23-8.1 16.54-20.5l27.24 7.75q-16.72 44.13-76.02 44.13-41.36 0-63.08-24.65-21.55-24.65-21.55-73.26 0-46.19 21.55-70.84 21.72-24.64 61.88-24.64 82.21 0 82.21 99.1v4.14zm101-23.78q-2.58-29.48-15-42.92-12.4-13.62-35.67-13.62-22.58 0-35.85 15.17-13.1 15-14.14 41.37zM7527.33 8727v-118.24q0-27.06-7.4-37.4-7.42-10.35-26.72-10.35-19.83 0-31.37 15.17t-11.55 42.75V8727h-30.85v-146.68q0-32.58-1.04-39.82h29.3q.17.86.35 4.66.17 3.79.34 8.79.35 4.82.7 18.44h.5q10-19.82 22.93-27.58t31.55-7.75q21.2 0 33.43 8.44 12.41 8.45 17.24 26.89h.52q9.65-18.79 23.27-27.06 13.79-8.27 33.26-8.27 28.27 0 41.02 15.34 12.93 15.34 12.93 50.33V8727h-30.68v-118.24q0-27.06-7.41-37.4t-26.72-10.35q-20.34 0-31.71 15.17-11.2 15-11.2 42.75V8727Zm257.34-91q0 49.8-15.68 89.45-15.51 39.64-47.92 74.63h-29.99q32.4-36.2 47.4-76.18 15-40.16 15-88.25t-15.17-88.25q-15-40.16-47.23-76.19h30q32.57 35.17 48.08 74.98 15.51 39.64 15.51 89.11z" style="fill:#ececec;stroke:none;fill-opacity:1"/></g><g aria-label="bevy 0.2 (world)" class="TextShape" style="fill:#ececec;fill-opacity:1"><path d="M8863.5 8632.89q0 97.56-68.6 97.56-21.2 0-35.34-7.59-13.96-7.75-22.75-24.82h-.34q0 5.35-.7 16.38-.68 10.86-1.03 12.58h-29.99q1.04-9.3 1.04-38.44v-217.35h31.02v72.91q0 11.2-.69 26.37h.7q8.61-17.92 22.74-25.68 14.31-7.75 35.34-7.75 35.33 0 51.88 23.78 16.72 23.79 16.72 72.05m-32.58 1.03q0-39.12-10.34-56.01t-33.61-16.9q-26.2 0-38.27 17.93-11.89 17.93-11.89 56.88 0 36.71 11.72 54.3 11.72 17.4 38.1 17.4 23.44 0 33.78-17.23 10.51-17.41 10.51-56.37m94.98 6.38q0 32.06 13.27 49.47t38.78 17.4q20.16 0 32.23-8.1 12.24-8.1 16.55-20.5l27.23 7.75q-16.72 44.13-76.01 44.13-41.37 0-63.09-24.65-21.54-24.65-21.54-73.26 0-46.19 21.54-70.84 21.72-24.64 61.88-24.64 82.22 0 82.22 99.1v4.14zm101-23.78q-2.59-29.48-15-42.92-12.4-13.62-35.68-13.62-22.58 0-35.85 15.17-13.1 15-14.13 41.37zM9180.3 8727h-36.71l-67.74-186.5h33.1l41.02 121.35q2.24 6.9 11.89 40.85l6.03-20.17 6.72-20.34 42.4-121.69h32.93zm103.76 73.25q-12.75 0-21.37-1.9v-23.26q6.55 1.03 14.48 1.03 28.96 0 45.85-42.57l2.93-7.41L9252 8540.5h33.09l39.3 103.08q.86 2.4 2.07 5.86 1.2 3.27 7.75 22.4 6.55 19.14 7.07 21.38l12.06-33.96 40.86-118.76h32.74l-71.7 186.5q-11.55 29.82-21.54 44.3-10 14.65-22.24 21.72-12.06 7.23-27.4 7.23m424.19-194.77q0 60.85-21.54 92.9-21.38 32.07-63.26 32.07-41.89 0-62.91-31.89-21.03-31.89-21.03-93.08 0-62.56 20.34-93.76 20.5-31.2 64.63-31.2 42.92 0 63.26 31.54 20.51 31.55 20.51 93.42m-31.54 0q0-52.57-12.24-76.18-12.06-23.61-39.99-23.61-28.61 0-41.2 23.26-12.4 23.27-12.4 76.53 0 51.71 12.58 75.67 12.75 23.96 40.33 23.96 27.4 0 40.16-24.48 12.76-24.47 12.76-75.15m77.56 121.52v-37.75h33.61V8727Zm83.6 0v-21.89q8.79-20.17 21.37-35.5 12.76-15.52 26.72-27.93 13.96-12.58 27.58-23.27 13.78-10.69 24.82-21.37 11.03-10.69 17.75-22.4 6.9-11.73 6.9-26.55 0-20-11.73-31.03t-32.57-11.03q-19.83 0-32.75 10.86-12.76 10.69-15 30.16l-31.71-2.93q3.44-29.13 24.65-46.36 21.37-17.24 54.8-17.24 36.72 0 56.37 17.4 19.82 17.25 19.82 49.13 0 14.14-6.55 28.1-6.38 13.96-19.13 27.92t-48.78 43.26q-19.82 16.2-31.54 29.3-11.72 12.93-16.9 25h126.7V8727Zm298.53-91.7q0-49.81 15.51-89.45 15.69-39.65 48.1-74.64h29.99q-32.24 35.85-47.4 76.19-15 40.33-15 88.25 0 47.74 14.82 87.9 15 40.16 47.58 76.53h-30q-32.57-35.16-48.09-74.8-15.5-39.82-15.5-89.29zm298.02 91.7h-36.03l-32.57-131.86-6.2-29.13q-1.56 7.76-4.83 22.41-3.28 14.48-35.17 138.58h-35.85l-52.22-186.5h30.68l31.54 126.69q1.2 4.14 7.41 34.13l2.93-12.76 38.96-148.06h33.26l32.58 128.07 7.93 32.75 5.34-23.96 35.33-136.86h30.34zm234.07-93.42q0 48.95-21.55 72.9-21.54 23.97-62.57 23.97-40.85 0-61.7-24.82-20.86-25-20.86-72.05 0-96.52 83.6-96.52 42.74 0 62.91 23.6 20.17 23.45 20.17 72.92m-32.58 0q0-38.61-11.55-56.02-11.37-17.58-38.44-17.58-27.23 0-39.47 17.93-12.06 17.75-12.06 55.67 0 36.88 11.9 55.5 12.06 18.44 37.74 18.44 27.92 0 39.81-17.92 12.07-17.93 12.07-56.02m71.88 93.42v-143.06q0-19.65-1.04-43.44h29.3q1.38 31.72 1.38 38.1h.7q7.4-23.96 17.06-32.75 9.65-8.8 27.23-8.8 6.2 0 12.58 1.73v28.44q-6.2-1.72-16.54-1.72-19.31 0-29.48 16.71-10.17 16.55-10.17 47.58V8727Zm116.86 0v-255.79h31.02V8727Zm196.15-30q-8.62 17.93-22.93 25.7-14.13 7.75-35.16 7.75-35.33 0-52.05-23.79-16.55-23.79-16.55-72.05 0-97.55 68.6-97.55 21.2 0 35.34 7.75 14.13 7.76 22.75 24.65h.34l-.34-20.86v-77.39h31.02v217.35q0 29.13 1.04 38.44h-29.65q-.52-2.76-1.2-12.75-.52-10-.52-17.24zm-94.11-63.42q0 39.13 10.34 56.02t33.61 16.89q26.37 0 38.26-18.27 11.9-18.27 11.9-56.7 0-37.07-11.9-54.3-11.89-17.24-37.92-17.24-23.44 0-33.95 17.4-10.34 17.24-10.34 56.2m244.58 2.42q0 49.8-15.68 89.45-15.52 39.64-47.92 74.63h-30q32.41-36.2 47.4-76.18 15-40.16 15-88.25t-15.16-88.25q-15-40.16-47.23-76.19h29.99q32.58 35.17 48.09 74.98 15.51 39.64 15.51 89.11z" style="fill:#ececec;stroke:none;fill-opacity:1"/></g><g aria-label="bevy 0.2 (system)" class="TextShape" style="fill:#ececec;fill-opacity:1"><path d="M12180.5 8632.89q0 97.56-68.6 97.56-21.2 0-35.34-7.59-13.96-7.75-22.75-24.82h-.34q0 5.35-.7 16.38-.68 10.86-1.03 12.58h-29.99q1.04-9.3 1.04-38.44v-217.35h31.02v72.91q0 11.2-.69 26.37h.7q8.61-17.92 22.74-25.68 14.31-7.75 35.34-7.75 35.33 0 51.88 23.78 16.72 23.79 16.72 72.05m-32.58 1.03q0-39.12-10.34-56.01t-33.61-16.9q-26.2 0-38.27 17.93-11.89 17.93-11.89 56.88 0 36.71 11.72 54.3 11.72 17.4 38.1 17.4 23.44 0 33.78-17.23 10.51-17.41 10.51-56.37m94.98 6.38q0 32.06 13.27 49.47t38.78 17.4q20.16 0 32.23-8.1 12.24-8.1 16.55-20.5l27.23 7.75q-16.72 44.13-76.01 44.13-41.37 0-63.09-24.65-21.54-24.65-21.54-73.26 0-46.19 21.54-70.84 21.72-24.64 61.88-24.64 82.22 0 82.22 99.1v4.14zm101-23.78q-2.59-29.48-15-42.92-12.4-13.62-35.68-13.62-22.57 0-35.85 15.17-13.1 15-14.13 41.37zm153.4 110.48h-36.71l-67.74-186.5h33.1l41.02 121.35q2.24 6.9 11.89 40.85l6.03-20.17 6.72-20.34 42.4-121.69h32.93zm103.77 73.25q-12.76 0-21.38-1.9v-23.26q6.55 1.03 14.48 1.03 28.96 0 45.85-42.57l2.93-7.41-73.95-185.64h33.1l39.3 103.08q.86 2.4 2.07 5.86 1.2 3.27 7.75 22.4 6.55 19.14 7.07 21.38l12.06-33.96 40.85-118.76h32.75l-71.7 186.5q-11.55 29.82-21.54 44.3-10 14.65-22.24 21.72-12.06 7.23-27.4 7.23m424.18-194.77q0 60.85-21.54 92.9-21.38 32.07-63.26 32.07-41.89 0-62.91-31.89-21.03-31.89-21.03-93.08 0-62.56 20.34-93.76 20.5-31.2 64.63-31.2 42.92 0 63.26 31.54 20.51 31.55 20.51 93.42m-31.54 0q0-52.57-12.24-76.18-12.06-23.61-39.99-23.61-28.61 0-41.2 23.26-12.4 23.27-12.4 76.53 0 51.71 12.58 75.67 12.76 23.96 40.33 23.96 27.4 0 40.16-24.48 12.76-24.47 12.76-75.15m77.56 121.52v-37.75h33.61V8727Zm83.6 0v-21.89q8.79-20.17 21.37-35.5 12.76-15.52 26.72-27.93 13.96-12.58 27.58-23.27 13.78-10.69 24.82-21.37 11.03-10.69 17.75-22.4 6.9-11.73 6.9-26.55 0-20-11.73-31.03t-32.57-11.03q-19.82 0-32.75 10.86-12.76 10.69-15 30.16l-31.71-2.93q3.44-29.13 24.65-46.36 21.37-17.24 54.8-17.24 36.72 0 56.37 17.4 19.82 17.25 19.82 49.13 0 14.14-6.55 28.1-6.38 13.96-19.13 27.92t-48.78 43.26q-19.82 16.2-31.54 29.3-11.72 12.93-16.9 25h126.7V8727Zm298.53-91.7q0-49.81 15.51-89.45 15.69-39.65 48.1-74.64h29.99q-32.24 35.85-47.4 76.19-15 40.33-15 88.25 0 47.74 14.82 87.9 15 40.16 47.58 76.53h-30q-32.57-35.16-48.09-74.8-15.5-39.82-15.5-89.29zm259.4 40.16q0 26.38-19.99 40.68-19.82 14.3-55.67 14.3-34.82 0-53.78-11.37-18.78-11.55-24.47-35.85l27.4-5.34q3.97 15 16.38 22.06 12.4 6.9 34.47 6.9 23.61 0 34.47-7.25 11.03-7.23 11.03-21.71 0-11.03-7.58-17.93t-24.48-11.38l-22.23-5.86q-26.72-6.89-38.1-13.44-11.2-6.72-17.57-16.2t-6.38-23.27q0-25.51 18.1-38.78 18.27-13.45 53.08-13.45 30.86 0 48.96 10.86 18.27 10.86 23.1 34.82l-27.93 3.45q-2.59-12.41-13.96-18.96-11.2-6.73-30.17-6.73-21.02 0-31.02 6.38t-10 19.3q0 7.94 4.14 13.1 4.14 5.18 12.24 8.8t34.12 10q24.65 6.2 35.51 11.54 10.86 5.17 17.07 11.55 6.37 6.38 9.82 14.82 3.45 8.28 3.45 18.96m45.67 124.79q-12.75 0-21.37-1.9v-23.26q6.55 1.03 14.48 1.03 28.96 0 45.85-42.57l2.93-7.41-73.95-185.64h33.1l39.3 103.08q.86 2.4 2.07 5.86 1.2 3.27 7.75 22.4 6.55 19.14 7.07 21.38l12.06-33.96 40.85-118.76h32.75l-71.7 186.5q-11.55 29.82-21.54 44.3-10 14.65-22.24 21.72-12.06 7.23-27.4 7.23m307.31-124.79q0 26.38-19.99 40.68-19.82 14.3-55.67 14.3-34.82 0-53.78-11.37-18.78-11.55-24.47-35.85l27.4-5.34q3.97 15 16.38 22.06 12.4 6.9 34.47 6.9 23.61 0 34.47-7.25 11.03-7.23 11.03-21.71 0-11.03-7.58-17.93t-24.48-11.38l-22.23-5.86q-26.72-6.89-38.1-13.44-11.2-6.72-17.57-16.2t-6.38-23.27q0-25.51 18.1-38.78 18.27-13.45 53.08-13.45 30.86 0 48.96 10.86 18.27 10.86 23.1 34.82l-27.93 3.45q-2.59-12.41-13.96-18.96-11.2-6.73-30.17-6.73-21.02 0-31.02 6.38t-10 19.3q0 7.94 4.14 13.1 4.14 5.18 12.24 8.8t34.12 10q24.65 6.2 35.51 11.54 10.86 5.17 17.07 11.55 6.37 6.38 9.82 14.82 3.45 8.28 3.45 18.96m108.24 50.16q-15.34 4.14-31.37 4.14-37.23 0-37.23-42.23v-124.45h-21.54v-22.58h22.75l9.13-41.7h20.69v41.7h34.47v22.58h-34.47v117.73q0 13.44 4.3 18.96 4.49 5.34 15.35 5.34 6.2 0 17.92-2.41zm50.16-85.32q0 32.06 13.27 49.47t38.78 17.4q20.17 0 32.24-8.1 12.23-8.1 16.54-20.5l27.24 7.75q-16.72 44.13-76.02 44.13-41.36 0-63.08-24.65-21.55-24.65-21.55-73.26 0-46.19 21.55-70.84 21.72-24.64 61.88-24.64 82.21 0 82.21 99.1v4.14zm101-23.78q-2.58-29.48-15-42.92-12.4-13.62-35.67-13.62-22.58 0-35.85 15.17-13.1 15-14.14 41.37zm180.12 110.48v-118.24q0-27.06-7.4-37.4-7.42-10.35-26.72-10.35-19.82 0-31.37 15.17t-11.55 42.75V8727h-30.86v-146.68q0-32.58-1.03-39.82h29.3q.18.86.35 4.66.17 3.79.34 8.79.35 4.82.7 18.44h.5q10-19.82 22.93-27.58t31.55-7.75q21.2 0 33.43 8.44 12.41 8.45 17.24 26.89h.52q9.65-18.79 23.27-27.06 13.79-8.27 33.26-8.27 28.27 0 41.03 15.34 12.92 15.34 12.92 50.33V8727h-30.68v-118.24q0-27.06-7.41-37.4t-26.72-10.35q-20.34 0-31.71 15.17-11.2 15-11.2 42.75V8727Zm257.34-91q0 49.8-15.68 89.45-15.51 39.64-47.92 74.63h-29.99q32.4-36.2 47.4-76.18 15-40.16 15-88.25t-15.17-88.25q-15-40.16-47.23-76.19h30q32.57 35.17 48.08 74.98 15.51 39.64 15.51 89.11z" style="fill:#ececec;stroke:none;fill-opacity:1"/></g><g aria-label="legion 0.3.1 (world)" class="TextShape" style="fill:#ececec;fill-opacity:1"><path d="M15457.79 8727v-255.79h31.02V8727Zm102.21-86.7q0 32.06 13.27 49.47t38.78 17.4q20.17 0 32.23-8.1 12.24-8.1 16.55-20.5l27.23 7.75q-16.72 44.13-76 44.13-41.38 0-63.1-24.65-21.54-24.65-21.54-73.26 0-46.19 21.55-70.84 21.71-24.64 61.88-24.64 82.21 0 82.21 99.1v4.14zm101-23.78q-2.58-29.48-15-42.92-12.4-13.62-35.67-13.62-22.58 0-35.85 15.17-13.1 15-14.14 41.37zm142.2 183.73q-30.5 0-48.6-12.06-18.1-11.9-23.27-33.96l31.2-4.48q3.1 12.93 13.61 19.82 10.69 7.07 27.92 7.07 46.37 0 46.37-54.3v-29.99h-.34q-8.8 17.93-24.14 27.07-15.34 8.96-35.85 8.96-34.3 0-50.5-22.75-16.03-22.75-16.03-71.53 0-49.47 17.24-72.91 17.4-23.62 52.74-23.62 19.82 0 34.3 9.14 14.65 8.96 22.58 25.68h.34q0-5.17.7-17.93.68-12.75 1.37-13.96h29.48q-1.04 9.31-1.04 38.61v142.55q0 78.6-78.08 78.6m47.23-166.5q0-22.75-6.2-39.12-6.21-16.55-17.59-25.17-11.2-8.8-25.5-8.8-23.8 0-34.65 17.25-10.86 17.23-10.86 55.84 0 38.27 10.17 54.99t34.82 16.71q14.65 0 26.02-8.61 11.38-8.62 17.58-24.65 6.21-16.2 6.21-38.44m78.25-132.9v-29.65h31.03v29.65zm0 226.14v-186.5h31.03V8727Zm236.32-93.42q0 48.95-21.55 72.9-21.55 23.97-62.57 23.97-40.85 0-61.7-24.82-20.86-25-20.86-72.05 0-96.52 83.6-96.52 42.74 0 62.9 23.6 20.17 23.45 20.17 72.92m-32.58 0q0-38.61-11.55-56.02-11.38-17.58-38.44-17.58-27.23 0-39.47 17.93-12.07 17.75-12.07 55.67 0 36.88 11.9 55.5 12.06 18.44 37.74 18.44 27.93 0 39.82-17.92 12.07-17.93 12.07-56.02m189.61 93.42v-118.24q0-18.44-3.62-28.61t-11.55-14.65q-7.93-4.49-23.27-4.49-22.4 0-35.34 15.34-12.92 15.34-12.92 42.58V8727h-31.03v-146.68q0-32.58-1.03-39.82h29.3q.17.86.34 4.66.18 3.79.35 8.79.34 4.82.69 18.44h.51q10.7-19.3 24.65-27.23 14.14-8.1 35-8.1 30.67 0 44.8 15.34 14.31 15.16 14.31 50.33V8727Zm334.73-121.52q0 60.85-21.55 92.9-21.37 32.07-63.26 32.07t-62.91-31.89-21.03-93.08q0-62.56 20.34-93.76 20.51-31.2 64.64-31.2 42.91 0 63.25 31.54 20.52 31.55 20.52 93.42m-31.55 0q0-52.57-12.24-76.18-12.06-23.61-39.98-23.61-28.62 0-41.2 23.26-12.4 23.27-12.4 76.53 0 51.71 12.57 75.67 12.76 23.96 40.34 23.96 27.4 0 40.16-24.48 12.75-24.47 12.75-75.15m77.57 121.52v-37.75h33.6V8727Zm246.65-67.05q0 33.61-21.37 52.05-21.38 18.45-61.02 18.45-36.89 0-58.95-16.55-21.89-16.72-26.03-49.3l32.06-2.93q6.2 43.1 52.92 43.1 23.44 0 36.71-11.55 13.45-11.55 13.45-34.3 0-19.83-15.34-30.86-15.17-11.2-43.96-11.2h-17.58v-26.89h16.9q25.5 0 39.47-11.03 14.13-11.2 14.13-30.85 0-19.48-11.55-30.68-11.38-11.38-33.95-11.38-20.52 0-33.27 10.51-12.58 10.52-14.65 29.65l-31.2-2.41q3.45-29.82 24.65-46.54 21.37-16.72 54.8-16.72 36.55 0 56.72 17.06 20.34 16.9 20.34 47.23 0 23.27-13.1 37.92-12.93 14.48-37.75 19.65v.7q27.23 2.92 42.4 18.26t15.17 38.61m47.74 67.05v-37.75h33.61V8727Zm92.74 0v-26.37h61.87v-186.84l-54.8 39.12v-29.3l57.39-39.47h28.61v216.49h59.12V8727Zm289.4-91.7q0-49.81 15.5-89.45 15.69-39.65 48.1-74.64h29.98q-32.23 35.85-47.4 76.19-14.99 40.33-14.99 88.25 0 47.74 14.82 87.9 15 40.16 47.58 76.53h-30q-32.57-35.16-48.08-74.8-15.52-39.82-15.52-89.29zm298 91.7h-36.02l-32.57-131.86-6.2-29.13q-1.56 7.76-4.83 22.41-3.28 14.48-35.17 138.58h-35.85l-52.22-186.5h30.68l31.54 126.69q1.2 4.14 7.41 34.13l2.93-12.76 38.96-148.06h33.26l32.58 128.07 7.93 32.75 5.34-23.96 35.34-136.86h30.33zm234.08-93.42q0 48.95-21.55 72.9-21.54 23.97-62.57 23.97-40.85 0-61.7-24.82-20.86-25-20.86-72.05 0-96.52 83.6-96.52 42.74 0 62.91 23.6 20.17 23.45 20.17 72.92m-32.58 0q0-38.61-11.55-56.02-11.37-17.58-38.43-17.58-27.24 0-39.48 17.93-12.06 17.75-12.06 55.67 0 36.88 11.9 55.5 12.06 18.44 37.74 18.44 27.92 0 39.81-17.92 12.07-17.93 12.07-56.02m71.88 93.42v-143.06q0-19.65-1.04-43.44h29.3q1.38 31.72 1.38 38.1h.7q7.4-23.96 17.06-32.75 9.65-8.8 27.23-8.8 6.2 0 12.58 1.73v28.44q-6.2-1.72-16.55-1.72-19.3 0-29.47 16.71-10.17 16.55-10.17 47.58V8727Zm116.86 0v-255.79h31.02V8727Zm196.15-30q-8.62 17.93-22.93 25.7-14.13 7.75-35.16 7.75-35.33 0-52.05-23.79-16.55-23.79-16.55-72.05 0-97.55 68.6-97.55 21.2 0 35.34 7.75 14.13 7.76 22.75 24.65h.34l-.34-20.86v-77.39h31.02v217.35q0 29.13 1.04 38.44h-29.65q-.52-2.76-1.2-12.75-.52-10-.52-17.24zm-94.11-63.42q0 39.13 10.34 56.02t33.61 16.89q26.37 0 38.27-18.27 11.89-18.27 11.89-56.7 0-37.07-11.9-54.3-11.89-17.24-37.92-17.24-23.44 0-33.95 17.4-10.34 17.24-10.34 56.2m244.58 2.42q0 49.8-15.68 89.45-15.52 39.64-47.92 74.63h-30q32.41-36.2 47.4-76.18 15-40.16 15-88.25t-15.17-88.25q-14.99-40.16-47.22-76.19h29.99q32.58 35.17 48.09 74.98 15.51 39.64 15.51 89.11z" style="fill:#ececec;stroke:none;fill-opacity:1"/></g><g aria-label="legion 0.3.1 (system)" class="TextShape" style="fill:#ececec;fill-opacity:1"><path d="M18774.79 8727v-255.79h31.02V8727Zm102.21-86.7q0 32.06 13.27 49.47t38.78 17.4q20.17 0 32.23-8.1 12.24-8.1 16.55-20.5l27.23 7.75q-16.72 44.13-76 44.13-41.38 0-63.1-24.65-21.54-24.65-21.54-73.26 0-46.19 21.55-70.84 21.71-24.64 61.87-24.64 82.22 0 82.22 99.1v4.14zm101-23.78q-2.58-29.48-15-42.92-12.4-13.62-35.67-13.62-22.58 0-35.85 15.17-13.1 15-14.14 41.37zm142.2 183.73q-30.5 0-48.6-12.06-18.1-11.9-23.27-33.96l31.2-4.48q3.1 12.93 13.61 19.82 10.69 7.07 27.92 7.07 46.37 0 46.37-54.3v-29.99h-.34q-8.8 17.93-24.14 27.07-15.34 8.96-35.85 8.96-34.3 0-50.5-22.75-16.03-22.75-16.03-71.53 0-49.47 17.24-72.91 17.4-23.62 52.74-23.62 19.82 0 34.3 9.14 14.65 8.96 22.58 25.68h.34q0-5.17.7-17.93.68-12.75 1.37-13.96h29.48q-1.04 9.31-1.04 38.61v142.55q0 78.6-78.08 78.6m47.23-166.5q0-22.75-6.2-39.12-6.21-16.55-17.59-25.17-11.2-8.8-25.5-8.8-23.8 0-34.65 17.25-10.86 17.23-10.86 55.84 0 38.27 10.17 54.99t34.82 16.71q14.65 0 26.02-8.61 11.38-8.62 17.59-24.65 6.2-16.2 6.2-38.44m78.25-132.9v-29.65h31.03v29.65zm0 226.14v-186.5h31.03V8727Zm236.32-93.42q0 48.95-21.55 72.9-21.55 23.97-62.57 23.97-40.85 0-61.7-24.82-20.86-25-20.86-72.05 0-96.52 83.6-96.52 42.74 0 62.9 23.6 20.17 23.45 20.17 72.92m-32.58 0q0-38.61-11.55-56.02-11.38-17.58-38.44-17.58-27.23 0-39.47 17.93-12.07 17.75-12.07 55.67 0 36.88 11.9 55.5 12.06 18.44 37.74 18.44 27.93 0 39.82-17.92 12.07-17.93 12.07-56.02m189.61 93.42v-118.24q0-18.44-3.62-28.61t-11.55-14.65q-7.93-4.49-23.27-4.49-22.4 0-35.34 15.34-12.92 15.34-12.92 42.58V8727h-31.03v-146.68q0-32.58-1.03-39.82h29.3q.17.86.34 4.66.18 3.79.35 8.79.34 4.82.69 18.44h.52q10.68-19.3 24.64-27.23 14.14-8.1 35-8.1 30.67 0 44.8 15.34 14.31 15.16 14.31 50.33V8727Zm334.73-121.52q0 60.85-21.55 92.9-21.37 32.07-63.26 32.07t-62.91-31.89-21.03-93.08q0-62.56 20.34-93.76 20.51-31.2 64.64-31.2 42.91 0 63.25 31.54 20.52 31.55 20.52 93.42m-31.55 0q0-52.57-12.24-76.18-12.06-23.61-39.98-23.61-28.62 0-41.2 23.26-12.4 23.27-12.4 76.53 0 51.71 12.57 75.67 12.76 23.96 40.34 23.96 27.4 0 40.16-24.48 12.75-24.47 12.75-75.15m77.57 121.52v-37.75h33.6V8727Zm246.65-67.05q0 33.61-21.37 52.05-21.38 18.45-61.02 18.45-36.89 0-58.95-16.55-21.89-16.72-26.03-49.3l32.06-2.93q6.2 43.1 52.92 43.1 23.44 0 36.71-11.55 13.45-11.55 13.45-34.3 0-19.83-15.34-30.86-15.17-11.2-43.96-11.2h-17.58v-26.89h16.9q25.5 0 39.47-11.03 14.13-11.2 14.13-30.85 0-19.48-11.55-30.68-11.38-11.38-33.95-11.38-20.52 0-33.27 10.51-12.58 10.52-14.65 29.65l-31.2-2.41q3.45-29.82 24.65-46.54 21.37-16.72 54.8-16.72 36.55 0 56.72 17.06 20.34 16.9 20.34 47.23 0 23.27-13.1 37.92-12.93 14.48-37.75 19.65v.7q27.23 2.92 42.4 18.26t15.17 38.61m47.74 67.05v-37.75h33.61V8727Zm92.74 0v-26.37h61.87v-186.84l-54.8 39.12v-29.3l57.39-39.47h28.61v216.49h59.12V8727Zm289.4-91.7q0-49.81 15.5-89.45 15.69-39.65 48.1-74.64h29.98q-32.23 35.85-47.4 76.19-14.99 40.33-14.99 88.25 0 47.74 14.82 87.9 15 40.16 47.58 76.53h-30q-32.57-35.16-48.08-74.8-15.52-39.82-15.52-89.29zm259.4 40.16q0 26.38-20 40.68-19.82 14.3-55.67 14.3-34.82 0-53.78-11.37-18.78-11.55-24.47-35.85l27.4-5.34q3.97 15 16.38 22.06 12.4 6.9 34.47 6.9 23.62 0 34.47-7.25 11.04-7.23 11.04-21.71 0-11.03-7.59-17.93t-24.47-11.38l-22.24-5.86q-26.72-6.89-38.1-13.44-11.2-6.72-17.57-16.2t-6.38-23.27q0-25.51 18.1-38.78 18.27-13.45 53.09-13.45 30.85 0 48.95 10.86 18.27 10.86 23.1 34.82l-27.93 3.45q-2.58-12.41-13.96-18.96-11.2-6.73-30.16-6.73-21.03 0-31.03 6.38t-10 19.3q0 7.94 4.14 13.1 4.14 5.18 12.24 8.8t34.13 10q24.64 6.2 35.5 11.54 10.86 5.17 17.07 11.55 6.37 6.38 9.82 14.82 3.45 8.28 3.45 18.96m45.68 124.79q-12.76 0-21.38-1.9v-23.26q6.55 1.03 14.48 1.03 28.96 0 45.85-42.57l2.93-7.41-73.95-185.64h33.1l39.3 103.08q.86 2.4 2.07 5.86 1.2 3.27 7.75 22.4 6.55 19.14 7.07 21.38l12.07-33.96 40.84-118.76h32.75l-71.7 186.5q-11.55 29.82-21.54 44.3-10 14.65-22.24 21.72-12.06 7.23-27.4 7.23m307.32-124.79q0 26.38-20 40.68-19.82 14.3-55.67 14.3-34.82 0-53.78-11.37-18.78-11.55-24.47-35.85l27.4-5.34q3.97 15 16.38 22.06 12.4 6.9 34.47 6.9 23.62 0 34.47-7.25 11.04-7.23 11.04-21.71 0-11.03-7.59-17.93t-24.47-11.38l-22.24-5.86q-26.72-6.89-38.1-13.44-11.2-6.72-17.57-16.2t-6.38-23.27q0-25.51 18.1-38.78 18.27-13.45 53.09-13.45 30.85 0 48.95 10.86 18.27 10.86 23.1 34.82l-27.93 3.45q-2.58-12.41-13.96-18.96-11.2-6.73-30.16-6.73-21.03 0-31.03 6.38t-10 19.3q0 7.94 4.14 13.1 4.14 5.18 12.24 8.8t34.13 10q24.64 6.2 35.5 11.54 10.86 5.17 17.07 11.55 6.37 6.38 9.82 14.82 3.45 8.28 3.45 18.96m108.24 50.16q-15.34 4.14-31.37 4.14-37.23 0-37.23-42.23v-124.45h-21.54v-22.58h22.75l9.13-41.7h20.69v41.7h34.47v22.58h-34.47v117.73q0 13.44 4.3 18.96 4.49 5.34 15.35 5.34 6.2 0 17.92-2.41zm50.16-85.32q0 32.06 13.27 49.47t38.78 17.4q20.17 0 32.24-8.1 12.23-8.1 16.54-20.5l27.24 7.75q-16.72 44.13-76.02 44.13-41.36 0-63.08-24.65-21.55-24.65-21.55-73.26 0-46.19 21.55-70.84 21.72-24.64 61.88-24.64 82.21 0 82.21 99.1v4.14zm101-23.78q-2.58-29.48-14.99-42.92-12.41-13.62-35.68-13.62-22.58 0-35.85 15.17-13.1 15-14.14 41.37zm180.13 110.48v-118.24q0-27.06-7.42-37.4-7.4-10.35-26.71-10.35-19.83 0-31.37 15.17t-11.55 42.75V8727h-30.85v-146.68q0-32.58-1.04-39.82h29.3q.18.86.35 4.66.17 3.79.34 8.79.35 4.82.7 18.44h.5q10-19.82 22.93-27.58t31.55-7.75q21.2 0 33.44 8.44 12.4 8.45 17.23 26.89h.52q9.65-18.79 23.27-27.06 13.79-8.27 33.26-8.27 28.27 0 41.03 15.34 12.92 15.34 12.92 50.33V8727h-30.68v-118.24q0-27.06-7.4-37.4-7.42-10.35-26.73-10.35-20.33 0-31.71 15.17-11.2 15-11.2 42.75V8727Zm257.33-91q0 49.8-15.68 89.45-15.51 39.64-47.92 74.63h-29.99q32.4-36.2 47.4-76.18 15-40.16 15-88.25t-15.17-88.25q-15-40.16-47.23-76.19h30q32.57 35.17 48.08 74.98 15.51 39.64 15.51 89.11z" style="fill:#ececec;stroke:none;fill-opacity:1"/></g><g aria-label="0" class="TextShape" style="fill:#ececec;fill-opacity:1"><path d="M925.53 8158.48q0 60.85-21.54 92.9-21.38 32.07-63.26 32.07t-62.91-31.89-21.03-93.08q0-62.56 20.34-93.76 20.5-31.2 64.63-31.2 42.92 0 63.26 31.54 20.51 31.55 20.51 93.42m-31.54 0q0-52.57-12.24-76.18-12.06-23.61-39.99-23.61-28.6 0-41.2 23.26-12.4 23.27-12.4 76.53 0 51.71 12.58 75.67 12.76 23.96 40.33 23.96 27.41 0 40.17-24.48 12.75-24.47 12.75-75.15" style="fill:#ececec;stroke:none;fill-opacity:1"/></g><g aria-label=".5" class="TextShape" style="fill:#ececec;fill-opacity:1"><path d="M634.53 7046.48q0 60.85-21.54 92.9-21.38 32.07-63.26 32.07t-62.91-31.89-21.03-93.08q0-62.56 20.34-93.76 20.5-31.2 64.63-31.2 42.92 0 63.26 31.54 20.51 31.55 20.51 93.42m-31.54 0q0-52.57-12.24-76.18-12.06-23.61-39.99-23.61-28.6 0-41.2 23.26-12.4 23.27-12.4 76.53 0 51.71 12.58 75.67 12.76 23.96 40.33 23.96 27.41 0 40.17-24.48 12.75-24.47 12.75-75.15M680.55 7168v-37.75h33.61V7168Zm247.35-79.11q0 38.43-22.93 60.5-22.75 22.06-63.26 22.06-33.95 0-54.8-14.83-20.86-14.82-26.38-42.91l31.37-3.62q9.83 36.02 50.5 36.02 25 0 39.13-15 14.13-15.16 14.13-41.54 0-22.92-14.3-37.05-14.14-14.14-38.27-14.14-12.58 0-23.44 3.97-10.86 3.96-21.72 13.44H767.6l8.1-130.65h138.06v26.37h-109.8l-4.65 77.05q20.17-15.51 50.16-15.51 35.85 0 57.05 21.02 21.38 21.03 21.38 54.82" style="fill:#ececec;stroke:none;fill-opacity:1"/></g><g aria-label="1" class="TextShape" style="fill:#ececec;fill-opacity:1"><path d="M769.89 6056v-26.37h61.88v-186.84l-54.81 39.12v-29.3l57.4-39.47h28.6v216.49h59.13V6056Z" style="fill:#ececec;stroke:none;fill-opacity:1"/></g><g aria-label="1.5" class="TextShape" style="fill:#ececec;fill-opacity:1"><path d="M478.89 4944v-26.37h61.88v-186.84l-54.81 39.12v-29.3l57.4-39.47h28.6v216.49h59.13V4944Zm201.66 0v-37.75h33.61V4944Zm247.35-79.11q0 38.43-22.93 60.5-22.75 22.06-63.26 22.06-33.95 0-54.8-14.83-20.86-14.82-26.38-42.91l31.37-3.62q9.83 36.02 50.5 36.02 25 0 39.13-15 14.13-15.16 14.13-41.54 0-22.92-14.3-37.05-14.14-14.14-38.27-14.14-12.58 0-23.44 3.97-10.86 3.96-21.72 13.44H767.6l8.1-130.65h138.06v26.37h-109.8l-4.65 77.05q20.17-15.51 50.16-15.51 35.85 0 57.05 21.02 21.38 21.03 21.38 54.82" style="fill:#ececec;stroke:none;fill-opacity:1"/></g><g aria-label="2" class="TextShape" style="fill:#ececec;fill-opacity:1"><path d="M760.75 3833v-21.89q8.8-20.17 21.38-35.5 12.75-15.52 26.71-27.93 13.96-12.58 27.58-23.27 13.79-10.69 24.82-21.37t17.75-22.4q6.9-11.73 6.9-26.55 0-20-11.72-31.03t-32.58-11.03q-19.82 0-32.75 10.86-12.75 10.69-15 30.16l-31.7-2.93q3.44-29.13 24.64-46.36 21.37-17.24 54.81-17.24 36.72 0 56.36 17.4 19.83 17.25 19.83 49.13 0 14.14-6.55 28.1-6.38 13.96-19.14 27.92-12.75 13.96-48.77 43.26-19.83 16.2-31.55 29.3-11.72 12.93-16.89 25h126.69V3833Z" style="fill:#ececec;stroke:none;fill-opacity:1"/></g><g aria-label="2.5" class="TextShape" style="fill:#ececec;fill-opacity:1"><path d="M469.75 2721v-21.89q8.8-20.17 21.38-35.5 12.75-15.52 26.71-27.93 13.96-12.58 27.58-23.27 13.79-10.69 24.82-21.37t17.75-22.4q6.9-11.73 6.9-26.55 0-20-11.72-31.03t-32.58-11.03q-19.82 0-32.75 10.86-12.75 10.69-15 30.16l-31.7-2.93q3.44-29.13 24.64-46.36 21.37-17.24 54.81-17.24 36.72 0 56.36 17.4 19.83 17.25 19.83 49.13 0 14.14-6.55 28.1-6.38 13.96-19.14 27.92-12.75 13.96-48.77 43.26-19.83 16.2-31.55 29.3-11.72 12.93-16.89 25h126.69V2721Zm210.8 0v-37.75h33.61V2721Zm247.35-79.11q0 38.43-22.93 60.5-22.75 22.06-63.26 22.06-33.95 0-54.8-14.83-20.86-14.82-26.38-42.91l31.37-3.62q9.83 36.02 50.5 36.02 25 0 39.13-15 14.13-15.16 14.13-41.54 0-22.92-14.3-37.05-14.14-14.14-38.27-14.14-12.58 0-23.44 3.97-10.86 3.96-21.72 13.44H767.6l8.1-130.65h138.06v26.37h-109.8l-4.65 77.05q20.17-15.51 50.16-15.51 35.85 0 57.05 21.02 21.38 21.03 21.38 54.82" style="fill:#ececec;stroke:none;fill-opacity:1"/></g><g aria-label="3" class="TextShape" style="fill:#ececec;fill-opacity:1"><path d="M923.8 1541.95q0 33.61-21.36 52.05-21.38 18.45-61.02 18.45-36.89 0-58.95-16.55-21.89-16.72-26.03-49.3l32.06-2.93q6.2 43.1 52.92 43.1 23.44 0 36.71-11.55 13.45-11.55 13.45-34.3 0-19.83-15.34-30.86-15.17-11.2-43.96-11.2H814.7v-26.89h16.9q25.5 0 39.47-11.03 14.13-11.2 14.13-30.85 0-19.48-11.55-30.68-11.37-11.38-33.95-11.38-20.52 0-33.27 10.51-12.58 10.52-14.65 29.65l-31.2-2.41q3.45-29.82 24.65-46.54 21.37-16.72 54.81-16.72 36.54 0 56.7 17.06 20.35 16.9 20.35 47.23 0 23.27-13.1 37.92-12.93 14.48-37.75 19.65v.7q27.23 2.92 42.4 18.26t15.17 38.61" style="fill:#ececec;stroke:none;fill-opacity:1"/></g><g aria-label="3.5" class="TextShape" style="fill:#ececec;fill-opacity:1"><path d="M632.8 430.95q0 33.61-21.36 52.05-21.38 18.45-61.02 18.45-36.89 0-58.95-16.55-21.89-16.72-26.03-49.3l32.06-2.93q6.2 43.1 52.92 43.1 23.44 0 36.71-11.55 13.45-11.55 13.45-34.3 0-19.83-15.34-30.86-15.17-11.2-43.96-11.2H523.7v-26.89h16.9q25.5 0 39.47-11.03 14.13-11.2 14.13-30.85 0-19.48-11.55-30.68-11.37-11.38-33.95-11.38-20.52 0-33.27 10.51-12.58 10.52-14.65 29.65l-31.2-2.41q3.45-29.82 24.65-46.54 21.37-16.72 54.81-16.72 36.54 0 56.7 17.06 20.35 16.9 20.35 47.23 0 23.27-13.1 37.92-12.93 14.48-37.75 19.65v.7q27.23 2.92 42.4 18.26t15.17 38.61M680.55 498v-37.75h33.61V498Zm247.35-79.11q0 38.43-22.93 60.5-22.75 22.06-63.26 22.06-33.95 0-54.8-14.83-20.86-14.82-26.38-42.91l31.37-3.62q9.83 36.02 50.5 36.02 25 0 39.13-15 14.13-15.16 14.13-41.54 0-22.92-14.3-37.05-14.14-14.14-38.27-14.14-12.58 0-23.44 3.97-10.86 3.96-21.72 13.44H767.6l8.1-130.65h138.06v26.37h-109.8l-4.65 77.05q20.17-15.51 50.16-15.51 35.85 0 57.05 21.02 21.38 21.03 21.38 54.82" style="fill:#ececec;stroke:none;fill-opacity:1"/></g></svg>