<svg xmlns="http://www.w3.org/2000/svg" xml:space="preserve" width="76mm" height="51mm" stroke-linejoin="round" stroke-width="28.22" viewBox="0 0 7600 5100"><path fill="#004586" d="M4996 4331h1648V800H4996z" style="fill:#474747;fill-opacity:1"/><path fill="#004586" d="M1702 4331h1648V1148H1702z" style="fill:#4a96dc;fill-opacity:1"/><path fill="none" stroke="#b3b3b3" d="M879 4481v-150m0 150v-150m3294 150v-150m0 150v-150m3295 150v-150m0 150v-150m-6589 0h6589m-6739 0h150m-150 0h150m-150-505h150m-150 0h150m-150-504h150m-150 0h150m-150-504h150m-150 0h150m-150-503h150m-150 0h150m-150-504h150m-150 0h150m-150-504h150m-150 0h150M729 803h150m-150 0h150M729 299h150m-150 0h150m0 4032V299" style="stroke:#ececec;stroke-opacity:1"/><g aria-label="bevy 0.3" class="TextShape" style="fill:#ececec;fill-opacity:1"><path d="M2045.5 4804.89q0 97.56-68.6 97.56-21.2 0-35.34-7.59-13.96-7.75-22.75-24.82h-.34q0 5.35-.7 16.38-.68 10.86-1.03 12.58h-29.99q1.04-9.3 1.04-38.44v-217.35h31.02v72.91q0 11.2-.69 26.37h.7q8.61-17.92 22.74-25.68 14.31-7.75 35.34-7.75 35.33 0 51.88 23.78 16.72 23.79 16.72 72.05m-32.58 1.03q0-39.12-10.34-56.01t-33.61-16.9q-26.2 0-38.27 17.93-11.89 17.93-11.89 56.88 0 36.71 11.72 54.3 11.72 17.4 38.1 17.4 23.44 0 33.78-17.23 10.51-17.41 10.51-56.37m94.98 6.38q0 32.06 13.27 49.47t38.78 17.4q20.16 0 32.23-8.1 12.24-8.1 16.55-20.5l27.23 7.75q-16.72 44.13-76.01 44.13-41.37 0-63.09-24.65-21.54-24.65-21.54-73.26 0-46.19 21.54-70.84 21.72-24.64 61.88-24.64 82.22 0 82.22 99.1v4.14zm101-23.78q-2.59-29.48-15-42.92-12.4-13.62-35.68-13.62-22.58 0-35.85 15.17-13.1 15-14.13 41.37zM2362.3 4899h-36.71l-67.74-186.5h33.1l41.02 121.35q2.24 6.9 11.89 40.85l6.03-20.17 6.72-20.34 42.4-121.69h32.93zm103.76 73.25q-12.75 0-21.37-1.9v-23.26q6.55 1.03 14.48 1.03 28.96 0 45.85-42.57l2.93-7.41L2434 4712.5h33.09l39.3 103.08q.86 2.4 2.07 5.86 1.2 3.27 7.75 22.4 6.55 19.14 7.07 21.38l12.06-33.96 40.86-118.76h32.74l-71.7 186.5q-11.55 29.82-21.54 44.3-10 14.65-22.24 21.72-12.06 7.23-27.4 7.23m424.19-194.77q0 60.85-21.54 92.9-21.38 32.07-63.26 32.07-41.89 0-62.91-31.89-21.03-31.89-21.03-93.08 0-62.56 20.34-93.76 20.5-31.2 64.63-31.2 42.92 0 63.26 31.54 20.51 31.55 20.51 93.42m-31.54 0q0-52.57-12.24-76.18-12.06-23.61-39.99-23.61-28.61 0-41.2 23.26-12.4 23.27-12.4 76.53 0 51.71 12.58 75.67 12.75 23.96 40.33 23.96 27.4 0 40.16-24.48 12.76-24.47 12.76-75.15m77.56 121.52v-37.75h33.61V4899Zm246.65-67.05q0 33.61-21.37 52.05-21.37 18.45-61.02 18.45-36.88 0-58.94-16.55-21.9-16.72-26.03-49.3l32.06-2.93q6.2 43.1 52.91 43.1 23.45 0 36.72-11.55 13.44-11.55 13.44-34.3 0-19.83-15.34-30.86-15.17-11.2-43.95-11.2h-17.58v-26.89h16.89q25.5 0 39.47-11.03 14.13-11.2 14.13-30.85 0-19.48-11.54-30.68-11.38-11.38-33.96-11.38-20.51 0-33.27 10.51-12.58 10.52-14.65 29.65l-31.2-2.41q3.45-29.82 24.65-46.54 21.38-16.72 54.82-16.72 36.54 0 56.7 17.06 20.34 16.9 20.34 47.23 0 23.27-13.1 37.92-12.93 14.48-37.75 19.65v.7q27.24 2.92 42.4 18.26t15.17 38.61" style="fill:#ececec;stroke:none;fill-opacity:1"/></g><g aria-label="bevy 0.2" class="TextShape" style="fill:#ececec;fill-opacity:1"><path d="M5340.5 4804.89q0 97.56-68.6 97.56-21.2 0-35.34-7.59-13.96-7.75-22.75-24.82h-.34q0 5.35-.7 16.38-.68 10.86-1.03 12.58h-29.99q1.04-9.3 1.04-38.44v-217.35h31.02v72.91q0 11.2-.69 26.37h.7q8.61-17.92 22.74-25.68 14.31-7.75 35.34-7.75 35.33 0 51.88 23.78 16.72 23.79 16.72 72.05m-32.58 1.03q0-39.12-10.34-56.01t-33.61-16.9q-26.2 0-38.27 17.93-11.89 17.93-11.89 56.88 0 36.71 11.72 54.3 11.72 17.4 38.1 17.4 23.44 0 33.78-17.23 10.51-17.41 10.51-56.37m94.98 6.38q0 32.06 13.27 49.47t38.78 17.4q20.16 0 32.23-8.1 12.24-8.1 16.55-20.5l27.23 7.75q-16.72 44.13-76.01 44.13-41.37 0-63.09-24.65-21.54-24.65-21.54-73.26 0-46.19 21.54-70.84 21.72-24.64 61.88-24.64 82.22 0 82.22 99.1v4.14zm101-23.78q-2.59-29.48-15-42.92-12.4-13.62-35.68-13.62-22.58 0-35.85 15.17-13.1 15-14.13 41.37zM5657.3 4899h-36.71l-67.74-186.5h33.1l41.02 121.35q2.24 6.9 11.89 40.85l6.03-20.17 6.72-20.34 42.4-121.69h32.93zm103.76 73.25q-12.75 0-21.37-1.9v-23.26q6.55 1.03 14.48 1.03 28.96 0 45.85-42.57l2.93-7.41L5729 4712.5h33.09l39.3 103.08q.86 2.4 2.07 5.86 1.2 3.27 7.75 22.4 6.55 19.14 7.07 21.38l12.07-33.96 40.85-118.76h32.74l-71.7 186.5q-11.55 29.82-21.54 44.3-10 14.65-22.24 21.72-12.06 7.23-27.4 7.23m424.19-194.77q0 60.85-21.54 92.9-21.38 32.07-63.26 32.07-41.89 0-62.91-31.89-21.03-31.89-21.03-93.08 0-62.56 20.34-93.76 20.5-31.2 64.63-31.2 42.92 0 63.26 31.54 20.51 31.55 20.51 93.42m-31.54 0q0-52.57-12.24-76.18-12.06-23.61-39.99-23.61-28.61 0-41.2 23.26-12.4 23.27-12.4 76.53 0 51.71 12.58 75.67 12.75 23.96 40.33 23.96 27.4 0 40.16-24.48 12.76-24.47 12.76-75.15m77.56 121.52v-37.75h33.61V4899Zm83.6 0v-21.89q8.79-20.17 21.37-35.5 12.76-15.52 26.72-27.93 13.96-12.58 27.58-23.27 13.78-10.69 24.82-21.37 11.03-10.69 17.75-22.4 6.9-11.73 6.9-26.55 0-20-11.73-31.03t-32.57-11.03q-19.83 0-32.75 10.86-12.76 10.69-15 30.16l-31.71-2.93q3.44-29.13 24.64-46.36 21.38-17.24 54.82-17.24 36.71 0 56.36 17.4 19.82 17.25 19.82 49.13 0 14.14-6.55 28.1-6.38 13.96-19.13 27.92t-48.78 43.26q-19.82 16.2-31.54 29.3-11.72 12.93-16.9 25h126.7V4899Z" style="fill:#ececec;stroke:none;fill-opacity:1"/></g><g aria-label=".5" class="TextShape" style="fill:#ececec;fill-opacity:1"><path d="M335.53 3825.48q0 60.85-21.54 92.9-21.38 32.07-63.26 32.07t-62.91-31.89-21.03-93.08q0-62.56 20.34-93.76 20.5-31.2 64.63-31.2 42.92 0 63.26 31.54 20.51 31.55 20.51 93.42m-31.54 0q0-52.57-12.24-76.18-12.06-23.61-39.99-23.61-28.6 0-41.2 23.26-12.4 23.27-12.4 76.53 0 51.71 12.58 75.67 12.76 23.96 40.33 23.96 27.41 0 40.17-24.48 12.75-24.47 12.75-75.15M381.55 3947v-37.75h33.61V3947Zm247.35-79.11q0 38.43-22.93 60.5-22.75 22.06-63.26 22.06-33.95 0-54.8-14.83-20.86-14.82-26.38-42.91l31.37-3.62q9.83 36.02 50.5 36.02 25 0 39.13-15 14.13-15.16 14.13-41.54 0-22.92-14.3-37.05-14.14-14.14-38.27-14.14-12.58 0-23.44 3.97-10.86 3.96-21.72 13.44H468.6l8.1-130.65h138.06v26.37h-109.8l-4.65 77.05q20.17-15.51 50.16-15.51 35.85 0 57.05 21.02 21.38 21.03 21.38 54.82" style="fill:#ececec;stroke:none;fill-opacity:1"/></g><g aria-label="0" class="TextShape" style="fill:#ececec;fill-opacity:1"><path d="M626.53 4330.48q0 60.85-21.54 92.9-21.38 32.07-63.26 32.07t-62.91-31.89-21.03-93.08q0-62.56 20.34-93.76 20.5-31.2 64.63-31.2 42.92 0 63.26 31.54 20.51 31.55 20.51 93.42m-31.54 0q0-52.57-12.24-76.18-12.06-23.61-39.99-23.61-28.6 0-41.2 23.26-12.4 23.27-12.4 76.53 0 51.71 12.58 75.67 12.76 23.96 40.33 23.96 27.41 0 40.17-24.48 12.75-24.47 12.75-75.15" style="fill:#ececec;stroke:none;fill-opacity:1"/></g><g aria-label="1" class="TextShape" style="fill:#ececec;fill-opacity:1"><path d="M470.89 3443v-26.37h61.88v-186.84l-54.81 39.12v-29.3l57.4-39.47h28.6v216.49h59.13V3443Z" style="fill:#ececec;stroke:none;fill-opacity:1"/></g><g aria-label="1.5" class="TextShape" style="fill:#ececec;fill-opacity:1"><path d="M179.89 2939v-26.37h61.88v-186.84l-54.81 39.12v-29.3l57.4-39.47h28.6v216.49h59.13V2939Zm201.66 0v-37.75h33.61V2939Zm247.35-79.11q0 38.43-22.93 60.5-22.75 22.06-63.26 22.06-33.95 0-54.8-14.83-20.86-14.82-26.38-42.91l31.37-3.62q9.83 36.02 50.5 36.02 25 0 39.13-15 14.13-15.16 14.13-41.54 0-22.92-14.3-37.05-14.14-14.14-38.27-14.14-12.58 0-23.44 3.97-10.86 3.96-21.72 13.44H468.6l8.1-130.65h138.06v26.37h-109.8l-4.65 77.05q20.17-15.51 50.16-15.51 35.85 0 57.05 21.02 21.38 21.03 21.38 54.82" style="fill:#ececec;stroke:none;fill-opacity:1"/></g><g aria-label="2" class="TextShape" style="fill:#ececec;fill-opacity:1"><path d="M461.75 2435v-21.89q8.8-20.17 21.38-35.5 12.75-15.52 26.71-27.93 13.96-12.58 27.58-23.27 13.79-10.69 24.82-21.37t17.75-22.4q6.9-11.73 6.9-26.55 0-20-11.72-31.03t-32.58-11.03q-19.82 0-32.75 10.86-12.75 10.69-15 30.16l-31.7-2.93q3.44-29.13 24.64-46.36 21.37-17.24 54.81-17.24 36.72 0 56.36 17.4 19.83 17.25 19.83 49.13 0 14.14-6.55 28.1-6.38 13.96-19.14 27.92-12.75 13.96-48.77 43.26-19.83 16.2-31.55 29.3-11.72 12.93-16.89 25h126.69V2435Z" style="fill:#ececec;stroke:none;fill-opacity:1"/></g><g aria-label="2.5" class="TextShape" style="fill:#ececec;fill-opacity:1"><path d="M170.75 1931v-21.89q8.8-20.17 21.38-35.5 12.75-15.52 26.71-27.93 13.96-12.58 27.58-23.27 13.79-10.69 24.82-21.37t17.75-22.4q6.9-11.73 6.9-26.55 0-20-11.72-31.03t-32.58-11.03q-19.82 0-32.75 10.86-12.75 10.69-15 30.16l-31.7-2.93q3.44-29.13 24.64-46.36 21.37-17.24 54.81-17.24 36.72 0 56.36 17.4 19.83 17.25 19.83 49.13 0 14.14-6.55 28.1-6.38 13.96-19.14 27.92-12.75 13.96-48.77 43.26-19.83 16.2-31.55 29.3-11.72 12.93-16.89 25h126.69V1931Zm210.8 0v-37.75h33.61V1931Zm247.35-79.11q0 38.43-22.93 60.5-22.75 22.06-63.26 22.06-33.95 0-54.8-14.83-20.86-14.82-26.38-42.91l31.37-3.62q9.83 36.02 50.5 36.02 25 0 39.13-15 14.13-15.16 14.13-41.54 0-22.92-14.3-37.05-14.14-14.14-38.27-14.14-12.58 0-23.44 3.97-10.86 3.96-21.72 13.44H468.6l8.1-130.65h138.06v26.37h-109.8l-4.65 77.05q20.17-15.51 50.16-15.51 35.85 0 57.05 21.02 21.38 21.03 21.38 54.82" style="fill:#ececec;stroke:none;fill-opacity:1"/></g><g aria-label="3" class="TextShape" style="fill:#ececec;fill-opacity:1"><path d="M624.8 1359.95q0 33.61-21.36 52.05-21.38 18.45-61.02 18.45-36.89 0-58.95-16.55-21.89-16.72-26.03-49.3l32.06-2.93q6.2 43.1 52.92 43.1 23.44 0 36.71-11.55 13.45-11.55 13.45-34.3 0-19.83-15.34-30.86-15.17-11.2-43.96-11.2H515.7v-26.89h16.9q25.5 0 39.47-11.03 14.13-11.2 14.13-30.85 0-19.48-11.55-30.68-11.37-11.38-33.95-11.38-20.52 0-33.27 10.51-12.58 10.52-14.65 29.65l-31.2-2.41q3.45-29.82 24.65-46.54 21.37-16.72 54.81-16.72 36.54 0 56.7 17.06 20.35 16.9 20.35 47.23 0 23.27-13.1 37.92-12.93 14.48-37.75 19.65v.7q27.23 2.92 42.4 18.26t15.17 38.61" style="fill:#ececec;stroke:none;fill-opacity:1"/></g><g aria-label="3.5" class="TextShape" style="fill:#ececec;fill-opacity:1"><path d="M333.8 855.95q0 33.61-21.36 52.05-21.38 18.45-61.02 18.45-36.89 0-58.95-16.55-21.89-16.72-26.03-49.3l32.06-2.93q6.2 43.1 52.92 43.1 23.44 0 36.71-11.55 13.45-11.55 13.45-34.3 0-19.83-15.34-30.86-15.17-11.2-43.96-11.2H224.7v-26.89h16.9q25.5 0 39.47-11.03 14.13-11.2 14.13-30.85 0-19.48-11.55-30.68-11.37-11.38-33.95-11.38-20.52 0-33.27 10.51-12.58 10.52-14.65 29.65l-31.2-2.41q3.45-29.82 24.65-46.54 21.37-16.72 54.81-16.72 36.54 0 56.7 17.06 20.35 16.9 20.35 47.23 0 23.27-13.1 37.92-12.93 14.48-37.75 19.65v.7q27.23 2.92 42.4 18.26t15.17 38.61M381.55 923v-37.75h33.61V923Zm247.35-79.11q0 38.43-22.93 60.5-22.75 22.06-63.26 22.06-33.95 0-54.8-14.83-20.86-14.82-26.38-42.91l31.37-3.62q9.83 36.02 50.5 36.02 25 0 39.13-15 14.13-15.16 14.13-41.54 0-22.92-14.3-37.05-14.14-14.14-38.27-14.14-12.58 0-23.44 3.97-10.86 3.96-21.72 13.44H468.6l8.1-130.65h138.06v26.37h-109.8l-4.65 77.05q20.17-15.51 50.16-15.51 35.85 0 57.05 21.02 21.38 21.03 21.38 54.82" style="fill:#ececec;stroke:none;fill-opacity:1"/></g><g aria-label="4" class="TextShape" style="fill:#ececec;fill-opacity:1"><path d="M595.85 364.02V419h-29.3v-54.98H452.1v-24.13l111.18-163.75h32.57v163.4h34.13v24.48zm-29.3-152.89q-.34 1.03-4.83 9.14-4.48 8.1-6.72 11.37l-62.22 91.7-9.3 12.75-2.77 3.45h85.84z" style="fill:#ececec;stroke:none;fill-opacity:1"/></g></svg>