<svg xmlns="http://www.w3.org/2000/svg" width="391.56" height="319.11" viewBox="0 0 391.56 319.11"><path d="m331.67 115.07-33.14-57.4h66.38z" data-name="Triangle 4" style="fill-rule:evenodd;stroke-linejoin:round;fill:#0086e8;stroke:#0086e8;stroke-width:.550595"/><path d="m331.67.28-33.14 57.4h66.38z" data-name="Triangle 5" style="fill-rule:evenodd;stroke-linejoin:round;fill:#0093ff;stroke:#0093ff;stroke-width:.550595"/><path d="m265.4 229.87-66.28-114.8h132.56z" data-name="Triangle 3" style="fill-rule:evenodd;stroke-linejoin:round;fill:#0076cc;stroke:#0076cc;stroke-width:.550595"/><path d="m265.4.28-66.28 114.8h132.56z" data-name="Triangle 2" style="fill-rule:evenodd;stroke-linejoin:round;fill:#0066b0;stroke:#0066b0;stroke-width:.550595"/><path d="M132.84 229.87.28.27h265.11Z" data-name="Triangle 1" style="fill-rule:evenodd;stroke-linejoin:round;fill:#005a9c;stroke:#005a9c;stroke-width:.550595"/><path d="m79.5 253.8-14.15 54.48-14.8-54.47h-9.44l-15.53 54.66-14.06-54.66H2.55l18.03 64.56 9.34-.1 15.54-51.88 14.99 51.88h9.43l18.68-64.46zm64.56 37.2a25.5 25.5 0 0 0-3-12.44 22 22 0 0 0-8.56-8.65 25.4 25.4 0 0 0-12.77-3.14 26.3 26.3 0 0 0-13.09 3.2 22 22 0 0 0-8.83 9.1q-3.14 5.92-3.14 13.78t3.23 13.83a23 23 0 0 0 8.93 9.2 25.6 25.6 0 0 0 12.9 3.24q9.07 0 15.17-4.58a21.8 21.8 0 0 0 8.14-11.88h-9.06a13.5 13.5 0 0 1-5.14 6.8q-3.65 2.54-9.1 2.54a16.3 16.3 0 0 1-11.34-4.21q-4.67-4.2-5.13-11.7h40.51a50 50 0 0 0 .28-5.09m-8.7-1.76h-32q.65-7.21 5.13-11.28a15.6 15.6 0 0 1 10.87-4.07 18 18 0 0 1 8.1 1.8 14 14 0 0 1 5.78 5.27 15.5 15.5 0 0 1 2.12 8.28m28.21-12.2v-27.2h-8.41v68.44h8.41v-9.34a19.5 19.5 0 0 0 7.45 7.3 22.5 22.5 0 0 0 11.51 2.88 23.1 23.1 0 0 0 20.9-12.68 29 29 0 0 0 3.15-13.68q0-7.77-3.14-13.65a23 23 0 0 0-8.6-9.1 23.7 23.7 0 0 0-12.3-3.24 22.5 22.5 0 0 0-11.38 2.86 20 20 0 0 0-7.59 7.4zm34.41 15.72a21 21 0 0 1-2.31 10.12 16.3 16.3 0 0 1-6.25 6.57 17 17 0 0 1-8.64 2.27 17 17 0 0 1-8.56-2.27 16.6 16.6 0 0 1-6.29-6.57 22.3 22.3 0 0 1 0-19.97 16.6 16.6 0 0 1 6.3-6.57 17 17 0 0 1 8.55-2.27 17 17 0 0 1 8.64 2.22 16 16 0 0 1 6.25 6.48 20.6 20.6 0 0 1 2.31 9.99m78.62-20.26a29 29 0 0 0-11.52-14.34q-7.9-5.08-18.17-5.08a32.5 32.5 0 0 0-16.37 4.2 31 31 0 0 0-11.7 11.75 35.6 35.6 0 0 0 0 33.9 31 31 0 0 0 11.7 11.7 32.5 32.5 0 0 0 16.37 4.2 31.4 31.4 0 0 0 15.44-3.83 31 31 0 0 0 11.2-10.45 32 32 0 0 0 4.99-14.57v-6.47h-34.69v6.84h25.72q-1.02 9.62-7.12 15.26t-15.54 5.64a24 24 0 0 1-12.16-3.1 22 22 0 0 1-8.51-8.83q-3.1-5.73-3.1-13.32t3.1-13.36a22 22 0 0 1 8.5-8.88 24 24 0 0 1 12.17-3.1 22.3 22.3 0 0 1 11.84 3.1 20 20 0 0 1 7.76 8.74zm56.14.18q0-8.32-5.69-13.6-5.69-5.26-16.6-5.26h-20.81v64.46h8.41v-26.91h12.4q11.28 0 16.78-5.32t5.51-13.36zm-22.3 11.75h-12.38v-23.67h12.39q13.69 0 13.69 11.93 0 5.64-3.33 8.7-3.33 3.04-10.36 3.04zm32.57-30.61v40.7q0 8.04 3.19 13.54a20 20 0 0 0 8.7 8.19 29.8 29.8 0 0 0 24.69 0 20.3 20.3 0 0 0 8.74-8.19q3.23-5.5 3.23-13.55v-40.7h-8.41v40.8q0 8.6-4.21 12.76t-11.61 4.16q-7.5 0-11.7-4.16t-4.2-12.76v-40.8z" style="fill-rule:evenodd;fill:#eee;stroke-width:.550595"/></svg>