<svg xmlns="http://www.w3.org/2000/svg" width="640.55" height="113.29" viewBox="0 0 169.48 29.98"><g transform="translate(-12.396 -107.455)"><rect width="59.59" height="28.71" x="13.03" y="108.09" ry="9.89" style="fill:#5d93e6;fill-opacity:1;stroke:#f2f2f2;stroke-width:1.265;stroke-dasharray:none;stroke-opacity:1"/><rect width="59.59" height="28.71" x="121.65" y="108.09" ry="9.89" style="fill:#5d93e6;fill-opacity:1;stroke:#f2f2f2;stroke-width:1.265;stroke-dasharray:none;stroke-opacity:1"/><path d="M31.89 124.19q0 1.07-.78 1.71-.77.64-2.2.64-1.27 0-2.27-.49v-1.59q.57.25 1.18.46.62.2 1.23.2.63 0 .9-.23.27-.25.27-.62 0-.3-.22-.52-.2-.22-.55-.4t-.8-.4q-.29-.14-.61-.32-.33-.2-.64-.46-.29-.28-.48-.68-.2-.4-.2-.95 0-1.08.74-1.68.73-.6 2-.6.63 0 1.2.14t1.2.42l-.56 1.33q-.55-.23-1-.35-.43-.13-.9-.13t-.74.23q-.26.22-.26.59 0 .43.38.67.39.25 1.14.61.62.3 1.05.61.44.32.68.75t.24 1.06m4.73-4.04q1.06 0 1.68.81.63.8.63 2.37 0 1.58-.67 2.4-.65.8-1.69.8-.68 0-1.08-.23-.4-.25-.62-.54h-.07l.04.47q.03.26.03.54v2.36h-1.7v-8.87h1.38l.24.8h.08q.24-.37.65-.64.4-.27 1.1-.27m-.57 1.35q-.65 0-.91.4-.25.41-.27 1.24v.18q0 .9.24 1.37.26.47.95.47.58 0 .86-.47.28-.48.28-1.38 0-1.8-1.15-1.8m7.66-1.35.36.02q.19.02.31.05l-.17 1.59q-.12-.04-.29-.05t-.4-.02q-.36 0-.7.15-.36.14-.6.48-.22.34-.22.93v3.12h-1.7v-6.16h1.3l.24 1.04h.08q.27-.48.74-.81t1.05-.34m2.5-2.32q.37 0 .65.18t.28.66q0 .46-.28.64t-.65.18q-.38 0-.65-.18t-.27-.64q0-.49.27-.66t.65-.18m.85 2.43v6.16h-1.7v-6.16zm4.31 4.93q.28 0 .54-.05l.52-.14v1.25q-.27.12-.68.2-.4.09-.86.09-.56 0-1-.18t-.69-.62q-.25-.46-.25-1.25v-2.97h-.8v-.7l.93-.57.48-1.3h1.08v1.31h1.72v1.26h-1.72v2.97q0 .35.2.53.2.17.53.17m4.88-5.04q1.28 0 2.02.72t.74 2.08v.82h-3.96q.03.7.43 1.1t1.16.4q.58 0 1.05-.11t.97-.34v1.28q-.45.22-.96.32-.5.12-1.24.12-.91 0-1.62-.34-.7-.35-1.11-1.05-.4-.7-.4-1.76 0-1.62.8-2.43t2.12-.81m.04 1.2q-.5 0-.83.33-.32.32-.36.95h2.32q-.01-.55-.3-.91-.26-.36-.83-.36" aria-label="Sprite" style="font-weight:600;font-size:11.2889px;font-family:Sans;-inkscape-font-specification:&quot;Sans, Semi-Bold&quot;;fill:#f2f2f2;stroke-width:.264583"/><path d="M83.82 117.05q1.77 0 1.77 1.32 0 .46-.23.75-.24.3-.58.46l1.28 2h-1.1l-1.02-1.74h-.54v1.74h-.97v-4.53zm-.02.75h-.4v1.29h.4q.4 0 .6-.16.21-.16.21-.52 0-.3-.2-.46-.19-.15-.6-.15m4.2.25q.72 0 1.14.4t.42 1.17v.47h-2.23q.02.4.24.62.23.22.65.22.33 0 .6-.06.26-.07.54-.2v.72q-.25.13-.54.19t-.7.06q-.51 0-.91-.19-.4-.2-.63-.59-.22-.4-.22-.99 0-.9.45-1.36t1.2-.46m.03.68q-.29 0-.47.18t-.2.54h1.3q0-.32-.16-.52t-.47-.2m4.41 2.92v-.26l.03-.26h-.04q-.13.21-.36.37-.23.14-.61.14-.59 0-.95-.45-.36-.46-.36-1.34t.37-1.34q.36-.46.95-.46.39 0 .62.14.24.15.38.37h.03l.09-.45h.8v5h-.95zm-.64-.76q.39 0 .54-.23.16-.22.16-.69v-.13q0-.5-.16-.77-.14-.27-.56-.27-.33 0-.5.28-.15.28-.15.78 0 1.03.67 1.03m5.72-2.78v3.47h-.74l-.12-.45h-.05q-.17.27-.46.4-.28.11-.61.11-.55 0-.9-.3-.33-.3-.33-.97v-2.26h.96v2.02q0 .37.13.56.13.18.42.18.43 0 .58-.29.16-.29.16-.84v-1.63zm1.42-1.36q.21 0 .36.1.16.1.16.37 0 .26-.16.36-.15.1-.36.1t-.37-.1-.15-.36q0-.28.15-.37.16-.1.37-.1m.48 1.36v3.47h-.96v-3.47zm2.85-.06.2.01.18.03-.1.9q-.06-.03-.16-.03-.1-.02-.23-.02-.2 0-.4.09-.19.08-.32.27t-.13.52v1.76h-.96v-3.47h.73l.14.59h.05q.15-.27.4-.46.28-.2.6-.2m2.27 0q.73 0 1.14.4.42.41.42 1.17v.47h-2.23q.02.4.24.62.23.22.66.22.32 0 .59-.06.26-.07.54-.2v.72q-.25.13-.54.19-.28.06-.7.06-.51 0-.91-.19-.4-.2-.62-.59-.23-.4-.23-.99 0-.9.45-1.36.46-.46 1.2-.46m.03.68q-.29 0-.47.18t-.2.54h1.3q0-.32-.16-.52-.15-.2-.47-.2m4.74 1.83q0 .5-.35.79t-1.08.3q-.37 0-.65-.06-.28-.04-.54-.15v-.8q.28.14.6.22t.56.07q.3 0 .42-.08.13-.08.13-.22 0-.1-.07-.17-.06-.08-.23-.16t-.48-.2q-.46-.2-.7-.41-.24-.23-.24-.66 0-.49.38-.73.38-.25 1-.25.33 0 .62.07.3.07.6.2l-.29.65q-.24-.1-.5-.18-.25-.07-.44-.07-.46 0-.46.26 0 .1.06.16.07.06.24.14l.48.2q.3.12.52.26.21.13.31.33.11.19.11.49" aria-label="Requires" style="font-weight:600;font-size:6.35px;font-family:Sans;-inkscape-font-specification:&quot;Sans, Semi-Bold&quot;;fill:#f2f2f2;stroke-width:.264583"/><path d="M131.58 118.33h-5.9v1.3h2.08v6.51h1.66v-6.51h1.98zm3.54 1.66c-.69 0-1.27.5-1.56 1.33l-.13-1.16h-1.4v5.98h1.6v-3.06c.2-.98.56-1.53 1.29-1.53.2 0 .35.03.54.08l.26-1.55q-.28-.09-.6-.09m5.67 4.5v-2.42c0-1.36-.72-2.1-2.38-2.1-.68 0-1.47.16-2.22.45l.38 1.07a5 5 0 0 1 1.58-.31c.74 0 1.06.23 1.06.98v.3h-.69c-1.76 0-2.75.7-2.75 2.01 0 1.09.74 1.85 1.94 1.85.7 0 1.36-.24 1.8-.89.24.59.7.8 1.37.87l.34-1.06c-.28-.1-.43-.27-.43-.76m-2.63.68q-.76-.02-.78-.83 0-.98 1.31-.97h.52v1.14q-.37.65-1.05.66m7.55-5.2c-.75 0-1.34.35-1.82.95l-.12-.76h-1.4v5.98h1.6V122c.34-.53.7-.83 1.17-.83.4 0 .65.19.65.88v4.08h1.6v-4.35c0-1.13-.63-1.81-1.68-1.81m5.16 0c-1.44 0-2.37.78-2.37 1.8 0 .9.56 1.5 1.77 1.83 1.1.3 1.32.45 1.32.9 0 .41-.38.66-.98.66s-1.15-.24-1.6-.59l-.8.88c.57.52 1.4.87 2.45.87 1.42 0 2.58-.7 2.58-1.94 0-1.06-.68-1.56-1.87-1.88-1.05-.3-1.26-.47-1.26-.82 0-.32.3-.54.83-.54q.77 0 1.49.48l.6-.92a3.4 3.4 0 0 0-2.16-.72m5.96-1.18q.42-.01.97.23l.44-1.06a4 4 0 0 0-1.58-.36c-1.45 0-2.19.86-2.19 1.96v.6h-.95v1.13h.95v4.85h1.6v-4.85h1.25l.18-1.13h-1.43v-.55c0-.57.22-.82.76-.82m3.8 1.19c-1.8 0-2.87 1.26-2.87 3.17 0 1.99 1.08 3.17 2.86 3.17 1.8 0 2.87-1.27 2.87-3.17 0-1.99-1.07-3.17-2.85-3.17m0 1.2c.78 0 1.2.6 1.2 1.97s-.42 1.98-1.2 1.98c-.8 0-1.2-.6-1.2-1.98 0-1.36.4-1.97 1.2-1.97m7.15-1.19c-.69 0-1.27.5-1.56 1.33l-.13-1.16h-1.4v5.98h1.6v-3.06c.2-.98.55-1.53 1.29-1.53.2 0 .35.03.54.08l.26-1.55q-.28-.09-.6-.09m7.85-.01c-.77 0-1.32.35-1.79.98a1.45 1.45 0 0 0-1.43-.98c-.75 0-1.3.34-1.74.94l-.11-.76h-1.4v5.98h1.6v-4.13c.3-.53.6-.83 1.04-.83.32 0 .59.19.59.88v4.08h1.6v-4.13c.3-.53.59-.83 1.03-.83.31 0 .58.19.58.88v4.08h1.6v-4.35c0-1.13-.64-1.81-1.57-1.81" aria-label="Transform" style="font-weight:600;font-size:11.2889px;font-family:&quot;Fira Sans&quot;;-inkscape-font-specification:&quot;Fira Sans, Semi-Bold&quot;;fill:#f2f2f2;stroke-width:.264583"/><g style="fill:#4d4d4d;fill-opacity:1;stroke:none;stroke-opacity:1"><path d="M72.66 124.13h45.22" style="fill:#4d4d4d;fill-opacity:1;stroke:none;stroke-opacity:1"/><path d="M72.66 123.37v1.37h45.22v-1.37z" style="fill:#f2f2f2;fill-opacity:1;stroke:none;stroke-opacity:1"/><g style="fill:#f2f2f2;fill-opacity:1;stroke:none;stroke-opacity:1"><path d="m117.73 121.26 4.5 2.25a.7.7 0 0 1 0 1.25l-4.5 2.25a.87.87 0 0 1-1.25-.78v-4.2a.87.87 0 0 1 1.25-.77" style="fill:#f2f2f2;fill-opacity:1;fill-rule:evenodd;stroke:none;stroke-width:.7;stroke-opacity:1" transform="translate(31.582 33.578)scale(.72886)"/></g></g></g></svg>