<svg xmlns="http://www.w3.org/2000/svg" width="203.01" height="85.03" viewBox="0 0 53.71 22.5"><defs><clipPath id="a" clipPathUnits="userSpaceOnUse"><path d="M0 38h38V0H0Z"/></clipPath></defs><g style="opacity:1;fill:#787878;fill-opacity:1;stroke-width:.755906;stroke-miterlimit:4;stroke-dasharray:none"><g style="fill:#787878;fill-opacity:1"><path d="M2246.03 2340.2h-.05a38 38 0 0 0-1.88 10.19c-.27 7.12.45 11.46-.37 16.08s-3.24 9.16-9.41 16.28c-7.34 8.49-18.98 15.05-32.42 17.27a70 70 0 0 1-7.92 4.36c10.46 3.94 21.4 4.15 30.08 1.3 15.28-5 14.1-8.6 20.94-19.1a35 35 0 0 1 7.15-7.9c7.12 3.1 14.14 5.1 18.51 4.6 2.35-5.44-.05-11.76-4.05-17.74 3.28-10.2-1.7-20.4-12.74-24.01a24 24 0 0 0-7.84-1.34zm8.28 14.96a4.17 4.25 48.68 0 1 3.2 1.4 4.17 4.25 48.68 0 1-.44 5.93 4.17 4.25 48.68 0 1-5.94-.32 4.17 4.25 48.68 0 1 .43-5.94 4.17 4.25 48.68 0 1 2.75-1.07m-68.38 45.38.39.22.4-.15z" style="fill:#787878;fill-opacity:1;stroke:none;stroke-width:.559814px;stroke-linecap:butt;stroke-linejoin:miter;stroke-opacity:1" transform="translate(-338.698 -370.064)scale(.16254)"/></g></g><g style="opacity:1;fill:#ececec;fill-opacity:1;stroke:none;stroke-width:.755906;stroke-miterlimit:4;stroke-dasharray:none;stroke-opacity:1"><g style="opacity:1;fill:#ececec;fill-opacity:1"><path d="M2191.15 2276.78c-5.98-.03-12.1 2.35-17.36 7.46-6.92 6.71-9.07 12.76-7.85 20.3l.33 2.07-2.07-.34c-15.18-2.46-33.98-1.22-55.37 7.43 6.29 2.7 17.83 7.2 30.63 13.34l4.06 1.96-4.41.9c-16.9 3.42-36.97 13.32-55.3 34.92 8.2-.63 24.95-2.6 42.43-2.58 9.71.02 19.29.69 27.08 2.71 7.8 2.02 14.03 5.44 16.37 11.29l.16.4-.07.42c-.39 2.18-.77 4.15-1.12 5.76-.82 3.7-4.01 6.68-8.2 9.34s-9.5 4.99-15.01 6.96c-11.04 3.96-22.78 6.48-27.97 6.96-1.1.1-1.54.5-1.96 1.27a8 8 0 0 0-.7 3.25c-.04 1.7.19 3.1.37 4.06 33.75 2.77 58.85-5.65 76.96-12.83 20.35-9.33 33.21-27.76 36-44.35 1.76-10.4 1.38-15.5-.3-19.83-1.7-4.34-4.93-8.2-9.03-15.55a48 48 0 0 1-5.02-13.69l-.2-.9.73-.59c7.54-6.04 13.68-12.64 15.91-17.45-4.57-4.86-12.48-5.89-21.32-4.94l-.73.07-.5-.52c-4.72-4.8-10.57-7.26-16.54-7.3m2.64 11.24a5.63 5.52 76.4 0 1 5.5 4.32 5.63 5.52 76.4 0 1-4.04 6.77 5.63 5.52 76.4 0 1-6.7-4.17 5.63 5.52 76.4 0 1 4.05-6.77 5.63 5.52 76.4 0 1 1.2-.15" style="color:#000;font-style:normal;font-variant:normal;font-weight:400;font-stretch:normal;font-size:medium;line-height:normal;font-family:sans-serif;font-variant-ligatures:normal;font-variant-position:normal;font-variant-caps:normal;font-variant-numeric:normal;font-variant-alternates:normal;font-variant-east-asian:normal;font-feature-settings:normal;font-variation-settings:normal;text-indent:0;text-align:start;text-decoration:none;text-decoration-line:none;text-decoration-style:solid;text-decoration-color:#000;letter-spacing:normal;word-spacing:normal;text-transform:none;writing-mode:lr-tb;direction:ltr;text-orientation:mixed;dominant-baseline:auto;baseline-shift:baseline;text-anchor:start;white-space:normal;shape-padding:0;shape-margin:0;inline-size:0;clip-rule:nonzero;display:inline;overflow:visible;visibility:visible;isolation:auto;mix-blend-mode:normal;color-interpolation:sRGB;color-interpolation-filters:linearRGB;solid-color:#000;solid-opacity:1;vector-effect:none;fill:#ececec;fill-opacity:1;fill-rule:nonzero;stroke:none;stroke-width:3.02362;stroke-linecap:butt;stroke-linejoin:miter;stroke-miterlimit:4;stroke-dasharray:none;stroke-dashoffset:0;stroke-opacity:1;color-rendering:auto;image-rendering:auto;shape-rendering:auto;text-rendering:auto;stop-color:#000;stop-opacity:1" transform="translate(-338.698 -370.064)scale(.16254)"/></g></g><g style="opacity:1;fill:#b2b2b2;fill-opacity:1;stroke-width:.755906;stroke-miterlimit:4;stroke-dasharray:none"><g style="fill:#b2b2b2;fill-opacity:1"><g style="opacity:1;fill:#b2b2b2;fill-opacity:1"><path d="M2230.9 2301.17q-2.89-.06-5.98.64l-.4.1a110 110 0 0 1-7.53 6.72 44 44 0 0 0 4.47 12c3.99 7.15 7.27 10.96 9.2 15.92s2.27 10.8.48 21.43c-2.22 13.18-10.24 27.13-22.96 37.43 9.87-2.88 18.28-8.19 23.86-14.62 6-6.95 8.01-10.88 8.72-14.84.7-3.96.04-8.3.32-15.66.18-4.75 1.2-8.9 2.48-12.55l.3-.87.93-.13c8.23-1.06 15.66-3.16 19.5-5.64-1.23-5.56-6.47-9.86-13.42-13.14l-.66-.31-.17-.71c-2.2-9.47-9.59-15.57-19.15-15.77m4.78 11.69a4.82 4.91 17.73 0 1 1.44.22 4.82 4.91 17.73 0 1 3.1 6.15 4.82 4.91 17.73 0 1-6.09 3.22 4.82 4.91 17.73 0 1-3.1-6.15 4.82 4.91 17.73 0 1 4.65-3.44" style="color:#000;font-style:normal;font-variant:normal;font-weight:400;font-stretch:normal;font-size:medium;line-height:normal;font-family:sans-serif;font-variant-ligatures:normal;font-variant-position:normal;font-variant-caps:normal;font-variant-numeric:normal;font-variant-alternates:normal;font-variant-east-asian:normal;font-feature-settings:normal;font-variation-settings:normal;text-indent:0;text-align:start;text-decoration:none;text-decoration-line:none;text-decoration-style:solid;text-decoration-color:#000;letter-spacing:normal;word-spacing:normal;text-transform:none;writing-mode:lr-tb;direction:ltr;text-orientation:mixed;dominant-baseline:auto;baseline-shift:baseline;text-anchor:start;white-space:normal;shape-padding:0;shape-margin:0;inline-size:0;clip-rule:nonzero;display:inline;overflow:visible;visibility:visible;isolation:auto;mix-blend-mode:normal;color-interpolation:sRGB;color-interpolation-filters:linearRGB;solid-color:#000;solid-opacity:1;vector-effect:none;fill:#b2b2b2;fill-opacity:1;fill-rule:nonzero;stroke:none;stroke-width:3.02362;stroke-linecap:butt;stroke-linejoin:miter;stroke-miterlimit:4;stroke-dasharray:none;stroke-dashoffset:0;stroke-opacity:1;color-rendering:auto;image-rendering:auto;shape-rendering:auto;text-rendering:auto;stop-color:#000;stop-opacity:1" transform="translate(-338.698 -370.064)scale(.16254)"/></g></g></g><g clip-path="url(#a)" transform="matrix(.57108 0 0 -.57565 32.62 22.12)"><path d="M0 0h6c1.1 0 2 .1 2-1v2a2 2 0 0 1-2 2h-8C-4 3-5.58.88-5-2l1.92-9.96C-2.75-13.5-.96-15 .96-15h6.96c1.1 0 .08 1.9.08 3v2a2 2 0 0 0-2-2H2c-1.1 0-1.83 1.04-2 2s-1.58 7.33-1.58 7.33C-1.92-.75-1.1 0 0 0" style="fill:#ffac33;fill-opacity:1;fill-rule:nonzero;stroke:none" transform="translate(6 32)"/><path d="M0 0h-6c-1.1 0-2.81.1-2.81-1v2c0 1.1 1.7 2 2.81 2h8C4 3 5.58.88 5-2c0 0-1.63-9.42-1.77-10-.35-1.5-2.04-3-4-3h-7.15c-1.1 0-.9 1.9-.9 3v2c0-1.1 1.72-2 2.82-2h4c1.1 0 1.83 1.04 2 2s1.58 7.33 1.58 7.33C1.92-.75 1.1 0 0 0" style="fill:#ffac33;fill-opacity:1;fill-rule:nonzero;stroke:none" transform="translate(31.813 32)"/><path d="M0 0c0 6.96-2.7 0-2.7 0s-3 6.96-3 0S-9-10-9-10H3.3S0-6.96 0 0" style="fill:#ffac33;fill-opacity:1;fill-rule:nonzero;stroke:none" transform="translate(21.709 15)"/><path d="M0 0c0-6.77-6.77-18.2-11-18.2S-22-6.76-22 0c0 5.2 1 6.32 3 6.32l8 .03h7c2.92 0 4-.69 4-6.35" style="fill:#ffcc4d;fill-opacity:1;fill-rule:nonzero;stroke:none" transform="translate(30 30.423)"/><path d="M0 0c0-1.1.1-2-1-2h-16c-1.1 0-1 .9-1 2v1c0 1.1 1.04 2 2.08 2H-2c1.04 0 2-.9 2-2Z" style="fill:#c1694f;fill-opacity:1;fill-rule:nonzero;stroke:none" transform="translate(28 4)"/><path d="M0 0c0-.76.04-1.37-1.37-1.37h-19.25C-21.92-1.37-22-.76-22 0v.25c0 .76.62 1.38 1.38 1.38h19.25C-.61 1.63 0 1 0 .25Z" style="fill:#c1694f;fill-opacity:1;fill-rule:nonzero;stroke:none" transform="translate(30 2.375)"/></g></svg>