<svg xmlns="http://www.w3.org/2000/svg" width="600" height="371" fill="none" stroke-linecap="square" stroke-miterlimit="10" viewBox="0 0 600 371"><path fill="#434343" d="M0 0h600v371H0z"/><path stroke="#fff" stroke-linecap="butt" d="M45.5 331.5h536"/><path stroke="#767676" stroke-linecap="butt" d="M45.5 270.5h536m-536-61h536m-536-60h536m-536-61h536"/><clipPath id="a"><path d="M45.55 88.28h535.9v243.17H45.55z"/></clipPath><path d="M198 331h-72v-50c0-1.1.9-2 2-2h68a2 2 0 0 1 2 2Z" clip-path="url(#a)"/><path fill="#4285f4" d="M198 331h-72v-50c0-1.1.9-2 2-2h68a2 2 0 0 1 2 2Z" clip-path="url(#a)"/><path d="M427 331h-72V220c0-1.1.9-2 2-2h68a2 2 0 0 1 2 2Z" clip-path="url(#a)"/><path fill="#4285f4" d="M427 331h-72V220c0-1.1.9-2 2-2h68a2 2 0 0 1 2 2Z" clip-path="url(#a)"/><path d="M272 331h-72v-60c0-1.1.9-2 2-2h68a2 2 0 0 1 2 2Z" clip-path="url(#a)"/><path fill="#c00" d="M272 331h-72v-60c0-1.1.9-2 2-2h68a2 2 0 0 1 2 2Z" clip-path="url(#a)"/><path d="M501 331h-72V149c0-1.1.9-2 2-2h68a2 2 0 0 1 2 2Z" clip-path="url(#a)"/><path fill="#c00" d="M501 331h-72V149c0-1.1.9-2 2-2h68a2 2 0 0 1 2 2Z" clip-path="url(#a)"/><path fill="#efefef" d="M33.05 331.22q0-1.54.31-2.46.31-.94.92-1.44.63-.5 1.57-.5.68 0 1.2.29.53.28.88.8t.53 1.27.18 2.04q0 1.51-.3 2.43t-.93 1.44-1.56.5q-1.24 0-1.96-.89-.84-1.06-.84-3.48m1.08 0q0 2.1.5 2.8.5.71 1.22.71.73 0 1.22-.7.5-.7.5-2.81 0-2.13-.5-2.82-.49-.7-1.24-.7-.72 0-1.16.6-.54.8-.54 2.92m-8.08-58.82 1.1-.09q.13.82.57 1.22.46.41 1.1.41.75 0 1.28-.58t.53-1.51q0-.91-.52-1.43-.5-.53-1.33-.53-.5 0-.92.24-.4.23-.64.6l-.98-.13.83-4.41h4.28v1H27.9l-.45 2.31q.76-.54 1.6-.54 1.13 0 1.9.78.78.78.78 2.01 0 1.16-.67 2.02-.83 1.03-2.25 1.03-1.18 0-1.93-.66-.73-.65-.84-1.73m7-1.98q0-1.53.31-2.45.31-.94.92-1.44.63-.5 1.57-.5.68 0 1.2.28.53.29.88.82.34.51.53 1.26.18.75.18 2.03 0 1.52-.3 2.44t-.93 1.44q-.61.5-1.56.5-1.24 0-1.96-.9-.84-1.05-.84-3.48m1.08 0q0 2.11.5 2.82.5.7 1.22.7.73 0 1.22-.7.5-.7.5-2.82t-.5-2.8-1.24-.71q-.72 0-1.16.6-.54.79-.54 2.91m-11.1-56.56h-1.05v-6.72q-.39.36-1.01.73-.61.36-1.1.53v-1.01q.88-.42 1.53-1 .68-.6.96-1.16h.67zm3.03-4.24q0-1.53.31-2.45.32-.94.92-1.44.63-.5 1.57-.5.68 0 1.2.28.53.28.88.82.34.51.53 1.26.18.75.18 2.03 0 1.52-.3 2.44t-.93 1.44q-.61.5-1.56.5-1.24 0-1.96-.9-.84-1.06-.84-3.48m1.08 0q0 2.11.5 2.81t1.22.7q.73 0 1.22-.7.5-.7.5-2.8 0-2.13-.5-2.82-.49-.7-1.24-.7-.72 0-1.15.6-.55.79-.55 2.91m5.92 0q0-1.53.31-2.45.31-.94.92-1.44.63-.5 1.57-.5.68 0 1.2.28.53.28.88.82.34.51.53 1.26.18.75.18 2.03 0 1.52-.3 2.44t-.93 1.44q-.61.5-1.56.5-1.24 0-1.96-.9-.84-1.06-.84-3.48m1.08 0q0 2.11.5 2.81t1.22.7 1.22-.7.5-2.8q0-2.13-.5-2.82-.49-.7-1.24-.7-.72 0-1.16.6-.54.79-.54 2.91m-11.11-56.56h-1.05v-6.71q-.39.36-1.01.73-.61.36-1.1.53v-1.01q.88-.43 1.53-1 .68-.6.96-1.16h.67zm3.03-2.25 1.1-.09q.13.81.57 1.22.46.4 1.1.4.75 0 1.28-.57.53-.58.53-1.52 0-.9-.52-1.42-.5-.53-1.33-.53-.5 0-.92.23-.4.24-.64.6l-.98-.13.83-4.4h4.28v1H27.9l-.45 2.3q.76-.54 1.6-.54 1.13 0 1.9.78.78.78.78 2.02 0 1.16-.67 2.01-.83 1.04-2.25 1.04-1.18 0-1.93-.66-.73-.66-.84-1.74m7-1.98q0-1.53.31-2.45.31-.94.92-1.44.63-.5 1.57-.5.68 0 1.2.28.53.28.88.81.34.52.53 1.27.18.75.18 2.03 0 1.52-.3 2.44t-.93 1.44q-.61.5-1.56.5-1.24 0-1.96-.9-.84-1.06-.84-3.48m1.08 0q0 2.11.5 2.81t1.22.7 1.22-.7.5-2.8q0-2.13-.5-2.82-.49-.7-1.24-.7-.72 0-1.16.6-.54.79-.54 2.91M24.6 91.27v1.01h-5.7q0-.37.13-.73.22-.58.7-1.14t1.38-1.3q1.4-1.15 1.9-1.83.5-.67.5-1.26 0-.63-.46-1.05-.45-.44-1.17-.44-.77 0-1.22.46-.45.45-.47 1.26l-1.08-.1q.11-1.23.83-1.85.73-.64 1.97-.64 1.23 0 1.95.69t.72 1.7q0 .51-.22 1.01-.2.49-.7 1.05-.48.55-1.61 1.5-.95.8-1.23 1.1-.27.28-.44.56zm1.45-3.22q0-1.53.31-2.45.32-.94.92-1.44.63-.5 1.57-.5.68 0 1.2.28.53.28.88.81.34.52.53 1.27.18.75.18 2.03 0 1.51-.3 2.44t-.93 1.43q-.61.5-1.56.5-1.24 0-1.96-.89-.84-1.06-.84-3.48m1.08 0q0 2.1.5 2.81.5.7 1.22.7.73 0 1.22-.7.5-.7.5-2.81 0-2.13-.5-2.81-.49-.7-1.24-.7-.72 0-1.15.6-.55.78-.55 2.9m5.92 0q0-1.53.31-2.45.31-.94.92-1.44.63-.5 1.57-.5.68 0 1.2.28.53.28.88.81.34.52.53 1.27.18.75.18 2.03 0 1.51-.3 2.44t-.93 1.43q-.61.5-1.56.5-1.24 0-1.96-.89-.84-1.06-.84-3.48m1.08 0q0 2.1.5 2.81.5.7 1.22.7.73 0 1.22-.7.5-.7.5-2.81 0-2.13-.5-2.81-.49-.7-1.24-.7-.72 0-1.16.6-.54.78-.54 2.9"/><path fill="#f3f3f3" d="m178.34 346.65 1.39-.15q.23 1.64 1.53 1.64.64 0 1.02-.33.37-.34.37-.84 0-.3-.14-.5-.13-.2-.4-.33-.26-.14-1.27-.46-.9-.26-1.33-.59-.42-.33-.67-.84-.25-.53-.25-1.13 0-.7.31-1.26.33-.57.9-.85.55-.3 1.38-.3 1.25 0 1.94.68.7.67.75 1.92l-1.44.08q-.1-.69-.4-.96-.3-.28-.88-.28t-.89.24-.31.6.28.58q.28.25 1.3.54 1.07.3 1.54.65.49.35.74.9.25.52.25 1.3 0 1.12-.7 1.88-.68.77-2.15.77-2.58 0-2.87-2.96m8.7-5.8v3.16q.31-.47.7-.69.4-.23.85-.23.6 0 1.01.33.43.31.6.9.12.44.12 1.47v3.66h-1.34v-3.28q0-1.16-.14-1.44-.2-.39-.7-.39-.52 0-.82.42-.28.42-.28 1.56v3.13h-1.36v-8.6zm5.66 4.27-1.22-.26q.22-.94.72-1.35.51-.42 1.48-.42.86 0 1.3.24t.64.65.2 1.5l-.01 1.92q0 .82.06 1.2.08.4.25.85h-1.34l-.18-.69q-.34.42-.75.63-.39.2-.82.2-.75 0-1.22-.5t-.47-1.33q0-.53.19-.92.18-.39.53-.62.36-.24 1.14-.43.93-.22 1.3-.4 0-.52-.08-.67-.07-.18-.27-.27-.19-.1-.55-.1t-.57.16-.33.61m1.8 1.35q-.26.09-.8.23-.63.17-.82.38-.2.18-.2.51 0 .36.22.61.22.23.53.23.3 0 .58-.18.28-.2.37-.47.11-.28.11-.99zm6.87 2.98h-1.27v-.92q-.3.53-.72.8-.42.26-.87.26-.86 0-1.5-.84-.63-.86-.63-2.44 0-1.6.61-2.4.63-.82 1.55-.82.42 0 .8.22.37.2.67.64v-3.1h1.36zm-3.61-3.25q0 .84.14 1.27.16.4.42.62.27.2.6.2.45 0 .78-.48.33-.49.33-1.45 0-1.07-.33-1.54-.32-.48-.82-.48-.46 0-.8.47-.32.47-.32 1.39m4.6.05q0-.9.37-1.66t.95-1.12q.6-.38 1.33-.38 1.22 0 1.92.97.7.95.7 2.25 0 .95-.37 1.73-.36.77-.95 1.16-.6.4-1.3.4-1.14 0-1.9-.87-.74-.87-.74-2.48m1.4.1q0 .93.36 1.41.37.49.89.49t.87-.49.36-1.44q0-.92-.37-1.4-.36-.49-.88-.49-.5 0-.87.49-.36.48-.36 1.42m5.9 3.1-1.63-6.22h1.3l.96 4.08.88-4.08h1.3l.85 4.08.99-4.08h1.32l-1.64 6.22h-1.3l-.87-4-.87 4zm6.55-1.78 1.36-.25q.17.98 1.08.98.5 0 .73-.18.24-.2.24-.49 0-.2-.1-.33-.12-.1-.45-.2-1.65-.44-2.1-.84-.57-.5-.57-1.36 0-.88.55-1.4.56-.5 1.6-.5 1 0 1.52.38.53.4.74 1.25l-1.27.28q-.17-.75-.97-.75-.5 0-.72.16-.2.14-.2.36t.2.34q.2.14 1.2.42 1.13.32 1.54.77.39.45.39 1.2 0 .9-.63 1.5-.6.58-1.7.58-.98 0-1.6-.48-.63-.5-.84-1.44m182.54 1.79v-8.6h1.37l2.9 5.74v-5.73h1.32v8.59h-1.44l-2.83-5.6v5.6zm6.65-3.2q0-.9.36-1.66.38-.75.95-1.12.6-.38 1.33-.38 1.22 0 1.92.97.7.95.7 2.25 0 .95-.37 1.73-.36.77-.95 1.16-.6.4-1.3.4-1.14 0-1.89-.87t-.75-2.48m1.4.1q0 .93.35 1.41.38.49.9.49.5 0 .87-.49.36-.48.36-1.44 0-.92-.38-1.4-.36-.49-.87-.49-.5 0-.88.49-.36.48-.36 1.42m7.57.3 1.4-.15q.23 1.64 1.52 1.64.64 0 1.02-.33.37-.34.37-.84 0-.3-.14-.5-.12-.2-.39-.33-.26-.14-1.28-.46-.9-.26-1.33-.59-.42-.33-.67-.84-.25-.53-.25-1.13 0-.7.31-1.26.33-.57.9-.85.56-.3 1.38-.3 1.25 0 1.94.68.7.67.75 1.92l-1.44.08q-.09-.69-.4-.96-.3-.28-.88-.28-.57 0-.89.24-.31.23-.31.6 0 .35.28.58.28.25 1.3.54 1.08.3 1.55.65.48.35.73.9.25.52.25 1.3 0 1.12-.69 1.88-.69.77-2.15.77-2.58 0-2.88-2.96m8.7-5.8V344q.32-.47.7-.69.4-.23.85-.23.61 0 1.02.33.42.31.59.9.13.44.13 1.47v3.66h-1.35v-3.28q0-1.16-.14-1.44-.2-.39-.7-.39-.52 0-.81.42t-.29 1.56v3.13h-1.36v-8.6zm5.66 4.27-1.22-.26q.22-.94.72-1.35.52-.42 1.48-.42.86 0 1.3.24t.64.65.2 1.5l-.01 1.92q0 .82.06 1.2.08.4.25.85h-1.34l-.17-.69q-.35.42-.75.63-.4.2-.83.2-.75 0-1.22-.5t-.47-1.33q0-.53.19-.92t.53-.62q.36-.24 1.14-.43.94-.22 1.3-.4 0-.52-.08-.67-.06-.18-.27-.27-.18-.1-.54-.1t-.58.16q-.2.16-.33.61m1.8 1.35q-.25.09-.8.23-.62.17-.81.38-.2.18-.2.51 0 .36.21.61.22.23.53.23.3 0 .58-.18.28-.2.38-.47.1-.28.1-.99zm6.87 2.98h-1.26v-.92q-.3.53-.72.8-.42.26-.88.26-.86 0-1.5-.84-.62-.86-.62-2.44 0-1.6.6-2.4.63-.82 1.55-.82.43 0 .8.22.38.2.67.64v-3.1h1.36zm-3.6-3.25q0 .84.13 1.27.16.4.43.62.26.2.59.2.45 0 .78-.48.33-.49.33-1.45 0-1.07-.33-1.54-.31-.48-.81-.48-.47 0-.8.47t-.33 1.39m4.6.05q0-.9.36-1.66.38-.75.95-1.12.6-.38 1.33-.38 1.22 0 1.92.97.7.95.7 2.25 0 .95-.37 1.73-.36.77-.95 1.16-.6.4-1.3.4-1.14 0-1.89-.87t-.75-2.48m1.4.1q0 .93.35 1.41.38.49.9.49.5 0 .87-.49.36-.48.36-1.44 0-.92-.38-1.4-.36-.49-.87-.49-.5 0-.88.49-.36.48-.36 1.42m5.88 3.1-1.62-6.22h1.31l.95 4.08.88-4.08h1.31l.85 4.08.98-4.08h1.33l-1.64 6.22h-1.3l-.87-4-.88 4zm6.57-1.78 1.36-.25q.17.98 1.07.98.5 0 .74-.18.23-.2.23-.49 0-.2-.1-.33-.12-.1-.44-.2-1.66-.44-2.11-.84-.57-.5-.57-1.36 0-.88.55-1.4.56-.5 1.6-.5 1 0 1.53.38.53.4.73 1.25l-1.27.28q-.17-.75-.96-.75-.5 0-.72.16-.2.14-.2.36t.2.34q.18.14 1.2.42 1.12.32 1.53.77t.4 1.2q0 .9-.63 1.5-.61.58-1.7.58-1 0-1.62-.48-.62-.5-.82-1.44"/><path fill="#4285f4" d="M242 56.92a1 1 0 0 1 1-1h10a1 1 0 0 1 1 1v10a1 1 0 0 1-1 1h-10a1 1 0 0 1-1-1Z"/><path fill="#f3f3f3" d="M262.88 65.92v-8.6h3.23q.98 0 1.58.27.6.26.92.81.34.53.34 1.13 0 .54-.3 1.03-.3.48-.9.78.78.23 1.19.8.42.54.42 1.3 0 .59-.25 1.12-.25.51-.63.8-.37.28-.95.42-.56.14-1.37.14zm1.14-4.99h1.86q.75 0 1.07-.1.44-.12.66-.41.22-.32.22-.77 0-.42-.2-.75t-.6-.44q-.37-.12-1.3-.12h-1.71zm0 3.97h2.14q.54 0 .76-.05.4-.06.66-.21.26-.18.44-.49t.17-.72q0-.48-.25-.84-.24-.36-.67-.5t-1.27-.14h-1.98zm11.03-.98 1.1.12q-.26.95-.96 1.49-.7.53-1.78.53-1.36 0-2.18-.85-.8-.84-.8-2.36 0-1.56.82-2.42.81-.87 2.1-.87 1.24 0 2.02.84.8.84.8 2.4v.27h-4.64q.06 1.03.58 1.58.51.53 1.3.53.57 0 .98-.3t.66-.96m-3.46-1.7h3.47q-.06-.8-.39-1.2-.51-.6-1.31-.6-.74 0-1.24.48-.48.49-.53 1.31m6.46 3.7V60.5h-.94v-.81h.94v-.67q0-.63.1-.93.16-.42.54-.67.39-.25 1.08-.25.45 0 .98.11l-.16.9q-.32-.04-.62-.04-.49 0-.69.2t-.19.77v.58h1.22v.81h-1.22v5.4zm2.36-3.11q0-1.74.95-2.57.8-.68 1.95-.68 1.28 0 2.1.84.82.83.82 2.31 0 1.2-.36 1.9-.35.68-1.06 1.07-.69.38-1.5.38-1.3 0-2.1-.83-.8-.84-.8-2.42m1.07 0q0 1.18.52 1.78.53.6 1.31.6.8 0 1.31-.6.52-.6.52-1.81 0-1.16-.53-1.75-.52-.6-1.3-.6t-1.31.6q-.52.57-.52 1.78m6.3 3.1v-6.2h.95v.94q.36-.66.66-.86.31-.22.69-.22.53 0 1.08.33l-.36.98q-.4-.23-.77-.23-.36 0-.64.21-.26.2-.37.58-.2.56-.2 1.22v3.27zm8.27-2 1.1.13q-.26.95-.96 1.49-.7.53-1.78.53-1.36 0-2.18-.85-.8-.84-.8-2.36 0-1.56.82-2.42.81-.87 2.1-.87 1.24 0 2.02.84.8.84.8 2.4v.27h-4.64q.06 1.03.58 1.58.51.53 1.3.53.57 0 .98-.3t.66-.96m-3.46-1.7h3.47q-.06-.8-.39-1.18-.51-.61-1.31-.61-.74 0-1.24.48-.48.49-.53 1.31"/><path fill="#c00" d="M314 56.92a1 1 0 0 1 1-1h10a1 1 0 0 1 1 1v10a1 1 0 0 1-1 1h-10a1 1 0 0 1-1-1Z"/><path fill="#f3f3f3" d="m333.98 65.92 3.3-8.6h1.22l3.52 8.6h-1.29l-1.01-2.61h-3.58l-.95 2.6zm2.49-3.53h2.9l-.89-2.38q-.42-1.08-.6-1.78-.18.83-.47 1.64zm5.58 3.53V60.5h-.94v-.81h.94v-.67q0-.63.1-.93.16-.42.54-.67.39-.25 1.08-.25.45 0 .98.11l-.16.9q-.32-.04-.62-.04-.49 0-.69.2t-.19.77v.58h1.22v.81h-1.22v5.4zm5.04-.94.16.92q-.45.1-.8.1-.57 0-.89-.18-.31-.18-.45-.48-.13-.3-.13-1.25V60.5h-.76v-.81h.76v-1.55l1.05-.62v2.17h1.06v.81h-1.06v3.64q0 .45.05.58t.19.2q.12.08.36.08.18 0 .46-.03m4.96-1.06 1.1.12q-.26.95-.96 1.49-.7.53-1.78.53-1.36 0-2.18-.85-.8-.84-.8-2.36 0-1.56.82-2.42.81-.87 2.1-.87 1.24 0 2.02.84.8.84.8 2.4v.27h-4.64q.06 1.03.58 1.58.51.53 1.3.53.57 0 .98-.3t.66-.96m-3.46-1.7h3.47q-.06-.8-.39-1.2-.51-.6-1.31-.6-.74 0-1.24.48-.48.49-.53 1.31m6.2 3.7v-6.2h.94v.94q.36-.66.66-.86.31-.22.69-.22.53 0 1.08.33l-.36.98q-.4-.23-.77-.23-.36 0-.64.21-.26.2-.37.58-.2.56-.2 1.22v3.27zM31.33 37.55h-2.58l-1.03-3.25h-4.69l-.96 3.25h-2.52l4.58-14.31h2.5zm-4.37-5.67-1.61-5.31-1.6 5.3zm7.1 5.67-3.42-10.37H33l1.6 5.3.47 1.76.46-1.77 1.63-5.3h2.31l-3.39 10.38zm11.6-3.3 2.23.46q-.43 1.56-1.39 2.32-.95.75-2.3.75-1.88 0-2.92-1.26-1.2-1.45-1.2-4.1 0-2.59 1.22-4.15 1.03-1.33 2.67-1.33 1.83 0 2.86 1.34 1.2 1.55 1.2 4.57l-.01.3h-5.64q.03 1.23.56 1.92.53.67 1.28.67 1.08 0 1.44-1.49m.12-2.78q-.01-1.2-.51-1.81-.49-.61-1.16-.61-.72 0-1.2.63-.5.64-.48 1.8zm6.11 6.08h-2.26V27.18h2.1v1.48q.54-1.05.96-1.38.42-.34.98-.34.77 0 1.47.52l-.7 2.39q-.56-.44-1.06-.44-.47 0-.83.34-.34.35-.5 1.25t-.16 3.35zm5.52-7.2-2.03-.46q.36-1.57 1.22-2.26t2.45-.69q1.42 0 2.17.4.77.4 1.08 1.1.33.69.33 2.5l-.02 3.2q0 1.35.1 2 .1.66.4 1.41H60.9l-.3-1.14q-.57.69-1.23 1.03-.65.34-1.4.34-1.24 0-2.04-.82-.78-.85-.78-2.24 0-.87.32-1.53t.9-1.05 1.88-.68q1.56-.36 2.18-.68 0-.86-.12-1.12-.12-.28-.45-.44-.33-.17-.93-.17t-.95.28q-.34.27-.56 1.02m3.02 2.22q-.44.17-1.35.4-1.05.28-1.36.61-.33.33-.33.86 0 .6.36 1t.9.4q.48 0 .95-.32.47-.33.64-.77.18-.45.18-1.64zm4.09 5.67 2.58.37q.06.56.36.8.3.25.93.25.75 0 1.2-.25.33-.17.5-.58.18-.4.18-1.45v-1.52q-.5.85-1.14 1.27t-1.4.42q-1.43 0-2.4-1.28-1.1-1.47-1.1-3.97 0-2.66 1.04-4 1.06-1.36 2.55-1.36.8 0 1.43.42.66.42 1.16 1.27v-1.45h2.1v9.3q0 2.24-.4 3.24-.4 1.02-1.26 1.52-.85.51-2.36.51-1.4 0-2.25-.37-.83-.36-1.28-1.1-.44-.73-.44-1.7zm2.01-6.1q0 1.68.54 2.44.53.75 1.28.75.8 0 1.39-.76.58-.79.58-2.35 0-1.62-.57-2.39-.54-.78-1.36-.78-.8 0-1.32.77-.54.75-.54 2.32m13.13 2.11 2.23.46q-.43 1.56-1.39 2.32-.95.75-2.3.75-1.88 0-2.92-1.26-1.2-1.45-1.2-4.1 0-2.59 1.22-4.15 1.03-1.33 2.67-1.33 1.83 0 2.86 1.34 1.2 1.55 1.2 4.57l-.01.3h-5.64q.03 1.23.56 1.92.53.67 1.28.67 1.08 0 1.44-1.49m.12-2.78q-.01-1.2-.51-1.81-.49-.61-1.16-.61-.72 0-1.2.63-.5.64-.48 1.8zm8.99 6.08V23.24h8.05v2.42h-5.7v3.39h4.91v2.42h-4.9v6.08zm9.97 0V23.24h3.81q2.13 0 2.78.2 1.05.33 1.72 1.42.69 1.08.69 2.78 0 1.57-.6 2.61-.57 1.05-1.47 1.47-.87.42-3.01.42h-1.55v5.41zm2.37-11.9v4.07h1.3q1.33 0 1.8-.19.47-.18.76-.67.31-.48.31-1.18 0-.72-.3-1.2-.32-.5-.79-.65-.45-.17-1.94-.17zm8.03 7.24 2.32-.28q.39 2.75 2.56 2.75 1.08 0 1.69-.56.62-.56.62-1.4 0-.48-.22-.82t-.65-.56-2.13-.74q-1.51-.46-2.22-1-.7-.53-1.12-1.4-.4-.88-.4-1.9 0-1.16.52-2.1.53-.94 1.47-1.4.94-.5 2.31-.5 2.07 0 3.22 1.13 1.17 1.13 1.25 3.22l-2.37.13q-.16-1.16-.69-1.61-.52-.47-1.47-.47t-1.47.4-.51 1q0 .58.47.99.46.39 2.15.87 1.78.52 2.58 1.1.8.56 1.22 1.47t.42 2.18q0 1.88-1.16 3.14-1.14 1.27-3.57 1.27-4.33 0-4.82-4.9m16.07-.67q0-1.53.59-2.78.6-1.25 1.58-1.87t2.22-.63q2.04 0 3.22 1.61 1.17 1.6 1.17 3.75 0 1.6-.61 2.9t-1.61 1.94-2.17.64q-1.9 0-3.14-1.43-1.25-1.46-1.25-4.13m2.3.14q0 1.58.6 2.4.63.79 1.5.79.85 0 1.46-.81.6-.82.6-2.4 0-1.54-.62-2.35-.6-.81-1.47-.81-.84 0-1.47.8-.6.82-.6 2.38m15.96 5.19h-2.26v-5.3q0-1.6-.13-2.1-.12-.54-.47-.82t-.78-.28q-.58 0-1.03.36t-.64 1.02q-.19.64-.19 2.42v4.7h-2.26V27.18h2.09v1.53q.56-.9 1.25-1.33.7-.44 1.56-.44.99 0 1.66.52.69.51.94 1.32.26.8.26 2.32zm6.47-2.95 2.25-.43q.3 1.63 1.83 1.63.81 0 1.2-.31.4-.32.4-.82 0-.34-.16-.53-.2-.2-.74-.34-2.78-.73-3.53-1.4-.94-.83-.94-2.27 0-1.45.93-2.31.92-.88 2.65-.88 1.67 0 2.55.66.87.64 1.22 2.1l-2.13.46q-.28-1.25-1.6-1.25-.82 0-1.18.25-.34.23-.34.6 0 .35.3.59.34.23 2.03.7 1.87.52 2.54 1.28.67.75.67 2 0 1.5-1.03 2.49-1.03.96-2.84.96-1.66 0-2.7-.8-1.05-.82-1.38-2.38m8.72-7.43h2.4l2.02 7.36 2-7.35h2.31l-3 9.98-.56 1.94q-.39 1.1-.76 1.6-.38.5-.96.77-.58.28-1.44.28-.65 0-1.28-.15l-.18-2.16q.53.13.95.13.64 0 1.05-.44.42-.42.68-1.55zm17.81 10.38h-2.26v-5.3q0-1.6-.13-2.1-.12-.54-.47-.82t-.78-.28q-.58 0-1.03.36t-.64 1.02q-.19.64-.19 2.42v4.7h-2.26V27.18h2.09v1.53q.56-.9 1.25-1.33.7-.44 1.56-.44.99 0 1.66.52.69.51.94 1.32.26.8.26 2.32zm6.14-10.37v2.18h-1.53v4.19q0 1.36.08 1.56.12.4.55.4.3 0 .9-.27l.19 2.14q-.78.4-1.77.4-.85 0-1.37-.4-.52-.42-.69-1.19-.14-.56-.14-2.3v-4.53h-1.03v-2.18h1.03V25.1l2.25-1.6v3.66zm.05 0h2.4l2.02 7.35 2-7.35h2.31l-3 9.98-.56 1.94q-.39 1.1-.76 1.6-.38.5-.96.77-.58.28-1.44.28-.65 0-1.28-.15l-.18-2.16q.53.13.95.13.64 0 1.05-.44.42-.42.68-1.55zm15.1 10.37V23.24h8.06v2.42h-5.7v3.39h4.91v2.42h-4.9v6.08zm11.65-7.2-2.03-.46q.36-1.57 1.22-2.26t2.45-.69q1.42 0 2.17.4.77.4 1.08 1.1.33.69.33 2.5l-.02 3.2q0 1.35.1 2 .1.66.4 1.41h-2.22l-.3-1.14q-.57.69-1.23 1.03-.65.34-1.4.34-1.24 0-2.03-.82-.79-.85-.79-2.24 0-.87.32-1.53t.9-1.05 1.88-.68q1.56-.36 2.19-.68 0-.86-.13-1.12-.12-.28-.45-.44-.33-.17-.92-.17-.61 0-.96.28-.34.27-.56 1.02m3.02 2.22q-.44.17-1.35.4-1.05.28-1.36.61-.33.33-.33.86 0 .6.36 1t.9.4q.48 0 .95-.32.47-.33.64-.77.19-.45.19-1.64zm12.04 4.98h-2.26v-5.3q0-1.6-.13-2.1-.12-.54-.47-.82t-.78-.28q-.58 0-1.03.36t-.64 1.02q-.19.64-.19 2.42v4.7h-2.26V27.18h2.09v1.53q.56-.9 1.25-1.33.7-.44 1.56-.44.99 0 1.66.52.69.51.94 1.32.26.8.26 2.32zm6.14-10.37v2.18h-1.53v4.19q0 1.36.08 1.56.12.4.55.4.3 0 .9-.27l.19 2.14q-.78.4-1.77.4-.85 0-1.37-.4-.52-.42-.69-1.19-.14-.56-.14-2.3v-4.53h-1.03v-2.18h1.03V25.1l2.25-1.6v3.66zm2.8 3.17-2.03-.46q.36-1.57 1.22-2.26t2.45-.69q1.42 0 2.17.4.77.4 1.08 1.1.33.69.33 2.5l-.02 3.2q0 1.35.1 2 .1.66.4 1.41h-2.22l-.3-1.14q-.57.69-1.23 1.03-.65.34-1.4.34-1.24 0-2.03-.82-.79-.85-.79-2.24 0-.87.32-1.53t.9-1.05 1.88-.68q1.56-.36 2.19-.68 0-.86-.13-1.12-.12-.28-.45-.44-.33-.17-.92-.17-.61 0-.96.28-.34.27-.56 1.02m3.02 2.22q-.44.17-1.35.4-1.05.28-1.36.61-.33.33-.33.86 0 .6.36 1t.9.4q.48 0 .95-.32.47-.33.64-.77.19-.45.19-1.64zm3.51 2.03 2.25-.43q.3 1.63 1.83 1.63.81 0 1.2-.31.4-.32.4-.82 0-.34-.16-.53-.2-.2-.74-.34-2.78-.73-3.53-1.4-.94-.83-.94-2.27 0-1.45.93-2.31.92-.88 2.65-.88 1.67 0 2.55.66.87.64 1.22 2.1l-2.13.46q-.28-1.25-1.6-1.25-.82 0-1.18.25-.34.23-.34.6 0 .35.3.59.34.23 2.03.7 1.87.52 2.54 1.28.67.75.67 2 0 1.5-1.03 2.49-1.03.96-2.84.96-1.66 0-2.7-.8-1.05-.82-1.38-2.38m8.72-7.43h2.4l2.02 7.36 2-7.35h2.31l-3 9.98-.56 1.94q-.39 1.1-.76 1.6-.38.5-.96.77-.58.28-1.44.28-.65 0-1.28-.15l-.18-2.16q.53.13.95.13.64 0 1.05-.44.42-.42.68-1.55zm15.1 10.38V23.24h2.37v6.36l4.8-6.36h3.2l-4.42 5.58 4.65 8.73h-3.08l-3.21-6.72-1.94 2.4v4.32zm11.98-11.78v-2.53H278v2.53zm0 11.78V27.18H278v10.37zm11.73 0h-2.26v-5.3q0-1.6-.13-2.1-.12-.54-.47-.82t-.78-.28q-.58 0-1.03.36t-.64 1.02q-.19.64-.19 2.42v4.7h-2.26V27.18h2.09v1.53q.56-.9 1.25-1.33.7-.44 1.56-.44.99 0 1.66.52.69.51.94 1.32.26.8.26 2.32zm2.05.69 2.58.37q.06.56.36.8.3.25.93.25.75 0 1.2-.25.34-.17.5-.58.18-.4.18-1.45v-1.52q-.5.85-1.14 1.27t-1.4.42q-1.43 0-2.4-1.28-1.1-1.47-1.1-3.97 0-2.66 1.04-4 1.06-1.36 2.55-1.36.8 0 1.43.42.66.42 1.16 1.27v-1.45h2.1v9.3q0 2.24-.4 3.24-.4 1.02-1.26 1.52-.85.51-2.36.51-1.4 0-2.25-.37-.83-.36-1.28-1.1-.44-.73-.44-1.7zm2.01-6.1q0 1.68.54 2.44.53.75 1.28.75.8 0 1.39-.76.58-.79.58-2.35 0-1.62-.57-2.39-.54-.78-1.36-.78-.8 0-1.32.77-.54.75-.54 2.32m16 5.41h-2.09v-1.53q-.51.89-1.22 1.33-.7.43-1.45.43-1.42 0-2.49-1.42-1.06-1.42-1.06-4.06 0-2.66 1.03-4 1.05-1.36 2.57-1.36.7 0 1.32.36t1.14 1.1v-5.16h2.25zm-6-5.4q0 1.4.24 2.09t.67 1.03q.45.34 1.02.34.73 0 1.28-.8.54-.8.54-2.4 0-1.8-.53-2.58t-1.34-.78q-.78 0-1.33.77-.55.76-.55 2.32m7.68.07q0-1.53.59-2.78.6-1.25 1.58-1.87t2.22-.63q2.04 0 3.22 1.61 1.17 1.6 1.17 3.75 0 1.6-.61 2.9t-1.61 1.94-2.17.64q-1.9 0-3.14-1.43-1.25-1.46-1.25-4.13m2.3.14q0 1.58.6 2.4.63.79 1.5.79.85 0 1.46-.81.6-.82.6-2.4 0-1.54-.62-2.35-.6-.81-1.47-.81-.84 0-1.47.8-.6.82-.6 2.38m8.04-5.18h2.08v1.42q.56-.83 1.22-1.24.67-.42 1.43-.42.82 0 1.41.42.61.4 1 1.24.56-.83 1.2-1.24.66-.42 1.4-.42.87 0 1.5.42.62.4.95 1.19.33.77.33 2.38v6.62h-2.25v-5.92q0-1.56-.29-2.06-.26-.52-.92-.52-.75 0-1.2.72-.45.7-.45 2.8v4.98h-2.27v-5.69q0-1.68-.19-2.17-.23-.64-.98-.64-.5 0-.92.33-.4.33-.6.97-.18.64-.18 2.15v5.05h-2.27zm26.72 5.1 2.28.9q-.53 2.4-1.78 3.51t-3.08 1.11q-2.3 0-3.72-1.78-1.64-2.03-1.64-5.5 0-3.66 1.66-5.74 1.44-1.8 3.86-1.8 1.97 0 3.3 1.35.93.97 1.38 2.85l-2.34.68q-.23-1.15-.9-1.78-.66-.62-1.58-.62-1.3 0-2.13 1.14-.81 1.12-.81 3.73 0 2.7.8 3.84.8 1.15 2.09 1.15.94 0 1.6-.72.7-.74 1-2.32m6.14-1.93-2.03-.46q.36-1.57 1.22-2.26t2.45-.69q1.42 0 2.17.4.77.4 1.08 1.1.33.69.33 2.5l-.02 3.2q0 1.35.1 2 .1.66.4 1.41h-2.22l-.3-1.14q-.57.69-1.23 1.03-.65.34-1.4.34-1.24 0-2.03-.82-.79-.85-.79-2.24 0-.87.32-1.53t.9-1.05 1.88-.68q1.56-.36 2.19-.68 0-.86-.13-1.12-.12-.28-.45-.44-.33-.17-.93-.17t-.95.28q-.34.27-.56 1.02m3.01 2.22q-.43.17-1.34.4-1.05.28-1.36.61-.33.33-.33.86 0 .6.36 1t.9.4q.48 0 .95-.32.47-.33.64-.77.19-.45.19-1.64zm3.52 2.03 2.25-.43q.3 1.63 1.83 1.63.81 0 1.2-.31.4-.32.4-.82 0-.34-.16-.53-.2-.2-.74-.34-2.78-.73-3.53-1.4-.94-.83-.94-2.27 0-1.45.93-2.31.92-.88 2.65-.88 1.67 0 2.55.66.87.64 1.22 2.1l-2.13.46q-.28-1.25-1.6-1.25-.82 0-1.18.25-.34.23-.34.6 0 .35.3.59.34.23 2.03.7 1.87.52 2.54 1.28.67.75.67 2 0 1.5-1.03 2.49-1.03.96-2.84.96-1.66 0-2.7-.8-1.05-.82-1.38-2.38m13.67-7.43v2.2h-1.53v4.18q0 1.36.08 1.56.12.4.55.4.3 0 .9-.27l.19 2.14q-.78.4-1.77.4-.85 0-1.37-.4-.52-.42-.69-1.19-.14-.56-.14-2.3v-4.53h-1.03v-2.18h1.03V25.1l2.25-1.6v3.66zm1.13 10.38V23.24h2.25v14.31zm8.92-3.3 2.23.46q-.43 1.56-1.39 2.32-.95.75-2.3.75-1.88 0-2.92-1.26-1.2-1.45-1.2-4.1 0-2.59 1.22-4.15 1.03-1.33 2.67-1.33 1.83 0 2.86 1.34 1.2 1.55 1.2 4.57l-.01.3h-5.64q.03 1.23.56 1.92.53.67 1.28.67 1.08 0 1.44-1.49m.12-2.78q-.01-1.2-.51-1.81-.49-.61-1.16-.61-.72 0-1.2.63-.5.64-.49 1.8zm8.16 3.13 2.25-.43q.3 1.63 1.83 1.63.81 0 1.2-.31.4-.32.4-.82 0-.34-.16-.53-.2-.2-.74-.34-2.78-.73-3.53-1.4-.94-.83-.94-2.27 0-1.45.93-2.31.92-.88 2.65-.88 1.67 0 2.55.66.87.64 1.22 2.1l-2.13.46q-.28-1.25-1.6-1.25-.82 0-1.18.25-.34.23-.34.6 0 .35.3.59.34.23 2.03.7 1.87.52 2.54 1.28.67.75.67 2 0 1.5-1.03 2.49-1.03.96-2.84.96-1.66 0-2.7-.8-1.05-.82-1.38-2.38m17.2-4.36-2.21.5q-.24-1.64-1.54-1.64-.82 0-1.34.7-.5.7-.5 2.37 0 1.85.5 2.61.52.77 1.36.77.64 0 1.05-.44.4-.44.59-1.53l2.22.45q-.69 3.75-3.94 3.75-2.08 0-3.1-1.57-1-1.6-1-3.82 0-2.67 1.13-4.06 1.14-1.39 3-1.39 1.49 0 2.42.8.96.78 1.36 2.5m6.52 4.01 2.23.46q-.43 1.56-1.39 2.32-.95.75-2.3.75-1.88 0-2.92-1.26-1.2-1.45-1.2-4.1 0-2.59 1.22-4.15 1.03-1.33 2.67-1.33 1.83 0 2.86 1.34 1.2 1.55 1.2 4.57l-.01.3h-5.64q.03 1.23.56 1.92.53.67 1.28.67 1.08 0 1.44-1.49m.12-2.78q-.01-1.2-.51-1.81-.49-.61-1.16-.61-.72 0-1.2.63-.5.64-.49 1.8zm11.7 6.08h-2.27v-5.3q0-1.6-.13-2.1-.12-.54-.47-.82t-.78-.28q-.58 0-1.03.36t-.64 1.02q-.19.64-.19 2.42v4.7h-2.26V27.18h2.09v1.53q.56-.9 1.25-1.33.7-.44 1.56-.44.99 0 1.66.52.69.51.94 1.32.26.8.26 2.32zm7.18-3.3 2.23.46q-.43 1.56-1.39 2.32-.95.75-2.3.75-1.88 0-2.92-1.26-1.2-1.45-1.2-4.1 0-2.59 1.22-4.15 1.03-1.33 2.67-1.33 1.83 0 2.86 1.34 1.2 1.55 1.2 4.57l-.01.3h-5.64q.03 1.23.56 1.92.53.67 1.28.67 1.08 0 1.44-1.49m.12-2.78q-.01-1.2-.51-1.81-.49-.61-1.16-.61-.72 0-1.2.63-.5.64-.49 1.8z"/></svg>