<svg xmlns="http://www.w3.org/2000/svg" width="600" height="371" fill="none" stroke-linecap="square" stroke-miterlimit="10" viewBox="0 0 600 371"><path fill="#434343" d="M0 0h600v371H0z"/><path stroke="#fff" stroke-linecap="butt" d="M78.5 298.5h503"/><path stroke="#767676" stroke-linecap="butt" d="M78.5 256.5h503m-503-42h503m-503-42h503m-503-41h503m-503-42h503"/><clipPath id="a"><path d="M78.55 89.28h502.9v209.17H78.55z"/></clipPath><path d="M156 298h-36V148c0-1.1.9-2 2-2h32a2 2 0 0 1 2 2Z" clip-path="url(#a)"/><path fill="#4285f4" d="M156 298h-36V148c0-1.1.9-2 2-2h32a2 2 0 0 1 2 2Z" clip-path="url(#a)"/><path d="M271 298h-36V160c0-1.1.9-2 2-2h32a2 2 0 0 1 2 2Z" clip-path="url(#a)"/><path fill="#4285f4" d="M271 298h-36V160c0-1.1.9-2 2-2h32a2 2 0 0 1 2 2Z" clip-path="url(#a)"/><path d="M387 298h-36V193c0-1.1.9-2 2-2h32a2 2 0 0 1 2 2Z" clip-path="url(#a)"/><path fill="#4285f4" d="M387 298h-36V193c0-1.1.9-2 2-2h32a2 2 0 0 1 2 2Z" clip-path="url(#a)"/><path d="M502 298h-36V155c0-1.1.9-2 2-2h32a2 2 0 0 1 2 2Z" clip-path="url(#a)"/><path fill="#4285f4" d="M502 298h-36V155c0-1.1.9-2 2-2h32a2 2 0 0 1 2 2Z" clip-path="url(#a)"/><path d="M194 298h-36V131c0-1.1.9-2 2-2h32a2 2 0 0 1 2 2Z" clip-path="url(#a)"/><path fill="#ea4335" d="M194 298h-36V131c0-1.1.9-2 2-2h32a2 2 0 0 1 2 2Z" clip-path="url(#a)"/><path d="M309 298h-36V157c0-1.1.9-2 2-2h32a2 2 0 0 1 2 2Z" clip-path="url(#a)"/><path fill="#ea4335" d="M309 298h-36V157c0-1.1.9-2 2-2h32a2 2 0 0 1 2 2Z" clip-path="url(#a)"/><path d="M425 298h-36V190c0-1.1.9-2 2-2h32a2 2 0 0 1 2 2Z" clip-path="url(#a)"/><path fill="#ea4335" d="M425 298h-36V190c0-1.1.9-2 2-2h32a2 2 0 0 1 2 2Z" clip-path="url(#a)"/><path d="M540 298h-36V150c0-1.1.9-2 2-2h32a2 2 0 0 1 2 2Z" clip-path="url(#a)"/><path fill="#ea4335" d="M540 298h-36V150c0-1.1.9-2 2-2h32a2 2 0 0 1 2 2Z" clip-path="url(#a)"/><path fill="#f3f3f3" d="M306.8 349.45v-7.14h-2.08v-1.45h5.6v1.45h-2.1v7.14zm8.37-1.98 1.35.28q-.29.93-.85 1.39t-1.37.45q-1.14 0-1.75-.75-.74-.89-.74-2.47 0-1.56.74-2.5.62-.78 1.6-.78 1.1 0 1.73.8.71.94.71 2.73l-.01.19h-3.38q.02.73.33 1.14t.77.4q.65 0 .87-.88m.08-1.66q-.02-.74-.31-1.1-.3-.37-.7-.37-.43 0-.72.4-.3.37-.3 1.07zm1.48 1.86 1.36-.25q.18.98 1.08.98.5 0 .74-.18.23-.2.23-.49 0-.2-.1-.33-.12-.1-.45-.2-1.65-.44-2.1-.84-.57-.5-.57-1.36 0-.88.55-1.4.56-.5 1.6-.5 1 0 1.52.38.54.4.74 1.25l-1.27.28q-.17-.75-.97-.75-.5 0-.71.16-.2.14-.2.36t.2.34q.18.14 1.2.42 1.12.32 1.53.77.39.45.39 1.2 0 .9-.62 1.5-.61.58-1.7.58-1 0-1.62-.48-.62-.5-.83-1.44m7.82-4.44v1.31h-.93v2.5q0 .82.04.96.09.23.34.23.19 0 .53-.17l.13 1.28q-.47.25-1.07.25-.51 0-.82-.25-.32-.25-.43-.7-.07-.35-.07-1.4v-2.7h-.63v-1.3h.63V342l1.36-.97v2.2zm3.3 3.42 1.4-.15q.23 1.64 1.53 1.64.64 0 1.02-.33.37-.34.37-.84 0-.3-.14-.5-.12-.2-.39-.33-.26-.14-1.28-.46-.9-.26-1.33-.59-.42-.33-.67-.84-.25-.53-.25-1.13 0-.7.31-1.26.33-.57.9-.85.56-.3 1.38-.3 1.25 0 1.94.68.7.67.75 1.92l-1.44.08q-.1-.69-.4-.96-.3-.28-.88-.28t-.89.24-.31.6.28.58q.28.25 1.3.54 1.07.3 1.54.65.49.35.74.9.25.52.25 1.3 0 1.12-.69 1.88-.69.77-2.16.77-2.57 0-2.87-2.96m11.8-1.6-1.32.3q-.14-.96-.92-.96-.5 0-.82.42-.3.42-.3 1.42 0 1.11.3 1.56.32.46.83.46.38 0 .63-.25.25-.27.34-.94l1.34.28q-.42 2.25-2.37 2.25-1.24 0-1.84-.95-.61-.96-.61-2.28 0-1.6.68-2.43.7-.84 1.8-.84.9 0 1.45.47.57.47.82 1.5m3.52 2.42 1.35.28q-.29.93-.85 1.39t-1.37.45q-1.14 0-1.75-.75-.74-.89-.74-2.47 0-1.56.74-2.5.62-.78 1.6-.78 1.1 0 1.73.8.71.94.71 2.73l-.01.19h-3.38q.02.73.33 1.14t.77.4q.65 0 .87-.88m.08-1.66q-.02-.74-.31-1.1-.3-.37-.7-.37-.43 0-.72.4-.3.37-.3 1.07zm6.6 3.64h-1.35v-3.17q0-.95-.08-1.27t-.3-.5q-.2-.17-.45-.17-.34 0-.62.22t-.4.6-.1 1.48v2.81h-1.35v-6.22h1.25v.9q.33-.52.75-.77.43-.27.94-.27.58 0 .99.31.42.3.56.78t.15 1.4zm4.32-1.98 1.35.28q-.29.93-.85 1.39t-1.37.45q-1.14 0-1.75-.75-.74-.89-.74-2.47 0-1.56.74-2.5.62-.78 1.6-.78 1.1 0 1.73.8.71.94.71 2.73l-.01.19h-3.38q.02.73.33 1.14t.77.4q.65 0 .87-.88m.08-1.66q-.02-.74-.31-1.1-.3-.37-.7-.37-.43 0-.72.4-.3.37-.3 1.07zM30.55 240.54h-8.6v-4.75h1.02v3.81h2.66v-3.3h1.01v3.3h3.91zm0-5.81h-6.22v-.77h.94q-.66-.31-.86-.55-.22-.25-.22-.56 0-.44.33-.89l.98.3q-.23.31-.23.62 0 .28.2.52.19.22.53.31.61.16 1.28.16h3.27zm-.77-6.33q.46.44.7.9.21.47.21.97 0 .8-.48 1.28-.49.47-1.3.47-.53 0-.94-.22-.42-.21-.65-.6-.24-.4-.36-1.18-.14-1.06-.36-1.54h-.27q-.64 0-.89.21-.37.33-.37 1 0 .6.25.9.23.3.92.43l-.14.86q-1-.19-1.46-.73-.45-.56-.45-1.6 0-.8.3-1.25.3-.46.75-.57.44-.13 1.3-.13h1.4q1.49 0 1.88-.05.37-.06.73-.23v.9q-.33.15-.77.18m-2.35.08q.23.46.4 1.4.1.55.22.77.1.22.33.34.22.11.5.11.45 0 .72-.26.26-.29.26-.77 0-.47-.23-.84-.25-.38-.64-.57-.4-.18-1.17-.18zm3.12-1.75h-6.22v-.79h.88q-.5-.25-.75-.65-.27-.4-.27-.9 0-.52.28-.9.27-.37.8-.53-.53-.31-.8-.7-.28-.4-.28-.88 0-.73.5-1.15.49-.43 1.6-.43h4.26v.86h-3.92q-.67 0-.94.11-.28.1-.44.32-.15.2-.15.48 0 .55.45.9.44.35 1.4.35h3.6v.87H26.5q-.76 0-1.07.24-.33.23-.33.66 0 .59.48.93.47.35 1.74.35h3.23zm-2-11.49.13-.89q1 .22 1.51.81.5.58.5 1.44 0 1.08-.81 1.75-.83.67-2.4.67-1.6 0-2.45-.67-.84-.67-.84-1.72 0-.98.83-1.64.83-.67 2.4-.67h.29v3.81q1.04-.04 1.57-.48.54-.44.54-1.05 0-.98-1.27-1.36m-1.7 2.85v-2.85q-.82.05-1.22.35-.58.4-.58 1.06 0 .58.48.98.49.4 1.32.46m1.84-4.04-.16-.84q.66-.08.97-.42.32-.35.32-.9 0-.57-.27-.87-.28-.31-.72-.31-.36 0-.56.27-.14.17-.36.87-.31 1.02-.52 1.36-.21.33-.57.52-.38.18-.85.18-.8 0-1.28-.5-.5-.51-.5-1.42 0-.56.2-.98.2-.44.55-.67.34-.24.99-.32l.14.85q-1.02.1-1.02 1.1 0 .57.23.85.22.27.58.27.35 0 .53-.27.13-.16.38-.94.36-1.08.56-1.39.19-.31.55-.48.34-.19.83-.19.89 0 1.43.58.55.56.55 1.53 0 1.84-2 2.12m4.25-8.32h-8.6v-.79h.79q-.5-.3-.72-.65t-.22-.81q0-.61.36-1.1.34-.48 1.08-.78.73-.3 1.75-.3 1.6 0 2.45.68.86.65.86 1.54 0 .4-.2.75t-.58.6h3.03zm-5.47-.77q1.2 0 1.78-.4.57-.41.57-.99 0-.55-.58-.95-.6-.43-1.83-.43-1.22 0-1.8.41-.6.4-.6.97 0 .53.63.97.63.42 1.83.42m1.08-7.72.13-.89q1 .22 1.51.81.5.58.5 1.44 0 1.08-.81 1.75-.83.67-2.4.67-1.6 0-2.45-.67-.84-.67-.84-1.72 0-.98.83-1.64.83-.67 2.4-.67h.29v3.81q1.04-.04 1.57-.48.54-.44.54-1.05 0-.98-1.27-1.36m-1.7 2.85v-2.85q-.82.05-1.22.35-.58.4-.58 1.06 0 .58.48.98.49.4 1.32.46m3.7-4.36h-6.22v-.77h.94q-.66-.31-.86-.55-.22-.25-.22-.56 0-.44.33-.89l.98.3q-.23.31-.23.62 0 .28.2.52.19.22.53.31.61.16 1.28.16h3.27zm-1.86-5.68-.16-.84q.66-.08.97-.42.32-.35.32-.9 0-.57-.27-.87-.28-.31-.72-.31-.36 0-.56.27-.14.17-.36.87-.31 1.02-.52 1.36-.21.33-.57.52-.38.18-.85.18-.8 0-1.28-.5-.5-.51-.5-1.42 0-.56.2-.98.2-.44.55-.67.34-.24.99-.32l.14.85q-1.02.1-1.02 1.1 0 .57.23.85.22.27.58.27.35 0 .53-.27.13-.16.38-.94.36-1.08.56-1.39.19-.31.55-.48.34-.19.83-.19.89 0 1.43.58.55.56.55 1.53 0 1.84-2 2.12m-.14-8.8.13-.9q1 .22 1.51.81.5.58.5 1.44 0 1.08-.81 1.75-.83.67-2.4.67-1.6 0-2.45-.67-.84-.67-.84-1.72 0-.98.83-1.64.83-.67 2.4-.67h.29v3.81q1.04-.04 1.57-.48.54-.44.54-1.05 0-.98-1.27-1.36m-1.7 2.84v-2.85q-.82.05-1.22.35-.58.4-.58 1.06 0 .58.48.98.49.4 1.32.46m1.42-7.7.14-.85q1.1.14 1.7.73.58.6.58 1.42 0 1-.81 1.66-.83.64-2.45.64-1.61 0-2.43-.65-.8-.66-.8-1.7 0-.77.5-1.32.48-.55 1.46-.69l.16.83q-.64.13-.96.44-.31.3-.31.72 0 .64.58 1.06.56.42 1.78.42 1.28 0 1.84-.39.57-.4.57-1.05 0-.48-.38-.82-.37-.36-1.17-.46m-.83-1.34q-1.6 0-2.42-.67-.83-.69-.83-1.72 0-1.01.83-1.7.81-.69 2.36-.69 1.67 0 2.5.67.81.68.81 1.72 0 1.03-.81 1.72-.83.67-2.44.67m0-.89q1.2 0 1.8-.43.58-.44.58-1.08 0-.61-.6-1.05t-1.78-.44q-1.2 0-1.78.44-.6.44-.6 1.1 0 .6.6 1.04.58.42 1.78.42m3.11-4.43h-6.22v-.77h.88q-.52-.28-.77-.69-.25-.42-.25-.93 0-.43.16-.77.15-.34.42-.56.26-.22.69-.32.4-.1 1.26-.1h3.83v.85h-3.78q-.69 0-1 .13-.33.1-.5.36-.17.25-.17.58 0 .62.47 1 .45.36 1.57.36h3.41zm0-8.3h-.78q.45.23.69.6t.23.79q0 .9-.84 1.56-.86.66-2.4.66-1.07 0-1.8-.28-.76-.3-1.1-.78-.36-.5-.36-1.1 0-.42.24-.78.21-.37.6-.62h-3.07v-.86h8.59zm-3.1 2.73q1.2 0 1.79-.42.58-.42.58-.98 0-.55-.57-.96t-1.68-.4q-1.32 0-1.91.4-.61.41-.61 1.04 0 .53.58.93t1.81.4m38.61 134.07q0-1.54.31-2.46.31-.94.92-1.44.63-.5 1.57-.5.68 0 1.2.29.53.28.88.8t.53 1.27.18 2.04q0 1.51-.3 2.43t-.93 1.44-1.56.5q-1.24 0-1.96-.89-.84-1.06-.84-3.48m1.08 0q0 2.1.5 2.8.5.71 1.22.71.73 0 1.22-.7.5-.7.5-2.81 0-2.13-.5-2.82-.49-.7-1.24-.7-.72 0-1.16.6-.54.8-.54 2.92M64.6 259.6v1.02h-5.7q0-.38.13-.74.22-.58.7-1.14t1.38-1.3q1.4-1.15 1.9-1.82t.5-1.27q0-.62-.46-1.05-.45-.43-1.17-.43-.77 0-1.22.45t-.47 1.27l-1.08-.11q.11-1.22.83-1.85.73-.64 1.97-.64 1.23 0 1.95.69t.72 1.7q0 .52-.22 1.02-.2.48-.7 1.04-.48.55-1.61 1.5-.95.8-1.23 1.1-.27.28-.44.56zm1.45-1.23 1.1-.1q.13.82.57 1.22.45.4 1.1.4.75 0 1.28-.57.53-.58.53-1.52 0-.9-.52-1.42-.5-.53-1.33-.53-.5 0-.92.24-.4.23-.64.59l-.98-.13.83-4.4h4.28v1H67.9l-.45 2.31q.76-.55 1.6-.55 1.13 0 1.9.78.78.79.78 2.02 0 1.16-.67 2.02-.83 1.03-2.25 1.03-1.18 0-1.93-.66-.73-.66-.84-1.73m-6.99-41.84 1.1-.09q.13.81.57 1.22.45.4 1.1.4.75 0 1.28-.57.53-.58.53-1.52 0-.9-.52-1.42-.5-.53-1.33-.53-.5 0-.92.23-.4.24-.64.6l-.98-.13.83-4.4h4.28v1H60.9l-.45 2.3q.76-.54 1.6-.54 1.13 0 1.9.78.78.78.78 2.02 0 1.15-.67 2.01-.83 1.03-2.25 1.03-1.18 0-1.93-.65-.73-.66-.84-1.74m7-1.98q0-1.53.31-2.45.31-.94.92-1.44.63-.5 1.57-.5.68 0 1.2.28.53.28.88.81.34.52.53 1.27.18.75.18 2.03 0 1.51-.3 2.44t-.93 1.43-1.56.5q-1.24 0-1.96-.89-.84-1.06-.84-3.48m1.08 0q0 2.1.5 2.81.5.7 1.22.7.73 0 1.22-.7.5-.7.5-2.81 0-2.13-.5-2.81-.49-.7-1.24-.7-.72 0-1.16.6-.54.78-.54 2.9m-8.01-45.06v-1.01h5.56v.82q-.8.88-1.62 2.33-.8 1.44-1.23 2.97-.33 1.08-.41 2.36h-1.1q.02-1.02.4-2.45.39-1.44 1.09-2.77.72-1.33 1.53-2.25zm6.94 5.22 1.1-.1q.13.82.57 1.22.45.41 1.1.41.75 0 1.28-.58t.53-1.51q0-.9-.52-1.42-.5-.54-1.33-.54-.5 0-.92.24-.4.23-.64.6l-.98-.13.83-4.4h4.28v1H67.9l-.45 2.3q.76-.54 1.6-.54 1.13 0 1.9.78.78.78.78 2.01 0 1.16-.67 2.02-.83 1.03-2.25 1.03-1.18 0-1.93-.66-.73-.65-.84-1.73m-10.02-39.58h-1.05v-6.72q-.39.36-1.01.73-.61.36-1.1.53v-1.01q.88-.42 1.53-1 .68-.6.96-1.16h.67zm3.03-4.24q0-1.53.31-2.45.31-.94.92-1.44.63-.5 1.57-.5.68 0 1.2.28.53.28.88.82.34.51.53 1.26.18.75.18 2.03 0 1.52-.3 2.44t-.93 1.44q-.61.5-1.56.5-1.24 0-1.96-.9-.84-1.06-.84-3.48m1.08 0q0 2.11.5 2.81t1.22.7 1.22-.7.5-2.8q0-2.13-.5-2.82-.49-.7-1.24-.7-.72 0-1.16.6-.54.79-.54 2.91m5.92 0q0-1.53.31-2.45.31-.94.92-1.44.63-.5 1.57-.5.68 0 1.2.28.53.28.88.82.34.51.53 1.26.18.75.18 2.03 0 1.52-.3 2.44t-.93 1.44q-.61.5-1.56.5-1.24 0-1.96-.9-.84-1.06-.84-3.48m1.08 0q0 2.11.5 2.81t1.22.7q.73 0 1.22-.7.5-.7.5-2.8 0-2.13-.5-2.82-.49-.7-1.24-.7-.72 0-1.16.6-.54.79-.54 2.91m-11.11-37.6h-1.05v-6.72q-.39.36-1.01.74-.61.36-1.1.53v-1.02q.88-.42 1.53-1 .68-.59.96-1.15h.67zm8.58-1.01v1.01h-5.7q0-.37.13-.73.22-.58.7-1.14t1.38-1.3q1.4-1.15 1.9-1.83.5-.67.5-1.26 0-.63-.46-1.05-.45-.44-1.17-.44-.77 0-1.22.46-.45.45-.47 1.26l-1.08-.1q.11-1.23.83-1.85.73-.64 1.97-.64 1.23 0 1.95.69t.72 1.7q0 .51-.22 1.01-.2.49-.7 1.05-.48.55-1.61 1.5-.95.8-1.23 1.1-.27.28-.44.56zm1.45-1.24 1.1-.09q.13.81.57 1.22.45.4 1.1.4.75 0 1.28-.57.53-.58.53-1.52 0-.9-.52-1.42-.5-.53-1.33-.53-.5 0-.92.23-.4.24-.64.6l-.98-.13.83-4.4h4.28v1H67.9l-.45 2.3q.76-.54 1.6-.54 1.13 0 1.9.78.78.78.78 2.02 0 1.15-.67 2.01-.83 1.03-2.25 1.03-1.18 0-1.93-.65-.73-.66-.84-1.74m77.26 216.83h2.82q1.15 0 1.62.21t.78.74q.33.53.33 1.22 0 .6-.28 1.1-.27.5-.7.76.62.22.97.76.36.53.36 1.32 0 .93-.46 1.57-.44.64-1.06.8-.42.11-1.98.11h-2.4zm1.43 1.43v1.99h.93q.85 0 1.04-.03.37-.07.57-.32t.2-.67q0-.37-.17-.6-.17-.26-.4-.3-.24-.07-1.36-.07zm0 3.41v2.3h1.3q.87 0 1.12-.08.25-.1.4-.36.18-.27.18-.69t-.2-.69q-.16-.28-.46-.37-.28-.11-1.2-.11zm5.56-3.31v-1.53h1.36v1.53zm0 7.06v-6.22h1.36v6.22zm2.53-1.78 1.36-.25q.17.98 1.08.98.5 0 .73-.18.24-.2.24-.49 0-.2-.1-.33-.12-.1-.45-.2-1.66-.44-2.1-.84-.57-.5-.57-1.36 0-.88.54-1.4.57-.5 1.61-.5 1 0 1.52.38.53.4.73 1.25l-1.26.28q-.17-.75-.97-.75-.5 0-.72.16-.2.14-.2.36t.2.34q.19.14 1.2.42 1.13.32 1.54.77.39.45.39 1.2 0 .9-.63 1.5-.6.58-1.7.58-.99 0-1.61-.48-.63-.5-.83-1.44m7.81-4.44v1.31h-.92v2.5q0 .82.03.96.1.23.35.23.18 0 .53-.17l.12 1.28q-.47.25-1.06.25-.52 0-.83-.25t-.42-.7q-.08-.35-.08-1.4v-2.7h-.62v-1.3h.62V309l1.36-.97v2.2zm1.96 6.22h-1.35v-6.22h1.25v.88q.33-.61.58-.82t.6-.2q.45 0 .87.31l-.42 1.43q-.33-.27-.63-.27-.28 0-.5.22-.22.2-.31.75-.1.55-.1 2zm2.39-3.2q0-.9.36-1.66.37-.75.95-1.12.6-.38 1.33-.38 1.22 0 1.92.97.7.95.7 2.25 0 .95-.37 1.73-.36.77-.96 1.16-.59.4-1.3.4-1.13 0-1.88-.87t-.75-2.48m1.39.1q0 .93.36 1.41.37.49.89.49.51 0 .87-.49.36-.48.36-1.44 0-.92-.37-1.4-.36-.49-.88-.49-.5 0-.87.49-.36.48-.36 1.42m88.68.31 1.4-.15q.23 1.64 1.53 1.64.64 0 1.01-.33.38-.34.38-.84 0-.3-.14-.5-.13-.2-.4-.33-.26-.14-1.28-.46-.9-.26-1.32-.59t-.68-.84q-.25-.53-.25-1.13 0-.7.32-1.26.33-.57.89-.85.56-.3 1.39-.3 1.25 0 1.94.68.7.67.75 1.92l-1.44.08q-.1-.69-.4-.96-.3-.28-.88-.28t-.9.24q-.3.23-.3.6 0 .35.28.58.28.25 1.3.54 1.07.3 1.54.65.48.35.73.9.25.52.25 1.3 0 1.12-.68 1.88-.7.77-2.16.77-2.58 0-2.88-2.96m7.32-3.42h1.25v.9q.26-.48.68-.76t.91-.28q.88 0 1.5.83.64.83.64 2.36 0 1.6-.64 2.47-.62.84-1.5.84-.4 0-.76-.19-.35-.2-.74-.72v3.14h-1.34zm1.33 3q0 1.06.34 1.56.34.49.83.49.47 0 .78-.45.31-.47.31-1.5 0-1-.33-1.47-.31-.47-.78-.47-.5 0-.83.47-.32.45-.32 1.37m4.39.02q0-.9.36-1.66.37-.75.95-1.12.6-.38 1.33-.38 1.22 0 1.92.97.7.95.7 2.25 0 .95-.37 1.73-.36.77-.96 1.16-.59.4-1.3.4-1.13 0-1.88-.87t-.75-2.48m1.39.1q0 .93.36 1.41.37.49.89.49.51 0 .87-.49.36-.48.36-1.44 0-.92-.37-1.4-.36-.49-.88-.49-.5 0-.87.49-.36.48-.36 1.42m9.56 3.1h-1.34v-3.17q0-.95-.08-1.27t-.3-.5q-.2-.17-.45-.17-.35 0-.63.22-.26.22-.39.6-.1.4-.1 1.48v2.81h-1.35v-6.22h1.25v.9q.33-.52.75-.77.42-.27.94-.27.57 0 .98.31.42.3.56.78.16.49.16 1.4zm.83 0v-1.28l1.9-2.69q.47-.66.7-.92l-.62.01-1.8.02v-1.36h4.22v1.16l-1.95 2.75-.69.9.69-.04h2.1v1.45zm6.54-4.33-1.21-.26q.21-.94.71-1.35.52-.42 1.49-.42.86 0 1.3.24t.64.65.2 1.5l-.02 1.92q0 .82.07 1.2.07.4.25.85h-1.35l-.17-.69q-.34.42-.75.63-.39.2-.83.2-.75 0-1.22-.5t-.47-1.33q0-.53.2-.92.18-.39.52-.62.36-.24 1.14-.43.94-.22 1.3-.4 0-.52-.08-.67-.06-.18-.26-.27-.19-.1-.55-.1t-.58.16q-.2.16-.33.61m1.8 1.35q-.25.09-.8.23-.62.17-.8.38-.21.18-.21.51 0 .36.22.61.22.23.53.23.3 0 .58-.18.28-.2.37-.47.11-.28.11-.99zm73.95.19 1.4-.15q.23 1.64 1.53 1.64.64 0 1.01-.33.38-.34.38-.84 0-.3-.14-.5-.13-.2-.4-.33-.26-.14-1.28-.46-.9-.26-1.32-.59t-.68-.84q-.25-.53-.25-1.13 0-.7.32-1.26t.89-.85 1.39-.3q1.25 0 1.94.68.7.67.75 1.92l-1.44.08q-.1-.69-.4-.96-.3-.28-.88-.28t-.9.24q-.3.23-.3.6 0 .35.27.58.29.25 1.3.54 1.08.3 1.55.65.48.35.73.9.25.52.25 1.3 0 1.12-.68 1.88-.7.77-2.16.77-2.58 0-2.88-2.96m8.36-1.53-1.22-.26q.22-.94.72-1.35.52-.42 1.49-.42.86 0 1.3.24t.64.65.2 1.5l-.02 1.92q0 .82.07 1.2.07.4.25.85h-1.35l-.17-.69q-.34.42-.75.63-.4.2-.83.2-.75 0-1.22-.5t-.47-1.33q0-.53.2-.92.18-.39.52-.62.36-.24 1.14-.43.94-.22 1.3-.4 0-.52-.08-.67-.06-.18-.26-.27t-.55-.1q-.36 0-.58.16-.2.16-.33.61m1.8 1.35q-.25.09-.8.23-.62.17-.8.38-.21.18-.21.51 0 .36.22.61.22.23.53.23.3 0 .58-.18.28-.2.37-.47.11-.28.11-.99zm6.83 2.98h-1.35v-3.17q0-.95-.07-1.27t-.3-.5q-.2-.17-.45-.17-.35 0-.63.22-.26.22-.39.6-.1.4-.1 1.48v2.81h-1.35v-6.22h1.25v.9q.33-.52.75-.77.42-.27.94-.27.57 0 .98.31.42.3.56.78.16.49.16 1.4zm4.36 0v-8.6h2.12l1.28 5.87 1.27-5.86h2.12v8.59H389v-6.77l-1.41 6.77h-1.38l-1.39-6.77v6.77zm8-7.06v-1.53h1.36v1.53zm0 7.06v-6.22h1.36v6.22zm2.87.4 1.55.24q.03.34.2.49.19.14.58.14.45 0 .72-.15.2-.1.3-.35t.1-.86v-.93q-.3.52-.68.77t-.85.25q-.84 0-1.42-.77-.67-.87-.67-2.37 0-1.6.63-2.4.64-.82 1.53-.82.47 0 .86.25t.7.77v-.88h1.27v5.58q0 1.34-.25 1.94t-.77.92q-.5.31-1.42.31-.83 0-1.35-.23-.5-.22-.76-.66-.27-.44-.27-1.03zm1.2-3.63q0 .98.32 1.45.33.45.78.45.48 0 .83-.45.36-.47.36-1.42 0-.97-.35-1.44-.32-.47-.8-.47-.5 0-.82.47-.31.45-.31 1.4m8.29 3.23v-.94q-.28.52-.75.8t-.94.28q-.52 0-.92-.26-.4-.27-.6-.75-.18-.49-.18-1.41v-3.94h1.36v2.86q0 1.22.06 1.55t.26.51q.22.2.52.2.34 0 .62-.24.29-.25.38-.61.1-.38.1-1.64v-2.63h1.34v6.22zm5.6-1.98 1.35.28q-.28.93-.84 1.39-.57.45-1.38.45-1.14 0-1.75-.75-.73-.89-.73-2.47 0-1.56.73-2.5.63-.78 1.61-.78 1.1 0 1.72.8.72.94.72 2.73l-.02.19h-3.37q.01.73.33 1.14.3.4.76.4.66 0 .88-.88m.08-1.66q-.01-.74-.3-1.1-.3-.37-.71-.37-.42 0-.72.4-.3.37-.3 1.07zm1.96 3.64v-8.6h1.36v8.6zm63.1.01v-8.6h1.42v3.4h2.79v-3.4h1.43v8.6h-1.43v-3.75h-2.79v3.75zm6.99-7.06v-1.53h1.36v1.53zm0 7.06v-6.22h1.36v6.22zm7.68 0h-1.26v-.92q-.3.53-.72.8-.42.26-.87.26-.86 0-1.5-.84-.63-.86-.63-2.44 0-1.6.6-2.4.63-.82 1.56-.82.42 0 .8.22.37.2.67.64v-3.1h1.35zm-3.6-3.25q0 .84.14 1.27.15.4.42.62.26.2.6.2.44 0 .77-.48.33-.49.33-1.45 0-1.07-.33-1.54-.31-.48-.81-.48-.47 0-.8.47-.32.47-.32 1.39m9.6 3.25h-1.26v-.92q-.3.53-.72.8-.42.26-.87.26-.86 0-1.5-.84-.63-.86-.63-2.44 0-1.6.6-2.4.63-.82 1.56-.82.42 0 .8.22.37.2.67.64v-3.1h1.35zm-3.6-3.25q0 .84.14 1.27.15.4.42.62.26.2.6.2.44 0 .77-.48.33-.49.33-1.45 0-1.07-.33-1.54-.31-.48-.81-.48-.47 0-.8.47-.32.47-.32 1.39m7.89 1.27 1.34.28q-.28.93-.84 1.39-.57.45-1.38.45-1.14 0-1.75-.75-.73-.89-.73-2.47 0-1.56.73-2.5.63-.78 1.61-.78 1.1 0 1.72.8.72.94.72 2.73l-.02.19h-3.37q.01.73.33 1.14.3.4.76.4.66 0 .88-.88m.07-1.66q-.01-.74-.3-1.1-.3-.37-.71-.37-.42 0-.72.4-.3.37-.3 1.07zm6.6 3.64h-1.35v-3.17q0-.95-.07-1.27t-.3-.5q-.2-.17-.45-.17-.35 0-.63.22-.26.22-.39.6-.1.4-.1 1.48v2.81h-1.35v-6.22h1.25v.9q.33-.52.75-.77.42-.27.93-.27.58 0 .99.31.42.3.56.78.16.49.16 1.4zm10.72 0h-1.55l-.61-1.95h-2.81l-.58 1.95h-1.52l2.75-8.6h1.5zm-2.61-3.4-.97-3.2-.95 3.2zm3.25 3.4v-8.6h1.36v8.6zm3 0v-8.6h1.36v8.6zm5.97-1.98 1.34.28q-.28.93-.84 1.39-.57.45-1.38.45-1.14 0-1.75-.75-.73-.89-.73-2.47 0-1.56.73-2.5.63-.78 1.61-.78 1.1 0 1.72.8.72.94.72 2.73l-.02.19h-3.37q.01.73.33 1.14.3.4.76.4.66 0 .88-.88m.07-1.66q-.01-.74-.3-1.1-.3-.37-.71-.37-.42 0-.72.4-.3.37-.3 1.07zm1.32-2.58h1.43l1.22 4.4 1.2-4.4h1.4l-1.8 5.99-.34 1.17q-.24.65-.47.95-.22.31-.58.47-.34.17-.84.17-.4 0-.77-.1l-.13-1.29q.32.08.58.08.38 0 .63-.27.25-.25.4-.93z"/><path fill="#4285f4" d="M227 57.42a1 1 0 0 1 1-1h10a1 1 0 0 1 1 1v10a1 1 0 0 1-1 1h-10a1 1 0 0 1-1-1Z"/><path fill="#f3f3f3" d="M247.73 66.92v-8.6h2.65q.8 0 1.26.25.47.25.77.78.3.54.3 1.16 0 .6-.27 1.08-.25.47-.72.75.62.23.97.76.36.54.36 1.33 0 .77-.33 1.36-.31.6-.84.86-.54.27-1.47.27zm.93-4.99h1.53q.6 0 .84-.08.36-.12.55-.4.2-.3.2-.8 0-.47-.17-.76-.17-.32-.47-.43-.3-.12-1.06-.12h-1.42zm0 3.97h1.75q.57 0 .86-.1.4-.15.6-.5t.2-.88q0-.49-.2-.82-.18-.34-.53-.5-.32-.15-1.06-.15h-1.62zm9.47-.98.89.12q-.22 1-.82 1.52-.57.5-1.43.5-1.08 0-1.75-.82-.68-.82-.68-2.39 0-1.6.68-2.45.67-.84 1.71-.84.99 0 1.64.83.68.82.68 2.4v.28h-3.82q.05 1.05.49 1.58t1.05.53q.98 0 1.36-1.26m-2.85-1.7h2.84q-.04-.82-.34-1.23-.4-.57-1.06-.57-.58 0-.99.48-.4.49-.45 1.31m5.78 3.7-1.94-6.22h.91l1.11 3.72q.19.64.33 1.25.1-.49.31-1.18l1.14-3.8h.9l-1.94 6.23zm4.55 2.39-.1-.99q.29.1.5.1.27 0 .44-.11.2-.11.32-.35l.32-1.03-1.93-6.23h.93l1.07 3.6q.2.66.37 1.44.14-.73.35-1.42l1.09-3.62h.86l-1.94 6.33q-.37 1.23-.6 1.64-.21.4-.5.59-.27.19-.62.19-.25 0-.56-.14m8.78-6.63q0-2.17.58-3.28.6-1.1 1.73-1.1 1 0 1.58.9.7 1.08.7 3.48 0 2.14-.57 3.27-.58 1.1-1.72 1.1-1.02 0-1.66-.98t-.64-3.39m.9 0q0 2.1.38 2.81.4.7 1.03.7.6 0 .99-.71.4-.72.4-2.8 0-2.1-.4-2.8-.4-.71-1.03-.71-.6 0-.99.72-.39.71-.39 2.8m4.62 4.24v-1.2h.98v1.2zm5.75 0h-.88V60.2q-.3.34-.8.72-.5.36-.92.54v-1.01q.7-.4 1.25-1t.78-1.16h.57zm6.3-1.02v1.02h-4.66q-.02-.61.37-1.38.4-.76 1.42-1.8 1.22-1.21 1.6-1.87.37-.66.37-1.22 0-.66-.39-1.06-.39-.42-.95-.42-.6 0-.99.45-.39.44-.39 1.27l-.89-.11q.1-1.24.7-1.86.62-.63 1.6-.63 1.08 0 1.63.74.56.71.56 1.64 0 .82-.44 1.57-.42.75-1.64 2-.77.8-1 1.1-.22.28-.36.56z"/><path fill="#ea4335" d="M308 57.42a1 1 0 0 1 1-1h10a1 1 0 0 1 1 1v10a1 1 0 0 1-1 1h-10a1 1 0 0 1-1-1Z"/><path fill="#f3f3f3" d="M328.73 66.92v-8.6h2.64q.8 0 1.27.25t.77.78.3 1.16q0 .6-.27 1.08-.25.47-.72.75.62.23.97.76.36.54.36 1.33 0 .77-.33 1.36-.31.6-.85.86-.53.27-1.46.27zm.93-4.99h1.53q.6 0 .84-.08.36-.12.55-.4.2-.3.2-.8 0-.47-.17-.76-.17-.32-.47-.43-.3-.12-1.06-.12h-1.42zm0 3.97h1.75q.57 0 .86-.1.4-.15.6-.5t.2-.88q0-.49-.2-.82-.18-.34-.53-.5-.32-.15-1.06-.15h-1.62zm9.46-.98.9.12q-.22 1-.82 1.52-.57.5-1.43.5-1.08 0-1.75-.82-.68-.82-.68-2.39 0-1.6.68-2.45.67-.84 1.71-.84.99 0 1.64.83.68.82.68 2.4v.28h-3.82q.05 1.05.49 1.58t1.05.53q.98 0 1.36-1.26m-2.84-1.7h2.85q-.05-.82-.35-1.23-.4-.57-1.06-.57-.58 0-.99.48-.4.49-.45 1.31m5.78 3.7-1.94-6.22h.91l1.11 3.72q.19.64.33 1.25.1-.49.31-1.18l1.14-3.8h.9l-1.94 6.23zm4.55 2.39-.1-.99q.29.1.5.1.27 0 .44-.11.2-.11.32-.35l.32-1.03-1.93-6.23h.93l1.07 3.6q.2.66.37 1.44.14-.73.35-1.42l1.09-3.62h.86l-1.94 6.33q-.37 1.23-.6 1.64-.21.4-.5.59-.27.19-.62.19-.25 0-.56-.14m8.78-6.63q0-2.17.58-3.28.6-1.1 1.73-1.1 1 0 1.58.9.7 1.08.7 3.48 0 2.14-.57 3.27-.58 1.1-1.72 1.1-1.02 0-1.66-.98t-.64-3.39m.9 0q0 2.1.38 2.81.4.7 1.03.7.6 0 .99-.71.4-.72.4-2.8 0-2.1-.4-2.8-.4-.71-1.03-.71-.6 0-.99.72-.39.71-.39 2.8m4.62 4.24v-1.2h.98v1.2zm5.75 0h-.88V60.2q-.3.34-.8.72-.5.36-.92.54v-1.01q.7-.4 1.25-1t.78-1.16h.57zm1.75-2.27.86-.14q.26 1.69 1.36 1.69.59 0 1.03-.5.43-.5.43-1.3 0-.75-.4-1.2-.4-.47-.97-.47-.25 0-.61.12l.1-.93.13.01q.64 0 1.04-.39t.4-1.05q0-.6-.34-.96-.33-.38-.81-.38-.5 0-.85.4-.34.38-.44 1.15l-.86-.19q.18-1.1.74-1.66.58-.56 1.39-.56.86 0 1.45.64.61.63.61 1.58 0 .6-.26 1.05-.25.45-.7.7.42.13.68.4.28.26.45.71.18.45.18 1.02 0 1.17-.7 1.93-.71.75-1.68.75-.9 0-1.53-.65-.63-.66-.7-1.77M19.75 37.55V23.24h4.99q1.92 0 2.73.39.83.37 1.35 1.33.53.95.53 2.28 0 1.67-.82 2.7-.8 1.03-2.28 1.3.77.54 1.27 1.2.5.64 1.36 2.31l1.42 2.8h-2.83l-1.72-3.1q-.92-1.71-1.26-2.13-.33-.43-.7-.58-.36-.17-1.2-.17h-.48v5.98zm2.36-8.27h1.77q1.6 0 2.05-.14.43-.14.7-.56.28-.44.28-1.15 0-.68-.28-1.08-.27-.43-.74-.58-.32-.11-1.92-.11h-1.86zm14.55 4.97 2.23.46q-.43 1.56-1.39 2.32-.95.75-2.3.75-1.88 0-2.92-1.26-1.2-1.45-1.2-4.1 0-2.59 1.22-4.15 1.03-1.33 2.67-1.33 1.83 0 2.86 1.34 1.2 1.55 1.2 4.57l-.01.3h-5.64q.03 1.23.56 1.92.53.67 1.28.67 1.08 0 1.44-1.49m.12-2.78q-.01-1.2-.51-1.81-.49-.61-1.16-.61-.72 0-1.2.63-.5.64-.48 1.8zm11.7 6.08H46.2v-5.3q0-1.6-.13-2.1-.12-.54-.47-.82t-.78-.28q-.58 0-1.03.36t-.64 1.02q-.19.64-.19 2.42v4.7H40.7V27.18h2.09v1.53q.56-.9 1.25-1.33.7-.44 1.56-.44.99 0 1.66.52.69.51.94 1.32.26.8.26 2.32zm10.05 0h-2.09v-1.53q-.52.89-1.22 1.33-.7.43-1.45.43-1.42 0-2.49-1.42-1.06-1.42-1.06-4.06 0-2.66 1.03-4 1.05-1.36 2.57-1.36.7 0 1.32.36t1.14 1.1v-5.16h2.25zm-6-5.4q0 1.4.24 2.09t.67 1.03q.45.34 1.02.34.73 0 1.28-.8.54-.8.54-2.4 0-1.8-.53-2.58t-1.34-.78q-.78 0-1.33.77-.55.76-.55 2.32m13.13 2.1 2.23.46q-.43 1.56-1.39 2.32-.95.75-2.3.75-1.88 0-2.92-1.26-1.2-1.45-1.2-4.1 0-2.59 1.22-4.15 1.03-1.33 2.67-1.33 1.83 0 2.86 1.34 1.2 1.55 1.2 4.57l-.01.3h-5.64q.03 1.23.56 1.92.53.67 1.28.67 1.08 0 1.44-1.49m.12-2.78q-.01-1.2-.51-1.81-.49-.61-1.16-.61-.72 0-1.2.63-.5.64-.48 1.8zm6.11 6.08h-2.26V27.18h2.1v1.48q.54-1.05.96-1.38.42-.34.98-.34.77 0 1.47.52l-.7 2.39q-.56-.44-1.06-.44-.47 0-.83.34-.34.35-.5 1.25t-.16 3.35zm3.85-11.78v-2.53h2.25v2.53zm0 11.78V27.18h2.25v10.37zm11.73 0h-2.26v-5.3q0-1.6-.13-2.1-.12-.54-.47-.82t-.78-.28q-.58 0-1.03.36t-.64 1.02q-.19.64-.19 2.42v4.7h-2.26V27.18h2.09v1.53q.56-.9 1.25-1.33.7-.44 1.56-.44.99 0 1.66.52.69.51.94 1.32.26.8.26 2.32zm2.05.69 2.58.37q.06.56.36.8.3.25.93.25.75 0 1.2-.25.33-.17.5-.58.18-.4.18-1.45v-1.52q-.5.85-1.14 1.27t-1.4.42q-1.43 0-2.4-1.28-1.1-1.47-1.1-3.97 0-2.66 1.04-4 1.06-1.36 2.55-1.36.8 0 1.43.42.66.42 1.16 1.27v-1.45h2.1v9.3q0 2.24-.4 3.24-.4 1.02-1.26 1.52-.85.51-2.36.51-1.4 0-2.25-.37-.83-.36-1.28-1.1-.44-.73-.44-1.7zm2.01-6.1q0 1.68.54 2.44.53.75 1.28.75.8 0 1.39-.76.58-.79.58-2.35 0-1.62-.57-2.39-.54-.78-1.36-.78-.8 0-1.32.77-.54.75-.54 2.32m13.13-4.96h2.1v1.53q.43-.83 1.13-1.3t1.52-.47q1.45 0 2.5 1.4 1.06 1.38 1.06 3.93 0 2.67-1.06 4.1-1.05 1.41-2.52 1.41-.67 0-1.25-.32-.57-.33-1.22-1.2v5.24h-2.26zm2.23 5.01q0 1.75.57 2.6.57.82 1.39.82.76 0 1.3-.76.52-.78.52-2.52 0-1.64-.54-2.42-.55-.8-1.33-.8-.81 0-1.36.77-.55.76-.55 2.31m12.77 2.06 2.23.46q-.43 1.56-1.39 2.32-.95.75-2.3.75-1.88 0-2.92-1.26-1.2-1.45-1.2-4.1 0-2.59 1.22-4.15 1.03-1.33 2.67-1.33 1.83 0 2.86 1.34 1.2 1.55 1.2 4.57l-.01.3h-5.64q.03 1.23.56 1.92.53.67 1.28.67 1.08 0 1.44-1.49m.12-2.78q-.01-1.2-.51-1.81-.49-.61-1.16-.61-.72 0-1.2.63-.5.64-.48 1.8zm6.11 6.08h-2.26V27.18h2.1v1.48q.54-1.05.96-1.38.42-.34.98-.34.77 0 1.47.52l-.7 2.39q-.56-.44-1.06-.44-.47 0-.83.34-.34.35-.5 1.25t-.16 3.35zm2.86-10.37H130v-.79q0-1.4.27-2.04.26-.64.86-1t1.48-.36q.96 0 1.88.36l-.3 1.9q-.55-.15-1.05-.15-.46 0-.68.28-.22.26-.22 1.06v.73h1.69v2.16h-1.7v8.22H130v-8.22h-1.25zm5.46 5.04q0-1.53.59-2.78.6-1.25 1.58-1.87t2.22-.63q2.04 0 3.22 1.61 1.17 1.6 1.17 3.75 0 1.6-.61 2.9t-1.61 1.94-2.17.64q-1.9 0-3.14-1.43-1.25-1.46-1.25-4.13m2.3.14q0 1.58.6 2.4.63.79 1.5.79.85 0 1.46-.81.6-.82.6-2.4 0-1.54-.62-2.35-.6-.81-1.47-.81-.84 0-1.47.8-.6.82-.6 2.38m10.38 5.19h-2.26V27.18h2.1v1.48q.54-1.05.96-1.38.42-.34.99-.34.76 0 1.46.52l-.7 2.39q-.56-.44-1.06-.44-.47 0-.83.34-.34.35-.5 1.25t-.16 3.35zm3.66-10.37h2.08v1.42q.56-.83 1.22-1.24.67-.42 1.43-.42.82 0 1.41.42.61.4 1 1.24.56-.83 1.2-1.24.66-.42 1.4-.42.87 0 1.5.42.62.4.95 1.19.33.77.33 2.38v6.62h-2.25v-5.92q0-1.56-.29-2.06-.26-.52-.92-.52-.75 0-1.2.72-.45.7-.45 2.8v4.98h-2.27v-5.69q0-1.68-.19-2.17-.23-.64-.98-.64-.5 0-.92.33-.4.33-.6.97-.18.64-.18 2.15v5.05h-2.27zm15.86 3.17-2.03-.46q.36-1.57 1.22-2.26t2.45-.69q1.42 0 2.17.4.77.4 1.08 1.1.33.69.33 2.5l-.02 3.2q0 1.35.1 2 .1.66.4 1.41h-2.22l-.3-1.14q-.57.69-1.23 1.03-.65.34-1.4.34-1.24 0-2.03-.82-.79-.85-.79-2.24 0-.87.32-1.53t.9-1.05 1.88-.68q1.56-.36 2.19-.68 0-.86-.13-1.12-.12-.28-.45-.44-.33-.17-.92-.17-.61 0-.96.28-.34.27-.56 1.02m3.02 2.22q-.44.17-1.35.4-1.05.28-1.36.61-.33.33-.33.86 0 .6.36 1t.9.4q.48 0 .95-.32.47-.33.64-.77.19-.45.19-1.64zm12.04 4.98h-2.26v-5.3q0-1.6-.13-2.1-.12-.54-.47-.82t-.78-.28q-.58 0-1.03.36t-.64 1.02q-.19.64-.19 2.42v4.7h-2.26V27.18h2.09v1.53q.56-.9 1.25-1.33.7-.44 1.56-.44.99 0 1.66.52.69.51.94 1.32.26.8.26 2.32zm9.67-7.31-2.21.5q-.24-1.64-1.54-1.64-.82 0-1.34.7-.5.7-.5 2.37 0 1.85.5 2.61.52.77 1.36.77.64 0 1.05-.44.4-.44.59-1.53l2.22.45q-.69 3.75-3.94 3.75-2.08 0-3.1-1.57-1-1.6-1-3.82 0-2.67 1.13-4.06 1.14-1.39 3-1.39 1.49 0 2.42.8.96.78 1.36 2.5m6.52 4.01 2.23.46q-.43 1.56-1.39 2.32-.95.75-2.3.75-1.88 0-2.92-1.26-1.2-1.45-1.2-4.1 0-2.59 1.22-4.15 1.03-1.33 2.67-1.33 1.83 0 2.86 1.34 1.2 1.55 1.2 4.57l-.01.3h-5.64q.03 1.23.56 1.92.53.67 1.28.67 1.08 0 1.44-1.49m.12-2.78q-.01-1.2-.51-1.81-.49-.61-1.16-.61-.72 0-1.2.63-.5.64-.48 1.8zm8.96-5.7v-2.53h2.25v2.53zm0 11.78V27.18h2.25v10.37zm3.81-10.37h2.08v1.42q.56-.83 1.22-1.24.67-.42 1.43-.42.82 0 1.41.42.61.4 1 1.24.56-.83 1.2-1.24.66-.42 1.4-.42.87 0 1.5.42.62.4.95 1.19.33.77.33 2.38v6.62h-2.25v-5.92q0-1.56-.29-2.06-.26-.52-.92-.52-.75 0-1.2.72-.45.7-.45 2.8v4.98h-2.27v-5.69q0-1.68-.19-2.17-.23-.64-.98-.64-.5 0-.92.33-.4.33-.6.97-.18.64-.18 2.15v5.05h-2.27zm14.1 0h2.12v1.53q.42-.83 1.12-1.3t1.52-.47q1.45 0 2.5 1.4 1.06 1.38 1.06 3.93 0 2.67-1.06 4.1-1.05 1.41-2.52 1.41-.67 0-1.25-.32-.57-.33-1.21-1.2v5.24h-2.27zm2.24 5.01q0 1.75.57 2.6.57.82 1.39.82.76 0 1.3-.76.53-.78.53-2.52 0-1.64-.55-2.42-.55-.8-1.33-.8-.81 0-1.36.77-.55.76-.55 2.31m10 5.36h-2.26V27.18h2.1v1.48q.54-1.05.96-1.38.42-.34.99-.34.76 0 1.46.52l-.7 2.39q-.56-.44-1.06-.44-.47 0-.83.34-.34.35-.5 1.25t-.16 3.35zm3.32-5.33q0-1.53.59-2.78.6-1.25 1.58-1.87t2.22-.63q2.04 0 3.22 1.61 1.17 1.6 1.17 3.75 0 1.6-.61 2.9t-1.61 1.94-2.17.64q-1.9 0-3.14-1.43-1.25-1.46-1.25-4.13m2.3.14q0 1.58.6 2.4.63.79 1.5.79.85 0 1.46-.81.6-.82.6-2.4 0-1.54-.62-2.35-.6-.81-1.47-.81-.84 0-1.47.8-.6.82-.6 2.38m10.56 5.19-3.43-10.37H252l1.6 5.3.47 1.76.46-1.77 1.63-5.3h2.31l-3.39 10.38zm11.59-3.3 2.23.46q-.43 1.56-1.39 2.32-.95.75-2.3.75-1.88 0-2.92-1.26-1.2-1.45-1.2-4.1 0-2.59 1.22-4.15 1.03-1.33 2.67-1.33 1.83 0 2.86 1.34 1.2 1.55 1.2 4.57l-.01.3h-5.64q.03 1.23.56 1.92.53.67 1.28.67 1.08 0 1.44-1.49m.12-2.78q-.01-1.2-.51-1.81-.49-.61-1.16-.61-.72 0-1.2.63-.5.64-.49 1.8zm3.77-4.3h2.08v1.43q.56-.83 1.22-1.24.67-.42 1.43-.42.82 0 1.41.42.61.4 1 1.24.56-.83 1.2-1.24.66-.42 1.4-.42.87 0 1.5.42.62.4.95 1.19.33.77.33 2.38v6.62h-2.25v-5.92q0-1.56-.29-2.06-.26-.52-.92-.52-.75 0-1.2.72-.45.7-.45 2.8v4.98h-2.27v-5.69q0-1.68-.19-2.17-.23-.64-.98-.64-.5 0-.92.33-.4.33-.6.97-.18.64-.18 2.15v5.05h-2.27zm19.1 7.08 2.24.46q-.43 1.56-1.39 2.32-.95.75-2.3.75-1.88 0-2.92-1.26-1.2-1.45-1.2-4.1 0-2.59 1.22-4.15 1.03-1.33 2.67-1.33 1.83 0 2.86 1.34 1.2 1.55 1.2 4.57l-.01.3h-5.64q.03 1.23.56 1.92.53.67 1.28.67 1.08 0 1.44-1.49m.13-2.78q-.01-1.2-.51-1.81-.49-.61-1.16-.61-.72 0-1.2.63-.5.64-.49 1.8zm11.7 6.08h-2.27v-5.3q0-1.6-.13-2.1-.12-.54-.47-.82t-.78-.28q-.58 0-1.03.36t-.64 1.02q-.19.64-.19 2.42v4.7h-2.26V27.18h2.09v1.53q.56-.9 1.25-1.33.7-.44 1.56-.44.99 0 1.66.52.69.51.94 1.32.26.8.26 2.32zm6.13-10.37v2.18h-1.53v4.19q0 1.36.08 1.56.12.4.55.4.3 0 .9-.27l.19 2.14q-.78.4-1.77.4-.85 0-1.37-.4-.52-.42-.69-1.19-.14-.56-.14-2.3v-4.53h-1.03v-2.18h1.03V25.1l2.25-1.6v3.66zm.33 7.42 2.25-.43q.3 1.63 1.83 1.63.81 0 1.2-.31.4-.32.4-.82 0-.34-.16-.53-.2-.2-.74-.34-2.78-.73-3.53-1.4-.94-.83-.94-2.27 0-1.45.93-2.31.92-.88 2.65-.88 1.67 0 2.55.66.87.64 1.22 2.1l-2.13.46q-.28-1.25-1.6-1.25-.82 0-1.18.25-.34.23-.34.6 0 .35.3.59.34.23 2.03.7 1.87.52 2.54 1.28.67.75.67 2 0 1.5-1.03 2.49-1.03.96-2.84.96-1.66 0-2.7-.8-1.05-.82-1.38-2.38m14.8-8.83v-2.53H323v2.53zm0 11.78V27.18H323v10.37zm11.73 0h-2.26v-5.3q0-1.6-.13-2.1-.12-.54-.47-.82t-.78-.28q-.58 0-1.03.36t-.64 1.02q-.19.64-.19 2.42v4.7h-2.26V27.18h2.09v1.53q.56-.9 1.25-1.33.7-.44 1.56-.44.99 0 1.66.52.69.51.94 1.32.26.8.26 2.32zm7.27-14.31h4.7q1.92 0 2.7.36.79.34 1.32 1.23.54.88.54 2 0 1.05-.47 1.88-.45.82-1.18 1.23 1.04.38 1.64 1.28t.6 2.17q0 1.57-.77 2.64-.75 1.08-1.77 1.35-.72.17-3.31.17h-4zm2.37 2.37v3.32h1.56q1.41 0 1.74-.05.6-.1.94-.5.34-.42.34-1.14 0-.64-.28-1.03-.27-.4-.67-.49-.4-.1-2.27-.1zm0 5.7v3.83h2.19q1.45 0 1.86-.15.4-.16.69-.6.28-.45.28-1.12 0-.7-.3-1.16-.3-.47-.8-.62-.48-.17-2.01-.17zm14.55 2.94 2.23.46q-.43 1.56-1.39 2.32-.95.75-2.3.75-1.88 0-2.92-1.26-1.2-1.45-1.2-4.1 0-2.59 1.22-4.15 1.03-1.33 2.67-1.33 1.83 0 2.86 1.34 1.2 1.55 1.2 4.57l-.01.3h-5.64q.03 1.23.56 1.92.53.67 1.28.67 1.08 0 1.44-1.49m.12-2.78q-.01-1.2-.51-1.81-.49-.61-1.16-.61-.72 0-1.2.63-.5.64-.49 1.8zm6.29 6.08-3.43-10.37H362l1.6 5.3.47 1.76.46-1.77 1.63-5.3h2.31l-3.39 10.38zm5.59-10.37h2.4l2.02 7.35 2-7.35h2.31l-3 9.98-.56 1.94q-.39 1.1-.76 1.6-.38.5-.96.77-.58.28-1.44.28-.65 0-1.28-.15l-.18-2.16q.53.13.95.13.64 0 1.05-.44.42-.42.68-1.55zm18.39-4q1.72 0 2.77 1.62 1.06 1.63 1.06 5.69 0 4.04-1.06 5.68-1.05 1.63-2.75 1.63-1.72 0-2.79-1.6-1.04-1.63-1.04-5.74 0-4.03 1.04-5.66 1.07-1.62 2.77-1.62m0 2.28q-.66 0-1.06.87-.4.88-.4 4.16t.4 4.15q.4.88 1.06.88.67 0 1.06-.88.4-.89.4-4.15 0-3.28-.4-4.16-.39-.87-1.06-.87m5.69 12.09V34.8H395v2.75zm10.26 0h-2.25V27.21q-1.25 1.42-2.9 2.07V26.8q.93-.4 1.93-1.36 1.02-.98 1.41-2.27h1.8zm3.16-3.8 2.19-.33q.07 1.02.54 1.57.47.53 1.11.53.7 0 1.18-.63.48-.64.48-1.76 0-1.05-.47-1.64-.45-.6-1.1-.6-.43 0-1.04.2l.25-2.23q.88.02 1.38-.47.5-.5.5-1.37 0-.75-.36-1.17-.36-.43-.93-.43t-1 .49q-.4.48-.48 1.44l-2.08-.44q.33-1.95 1.27-2.84.93-.9 2.36-.9 1.59 0 2.53 1.15.95 1.14.95 2.53 0 .93-.42 1.68t-1.28 1.32q.98.26 1.6 1.17.63.89.63 2.25 0 1.95-1.17 3.25-1.17 1.28-2.78 1.28-1.53 0-2.61-1.08-1.06-1.1-1.25-2.97"/></svg>