<svg xmlns="http://www.w3.org/2000/svg" width="202.41" height="85.03" viewBox="0 0 53.56 22.5"><defs><clipPath id="a" clipPathUnits="userSpaceOnUse"><path d="M0 38h38V0H0Z"/></clipPath></defs><g style="opacity:1;fill:#787878;fill-opacity:1;stroke-width:.755906;stroke-miterlimit:4;stroke-dasharray:none"><g style="fill:#787878;fill-opacity:1"><path d="M2246.03 2340.2h-.05a38 38 0 0 0-1.88 10.19c-.27 7.12.45 11.46-.37 16.08s-3.24 9.16-9.41 16.28c-7.34 8.49-18.98 15.05-32.42 17.27a70 70 0 0 1-7.92 4.36c10.46 3.94 21.4 4.15 30.08 1.3 15.28-5 14.1-8.6 20.94-19.1a35 35 0 0 1 7.15-7.9c7.12 3.1 14.14 5.1 18.51 4.6 2.35-5.44-.05-11.76-4.05-17.74 3.28-10.2-1.7-20.4-12.74-24.01a24 24 0 0 0-7.84-1.34zm8.28 14.96a4.17 4.25 48.68 0 1 3.2 1.4 4.17 4.25 48.68 0 1-.44 5.93 4.17 4.25 48.68 0 1-5.94-.32 4.17 4.25 48.68 0 1 .43-5.94 4.17 4.25 48.68 0 1 2.75-1.07m-68.38 45.38.39.22.4-.15z" style="fill:#787878;fill-opacity:1;stroke:none;stroke-width:.559814px;stroke-linecap:butt;stroke-linejoin:miter;stroke-opacity:1" transform="translate(-338.698 -370.064)scale(.16254)"/></g></g><g style="opacity:1;fill:#ececec;fill-opacity:1;stroke:none;stroke-width:.755906;stroke-miterlimit:4;stroke-dasharray:none;stroke-opacity:1"><g style="opacity:1;fill:#ececec;fill-opacity:1"><path d="M2191.15 2276.78c-5.98-.03-12.1 2.35-17.36 7.46-6.92 6.71-9.07 12.76-7.85 20.3l.33 2.07-2.07-.34c-15.18-2.46-33.98-1.22-55.37 7.43 6.29 2.7 17.83 7.2 30.63 13.34l4.06 1.96-4.41.9c-16.9 3.42-36.97 13.32-55.3 34.92 8.2-.63 24.95-2.6 42.43-2.58 9.71.02 19.29.69 27.08 2.71 7.8 2.02 14.03 5.44 16.37 11.29l.16.4-.07.42c-.39 2.18-.77 4.15-1.12 5.76-.82 3.7-4.01 6.68-8.2 9.34s-9.5 4.99-15.01 6.96c-11.04 3.96-22.78 6.48-27.97 6.96-1.1.1-1.54.5-1.96 1.27a8 8 0 0 0-.7 3.25c-.04 1.7.19 3.1.37 4.06 33.75 2.77 58.85-5.65 76.96-12.83 20.35-9.33 33.21-27.76 36-44.35 1.76-10.4 1.38-15.5-.3-19.83-1.7-4.34-4.93-8.2-9.03-15.55a48 48 0 0 1-5.02-13.69l-.2-.9.73-.59c7.54-6.04 13.68-12.64 15.91-17.45-4.57-4.86-12.48-5.89-21.32-4.94l-.73.07-.5-.52c-4.72-4.8-10.57-7.26-16.54-7.3m2.64 11.24a5.63 5.52 76.4 0 1 5.5 4.32 5.63 5.52 76.4 0 1-4.04 6.77 5.63 5.52 76.4 0 1-6.7-4.17 5.63 5.52 76.4 0 1 4.05-6.77 5.63 5.52 76.4 0 1 1.2-.15" style="color:#000;font-style:normal;font-variant:normal;font-weight:400;font-stretch:normal;font-size:medium;line-height:normal;font-family:sans-serif;font-variant-ligatures:normal;font-variant-position:normal;font-variant-caps:normal;font-variant-numeric:normal;font-variant-alternates:normal;font-variant-east-asian:normal;font-feature-settings:normal;font-variation-settings:normal;text-indent:0;text-align:start;text-decoration:none;text-decoration-line:none;text-decoration-style:solid;text-decoration-color:#000;letter-spacing:normal;word-spacing:normal;text-transform:none;writing-mode:lr-tb;direction:ltr;text-orientation:mixed;dominant-baseline:auto;baseline-shift:baseline;text-anchor:start;white-space:normal;shape-padding:0;shape-margin:0;inline-size:0;clip-rule:nonzero;display:inline;overflow:visible;visibility:visible;isolation:auto;mix-blend-mode:normal;color-interpolation:sRGB;color-interpolation-filters:linearRGB;solid-color:#000;solid-opacity:1;vector-effect:none;fill:#ececec;fill-opacity:1;fill-rule:nonzero;stroke:none;stroke-width:3.02362;stroke-linecap:butt;stroke-linejoin:miter;stroke-miterlimit:4;stroke-dasharray:none;stroke-dashoffset:0;stroke-opacity:1;color-rendering:auto;image-rendering:auto;shape-rendering:auto;text-rendering:auto;stop-color:#000;stop-opacity:1" transform="translate(-338.698 -370.064)scale(.16254)"/></g></g><g style="opacity:1;fill:#b2b2b2;fill-opacity:1;stroke-width:.755906;stroke-miterlimit:4;stroke-dasharray:none"><g style="fill:#b2b2b2;fill-opacity:1"><g style="opacity:1;fill:#b2b2b2;fill-opacity:1"><path d="M2230.9 2301.17q-2.89-.06-5.98.64l-.4.1a110 110 0 0 1-7.53 6.72 44 44 0 0 0 4.47 12c3.99 7.15 7.27 10.96 9.2 15.92s2.27 10.8.48 21.43c-2.22 13.18-10.24 27.13-22.96 37.43 9.87-2.88 18.28-8.19 23.86-14.62 6-6.95 8.01-10.88 8.72-14.84.7-3.96.04-8.3.32-15.66.18-4.75 1.2-8.9 2.48-12.55l.3-.87.93-.13c8.23-1.06 15.66-3.16 19.5-5.64-1.23-5.56-6.47-9.86-13.42-13.14l-.66-.31-.17-.71c-2.2-9.47-9.59-15.57-19.15-15.77m4.78 11.69a4.82 4.91 17.73 0 1 1.44.22 4.82 4.91 17.73 0 1 3.1 6.15 4.82 4.91 17.73 0 1-6.09 3.22 4.82 4.91 17.73 0 1-3.1-6.15 4.82 4.91 17.73 0 1 4.65-3.44" style="color:#000;font-style:normal;font-variant:normal;font-weight:400;font-stretch:normal;font-size:medium;line-height:normal;font-family:sans-serif;font-variant-ligatures:normal;font-variant-position:normal;font-variant-caps:normal;font-variant-numeric:normal;font-variant-alternates:normal;font-variant-east-asian:normal;font-feature-settings:normal;font-variation-settings:normal;text-indent:0;text-align:start;text-decoration:none;text-decoration-line:none;text-decoration-style:solid;text-decoration-color:#000;letter-spacing:normal;word-spacing:normal;text-transform:none;writing-mode:lr-tb;direction:ltr;text-orientation:mixed;dominant-baseline:auto;baseline-shift:baseline;text-anchor:start;white-space:normal;shape-padding:0;shape-margin:0;inline-size:0;clip-rule:nonzero;display:inline;overflow:visible;visibility:visible;isolation:auto;mix-blend-mode:normal;color-interpolation:sRGB;color-interpolation-filters:linearRGB;solid-color:#000;solid-opacity:1;vector-effect:none;fill:#b2b2b2;fill-opacity:1;fill-rule:nonzero;stroke:none;stroke-width:3.02362;stroke-linecap:butt;stroke-linejoin:miter;stroke-miterlimit:4;stroke-dasharray:none;stroke-dashoffset:0;stroke-opacity:1;color-rendering:auto;image-rendering:auto;shape-rendering:auto;text-rendering:auto;stop-color:#000;stop-opacity:1" transform="translate(-338.698 -370.064)scale(.16254)"/></g></g></g><g clip-path="url(#a)" transform="matrix(.572 0 0 -.572 32.392 22.117)"><path d="M0 0a4 4 0 0 0-4-4h-28a4 4 0 0 0-4 4v23a4 4 0 0 0 4 4h28a4 4 0 0 0 4-4z" style="fill:#e1e8ed;fill-opacity:1;fill-rule:nonzero;stroke:none" transform="translate(37 5)"/><path d="M0 0h-3.28Q-3-.45-3-1a2 2 0 1 0-3.72 1h-18.56q.28-.45.28-1a2 2 0 1 0-3.72 1H-32a2 2 0 0 1-2-2v-11H2v11a2 2 0 0 1-2 2" style="fill:#dd2e44;fill-opacity:1;fill-rule:nonzero;stroke:none" transform="translate(35 37)"/><path d="M0 0h-1.7c-1.08 0-1.53.73-1.53 1.5 0 .8.56 1.5 1.54 1.5h3.2c.98 0 1.52-.7 1.52-1.6v-12.87c0-1.13-.56-1.76-1.53-1.76S0-12.6 0-11.47z" style="fill:#66757f;fill-opacity:1;fill-rule:nonzero;stroke:none" transform="translate(13 18)"/><path d="M0 0c0-1.68-1.07-2.12-1.98-2.12-.69 0-1.84.27-1.84 1.14 0 .27.23.61.56.61.4 0 .75-.37 1.2-.37.56 0 .56.52.56.84v4.3c0 .5.32.78.75.78S0 4.9 0 4.4z" style="fill:#f5f8fa;fill-opacity:1;fill-rule:nonzero;stroke:none" transform="translate(6.49 27.999)"/><path d="M0 0c0 .5.32.78.75.78S1.5.5 1.5 0v-3.49c0-.92.59-1.65 1.54-1.65.9 0 1.53.77 1.53 1.65V0c0 .5.32.78.75.78S6.07.5 6.07 0v-3.57a2.97 2.97 0 0 0-3.03-2.95A2.96 2.96 0 0 0 0-3.57Z" style="fill:#f5f8fa;fill-opacity:1;fill-rule:nonzero;stroke:none" transform="translate(7.272 32.397)"/><path d="M0 0c0 .5.32.78.75.78S1.5.5 1.5 0v-5.02h1.78c.5 0 .73-.38.72-.72a.7.7 0 0 0-.72-.66H.78c-.49 0-.78.32-.78.82Z" style="fill:#f5f8fa;fill-opacity:1;fill-rule:nonzero;stroke:none" transform="translate(14.182 32.397)"/><path d="M0 0a1 1 0 1 1 2 0 1 1 0 0 1-2 0" style="fill:#f4abba;fill-opacity:1;fill-rule:nonzero;stroke:none" transform="translate(33 27)"/><path d="M0 0a1 1 0 1 1 2 0 1 1 0 0 1-2 0" style="fill:#f4abba;fill-opacity:1;fill-rule:nonzero;stroke:none" transform="translate(33 30)"/><path d="M0 0a1 1 0 1 1 2 0 1 1 0 0 1-2 0" style="fill:#f4abba;fill-opacity:1;fill-rule:nonzero;stroke:none" transform="translate(30 27)"/><path d="M0 0a1 1 0 1 1 2 0 1 1 0 0 1-2 0" style="fill:#f4abba;fill-opacity:1;fill-rule:nonzero;stroke:none" transform="translate(30 30)"/><path d="M0 0a1 1 0 1 1 2 0 1 1 0 0 1-2 0" style="fill:#f4abba;fill-opacity:1;fill-rule:nonzero;stroke:none" transform="translate(27 27)"/><path d="M0 0a1 1 0 1 1 2 0 1 1 0 0 1-2 0" style="fill:#f4abba;fill-opacity:1;fill-rule:nonzero;stroke:none" transform="translate(27 30)"/><path d="M0 0a1 1 0 1 1 2 0 1 1 0 0 1-2 0" style="fill:#f4abba;fill-opacity:1;fill-rule:nonzero;stroke:none" transform="translate(24 30)"/><path d="M0 0a1 1 0 1 1 2 0 1 1 0 0 1-2 0" style="fill:#f4abba;fill-opacity:1;fill-rule:nonzero;stroke:none" transform="translate(24 27)"/><path d="M0 0a9 9 0 0 0 1.7.23 4.65 4.65 0 0 0 4.66-4.8c0-3.77-2.08-6.25-5.98-6.25-1.6 0-4.96 1.03-4.96 3.02 0 .83.7 1.53 1.54 1.53.9 0 1.98-1.44 3.5-1.44 1.57 0 2.38 1.53 2.38 2.95 0 1.36-.76 2.28-2.16 2.28-1.31 0-1.51-.75-2.66-.75-.88 0-1.33.68-1.33 1.07 0 .29.04.51.06.76l.57 4.76c.24 1.76.67 2.14 1.76 2.14H4.5c1.04 0 1.65-.6 1.65-1.42 0-1.55-1.18-1.58-1.58-1.58H.34z" style="fill:#66757f;fill-opacity:1;fill-rule:nonzero;stroke:none" transform="translate(22.578 15.497)"/></g></svg>