<svg xmlns="http://www.w3.org/2000/svg" xml:space="preserve" width="160mm" height="90mm" stroke-linejoin="round" stroke-width="28.22" viewBox="0 0 16000 9000"><path fill="none" stroke="#b3b3b3" d="M1312 8321v-150m0 150v-150m7183 150v-150m0 150v-150m7184 150v-150m0 150v-150" style="stroke:#ececec;stroke-opacity:1"/><path fill="#004586" d="M3108 8171h3592V798H3108z" style="fill:#474747;fill-opacity:1"/><path fill="#004586" d="M10291 8171h3592V3534h-3592z" style="fill:#4a96dc;fill-opacity:1"/><path fill="none" stroke="#b3b3b3" d="M1312 8171h14367m-14517 0h150m-150 0h150m-150-780h150m-150 0h150m-150-779h150m-150 0h150m-150-780h150m-150 0h150m-150-779h150m-150 0h150m-150-778h150m-150 0h150m-150-780h150m-150 0h150m-150-779h150m-150 0h150m-150-780h150m-150 0h150m-150-779h150m-150 0h150m-150-779h150m-150 0h150m0 7793V378" style="stroke:#ececec;stroke-opacity:1"/><path d="M4432.83 8670.57q0 32.4-23.61 50.5-23.61 17.93-65.67 17.93h-98.6v-242.86h88.26q85.49 0 85.49 58.95 0 21.54-12.07 36.2-12.06 14.65-34.12 19.64 28.95 3.45 44.64 19.48 15.68 15.86 15.68 40.16m-47.22-111.52q0-19.65-13.45-28.1-13.44-8.44-38.95-8.44h-55.33v76.88h55.33q26.37 0 39.3-9.83 13.1-10 13.1-30.5m13.96 108.94q0-42.92-60.33-42.92h-61.36v87.56h63.95q30.16 0 43.95-11.2t13.79-33.44m99.45-15.7q0 32.06 13.27 49.47t38.78 17.4q20.17 0 32.24-8.1 12.23-8.1 16.54-20.5l27.24 7.75q-16.72 44.13-76.02 44.13-41.36 0-63.08-24.65-21.55-24.65-21.55-73.26 0-46.19 21.55-70.84 21.72-24.64 61.88-24.64 82.21 0 82.21 99.1v4.14zm101-23.78q-2.58-29.48-14.99-42.92-12.41-13.62-35.68-13.62-22.58 0-35.85 15.17-13.1 15-14.13 41.37zM4753.43 8739h-36.71l-67.74-186.5h33.09l41.02 121.35q2.24 6.9 11.9 40.85l6.03-20.17 6.72-20.34 42.4-121.69h32.92zm103.77 73.25q-12.76 0-21.38-1.9v-23.26q6.55 1.03 14.48 1.03 28.95 0 45.85-42.57l2.93-7.41-73.95-185.64h33.1l39.3 103.08q.86 2.4 2.06 5.86 1.2 3.27 7.76 22.4 6.55 19.14 7.07 21.38l12.06-33.96 40.85-118.76h32.75l-71.7 186.5q-11.55 29.82-21.55 44.3-10 14.65-22.23 21.72-12.07 7.23-27.4 7.23m424.18-194.77q0 60.85-21.55 92.9-21.37 32.07-63.26 32.07t-62.9-31.89q-21.04-31.89-21.04-93.08 0-62.56 20.34-93.76 20.51-31.2 64.64-31.2 42.92 0 63.26 31.54 20.5 31.55 20.5 93.42m-31.54 0q0-52.57-12.24-76.18-12.07-23.61-40-23.61-28.6 0-41.19 23.26-12.4 23.27-12.4 76.53 0 51.71 12.58 75.67 12.75 23.96 40.33 23.96 27.4 0 40.16-24.48 12.76-24.47 12.76-75.15M5327.4 8739v-37.75h33.6V8739Zm247.34-79.11q0 38.43-22.92 60.5-22.76 22.06-63.26 22.06-33.96 0-54.81-14.83t-26.37-42.91l31.37-3.62q9.82 36.02 50.5 36.02 24.99 0 39.12-15 14.14-15.16 14.14-41.54 0-22.92-14.3-37.05-14.14-14.14-38.27-14.14-12.59 0-23.44 3.97-10.86 3.96-21.72 13.44h-30.34l8.1-130.65h138.07v26.37h-109.8l-4.65 77.05q20.16-15.51 50.15-15.51 35.86 0 57.06 21.02 21.37 21.03 21.37 54.82" aria-label="Bevy 0.5" class="SVGTextShape" style="fill:#ececec;fill-opacity:1"/><path d="M11616.83 8670.57q0 32.4-23.61 50.5-23.61 17.93-65.67 17.93h-98.6v-242.86h88.26q85.49 0 85.49 58.95 0 21.54-12.07 36.2-12.06 14.65-34.12 19.64 28.95 3.45 44.64 19.48 15.68 15.86 15.68 40.16m-47.22-111.52q0-19.65-13.45-28.1-13.44-8.44-38.95-8.44h-55.33v76.88h55.33q26.37 0 39.3-9.83 13.1-10 13.1-30.5m13.96 108.94q0-42.92-60.33-42.92h-61.36v87.56h63.95q30.16 0 43.95-11.2t13.79-33.44m99.45-15.7q0 32.06 13.27 49.47t38.78 17.4q20.17 0 32.24-8.1 12.23-8.1 16.54-20.5l27.24 7.75q-16.72 44.13-76.02 44.13-41.36 0-63.08-24.65-21.55-24.65-21.55-73.26 0-46.19 21.55-70.84 21.72-24.64 61.88-24.64 82.22 0 82.22 99.1v4.14zm101-23.78q-2.58-29.48-14.99-42.92-12.41-13.62-35.68-13.62-22.58 0-35.85 15.17-13.1 15-14.14 41.37zm153.41 110.48h-36.72l-67.73-186.5h33.09l41.02 121.35q2.24 6.9 11.9 40.85l6.03-20.17 6.72-20.34 42.4-121.69h32.92zm103.77 73.25q-12.76 0-21.38-1.9v-23.26q6.55 1.03 14.48 1.03 28.95 0 45.85-42.57l2.93-7.41-73.95-185.64h33.1l39.3 103.08q.86 2.4 2.06 5.86 1.2 3.27 7.76 22.4 6.55 19.14 7.07 21.38l12.06-33.96 40.85-118.76h32.75l-71.7 186.5q-11.55 29.82-21.55 44.3-10 14.65-22.23 21.72-12.07 7.23-27.4 7.23m424.18-194.77q0 60.85-21.55 92.9-21.37 32.07-63.25 32.07-41.89 0-62.92-31.89t-21.03-93.08q0-62.56 20.34-93.76 20.51-31.2 64.64-31.2 42.92 0 63.26 31.54 20.5 31.55 20.5 93.42m-31.54 0q0-52.57-12.24-76.18-12.07-23.61-40-23.61-28.6 0-41.19 23.26-12.4 23.27-12.4 76.53 0 51.71 12.58 75.67 12.75 23.96 40.33 23.96 27.4 0 40.16-24.48 12.76-24.47 12.76-75.15m77.57 121.52v-37.75h33.6V8739Zm246.65-79.46q0 38.44-20.86 60.67t-57.57 22.24q-41.02 0-62.74-30.51-21.71-30.5-21.71-88.77 0-63.08 22.58-96.87 22.58-33.78 64.29-33.78 54.98 0 69.29 49.47l-29.65 5.34q-9.13-29.64-39.99-29.64-26.54 0-41.2 24.82-14.47 24.64-14.47 71.53 8.45-15.69 23.79-23.79 15.34-8.27 35.16-8.27 33.6 0 53.26 21.03 19.82 21.02 19.82 56.53m-31.54 1.38q0-26.37-12.93-40.68t-36.02-14.3q-21.72 0-35.16 12.75-13.28 12.58-13.28 34.82 0 28.1 13.8 46.02 13.95 17.92 35.67 17.92 22.4 0 35.16-15 12.76-15.16 12.76-41.53" aria-label="Bevy 0.6" class="SVGTextShape" style="fill:#ececec;fill-opacity:1"/><path d="M1059.53 8170.48q0 60.85-21.54 92.9-21.38 32.07-63.26 32.07t-62.91-31.89-21.03-93.08q0-62.56 20.34-93.76 20.5-31.2 64.63-31.2 42.92 0 63.26 31.54 20.51 31.55 20.51 93.42m-31.54 0q0-52.57-12.24-76.18-12.06-23.61-39.99-23.61-28.6 0-41.2 23.26-12.4 23.27-12.4 76.53 0 51.71 12.58 75.67 12.76 23.96 40.33 23.96 27.41 0 40.17-24.48 12.75-24.47 12.75-75.15" aria-label="0" class="SVGTextShape" style="fill:#ececec;fill-opacity:1"/><path d="M532.89 7512v-26.37h61.88v-186.84l-54.81 39.12v-29.3l57.4-39.47h28.6v216.49h59.13V7512Zm351.96-121.52q0 60.85-21.54 92.9-21.37 32.07-63.26 32.07t-62.91-31.89-21.03-93.08q0-62.56 20.34-93.76 20.51-31.2 64.64-31.2 42.91 0 63.25 31.54 20.51 31.55 20.51 93.42m-31.54 0q0-52.57-12.24-76.18-12.06-23.61-39.98-23.61-28.62 0-41.2 23.26-12.4 23.27-12.4 76.53 0 51.71 12.57 75.67 12.76 23.96 40.34 23.96 27.4 0 40.16-24.48 12.75-24.47 12.75-75.15m227.87 0q0 60.85-21.55 92.9-21.37 32.07-63.26 32.07t-62.9-31.89q-21.04-31.89-21.04-93.08 0-62.56 20.34-93.76 20.51-31.2 64.64-31.2 42.92 0 63.26 31.54 20.5 31.55 20.5 93.42m-31.55 0q0-52.57-12.23-76.18-12.07-23.61-40-23.61-28.6 0-41.19 23.26-12.4 23.27-12.4 76.53 0 51.71 12.58 75.67 12.75 23.96 40.33 23.96 27.4 0 40.16-24.48 12.75-24.47 12.75-75.15" aria-label="100" class="SVGTextShape" style="fill:#ececec;fill-opacity:1"/><path d="M523.75 6733v-21.89q8.8-20.17 21.38-35.5 12.75-15.52 26.71-27.93 13.96-12.58 27.58-23.27 13.79-10.69 24.82-21.37t17.75-22.4q6.9-11.73 6.9-26.55 0-20-11.72-31.03t-32.58-11.03q-19.82 0-32.75 10.86-12.75 10.69-15 30.16l-31.7-2.93q3.44-29.13 24.64-46.36 21.37-17.24 54.81-17.24 36.72 0 56.36 17.4 19.83 17.25 19.83 49.13 0 14.14-6.55 28.1-6.38 13.96-19.14 27.92-12.75 13.96-48.77 43.26-19.83 16.2-31.55 29.3-11.72 12.93-16.89 25h126.69V6733Zm361.1-121.52q0 60.85-21.54 92.9-21.37 32.07-63.26 32.07t-62.91-31.89-21.03-93.08q0-62.56 20.34-93.76 20.51-31.2 64.64-31.2 42.91 0 63.25 31.54 20.51 31.55 20.51 93.42m-31.54 0q0-52.57-12.24-76.18-12.06-23.61-39.98-23.61-28.62 0-41.2 23.26-12.4 23.27-12.4 76.53 0 51.71 12.57 75.67 12.76 23.96 40.34 23.96 27.4 0 40.16-24.48 12.75-24.47 12.75-75.15m227.87 0q0 60.85-21.55 92.9-21.37 32.07-63.26 32.07t-62.9-31.89q-21.04-31.89-21.04-93.08 0-62.56 20.34-93.76 20.51-31.2 64.64-31.2 42.92 0 63.26 31.54 20.5 31.55 20.5 93.42m-31.55 0q0-52.57-12.23-76.18-12.07-23.61-40-23.61-28.6 0-41.19 23.26-12.4 23.27-12.4 76.53 0 51.71 12.58 75.67 12.75 23.96 40.33 23.96 27.4 0 40.16-24.48 12.75-24.47 12.75-75.15" aria-label="200" class="SVGTextShape" style="fill:#ececec;fill-opacity:1"/><path d="M686.8 5885.95q0 33.61-21.36 52.05-21.38 18.45-61.02 18.45-36.89 0-58.95-16.55-21.89-16.72-26.03-49.3l32.06-2.93q6.2 43.1 52.92 43.1 23.44 0 36.71-11.55 13.45-11.55 13.45-34.3 0-19.83-15.34-30.86-15.17-11.2-43.96-11.2H577.7v-26.89h16.9q25.5 0 39.47-11.03 14.13-11.2 14.13-30.85 0-19.48-11.55-30.68-11.37-11.38-33.95-11.38-20.52 0-33.27 10.51-12.58 10.52-14.65 29.65l-31.2-2.41q3.45-29.82 24.65-46.54 21.37-16.72 54.81-16.72 36.54 0 56.7 17.06 20.35 16.9 20.35 47.23 0 23.27-13.1 37.92-12.93 14.48-37.75 19.65v.7q27.23 2.92 42.4 18.26t15.17 38.61m198.04-54.47q0 60.85-21.54 92.9-21.37 32.07-63.26 32.07t-62.91-31.89-21.03-93.08q0-62.56 20.34-93.76 20.51-31.2 64.64-31.2 42.91 0 63.25 31.54 20.51 31.55 20.51 93.42m-31.54 0q0-52.57-12.24-76.18-12.06-23.61-39.98-23.61-28.62 0-41.2 23.26-12.4 23.27-12.4 76.53 0 51.71 12.57 75.67 12.76 23.96 40.34 23.96 27.4 0 40.16-24.48 12.75-24.47 12.75-75.15m227.87 0q0 60.85-21.55 92.9-21.37 32.07-63.26 32.07t-62.9-31.89q-21.04-31.89-21.04-93.08 0-62.56 20.34-93.76 20.51-31.2 64.64-31.2 42.92 0 63.26 31.54 20.5 31.55 20.5 93.42m-31.55 0q0-52.57-12.23-76.18-12.07-23.61-40-23.61-28.6 0-41.19 23.26-12.4 23.27-12.4 76.53 0 51.71 12.58 75.67 12.75 23.96 40.33 23.96 27.4 0 40.16-24.48 12.75-24.47 12.75-75.15" aria-label="300" class="SVGTextShape" style="fill:#ececec;fill-opacity:1"/><path d="M657.85 5119.02V5174h-29.3v-54.98H514.1v-24.13l111.18-163.75h32.57v163.4h34.13v24.48zm-29.3-152.89q-.34 1.03-4.83 9.14-4.48 8.1-6.72 11.37l-62.22 91.7-9.3 12.75-2.77 3.45h85.84zm256.3 86.35q0 60.85-21.54 92.9-21.37 32.07-63.26 32.07t-62.91-31.89-21.03-93.08q0-62.56 20.34-93.76 20.51-31.2 64.64-31.2 42.91 0 63.25 31.54 20.51 31.55 20.51 93.42m-31.54 0q0-52.57-12.24-76.18-12.06-23.61-39.98-23.61-28.62 0-41.2 23.26-12.4 23.27-12.4 76.53 0 51.71 12.57 75.67 12.76 23.96 40.34 23.96 27.4 0 40.16-24.48 12.75-24.47 12.75-75.15m227.87 0q0 60.85-21.55 92.9-21.37 32.07-63.26 32.07t-62.9-31.89q-21.04-31.89-21.04-93.08 0-62.56 20.34-93.76 20.51-31.2 64.64-31.2 42.92 0 63.26 31.54 20.5 31.55 20.5 93.42m-31.55 0q0-52.57-12.23-76.18-12.07-23.61-40-23.61-28.6 0-41.19 23.26-12.4 23.27-12.4 76.53 0 51.71 12.58 75.67 12.75 23.96 40.33 23.96 27.4 0 40.16-24.48 12.75-24.47 12.75-75.15" aria-label="400" class="SVGTextShape" style="fill:#ececec;fill-opacity:1"/><path d="M687.5 4315.89q0 38.43-22.93 60.5-22.75 22.06-63.25 22.06-33.96 0-54.81-14.83t-26.38-42.91l31.37-3.62q9.83 36.02 50.5 36.02 25 0 39.13-15 14.14-15.16 14.14-41.54 0-22.92-14.31-37.05-14.13-14.14-38.26-14.14-12.59 0-23.45 3.97-10.85 3.96-21.71 13.44H527.2l8.1-130.65h138.06v26.37h-109.8l-4.64 77.05q20.16-15.51 50.15-15.51 35.85 0 57.06 21.02 21.37 21.03 21.37 54.82m197.35-42.41q0 60.85-21.54 92.9-21.37 32.07-63.26 32.07t-62.91-31.89-21.03-93.08q0-62.56 20.34-93.76 20.51-31.2 64.64-31.2 42.91 0 63.25 31.54 20.51 31.55 20.51 93.42m-31.54 0q0-52.57-12.24-76.18-12.06-23.61-39.98-23.61-28.62 0-41.2 23.26-12.4 23.27-12.4 76.53 0 51.71 12.57 75.67 12.76 23.96 40.34 23.96 27.4 0 40.16-24.48 12.75-24.47 12.75-75.15m227.87 0q0 60.85-21.55 92.9-21.37 32.07-63.26 32.07t-62.9-31.89q-21.04-31.89-21.04-93.08 0-62.56 20.34-93.76 20.51-31.2 64.64-31.2 42.92 0 63.26 31.54 20.5 31.55 20.5 93.42m-31.55 0q0-52.57-12.23-76.18-12.07-23.61-40-23.61-28.6 0-41.19 23.26-12.4 23.27-12.4 76.53 0 51.71 12.58 75.67 12.75 23.96 40.33 23.96 27.4 0 40.16-24.48 12.75-24.47 12.75-75.15" aria-label="500" class="SVGTextShape" style="fill:#ececec;fill-opacity:1"/><path d="M686.8 3535.54q0 38.44-20.85 60.67t-57.57 22.24q-41.02 0-62.74-30.51-21.71-30.5-21.71-88.77 0-63.08 22.58-96.87 22.57-33.78 64.29-33.78 54.98 0 69.29 49.47l-29.65 5.34q-9.13-29.64-39.99-29.64-26.54 0-41.2 24.82-14.47 24.64-14.47 71.53 8.44-15.69 23.78-23.79 15.35-8.27 35.17-8.27 33.6 0 53.26 21.03 19.82 21.02 19.82 56.53m-31.53 1.38q0-26.37-12.93-40.68t-36.02-14.3q-21.72 0-35.17 12.75-13.27 12.58-13.27 34.82 0 28.1 13.79 46.02 13.96 17.92 35.68 17.92 22.4 0 35.16-15 12.76-15.16 12.76-41.53m229.57-43.44q0 60.85-21.54 92.9-21.37 32.07-63.26 32.07t-62.91-31.89-21.03-93.08q0-62.56 20.34-93.76 20.51-31.2 64.64-31.2 42.91 0 63.25 31.54 20.51 31.55 20.51 93.42m-31.54 0q0-52.57-12.24-76.18-12.06-23.61-39.98-23.61-28.62 0-41.2 23.26-12.4 23.27-12.4 76.53 0 51.71 12.57 75.67 12.76 23.96 40.34 23.96 27.4 0 40.16-24.48 12.75-24.47 12.75-75.15m227.87 0q0 60.85-21.55 92.9-21.37 32.07-63.26 32.07t-62.9-31.89q-21.04-31.89-21.04-93.08 0-62.56 20.34-93.76 20.51-31.2 64.64-31.2 42.92 0 63.26 31.54 20.5 31.55 20.5 93.42m-31.55 0q0-52.57-12.23-76.18-12.07-23.61-40-23.61-28.6 0-41.19 23.26-12.4 23.27-12.4 76.53 0 51.71 12.58 75.67 12.75 23.96 40.33 23.96 27.4 0 40.16-24.48 12.75-24.47 12.75-75.15" aria-label="600" class="SVGTextShape" style="fill:#ececec;fill-opacity:1"/><path d="M684.57 2618.3q-37.23 56.89-52.57 89.12t-23.1 63.6q-7.58 31.37-7.58 64.98h-32.4q0-46.54 19.64-97.9 19.82-51.54 66.02-118.59H524.1v-26.37h160.47zm200.28 96.18q0 60.85-21.54 92.9-21.37 32.07-63.26 32.07t-62.91-31.89-21.03-93.08q0-62.56 20.34-93.76 20.51-31.2 64.64-31.2 42.91 0 63.25 31.54 20.51 31.55 20.51 93.42m-31.54 0q0-52.57-12.24-76.18-12.06-23.61-39.98-23.61-28.62 0-41.2 23.26-12.4 23.27-12.4 76.53 0 51.71 12.57 75.67 12.76 23.96 40.34 23.96 27.4 0 40.16-24.48 12.75-24.47 12.75-75.15m227.87 0q0 60.85-21.55 92.9-21.37 32.07-63.26 32.07t-62.9-31.89q-21.04-31.89-21.04-93.08 0-62.56 20.34-93.76 20.51-31.2 64.64-31.2 42.92 0 63.26 31.54 20.5 31.55 20.5 93.42m-31.55 0q0-52.57-12.23-76.18-12.07-23.61-40-23.61-28.6 0-41.19 23.26-12.4 23.27-12.4 76.53 0 51.71 12.58 75.67 12.75 23.96 40.33 23.96 27.4 0 40.16-24.48 12.75-24.47 12.75-75.15" aria-label="700" class="SVGTextShape" style="fill:#ececec;fill-opacity:1"/><path d="M686.98 1988.26q0 33.61-21.37 52.4t-61.36 18.79q-38.96 0-61.02-18.45-21.89-18.44-21.89-52.4 0-23.78 13.62-39.98t34.81-19.65v-.7q-19.82-4.65-31.37-20.16-11.37-15.51-11.37-36.37 0-27.75 20.68-44.98 20.86-17.24 55.85-17.24 35.85 0 56.53 16.9 20.86 16.88 20.86 45.67 0 20.85-11.55 36.37t-31.54 19.47v.7q23.27 3.79 36.2 19.82 12.92 15.85 12.92 39.81m-38.26-114.45q0-41.2-45.16-41.2-21.9 0-33.44 10.35-11.38 10.34-11.38 30.85 0 20.86 11.72 31.89 11.9 10.86 33.44 10.86 21.9 0 33.27-10 11.55-10.17 11.55-32.75m6.03 111.52q0-22.58-13.44-33.95-13.45-11.55-37.75-11.55-23.62 0-36.89 12.4-13.27 12.25-13.27 33.79 0 50.16 51.2 50.16 25.33 0 37.74-12.07 12.41-12.23 12.41-38.78m230.1-50.85q0 60.85-21.54 92.9-21.37 32.07-63.26 32.07t-62.91-31.89-21.03-93.08q0-62.56 20.34-93.76 20.51-31.2 64.64-31.2 42.91 0 63.25 31.54 20.51 31.55 20.51 93.42m-31.54 0q0-52.57-12.24-76.18-12.06-23.61-39.98-23.61-28.62 0-41.2 23.26-12.4 23.27-12.4 76.53 0 51.71 12.57 75.67 12.76 23.96 40.34 23.96 27.4 0 40.16-24.48 12.75-24.47 12.75-75.15m227.87 0q0 60.85-21.55 92.9-21.37 32.07-63.26 32.07t-62.9-31.89q-21.04-31.89-21.04-93.08 0-62.56 20.34-93.76 20.51-31.2 64.64-31.2 42.92 0 63.26 31.54 20.5 31.55 20.5 93.42m-31.55 0q0-52.57-12.23-76.18-12.07-23.61-40-23.61-28.6 0-41.19 23.26-12.4 23.27-12.4 76.53 0 51.71 12.58 75.67 12.75 23.96 40.33 23.96 27.4 0 40.16-24.48 12.75-24.47 12.75-75.15" aria-label="800" class="SVGTextShape" style="fill:#ececec;fill-opacity:1"/><path d="M685.6 1150.66q0 62.57-22.92 96.18-22.75 33.6-64.98 33.6-28.44 0-45.68-11.89-17.06-12.06-24.47-38.78l29.64-4.65q9.31 30.33 41.02 30.33 26.72 0 41.37-24.82t15.34-70.84q-6.9 15.52-23.61 25-16.72 9.3-36.72 9.3-32.74 0-52.4-22.4-19.64-22.41-19.64-59.47 0-38.1 21.37-59.8 21.37-21.9 59.47-21.9 40.5 0 61.36 30 20.85 29.98 20.85 90.14m-33.78-30q0-29.3-13.45-47.05-13.44-17.92-36.02-17.92-22.4 0-35.33 15.34-12.93 15.16-12.93 41.2 0 26.53 12.93 42.05 12.92 15.34 34.99 15.34 13.44 0 24.99-6.03 11.55-6.21 18.1-17.41 6.72-11.2 6.72-25.51m233.03 34.81q0 60.85-21.54 92.9-21.37 32.07-63.26 32.07t-62.91-31.89-21.03-93.08q0-62.56 20.34-93.76 20.51-31.2 64.64-31.2 42.91 0 63.25 31.54 20.51 31.55 20.51 93.42m-31.54 0q0-52.57-12.24-76.18-12.06-23.61-39.98-23.61-28.62 0-41.2 23.26-12.4 23.27-12.4 76.53 0 51.71 12.57 75.67 12.76 23.96 40.34 23.96 27.4 0 40.16-24.48 12.75-24.47 12.75-75.15m227.87 0q0 60.85-21.55 92.9-21.37 32.07-63.26 32.07t-62.9-31.89q-21.04-31.89-21.04-93.08 0-62.56 20.34-93.76 20.51-31.2 64.64-31.2 42.92 0 63.26 31.54 20.5 31.55 20.5 93.42m-31.55 0q0-52.57-12.23-76.18-12.07-23.61-40-23.61-28.6 0-41.19 23.26-12.4 23.27-12.4 76.53 0 51.71 12.58 75.67 12.75 23.96 40.33 23.96 27.4 0 40.16-24.48 12.75-24.47 12.75-75.15" aria-label="900" class="SVGTextShape" style="fill:#ececec;fill-opacity:1"/><path d="M347.89 498v-26.37h61.88V284.79l-54.81 39.12v-29.3l57.4-39.47h28.6v216.49h59.13V498Zm351.96-121.52q0 60.85-21.54 92.9-21.37 32.07-63.26 32.07t-62.91-31.89-21.03-93.08q0-62.56 20.34-93.76 20.51-31.2 64.64-31.2 42.91 0 63.25 31.54 20.51 31.55 20.51 93.42m-31.54 0q0-52.57-12.24-76.18-12.06-23.61-39.98-23.61-28.62 0-41.2 23.26-12.4 23.27-12.4 76.53 0 51.71 12.57 75.67 12.76 23.96 40.34 23.96 27.4 0 40.16-24.48 12.75-24.47 12.75-75.15m227.87 0q0 60.85-21.55 92.9-21.37 32.07-63.26 32.07t-62.9-31.89q-21.04-31.89-21.04-93.08 0-62.56 20.34-93.76 20.51-31.2 64.64-31.2 42.92 0 63.26 31.54 20.5 31.55 20.5 93.42m-31.55 0q0-52.57-12.23-76.18-12.07-23.61-40-23.61-28.6 0-41.19 23.26-12.4 23.27-12.4 76.53 0 51.71 12.58 75.67 12.75 23.96 40.33 23.96 27.4 0 40.16-24.48 12.75-24.47 12.75-75.15m227.88 0q0 60.85-21.55 92.9-21.37 32.07-63.25 32.07-41.89 0-62.92-31.89t-21.03-93.08q0-62.56 20.34-93.76 20.51-31.2 64.64-31.2 42.92 0 63.26 31.54 20.5 31.55 20.5 93.42m-31.54 0q0-52.57-12.24-76.18-12.07-23.61-40-23.61-28.6 0-41.19 23.26-12.4 23.27-12.4 76.53 0 51.71 12.58 75.67 12.75 23.96 40.33 23.96 27.4 0 40.16-24.48 12.76-24.47 12.76-75.15" aria-label="1000" class="SVGTextShape" style="fill:#ececec;fill-opacity:1"/></svg>