<svg xmlns="http://www.w3.org/2000/svg" width="400mm" height="98.9" viewBox="0 0 400 26.17"><g transform="translate(-37.546 -205.109)"><rect width="44.46" height="13.06" x="37.55" y="205.11" ry="2.77" style="fill:#4a96dc;fill-opacity:1;stroke:none;stroke-width:.221262"/><g aria-label="Update 1" style="font-size:10.5833px;line-height:52.9167px;letter-spacing:0;word-spacing:0;fill:#ececec;stroke-width:.264583px"><path d="M47.63 209.47h-1.78v4.34c0 1.35-.15 2.04-1.02 2.04-.86 0-1.01-.69-1.01-2.04v-4.34h-1.79v5c0 1.61.92 2.7 2.8 2.7s2.8-1.15 2.8-2.7zm4.41 1.57c-.54 0-1.13.24-1.6.84l-.07-.65h-1.52v8.17l1.71-.18v-2.64q.52.6 1.37.6c1.4 0 2.22-1.3 2.22-3.08 0-1.88-.6-3.06-2.11-3.06m-.53 1.26c.54 0 .87.38.87 1.82 0 1.3-.36 1.8-.97 1.8-.36 0-.6-.16-.85-.52v-2.43c.25-.41.55-.67.95-.67m7.13-3.54v2.81a1.8 1.8 0 0 0-1.3-.53c-1.43 0-2.3 1.28-2.3 3.06 0 1.85.68 3.08 2.11 3.08a1.9 1.9 0 0 0 1.6-.82l.08.63h1.52v-8.05zm-.85 3.53c.36 0 .61.18.85.48v2.48c-.25.41-.56.67-.94.67-.53 0-.9-.4-.9-1.81 0-1.3.4-1.82 1-1.82m8.93 3.04v-2.26c0-1.31-.8-2.03-2.52-2.03-.64 0-1.5.15-2.25.43l.4 1.14a6 6 0 0 1 1.58-.3q1.13-.01 1.14.88v.22h-.78c-1.78 0-2.8.7-2.8 1.96 0 1.06.75 1.8 1.94 1.8.72 0 1.46-.24 1.9-.77q.4.69 1.41.76l.36-1.13c-.28-.1-.38-.26-.38-.7m-2.7.62c-.48 0-.77-.26-.77-.7 0-.57.44-.87 1.4-.87h.42v.94c-.22.4-.68.63-1.05.63m9.55.71-.57-1.1q-.42.26-1.01.27c-.57 0-.82-.23-.82-.8v-2.62h1.68l.17-1.18h-1.85v-1.46l-1.72.21v1.25h-1.2v1.18h1.2v2.62c0 1.32.72 2.15 2.23 2.15.8 0 1.44-.23 1.89-.52m2.81-2.05h3.73c.02-.17.03-.42.03-.61 0-1.86-1.05-2.96-2.7-2.96-1.81 0-2.81 1.37-2.81 3.08 0 1.79 1.01 3.06 3 3.06.98 0 1.75-.33 2.3-.8l-.7-.93q-.67.47-1.47.48c-.73 0-1.27-.37-1.38-1.32m1.06-2.42c.73 0 1.02.55 1.03 1.39h-2.11c.07-.97.47-1.39 1.08-1.39m14.29 3.51v-6.23h-1.52l-2.42 1.48.72 1.17 1.55-.96v4.54h-1.81v1.3h4.89v-1.3z" style="font-weight:700;font-family:&quot;Fira Code&quot;;-inkscape-font-specification:&quot;Fira Code, Bold&quot;" transform="translate(9.764 53.341)scale(.73994)"/></g><rect width="44.46" height="13.06" x="120.9" y="205.11" ry="2.77" style="fill:#4a96dc;fill-opacity:1;stroke:none;stroke-width:.221262"/><g aria-label="Update 2" style="font-size:10.5833px;line-height:52.9167px;letter-spacing:0;word-spacing:0;fill:#ececec;stroke-width:.264583px"><path d="M160.39 209.47h-1.79v4.34c0 1.35-.15 2.04-1.01 2.04-.87 0-1.02-.69-1.02-2.04v-4.34h-1.78v5c0 1.61.92 2.7 2.8 2.7 1.86 0 2.8-1.15 2.8-2.7zm4.41 1.57a2 2 0 0 0-1.6.84l-.08-.65h-1.52v8.17l1.72-.18v-2.64q.52.6 1.37.6c1.4 0 2.21-1.3 2.21-3.08 0-1.88-.6-3.06-2.1-3.06m-.54 1.26c.55 0 .87.38.87 1.82 0 1.3-.36 1.8-.97 1.8-.36 0-.6-.16-.84-.52v-2.43c.25-.41.55-.67.94-.67m7.14-3.54v2.81a1.8 1.8 0 0 0-1.31-.53c-1.43 0-2.3 1.28-2.3 3.06 0 1.85.68 3.08 2.12 3.08a1.9 1.9 0 0 0 1.6-.82l.08.63h1.52v-8.05zm-.85 3.53c.35 0 .6.18.84.48v2.48c-.25.41-.56.67-.94.67-.52 0-.89-.4-.89-1.81 0-1.3.39-1.82.99-1.82m8.93 3.04v-2.26c0-1.31-.8-2.03-2.52-2.03-.64 0-1.5.15-2.24.43l.4 1.14a6 6 0 0 1 1.57-.3q1.13-.01 1.14.88v.22h-.78c-1.78 0-2.8.7-2.8 1.96 0 1.06.76 1.8 1.95 1.8.71 0 1.45-.24 1.9-.77q.4.69 1.4.76l.36-1.13c-.27-.1-.38-.26-.38-.7m-2.7.62c-.48 0-.76-.26-.76-.7 0-.57.43-.87 1.39-.87h.42v.94c-.21.4-.67.63-1.04.63m9.54.71-.57-1.1q-.4.26-1 .27c-.58 0-.83-.23-.83-.8v-2.62h1.69l.17-1.18h-1.86v-1.46l-1.71.21v1.25H181v1.18h1.2v2.62c0 1.32.72 2.15 2.23 2.15.8 0 1.44-.23 1.89-.52m2.82-2.05h3.74c.02-.17.03-.42.03-.61 0-1.86-1.06-2.96-2.7-2.96-1.82 0-2.82 1.37-2.82 3.08 0 1.79 1.02 3.06 3 3.06.98 0 1.76-.33 2.3-.8l-.69-.93q-.68.47-1.47.48c-.74 0-1.27-.37-1.39-1.32m1.07-2.42c.73 0 1.02.55 1.03 1.39h-2.12c.08-.97.47-1.39 1.09-1.39m12.71-2.91c-1.21 0-2 .5-2.57 1.29l1.05.79c.4-.53.78-.76 1.35-.76.65 0 1.01.38 1.01.99 0 .9-.78 1.8-3.26 4.19v1.21h5l.18-1.3h-3.2c2.28-2.05 3.03-3.03 3.03-4.25 0-1.15-.88-2.16-2.6-2.16" style="font-weight:700;font-family:&quot;Fira Code&quot;;-inkscape-font-specification:&quot;Fira Code, Bold&quot;" transform="translate(9.764 53.341)scale(.73994)"/></g><rect width="38.92" height="13.06" x="82.01" y="218.21" ry="2.77" style="fill:#4a9674;fill-opacity:1;stroke:none;stroke-width:.221262"/><rect width="38.92" height="13.06" x="120.93" y="218.21" ry="2.77" style="fill:#4a9674;fill-opacity:1;stroke:none;stroke-width:.221262"/><g aria-label="Extract" style="font-size:10.5833px;line-height:52.9167px;letter-spacing:0;word-spacing:0;fill:#ececec;stroke-width:.264583px"><path d="M104.45 228.45h2.96l.18-1.27h-4.92v7.52h4.92v-1.27h-3.14v-1.92h2.6v-1.25h-2.6zm5.82 6.25 1.1-2.15 1.14 2.15h1.94l-1.99-3.1 1.7-2.66h-1.83l-.89 1.84-.92-1.84h-1.92l1.79 2.73-1.98 3.03zm10.37-.33-.57-1.1q-.41.26-1.01.27c-.57 0-.82-.23-.82-.8v-2.62h1.69l.16-1.18h-1.85v-1.46l-1.72.21v1.25h-1.2v1.18h1.2v2.62c0 1.32.72 2.15 2.23 2.15.8 0 1.44-.23 1.89-.52m5.72-5.61c-.93 0-1.55.49-1.96 1.48l-.32-1.3h-2.07v1.14h.76v3.47h-.76v1.15h3.62v-1.15h-1.14v-1.65c.27-.86.78-1.5 1.43-1.62v1.07h1.07l.32-2.41q-.38-.17-.95-.18m6.97 4.28v-2.26c0-1.32-.8-2.03-2.52-2.03-.64 0-1.5.14-2.25.43l.4 1.14a6 6 0 0 1 1.58-.3q1.13-.01 1.14.88v.21h-.78c-1.78 0-2.8.72-2.8 1.96 0 1.07.75 1.82 1.94 1.82.72 0 1.46-.25 1.9-.78.27.47.73.69 1.41.76l.36-1.13c-.28-.1-.38-.26-.38-.7m-2.7.62q-.75-.02-.77-.7-.02-.86 1.4-.87h.42v.94c-.22.4-.68.63-1.05.63m7.41-.12c-.73 0-1.28-.4-1.28-1.68 0-1.3.52-1.8 1.3-1.8q.7.02 1.29.44l.74-1.03a3 3 0 0 0-2.1-.72c-1.86 0-3.02 1.3-3.02 3.1 0 1.81 1.12 3.04 2.98 3.04.9 0 1.63-.33 2.14-.76l-.76-1.09c-.41.29-.82.5-1.29.5m8.65.83-.57-1.1q-.4.26-1.01.27c-.57 0-.82-.23-.82-.8v-2.62h1.69l.16-1.18h-1.85v-1.46l-1.72.21v1.25h-1.2v1.18h1.2v2.62c0 1.32.72 2.15 2.23 2.15.8 0 1.44-.23 1.89-.52" style="font-weight:700;font-family:&quot;Fira Code&quot;;-inkscape-font-specification:&quot;Fira Code, Bold&quot;" transform="translate(9.764 53.341)scale(.73994)"/></g><g aria-label="Prepare" style="font-size:10.5833px;line-height:52.9167px;letter-spacing:0;word-spacing:0;fill:#ececec;stroke-width:.264583px"><path d="M159.09 229.63c0-1.65-1.17-2.45-3.22-2.45h-2.36v7.52h1.78v-2.5h.81c1.78 0 2.99-.82 2.99-2.57m-1.84 0c0 .89-.47 1.28-1.26 1.28h-.7v-2.46h.6q1.36-.01 1.36 1.18m7.25-.87q-1.36 0-1.96 1.48l-.32-1.3h-2.06v1.14h.76v3.47h-.76v1.15h3.61v-1.15h-1.14v-1.65c.27-.86.78-1.5 1.43-1.62v1.07h1.07l.32-2.41a2.4 2.4 0 0 0-.95-.18m3.6 3.56h3.74c.02-.17.03-.42.03-.61 0-1.86-1.06-2.96-2.7-2.96-1.82 0-2.82 1.37-2.82 3.08 0 1.79 1.02 3.06 3 3.06.98 0 1.76-.33 2.3-.8l-.69-.93q-.68.47-1.47.48c-.74 0-1.27-.38-1.39-1.32m1.07-2.42c.73 0 1.02.55 1.03 1.39h-2.12c.08-.97.47-1.4 1.09-1.4m7.15-1.14c-.54 0-1.13.24-1.6.83l-.07-.64h-1.52v8.17l1.71-.18v-2.65q.52.6 1.37.6c1.4 0 2.22-1.3 2.22-3.08 0-1.87-.6-3.05-2.11-3.05m-.53 1.26c.54 0 .87.38.87 1.82 0 1.3-.36 1.8-.97 1.8-.36 0-.6-.17-.85-.52v-2.43c.25-.41.55-.67.95-.67m8.71 3.03v-2.26c0-1.32-.81-2.03-2.53-2.03-.64 0-1.5.14-2.24.43l.4 1.14a6 6 0 0 1 1.57-.3q1.13-.01 1.14.88v.21h-.77c-1.78 0-2.8.72-2.8 1.96 0 1.07.75 1.82 1.94 1.82.72 0 1.45-.25 1.9-.78.26.47.73.69 1.41.76l.35-1.13c-.27-.1-.38-.26-.38-.7m-2.7.62q-.75-.02-.77-.7c0-.57.43-.87 1.39-.87h.42v.94c-.2.4-.67.63-1.04.63m8.77-4.9q-1.37 0-1.97 1.48l-.31-1.3h-2.07v1.14h.76v3.47h-.76v1.15h3.61v-1.15h-1.14v-1.65c.27-.86.78-1.5 1.43-1.62v1.07h1.07l.33-2.41a2.4 2.4 0 0 0-.95-.18m3.59 3.56h3.74c.02-.17.03-.42.03-.61 0-1.86-1.06-2.96-2.7-2.96-1.82 0-2.81 1.37-2.81 3.08 0 1.79 1.01 3.06 3 3.06.97 0 1.75-.33 2.3-.8l-.7-.93q-.68.47-1.47.48c-.74 0-1.27-.38-1.39-1.32m1.07-2.42c.73 0 1.02.55 1.03 1.39h-2.12c.08-.97.47-1.4 1.09-1.4" style="font-weight:700;font-family:&quot;Fira Code&quot;;-inkscape-font-specification:&quot;Fira Code, Bold&quot;" transform="translate(9.764 53.341)scale(.73994)"/></g><rect width="29.03" height="13.06" x="159.85" y="218.21" ry="2.77" style="fill:#4a9674;fill-opacity:1;stroke:none;stroke-width:.221262"/><g aria-label="Queue" style="font-size:10.5833px;line-height:52.9167px;letter-spacing:0;word-spacing:0;fill:#ececec;stroke-width:.264583px"><path d="M211.67 230.94c0-2.44-.98-3.95-2.95-3.95s-2.94 1.56-2.94 3.95c0 2.44.92 3.91 2.8 3.91 1.31 0 1.8.6 2.28 1.73l1.45-.5c-.4-1.21-1.05-1.61-2.23-1.8 1.2-.61 1.59-1.86 1.59-3.34m-1.86 0c0 1.82-.22 2.64-1.09 2.64-.83 0-1.1-.8-1.1-2.64 0-1.83.25-2.64 1.1-2.64s1.1.8 1.1 2.64m4.6-2h-1.72v4.16c0 1.1.54 1.79 1.65 1.79.7 0 1.38-.3 1.77-.86l.08.67h1.5v-5.76h-1.72v4.05c-.24.39-.62.63-.97.63-.37 0-.59-.18-.59-.74zm6.28 3.38h3.74c.02-.17.03-.42.03-.61 0-1.86-1.06-2.96-2.7-2.96-1.81 0-2.81 1.37-2.81 3.08 0 1.79 1.01 3.06 3 3.06.98 0 1.75-.33 2.3-.8l-.7-.93q-.68.47-1.47.48c-.73 0-1.27-.38-1.39-1.32m1.07-2.42c.73 0 1.02.55 1.03 1.39h-2.12c.08-.97.47-1.4 1.09-1.4m5.68-.95h-1.72v4.16c0 1.1.53 1.79 1.65 1.79.7 0 1.38-.3 1.77-.86l.08.67h1.5v-5.76H229v4.05c-.24.39-.63.63-.98.63-.37 0-.58-.18-.58-.74zm6.28 3.38h3.73a4 4 0 0 0 .04-.61c0-1.86-1.06-2.96-2.7-2.96-1.82 0-2.82 1.37-2.82 3.08 0 1.79 1.02 3.06 3 3.06.98 0 1.76-.33 2.3-.8l-.69-.93q-.69.47-1.48.48c-.73 0-1.27-.38-1.38-1.32m1.06-2.42c.74 0 1.02.55 1.04 1.39h-2.12c.07-.97.47-1.4 1.08-1.4" style="font-weight:700;font-family:&quot;Fira Code&quot;;-inkscape-font-specification:&quot;Fira Code, Bold&quot;" transform="translate(9.764 53.341)scale(.73994)"/></g><rect width="32.95" height="13.06" x="188.88" y="218.21" ry="2.77" style="fill:#4a9674;fill-opacity:1;stroke:none;stroke-width:.221262"/><g aria-label="Render" style="font-size:10.5833px;line-height:52.9167px;letter-spacing:0;word-spacing:0;fill:#ececec;stroke-width:.264583px"><path d="M250.76 229.46c0-1.55-1.05-2.28-3.1-2.28h-2.37v7.52h1.78v-2.87h.5l1.64 2.87h2.01l-1.97-3.17c.84-.33 1.5-.99 1.5-2.07m-1.84 0c0 .8-.41 1.14-1.18 1.14h-.67v-2.17h.6c.83 0 1.25.31 1.25 1.03m4.51 2.86h3.74c.02-.17.03-.42.03-.61 0-1.86-1.06-2.96-2.7-2.96-1.82 0-2.81 1.37-2.81 3.08 0 1.79 1.01 3.06 3 3.06.97 0 1.75-.33 2.3-.8l-.7-.93q-.68.47-1.47.48c-.74 0-1.27-.38-1.39-1.32m1.07-2.42c.73 0 1.02.55 1.03 1.39h-2.12c.08-.97.47-1.4 1.09-1.4m3.96 4.81h1.71v-4.03c.33-.41.65-.66 1.01-.66.43 0 .56.25.56.95v3.74h1.71v-4.23c0-1.1-.6-1.72-1.58-1.72-.74 0-1.28.28-1.8.86l-.11-.67h-1.5zm9.79-8.23v2.81a1.8 1.8 0 0 0-1.3-.53c-1.43 0-2.3 1.28-2.3 3.05 0 1.86.68 3.09 2.11 3.09a1.9 1.9 0 0 0 1.6-.82l.09.63h1.51v-8.05zm-.85 3.53c.36 0 .61.18.85.47v2.49c-.25.41-.56.67-.94.67-.53 0-.9-.4-.9-1.82 0-1.3.4-1.8 1-1.8m5.56 2.31h3.74c.02-.17.03-.42.03-.61 0-1.86-1.06-2.96-2.7-2.96-1.82 0-2.82 1.37-2.82 3.08 0 1.79 1.02 3.06 3 3.06.98 0 1.76-.33 2.3-.8l-.69-.93q-.68.47-1.47.48c-.74 0-1.27-.38-1.39-1.32m1.07-2.42c.73 0 1.02.55 1.03 1.39h-2.12c.08-.97.47-1.4 1.09-1.4m8.36-1.13c-.93 0-1.55.49-1.97 1.48l-.31-1.3h-2.07v1.14h.76v3.47h-.76v1.15h3.62v-1.15h-1.14v-1.65c.27-.86.77-1.5 1.42-1.62v1.07h1.08l.32-2.41q-.38-.17-.95-.18" style="font-weight:700;font-family:&quot;Fira Code&quot;;-inkscape-font-specification:&quot;Fira Code, Bold&quot;" transform="translate(9.764 53.341)scale(.73994)"/></g></g></svg>