<svg xmlns="http://www.w3.org/2000/svg" width="400mm" height="51.14" viewBox="0 0 400 13.53"><g transform="translate(-39.517 -57.948)"><rect width="46" height="13.51" x="39.52" y="57.96" ry="2.87" style="fill:#4a96dc;fill-opacity:1;stroke:none;stroke-width:.228914"/><g aria-label="Update 1" style="font-size:10.5833px;line-height:52.9167px;letter-spacing:0;word-spacing:0;fill:#ececec;stroke-width:.264583px"><path d="M49.6 62.33h-1.78v4.34c0 1.35-.15 2.04-1.02 2.04-.86 0-1.01-.69-1.01-2.04v-4.34H44v5c0 1.6.93 2.7 2.8 2.7s2.8-1.16 2.8-2.7zm4.41 1.57c-.54 0-1.13.23-1.6.83l-.07-.64h-1.52v8.16l1.71-.18v-2.64q.52.6 1.37.6c1.4 0 2.22-1.3 2.22-3.08 0-1.87-.6-3.05-2.1-3.05m-.53 1.26c.54 0 .87.38.87 1.81 0 1.3-.36 1.8-.97 1.8-.36 0-.6-.16-.85-.51v-2.43c.25-.41.55-.67.95-.67m7.12-3.54v2.8a1.8 1.8 0 0 0-1.3-.52c-1.43 0-2.3 1.28-2.3 3.05 0 1.86.68 3.08 2.11 3.08a1.9 1.9 0 0 0 1.6-.82l.09.64h1.52V61.8zm-.85 3.53c.36 0 .61.17.85.47v2.49c-.25.41-.56.66-.94.66-.52 0-.9-.39-.9-1.8 0-1.3.4-1.82 1-1.82m8.93 3.04v-2.26c0-1.32-.8-2.03-2.52-2.03-.64 0-1.5.14-2.25.42l.4 1.14a6 6 0 0 1 1.58-.3q1.13-.01 1.14.88v.22h-.78c-1.78 0-2.8.71-2.8 1.96 0 1.06.76 1.81 1.94 1.81.72 0 1.46-.25 1.9-.78.27.48.74.7 1.41.76l.36-1.13c-.27-.1-.38-.26-.38-.7m-2.7.62c-.48 0-.77-.26-.77-.7q-.02-.86 1.4-.87h.42v.93c-.21.4-.68.64-1.04.64m9.54.71-.57-1.09q-.4.24-1.01.26c-.57 0-.82-.22-.82-.8v-2.61h1.69l.16-1.18h-1.85v-1.46l-1.72.2v1.26h-1.2v1.18h1.2v2.61c0 1.33.72 2.15 2.23 2.15.8 0 1.44-.22 1.89-.52m2.81-2.04h3.73c.02-.18.03-.42.03-.62 0-1.85-1.05-2.95-2.7-2.95-1.81 0-2.81 1.37-2.81 3.07 0 1.8 1.02 3.06 3 3.06.98 0 1.75-.32 2.3-.79l-.7-.93q-.67.46-1.47.48c-.73 0-1.27-.38-1.38-1.32m1.06-2.42c.73 0 1.02.55 1.03 1.39h-2.11c.07-.97.47-1.4 1.08-1.4m14.29 3.51v-6.22H92.2l-2.42 1.47.72 1.18 1.55-.96v4.53h-1.81v1.3h4.89v-1.3z" style="font-weight:700;font-family:&quot;Fira Code&quot;;-inkscape-font-specification:&quot;Fira Code, Bold&quot;" transform="translate(9.266 13.591)scale(.76553)"/></g><rect width="56.6" height="13.51" x="85.51" y="57.95" ry="2.87" style="fill:#4a9674;fill-opacity:1;stroke:none;stroke-width:.228914"/><g aria-label="Render 1" style="font-size:10.5833px;line-height:52.9167px;letter-spacing:0;word-spacing:0;fill:#ececec;stroke-width:.264583px"><path d="M109.73 82.24c0-1.55-1.05-2.28-3.1-2.28h-2.37v7.52h1.78v-2.87h.5l1.64 2.87h2l-1.96-3.17c.84-.33 1.5-.99 1.5-2.07m-1.84 0c0 .8-.41 1.14-1.19 1.14h-.66v-2.17h.6c.82 0 1.25.31 1.25 1.03m4.52 2.86h3.73c.02-.17.03-.42.03-.61 0-1.86-1.06-2.96-2.7-2.96-1.82 0-2.81 1.37-2.81 3.08 0 1.79 1.01 3.06 3 3.06.97 0 1.75-.33 2.3-.8l-.7-.93q-.68.47-1.47.48c-.74 0-1.27-.38-1.39-1.32m1.06-2.42c.73 0 1.02.55 1.03 1.39h-2.12c.08-.97.47-1.4 1.09-1.4m3.97 4.81h1.71v-4.03c.33-.41.65-.66 1.01-.66.43 0 .56.25.56.95v3.74h1.71v-4.23c0-1.1-.6-1.72-1.58-1.72-.74 0-1.28.28-1.8.86l-.11-.67h-1.5zm9.78-8.23v2.81a1.8 1.8 0 0 0-1.3-.53c-1.42 0-2.3 1.28-2.3 3.05 0 1.86.69 3.09 2.12 3.09a1.9 1.9 0 0 0 1.6-.82l.08.63h1.52v-8.05Zm-.84 3.53c.36 0 .61.18.85.47v2.49c-.25.41-.56.67-.94.67-.53 0-.9-.4-.9-1.82 0-1.3.4-1.8 1-1.8m5.56 2.31h3.74c.02-.17.03-.42.03-.61 0-1.86-1.06-2.96-2.7-2.96-1.82 0-2.82 1.37-2.82 3.08 0 1.79 1.02 3.06 3 3.06.98 0 1.76-.33 2.3-.8l-.69-.93q-.68.47-1.47.48c-.74 0-1.27-.38-1.39-1.32m1.06-2.42c.74 0 1.03.55 1.04 1.39h-2.12c.08-.97.47-1.4 1.08-1.4m8.37-1.13c-.93 0-1.55.49-1.97 1.48l-.31-1.3H137v1.14h.76v3.47H137v1.15h3.62v-1.15h-1.14v-1.65c.27-.86.77-1.5 1.42-1.62v1.07h1.1l.32-2.41a2.4 2.4 0 0 0-.95-.18m12.43 4.64v-6.22h-1.52l-2.43 1.48.73 1.17 1.55-.96v4.53h-1.82v1.3h4.9v-1.3Z" style="font-weight:700;font-family:&quot;Fira Code&quot;;-inkscape-font-specification:&quot;Fira Code, Bold&quot;" transform="translate(14.502 .076)scale(.76553)"/></g><rect width="46" height="13.51" x="142.11" y="57.96" ry="2.87" style="fill:#4a96dc;fill-opacity:1;stroke:none;stroke-width:.228914"/><g aria-label="Update 2" style="font-size:10.5833px;line-height:52.9167px;letter-spacing:0;word-spacing:0;fill:#ececec;stroke-width:.264583px"><path d="M120.84 62.33h-1.78v4.34c0 1.35-.15 2.04-1.02 2.04-.86 0-1.01-.69-1.01-2.04v-4.34h-1.79v5c0 1.6.93 2.7 2.8 2.7s2.8-1.16 2.8-2.7zm4.41 1.57c-.54 0-1.13.23-1.6.83l-.07-.64h-1.52v8.16l1.72-.18v-2.64q.52.6 1.36.6c1.4 0 2.22-1.3 2.22-3.08 0-1.87-.6-3.05-2.1-3.05m-.53 1.26c.54 0 .87.38.87 1.81 0 1.3-.36 1.8-.97 1.8-.36 0-.6-.16-.84-.51v-2.43c.25-.41.54-.67.94-.67m7.12-3.54v2.8a1.8 1.8 0 0 0-1.3-.52c-1.43 0-2.3 1.28-2.3 3.05 0 1.86.68 3.08 2.11 3.08a1.9 1.9 0 0 0 1.6-.82l.09.64h1.52V61.8zm-.85 3.53c.36 0 .61.17.85.47v2.49c-.25.41-.56.66-.94.66-.52 0-.9-.39-.9-1.8 0-1.3.4-1.82 1-1.82m8.93 3.04v-2.26c0-1.32-.8-2.03-2.52-2.03-.64 0-1.5.14-2.25.42l.4 1.14a6 6 0 0 1 1.58-.3q1.13-.01 1.14.88v.22h-.78c-1.78 0-2.8.71-2.8 1.96 0 1.06.76 1.81 1.94 1.81.72 0 1.46-.25 1.9-.78.27.48.74.7 1.42.76l.35-1.13c-.27-.1-.38-.26-.38-.7m-2.7.62c-.48 0-.76-.26-.76-.7 0-.57.43-.87 1.38-.87h.43v.93c-.21.4-.67.64-1.04.64m9.54.71-.57-1.09q-.4.24-1.01.26c-.57 0-.82-.22-.82-.8v-2.61h1.69l.16-1.18h-1.85v-1.46l-1.72.2v1.26h-1.2v1.18h1.2v2.61c0 1.33.72 2.15 2.23 2.15.8 0 1.44-.22 1.89-.52m2.81-2.04h3.73c.02-.18.04-.42.04-.62 0-1.85-1.06-2.95-2.7-2.95-1.82 0-2.82 1.37-2.82 3.07 0 1.8 1.02 3.06 3 3.06.98 0 1.76-.32 2.3-.79l-.7-.93q-.68.46-1.47.48c-.73 0-1.27-.38-1.38-1.32m1.06-2.42c.74 0 1.02.55 1.03 1.39h-2.11c.07-.97.47-1.4 1.08-1.4m12.71-2.9c-1.2 0-2 .5-2.56 1.28l1.05.8c.39-.54.78-.76 1.35-.76.65 0 1.01.38 1.01.98 0 .9-.79 1.8-3.26 4.2v1.2h5l.18-1.3h-3.21c2.28-2.04 3.04-3.03 3.04-4.25 0-1.15-.88-2.15-2.6-2.15" style="font-weight:700;font-family:&quot;Fira Code&quot;;-inkscape-font-specification:&quot;Fira Code, Bold&quot;" transform="translate(57.319 13.591)scale(.76553)"/></g><rect width="52.17" height="13.51" x="188.11" y="57.95" ry="2.87" style="fill:#4a9674;fill-opacity:1;stroke:none;stroke-width:.228914"/><g aria-label="Render 2" style="font-size:10.5833px;line-height:52.9167px;letter-spacing:0;word-spacing:0;fill:#ececec;stroke-width:.264583px"><path d="M183.67 82.24c0-1.55-1.05-2.28-3.1-2.28h-2.37v7.52h1.78v-2.87h.5l1.64 2.87h2l-1.96-3.17c.84-.33 1.5-.99 1.5-2.07m-1.84 0c0 .8-.41 1.14-1.19 1.14h-.66v-2.17h.6c.82 0 1.25.31 1.25 1.03m4.51 2.86h3.74c.02-.17.03-.42.03-.61 0-1.86-1.06-2.96-2.7-2.96-1.82 0-2.81 1.37-2.81 3.08 0 1.79 1.01 3.06 3 3.06.97 0 1.75-.33 2.3-.8l-.7-.93q-.68.47-1.47.48c-.74 0-1.27-.38-1.39-1.32m1.07-2.42c.73 0 1.02.55 1.03 1.39h-2.12c.08-.97.47-1.4 1.09-1.4m3.96 4.81h1.71v-4.03c.33-.41.65-.66 1.01-.66.43 0 .56.25.56.95v3.74h1.71v-4.23c0-1.1-.6-1.72-1.58-1.72-.74 0-1.28.28-1.8.86l-.11-.67h-1.5zm9.79-8.23v2.81a1.8 1.8 0 0 0-1.3-.53c-1.43 0-2.3 1.28-2.3 3.05 0 1.86.68 3.09 2.11 3.09a1.9 1.9 0 0 0 1.6-.82l.08.63h1.52v-8.05Zm-.85 3.53c.36 0 .61.18.85.47v2.49c-.25.41-.56.67-.94.67-.53 0-.9-.4-.9-1.82 0-1.3.4-1.8 1-1.8m5.56 2.31h3.74c.02-.17.03-.42.03-.61 0-1.86-1.06-2.96-2.7-2.96-1.82 0-2.82 1.37-2.82 3.08 0 1.79 1.02 3.06 3 3.06.98 0 1.76-.33 2.3-.8l-.69-.93q-.68.47-1.47.48c-.74 0-1.27-.38-1.39-1.32m1.06-2.42c.74 0 1.03.55 1.04 1.39h-2.12c.08-.97.47-1.4 1.08-1.4m8.37-1.13c-.93 0-1.55.49-1.97 1.48l-.31-1.3h-2.07v1.14h.76v3.47h-.76v1.15h3.62v-1.15h-1.14v-1.65c.27-.86.77-1.5 1.42-1.62v1.07h1.08l.32-2.41a2.4 2.4 0 0 0-.95-.18m10.86-1.77c-1.21 0-2 .5-2.57 1.29l1.05.79c.4-.53.79-.76 1.36-.76.64 0 1 .38 1 .99 0 .9-.78 1.8-3.26 4.19v1.21h5l.19-1.3h-3.22c2.29-2.05 3.04-3.03 3.04-4.26 0-1.15-.88-2.15-2.6-2.15" style="font-weight:700;font-family:&quot;Fira Code&quot;;-inkscape-font-specification:&quot;Fira Code, Bold&quot;" transform="translate(58.36 .076)scale(.76553)"/></g><rect width="46" height="13.51" x="240.21" y="57.96" ry="2.87" style="fill:#4a96dc;fill-opacity:1;stroke:none;stroke-width:.228914"/><g aria-label="Update 3" style="font-size:10.5833px;line-height:52.9167px;letter-spacing:0;word-spacing:0;fill:#ececec;stroke-width:.264583px"><path d="M189.87 62.33h-1.78v4.34c0 1.35-.15 2.04-1.02 2.04-.86 0-1.01-.69-1.01-2.04v-4.34h-1.79v5c0 1.6.93 2.7 2.8 2.7s2.8-1.16 2.8-2.7zm4.41 1.57c-.54 0-1.13.23-1.6.83l-.07-.64h-1.52v8.16l1.71-.18v-2.64q.52.6 1.37.6c1.4 0 2.22-1.3 2.22-3.08 0-1.87-.6-3.05-2.1-3.05m-.53 1.26c.54 0 .87.38.87 1.81 0 1.3-.36 1.8-.97 1.8-.36 0-.6-.16-.85-.51v-2.43c.25-.41.55-.67.95-.67m7.12-3.54v2.8a1.8 1.8 0 0 0-1.3-.52c-1.43 0-2.3 1.28-2.3 3.05 0 1.86.68 3.08 2.11 3.08a1.9 1.9 0 0 0 1.6-.82l.09.64h1.52V61.8zm-.85 3.53c.36 0 .61.17.85.47v2.49c-.25.41-.56.66-.94.66-.53 0-.9-.39-.9-1.8 0-1.3.4-1.82 1-1.82m8.93 3.04v-2.26c0-1.32-.8-2.03-2.52-2.03-.64 0-1.5.14-2.25.42l.4 1.14a6 6 0 0 1 1.58-.3q1.13-.01 1.14.88v.22h-.78c-1.78 0-2.8.71-2.8 1.96 0 1.06.75 1.81 1.94 1.81.72 0 1.46-.25 1.9-.78.27.48.74.7 1.41.76l.36-1.13c-.27-.1-.38-.26-.38-.7m-2.7.62c-.48 0-.77-.26-.77-.7q-.02-.86 1.4-.87h.42v.93c-.21.4-.68.64-1.04.64m9.54.71-.57-1.09q-.4.24-1.01.26c-.57 0-.82-.22-.82-.8v-2.61h1.69l.16-1.18h-1.85v-1.46l-1.72.2v1.26h-1.2v1.18h1.2v2.61c0 1.33.72 2.15 2.23 2.15.8 0 1.44-.22 1.89-.52m2.81-2.04h3.73c.02-.18.03-.42.03-.62 0-1.85-1.05-2.95-2.7-2.95-1.81 0-2.81 1.37-2.81 3.07 0 1.8 1.01 3.06 3 3.06.98 0 1.75-.32 2.3-.79l-.7-.93q-.67.46-1.47.48c-.73 0-1.27-.38-1.38-1.32m1.06-2.42c.73 0 1.02.55 1.03 1.39h-2.11c.07-.97.47-1.4 1.08-1.4m12.67-2.9q-1.56.01-2.57 1.01l.88.91c.42-.4.9-.65 1.5-.65.64 0 1.09.35 1.09.91 0 .66-.47.99-1.13.99h-.5l-.19 1.18h.69c.8 0 1.27.33 1.27 1.12 0 .72-.52 1.11-1.26 1.11a2 2 0 0 1-1.57-.72l-.97.9a3.4 3.4 0 0 0 2.65 1.13c1.8 0 2.9-1.03 2.9-2.3 0-1.21-.73-1.72-1.77-1.86.93-.27 1.54-.85 1.54-1.8 0-1.06-.94-1.93-2.56-1.93" style="font-weight:700;font-family:&quot;Fira Code&quot;;-inkscape-font-specification:&quot;Fira Code, Bold&quot;" transform="translate(102.666 13.591)scale(.76553)"/></g></g></svg>