<svg xmlns="http://www.w3.org/2000/svg" width="314.41" height="257.94"><g style="display:inline"><path d="m113.3 279.67 39.82 120.8 115.22 31.25-28.74-129.9z" style="fill:#ccc;fill-opacity:.559471;stroke:#ececec;stroke-width:1.79593;stroke-linecap:round;stroke-linejoin:round;stroke-miterlimit:4;stroke-dasharray:none;stroke-opacity:1" transform="translate(4.11 -252.43)"/><path d="M-105 422h25v20h-25z" style="fill:#ececec;fill-opacity:1;stroke-width:1;stroke-linecap:round;stroke-linejoin:round;stroke-miterlimit:4;stroke-dasharray:none" transform="rotate(-37.79 -37.496 158.731)scale(.59864)"/><path d="m-75 432 15-8.66v17.32z" style="fill:#ececec;fill-opacity:1;stroke-width:1;stroke-linecap:round;stroke-linejoin:round;stroke-miterlimit:4;stroke-dasharray:none" transform="rotate(-37.79 -35.101 165.727)scale(.59864)"/></g><g style="display:inline"><path d="m17.5 492.19 107.76-239.46M17.5 492.19 188.77 376M17.5 492.19l292.5-70.7" style="fill:none;stroke:#ececec;stroke-width:.598645px;stroke-linecap:round;stroke-linejoin:round;stroke-opacity:1" transform="translate(4.11 -252.43)"/></g><g style="display:inline"><path d="m56.42 405.98 56.87-126.31 126.31 22.15L97.73 423.34Z" style="fill:#055dc0;fill-opacity:.55947101;stroke:#ececec;stroke-width:1.79593;stroke-linecap:round;stroke-linejoin:round;stroke-miterlimit:4;stroke-dasharray:none;stroke-opacity:1" transform="translate(4.11 -252.43)"/><path d="m268.34 431.72-28.74-129.9L97.73 423.34l16.16 46.1Z" style="fill:#459afa;fill-opacity:.56078434;stroke:#ececec;stroke-width:1.79593;stroke-linecap:round;stroke-linejoin:round;stroke-miterlimit:4;stroke-dasharray:none;stroke-opacity:1" transform="translate(4.11 -252.43)"/><path d="m56.42 405.98 41.3 17.36 16.17 46.1-41.13-14.73z" style="fill:#022d5c;fill-opacity:.56078434;stroke:#ececec;stroke-width:1.79593;stroke-linecap:round;stroke-linejoin:round;stroke-miterlimit:4;stroke-dasharray:none;stroke-opacity:1" transform="translate(4.11 -252.43)"/><path d="m17.5 492.19 262.8-225.2" style="display:inline;fill:none;stroke:#ececec;stroke-width:.598645px;stroke-linecap:round;stroke-linejoin:round;stroke-opacity:1" transform="translate(4.11 -252.43)"/></g></svg>