<svg xmlns="http://www.w3.org/2000/svg" width="582.36" height="161.88" viewBox="0 0 154.08 42.83"><g style="fill:#787878;fill-opacity:1;stroke-width:.755906;stroke-miterlimit:4;stroke-dasharray:none"><g style="fill:#787878;fill-opacity:1"><path d="M2246.03 2340.2h-.05a38 38 0 0 0-1.88 10.19c-.27 7.12.45 11.46-.37 16.08s-3.24 9.16-9.41 16.28c-7.34 8.49-18.98 15.05-32.42 17.27a70 70 0 0 1-7.92 4.36c10.46 3.94 21.4 4.15 30.08 1.3 15.28-5 14.1-8.6 20.94-19.1a35 35 0 0 1 7.15-7.9c7.12 3.1 14.14 5.1 18.51 4.6 2.35-5.44-.05-11.76-4.05-17.74 3.28-10.2-1.7-20.4-12.74-24.01a24 24 0 0 0-7.84-1.34zm8.28 14.96a4.17 4.25 48.68 0 1 3.2 1.4 4.17 4.25 48.68 0 1-.44 5.93 4.17 4.25 48.68 0 1-5.94-.32 4.17 4.25 48.68 0 1 .43-5.94 4.17 4.25 48.68 0 1 2.75-1.07m-68.38 45.38.39.22.4-.15z" style="fill:#787878;fill-opacity:1;stroke:none;stroke-width:.559814px;stroke-linecap:butt;stroke-linejoin:miter;stroke-opacity:1" transform="translate(-644.768 -704.477)scale(.30942)"/></g></g><g style="fill:#ececec;fill-opacity:1;stroke:none;stroke-width:.755906;stroke-miterlimit:4;stroke-dasharray:none;stroke-opacity:1"><g style="opacity:1;fill:#ececec;fill-opacity:1"><path d="M2191.15 2276.78c-5.98-.03-12.1 2.35-17.36 7.46-6.92 6.71-9.07 12.76-7.85 20.3l.33 2.07-2.07-.34c-15.18-2.46-33.98-1.22-55.37 7.43 6.29 2.7 17.83 7.2 30.63 13.34l4.06 1.96-4.41.9c-16.9 3.42-36.97 13.32-55.3 34.92 8.2-.63 24.95-2.6 42.43-2.58 9.71.02 19.29.69 27.08 2.71 7.8 2.02 14.9 6.65 15.89 10.04 1 3.4.43 5.18-.55 7.83-.99 2.65-4.01 6.68-8.2 9.34s-9.5 4.99-15.01 6.96c-11.04 3.96-22.78 6.48-27.97 6.96-1.1.1-1.54.5-1.96 1.27a8 8 0 0 0-.7 3.25c-.04 1.7.22 2.58.7 3.25s1.22.94 2 .99c32.57 2.2 56.94-6 74.63-13.01 20.35-9.33 33.21-27.76 36-44.35 1.76-10.4 1.38-15.5-.3-19.83-1.7-4.34-4.93-8.2-9.03-15.55a48 48 0 0 1-5.02-13.69l-.2-.9.73-.59c7.54-6.04 13.68-12.64 15.91-17.45-4.57-4.86-12.48-5.89-21.32-4.94l-.73.07-.5-.52c-4.72-4.8-10.57-7.26-16.54-7.3m2.64 11.24a5.6 5.6 0 0 1 5.5 4.32 5.6 5.6 0 0 1-4.04 6.77 5.6 5.6 0 0 1-6.7-4.17 5.58 5.58 0 0 1 5.24-6.92" style="color:#000;font-style:normal;font-variant:normal;font-weight:400;font-stretch:normal;font-size:medium;line-height:normal;font-family:sans-serif;font-variant-ligatures:normal;font-variant-position:normal;font-variant-caps:normal;font-variant-numeric:normal;font-variant-alternates:normal;font-variant-east-asian:normal;font-feature-settings:normal;font-variation-settings:normal;text-indent:0;text-align:start;text-decoration:none;text-decoration-line:none;text-decoration-style:solid;text-decoration-color:#000;letter-spacing:normal;word-spacing:normal;text-transform:none;writing-mode:lr-tb;direction:ltr;text-orientation:mixed;dominant-baseline:auto;baseline-shift:baseline;text-anchor:start;white-space:normal;shape-padding:0;shape-margin:0;inline-size:0;clip-rule:nonzero;display:inline;overflow:visible;visibility:visible;isolation:auto;mix-blend-mode:normal;color-interpolation:sRGB;color-interpolation-filters:linearRGB;solid-color:#000;solid-opacity:1;vector-effect:none;fill:#ececec;fill-opacity:1;fill-rule:nonzero;stroke:none;stroke-width:3.02362;stroke-linecap:butt;stroke-linejoin:miter;stroke-miterlimit:4;stroke-dasharray:none;stroke-dashoffset:0;stroke-opacity:1;color-rendering:auto;image-rendering:auto;shape-rendering:auto;text-rendering:auto;stop-color:#000;stop-opacity:1" transform="translate(-644.768 -704.477)scale(.30942)"/></g></g><g style="fill:#b2b2b2;fill-opacity:1;stroke-width:.755906;stroke-miterlimit:4;stroke-dasharray:none"><g style="fill:#b2b2b2;fill-opacity:1"><g style="opacity:1;fill:#b2b2b2;fill-opacity:1"><path d="M2230.9 2301.17q-2.89-.06-5.98.64l-.4.1a110 110 0 0 1-7.53 6.72 44 44 0 0 0 4.47 12c3.99 7.15 7.27 10.96 9.2 15.92s2.27 10.8.48 21.43c-2.22 13.18-10.24 27.13-22.96 37.43 9.87-2.88 18.28-8.19 23.86-14.62 6-6.95 8.01-10.88 8.72-14.84.7-3.96.04-8.3.32-15.66.18-4.75 1.2-8.9 2.48-12.55l.3-.87.93-.13c8.23-1.06 15.66-3.16 19.5-5.64-1.23-5.56-6.47-9.86-13.42-13.14l-.66-.31-.17-.71c-2.2-9.47-9.59-15.57-19.15-15.77m4.78 11.69a4.82 4.91 17.73 0 1 1.44.22 4.82 4.91 17.73 0 1 3.1 6.15 4.82 4.91 17.73 0 1-6.09 3.22 4.82 4.91 17.73 0 1-3.1-6.15 4.82 4.91 17.73 0 1 4.65-3.44" style="color:#000;font-style:normal;font-variant:normal;font-weight:400;font-stretch:normal;font-size:medium;line-height:normal;font-family:sans-serif;font-variant-ligatures:normal;font-variant-position:normal;font-variant-caps:normal;font-variant-numeric:normal;font-variant-alternates:normal;font-variant-east-asian:normal;font-feature-settings:normal;font-variation-settings:normal;text-indent:0;text-align:start;text-decoration:none;text-decoration-line:none;text-decoration-style:solid;text-decoration-color:#000;letter-spacing:normal;word-spacing:normal;text-transform:none;writing-mode:lr-tb;direction:ltr;text-orientation:mixed;dominant-baseline:auto;baseline-shift:baseline;text-anchor:start;white-space:normal;shape-padding:0;shape-margin:0;inline-size:0;clip-rule:nonzero;display:inline;overflow:visible;visibility:visible;isolation:auto;mix-blend-mode:normal;color-interpolation:sRGB;color-interpolation-filters:linearRGB;solid-color:#000;solid-opacity:1;vector-effect:none;fill:#b2b2b2;fill-opacity:1;fill-rule:nonzero;stroke:none;stroke-width:3.02362;stroke-linecap:butt;stroke-linejoin:miter;stroke-miterlimit:4;stroke-dasharray:none;stroke-dashoffset:0;stroke-opacity:1;color-rendering:auto;image-rendering:auto;shape-rendering:auto;text-rendering:auto;stop-color:#000;stop-opacity:1" transform="translate(-644.768 -704.477)scale(.30942)"/></g></g></g><g aria-label="BEVY" style="font-style:normal;font-weight:400;font-size:10.3007px;line-height:1.25;font-family:sans-serif;letter-spacing:0;word-spacing:0;fill:#ececec;fill-opacity:1;stroke:none;stroke-width:.257517;stroke-miterlimit:4;stroke-dasharray:none"><path d="M87.4 202.26q.34.1.89.15l1.03.02q.99 0 1.63-.39.66-.42.66-1.28 0-.81-.54-1.16t-1.65-.34H87.4zm0-6h1.8q1.06 0 1.53-.4.49-.4.49-1.16 0-.67-.57-1.06-.54-.4-1.65-.4-.37 0-.86.03-.47.03-.74.07zm1.6 9.48q-.42 0-.98-.03t-1.19-.1q-.59-.07-1.18-.2-.59-.1-1.08-.29-1.36-.52-1.36-1.8v-11.5q0-.52.27-.8.3-.29.8-.46.83-.3 2.09-.42 1.25-.15 2.58-.15 3.15 0 4.85 1.06t1.7 3.28q0 1.1-.64 1.92-.64.79-1.72 1.16 1.23.34 2.04 1.26.84.9.84 2.29 0 2.44-1.82 3.62-1.8 1.16-5.2 1.16m7.48-13.04q0-1.05.62-1.67.61-.62 1.67-.62h8.13q.17.27.3.72.14.44.14.93 0 .94-.42 1.33-.39.4-1.05.4h-5.2v2.29h5.54q.17.27.3.71.14.42.14.91 0 .94-.39 1.34-.4.39-1.06.39h-4.53v2.59H107q.17.27.3.71.14.44.14.94 0 .93-.42 1.35-.4.4-1.06.4h-7.19q-1.06 0-1.67-.62-.62-.62-.62-1.68zm21.36 12.15q-.34.3-1.08.52-.72.22-1.58.22-1.03 0-1.77-.3-.74-.32-1.01-.86l-.67-1.45q-.4-.91-.83-2.02l-.9-2.34q-.44-1.26-.85-2.54-.42-1.28-.8-2.51-.36-1.24-.63-2.32.34-.34.98-.61.67-.3 1.4-.3.92 0 1.48.4.6.36.87 1.4.66 2.41 1.33 4.63l1.43 4.58h.14q.67-2.31 1.36-5.05.71-2.73 1.35-5.44.45-.22.94-.37.52-.15 1.16-.15.9 0 1.55.42.64.4.64 1.33 0 .54-.27 1.58-.25 1.03-.67 2.34-.4 1.28-.9 2.68t-1.02 2.66q-.49 1.23-.93 2.2-.45.93-.72 1.3m14.15.39q-.28.08-.84.15-.57.07-1.11.07-1.13 0-1.7-.37-.57-.39-.57-1.62v-3.33q-.61-.9-1.33-2.02-.71-1.1-1.4-2.26-.7-1.16-1.28-2.27-.6-1.13-.96-2.07.32-.44.86-.81.57-.37 1.38-.37.96 0 1.55.4.62.39 1.16 1.47l2.04 4.12h.15q.35-.77.6-1.38l.5-1.26.53-1.3.61-1.58q.45-.22.99-.35t1.03-.12q.86 0 1.46.47.61.44.61 1.35 0 .3-.12.72-.13.42-.57 1.28-.44.84-1.3 2.29-.84 1.45-2.3 3.8z" style="font-style:normal;font-variant:normal;font-weight:400;font-stretch:normal;font-size:21.9748px;font-family:&quot;Baloo Bhaijaan&quot;;-inkscape-font-specification:&quot;Baloo Bhaijaan, Normal&quot;;font-variant-ligatures:normal;font-variant-caps:normal;font-variant-numeric:normal;font-feature-settings:normal;text-align:start;writing-mode:lr-tb;text-anchor:start;fill:#ececec;fill-opacity:1;stroke-width:.288674" transform="matrix(1.70884 0 0 1.80391 -78.782 -340.946)"/></g><g aria-label="FOUNDATION" style="font-weight:900;font-size:12.3878px;font-family:&quot;Fira Sans&quot;;-inkscape-font-specification:&quot;Fira Sans, Heavy&quot;;fill:#b2b2b2;stroke-width:1.54848;paint-order:fill markers stroke"><path d="M79.42 161.7q-.14 0-.23-.1-.1-.1-.1-.24v-8q0-.14.1-.24t.23-.1h6.24q.14 0 .24.1t.1.24v1.88q0 .14-.1.24t-.24.1h-3.54v.91h3.3q.13 0 .23.1t.1.24v1.87q0 .13-.1.23t-.23.1h-3.3v2.33q0 .14-.1.23-.1.1-.23.1zm11.52.12q-1.21 0-2.13-.37-.9-.38-1.44-1.12-.52-.75-.57-1.86v-2.17q.05-1.1.57-1.85.52-.76 1.44-1.16t2.13-.4 2.13.4 1.44 1.16q.53.75.57 1.84.02.54.02 1.1t-.02 1.08q-.05 1.1-.58 1.86-.52.74-1.44 1.12-.9.37-2.12.37m0-2.42q.41 0 .66-.23.25-.25.26-.77l.02-1.05q0-.52-.02-1.03-.01-.35-.14-.57-.1-.23-.3-.32-.2-.12-.48-.12-.26 0-.47.12-.2.1-.32.32t-.12.57q-.02.5-.02 1.03l.02 1.05q.02.52.26.77.24.23.65.23m9.23 2.42q-1.19 0-2.1-.36t-1.42-1.12-.5-1.92v-5.06q0-.14.1-.24t.23-.1h2.43q.13 0 .23.1t.1.24v5.01q0 .46.22.71.24.25.7.25t.68-.25.23-.7v-5.02q0-.14.1-.24t.24-.1h2.43q.13 0 .23.1t.1.24v5.06q0 1.17-.5 1.92-.51.76-1.42 1.12t-2.08.36m5.63-.12q-.14 0-.24-.1t-.1-.24v-8q0-.14.1-.24t.23-.1h1.96q.25 0 .36.11l.15.18 2.1 3.43v-3.38q0-.14.1-.24t.23-.1h2.24q.14 0 .24.1t.1.24v8q0 .14-.1.23-.1.1-.24.1h-1.96q-.24 0-.36-.1l-.15-.18-2.09-3.16v3.1q0 .15-.1.24-.1.1-.23.1zm9.16 0q-.13 0-.23-.1t-.1-.24v-8q0-.14.1-.24t.23-.1h3.57q1.16 0 2.08.4.92.38 1.46 1.14.56.75.6 1.87l.02.94-.02.9q-.05 1.17-.57 1.94-.52.75-1.43 1.12-.89.36-2.08.36zm2.76-2.42h.8q.28 0 .5-.1t.35-.34q.14-.22.15-.57.03-.35.03-.64v-.57q0-.3-.03-.63-.02-.52-.33-.76-.3-.23-.72-.23h-.75zm5.44 2.42q-.1 0-.2-.08-.07-.09-.07-.2l.01-.09 2.76-7.9q.04-.14.18-.27.13-.14.38-.14h2.69q.25 0 .38.14.14.13.18.27l2.76 7.9.01.1q0 .1-.08.19-.08.07-.19.07h-2.3q-.23 0-.34-.1-.1-.1-.13-.2l-.3-.82h-2.67l-.3.81q-.03.1-.13.21t-.35.1zm3.7-3.55h1.4l-.7-2.3zm7.46 3.55q-.13 0-.23-.1t-.1-.24v-5.67h-2.06q-.13 0-.23-.1t-.1-.24v-2q0-.13.1-.23t.23-.1h7.26q.14 0 .24.1t.1.24v2q0 .13-.1.23t-.24.1h-2.05v5.67q0 .14-.1.23-.1.1-.24.1zm6.43 0q-.13 0-.23-.1t-.1-.24v-8q0-.14.1-.24t.23-.1h2.53q.14 0 .24.1t.1.24v8q0 .14-.1.23-.1.1-.24.1zm8.15.12q-1.22 0-2.14-.37-.9-.38-1.44-1.12-.52-.75-.57-1.86v-2.17q.05-1.1.57-1.85.52-.76 1.44-1.16t2.13-.4 2.13.4 1.44 1.16.57 1.84q.02.54.02 1.1t-.02 1.08q-.05 1.1-.58 1.86-.52.74-1.44 1.12-.9.37-2.12.37m0-2.42q.4 0 .65-.23.25-.25.26-.77l.02-1.05q0-.52-.02-1.03-.01-.35-.14-.57-.1-.23-.3-.32-.2-.12-.48-.12-.26 0-.47.12-.2.1-.32.32t-.12.57q-.02.5-.02 1.03l.02 1.05q.02.52.26.77.24.23.65.23m5.62 2.3q-.13 0-.23-.1t-.1-.24v-8q0-.14.1-.24t.23-.1h1.96q.25 0 .36.11l.15.18 2.1 3.43v-3.38q0-.14.1-.24.09-.1.23-.1h2.24q.14 0 .23.1.1.1.1.24v8q0 .14-.1.23-.1.1-.23.1h-1.96q-.25 0-.36-.1l-.15-.18-2.09-3.16v3.1q0 .15-.1.24-.1.1-.23.1z" style="font-weight:400;font-family:Rubik;-inkscape-font-specification:&quot;Rubik, @wght=900&quot;;font-variation-settings:&quot;wght&quot;900" transform="translate(-15.207 -120.613)"/></g></svg>